<svg viewBox="0 0 108 108" xmlns="http://www.w3.org/2000/svg">
<path d="M94.4998 0H26.0998C22.1234 0 18.8998 3.22357 18.8998 7.2V68.4H17.0998C16.1058 68.4 15.2998 69.2059 15.2998 70.2V72H6.2998V75.6H15.2998V100.8H6.2998V104.4H15.2998V106.2C15.2998 107.194 16.1058 108 17.0998 108H35.0998C36.0939 108 36.8998 107.194 36.8998 106.2V104.4H41.8804C46.7663 106.763 52.1222 107.993 57.5494 108H77.3998C79.8246 107.991 82.0287 106.591 83.068 104.4H94.4998C98.4762 104.4 101.7 101.176 101.7 97.2V7.2C101.7 3.22357 98.4762 0 94.4998 0ZM33.2998 104.4H18.8998V72H33.2998V104.4ZM77.3998 81C78.8909 81 80.0998 82.2089 80.0998 83.7C80.0998 85.1911 78.8909 86.4 77.3998 86.4H72.8998V90H77.3998C78.8909 90 80.0998 91.2089 80.0998 92.7C80.0998 94.1911 78.8909 95.4 77.3998 95.4H72.8998V99H77.3998C78.8909 99 80.0998 100.209 80.0998 101.7C80.0998 103.191 78.8909 104.4 77.3998 104.4H57.5494C52.5348 104.392 47.5905 103.221 43.1044 100.98C42.8538 100.858 42.5784 100.797 42.2998 100.8H36.8998V75.6H42.2998C42.7363 75.6 43.1577 75.4414 43.486 75.1536L46.7152 72.3294C53.4866 66.4353 56.7345 57.4627 55.3048 48.6H55.6648C58.6233 48.5912 61.2054 50.6034 61.9198 53.4744C63.1645 58.4122 62.8117 63.6176 60.9118 68.3424L60.8812 68.4H56.6998V72H77.3998C78.8909 72 80.0998 73.2089 80.0998 74.7C80.0998 76.1911 78.8909 77.4 77.3998 77.4H72.8998V81H77.3998ZM98.0998 97.2C98.0998 99.1883 96.4881 100.8 94.4998 100.8H83.608C83.417 99.4331 82.7798 98.1675 81.7954 97.2C84.2808 94.7891 84.3411 90.8201 81.9302 88.3348C81.8859 88.2891 81.8411 88.2443 81.7954 88.2C84.2808 85.7891 84.3411 81.8201 81.9302 79.3348C81.8859 79.2891 81.8411 79.2443 81.7954 79.2C84.2857 76.7772 84.3404 72.7943 81.9174 70.3039C80.7309 69.0844 79.101 68.3975 77.3998 68.4H64.7026C66.4713 63.3148 66.7152 57.8234 65.4046 52.6014C64.2938 48.1306 60.2769 44.9939 55.6702 45H53.0998C52.1058 45 51.2998 45.806 51.2998 46.8C51.2998 46.9474 51.318 47.0943 51.3538 47.2374C53.4213 55.4233 50.711 64.0766 44.3428 69.6204L41.623 72H36.8998V70.2C36.8998 69.2059 36.0939 68.4 35.0998 68.4H22.4998V18H98.0998V97.2ZM98.0998 14.4H22.4998V7.2C22.4998 5.21167 24.1115 3.6 26.0998 3.6H94.4998C96.4881 3.6 98.0998 5.21167 98.0998 7.2V14.4Z M27.8998 97.2H24.2998V100.8H27.8998V97.2Z M29.6996 7.19995H26.0996V10.7999H29.6996V7.19995Z M36.8998 7.19995H33.2998V10.7999H36.8998V7.19995Z M44.1 7.19995H40.5V10.7999H44.1V7.19995Z M65.7004 30.6001H27.9004V34.2001H65.7004V30.6001Z M65.7004 37.8H27.9004V41.4H65.7004V37.8Z M65.6998 23.3999H42.2998V26.9999H65.6998V23.3999Z M38.6996 23.3999H35.0996V26.9999H38.6996V23.3999Z M90.8996 45H72.8996C71.9056 45 71.0996 45.8059 71.0996 46.8V61.2C71.0996 62.194 71.9056 63 72.8996 63H90.8996C91.8937 63 92.6996 62.194 92.6996 61.2V46.8C92.6996 45.8059 91.8937 45 90.8996 45ZM89.0996 59.4H74.6996V48.6H89.0996V59.4Z M90.8996 23.3999H72.8996C71.9056 23.3999 71.0996 24.2059 71.0996 25.1999V39.5999C71.0996 40.594 71.9056 41.3999 72.8996 41.3999H90.8996C91.8937 41.3999 92.6996 40.594 92.6996 39.5999V25.1999C92.6996 24.2059 91.8937 23.3999 90.8996 23.3999ZM89.0996 37.7999H74.6996V26.9999H89.0996V37.7999Z M42.3004 45H29.7004C28.7063 45 27.9004 45.8059 27.9004 46.8V61.2C27.9004 62.194 28.7063 63 29.7004 63H42.3004C43.2944 63 44.1004 62.194 44.1004 61.2V46.8C44.1004 45.8059 43.2944 45 42.3004 45ZM40.5004 59.4H31.5004V48.6H40.5004V59.4Z"/>
</svg>
