<svg xmlns="http://www.w3.org/2000/svg" viewBox="0 0 117 117">
<path d="M60.4498 95.5499H56.5498V99.4499H60.4498V95.5499Z M115.05 99.45H113.1V29.25C113.1 24.9422 109.608 21.45 105.3 21.45H97.5V9.74995C97.5 5.44216 94.0078 1.94995 89.7 1.94995H42.9C38.5922 1.94995 35.1 5.44216 35.1 9.74995V11.7H31.2C26.8922 11.7 23.4 15.1922 23.4 19.5V21.45H11.7C7.39221 21.45 3.9 24.9422 3.9 29.25V99.45H1.95C0.873112 99.45 0 100.323 0 101.4V107.25C0 111.558 3.49221 115.05 7.8 115.05H109.2C113.508 115.05 117 111.558 117 107.25V101.4C117 100.323 116.127 99.45 115.05 99.45ZM39 9.74995C39 7.59593 40.746 5.84995 42.9 5.84995H89.7C91.854 5.84995 93.6 7.59593 93.6 9.74995V40.95C93.6 43.104 91.854 44.85 89.7 44.85H85.8C85.1862 44.85 84.6083 45.139 84.24 45.63L79.95 51.3493L75.66 45.63C75.2917 45.139 74.7138 44.85 74.1 44.85H42.9C40.746 44.85 39 43.104 39 40.95V9.74995ZM27.3 19.5C27.3 17.3459 29.046 15.6 31.2 15.6H35.1V40.95C35.1 45.2577 38.5922 48.75 42.9 48.75H68.25V50.7C68.25 52.854 66.504 54.6 64.35 54.6H50.7C50.0862 54.6 49.5083 54.889 49.14 55.38L44.85 61.0993L40.56 55.38C40.1917 54.889 39.6138 54.6 39 54.6H31.2C29.046 54.6 27.3 52.854 27.3 50.7V19.5ZM31.2 58.5H38.025L43.29 65.52C43.9362 66.3816 45.1583 66.5561 46.02 65.91C46.1677 65.799 46.2991 65.6677 46.41 65.52L51.675 58.5H64.35C68.6578 58.5 72.15 55.0077 72.15 50.7V48.75H73.125L78.39 55.77C79.0362 56.6316 80.2583 56.8061 81.12 56.16C81.2677 56.049 81.3991 55.9177 81.51 55.77L86.775 48.75H89.7C94.0078 48.75 97.5 45.2577 97.5 40.95V33.15H101.4V87.75H93.6V85.7999C93.599 82.5581 91.9869 79.5288 89.2983 77.7172C92.381 74.7081 92.4407 69.77 89.4319 66.687C86.4228 63.6043 81.4847 63.5446 78.4017 66.5537C75.319 69.5628 75.2593 74.5009 78.2681 77.5839C78.312 77.629 78.3566 77.6733 78.4017 77.7172C75.7131 79.5288 74.101 82.5581 74.1 85.7999V87.75H42.9V85.7999C42.899 82.5581 41.2869 79.5288 38.5983 77.7172C41.681 74.7081 41.7407 69.77 38.7319 66.687C35.7228 63.6043 30.7847 63.5446 27.7017 66.5537C24.619 69.5628 24.5593 74.5009 27.5681 77.5839C27.612 77.629 27.6566 77.6733 27.7017 77.7172C25.0131 79.5288 23.401 82.5581 23.4 85.7999V87.75H15.6V33.15H23.4V50.7C23.4 55.0077 26.8922 58.5 31.2 58.5ZM83.85 79.95C87.0809 79.95 89.7 82.569 89.7 85.7999V87.75H78V85.7999C78 82.569 80.6191 79.95 83.85 79.95ZM79.95 72.15C79.95 69.9959 81.696 68.25 83.85 68.25C86.004 68.25 87.75 69.9959 87.75 72.15C87.75 74.304 86.004 76.0499 83.85 76.0499C81.696 76.0499 79.95 74.304 79.95 72.15ZM33.15 79.95C36.3809 79.95 39 82.569 39 85.7999V87.75H27.3V85.7999C27.3 82.569 29.9191 79.95 33.15 79.95ZM29.25 72.15C29.25 69.9959 30.996 68.25 33.15 68.25C35.304 68.25 37.05 69.9959 37.05 72.15C37.05 74.304 35.304 76.0499 33.15 76.0499C30.996 76.0499 29.25 74.304 29.25 72.15ZM7.8 29.25C7.8 27.0959 9.54598 25.35 11.7 25.35H23.4V29.25H13.65C12.5731 29.25 11.7 30.1231 11.7 31.2V89.7C11.7 90.7768 12.5731 91.65 13.65 91.65H103.35C104.427 91.65 105.3 90.7768 105.3 89.7V31.2C105.3 30.1231 104.427 29.25 103.35 29.25H97.5V25.35H105.3C107.454 25.35 109.2 27.0959 109.2 29.25V99.45H76.05C75.5328 99.45 75.037 99.6557 74.6713 100.021L71.3427 103.35H45.6573L42.3287 100.021C41.963 99.6557 41.4672 99.45 40.95 99.45H7.8V29.25ZM113.1 107.25C113.1 109.404 111.354 111.15 109.2 111.15H7.8C5.64598 111.15 3.9 109.404 3.9 107.25V103.35H40.1427L43.4713 106.679C43.837 107.044 44.3328 107.25 44.85 107.25H72.15C72.6672 107.25 73.163 107.044 73.5287 106.679L76.8573 103.35H113.1V107.25Z M87.7498 11.7H56.5498V15.6H87.7498V11.7Z M87.7496 19.5H44.8496V23.4H87.7496V19.5Z M87.7496 27.3H44.8496V31.2H87.7496V27.3Z M79.9496 35.1001H44.8496V39.0001H79.9496V35.1001Z M52.65 11.7H48.75V15.6H52.65V11.7Z"/>
</svg>
