<svg viewBox="0 0 70 70" xmlns="http://www.w3.org/2000/svg">
<path d="M67.8125 57.9688H59.6094C60.6243 57.9676 61.5974 57.5639 62.315 56.8463C63.0327 56.1286 63.4364 55.1556 63.4375 54.1406V53.0469C63.4364 52.0319 63.0327 51.0589 62.315 50.3412C61.5974 49.6236 60.6243 49.2199 59.6094 49.2188H56.9502L53.9725 35.5113C53.8205 33.8807 53.0669 32.365 51.8586 31.2595C50.6502 30.154 49.0737 29.5379 47.4359 29.5312H41.5625V28.4375C41.5622 28.3092 41.5395 28.182 41.4955 28.0615C42.5528 26.9506 43.2767 25.5649 43.5846 24.0625H43.75C44.6199 24.0613 45.4538 23.7153 46.0689 23.1002C46.684 22.4851 47.0301 21.6511 47.0312 20.7812V13.6719C47.0279 10.6271 45.8169 7.70789 43.6639 5.55487C41.5109 3.40186 38.5917 2.19083 35.5469 2.1875H34.4531C31.4083 2.19083 28.4891 3.40186 26.3361 5.55487C24.1831 7.70789 22.9721 10.6271 22.9688 13.6719V20.7812C22.9699 21.6511 23.316 22.4851 23.9311 23.1002C24.5462 23.7153 25.3801 24.0613 26.25 24.0625H26.4154C26.7233 25.5649 27.4472 26.9506 28.5045 28.0615C28.4605 28.182 28.4378 28.3092 28.4375 28.4375V29.5312H22.5641C20.9263 29.5379 19.3498 30.154 18.1414 31.2595C16.9331 32.365 16.1795 33.8807 16.0275 35.5113L13.5256 47.0312H12.5781C12.2717 47.031 11.9664 47.0682 11.6689 47.142L8.63516 41.073C8.50535 40.8134 8.27772 40.616 8.00235 40.5242C7.72697 40.4324 7.42642 40.4538 7.1668 40.5836C6.90717 40.7134 6.70975 40.941 6.61796 41.2164C6.52617 41.4918 6.54753 41.7923 6.67734 42.052L9.77812 48.2521C9.11721 48.9594 8.7497 49.8914 8.75 50.8594V54.1406C8.75112 55.1556 9.1548 56.1286 9.87247 56.8463C10.5901 57.5639 11.5632 57.9676 12.5781 57.9688H2.1875C1.89742 57.9688 1.61922 58.084 1.4141 58.2891C1.20898 58.4942 1.09375 58.7724 1.09375 59.0625V63.4375C1.09375 63.7276 1.20898 64.0058 1.4141 64.2109C1.61922 64.416 1.89742 64.5312 2.1875 64.5312H3.28125V66.7188C3.28125 67.0088 3.39648 67.287 3.6016 67.4921C3.80672 67.6973 4.08492 67.8125 4.375 67.8125H65.625C65.9151 67.8125 66.1933 67.6973 66.3984 67.4921C66.6035 67.287 66.7188 67.0088 66.7188 66.7188V64.5312H67.8125C68.1026 64.5312 68.3808 64.416 68.5859 64.2109C68.791 64.0058 68.9062 63.7276 68.9062 63.4375V59.0625C68.9062 58.7724 68.791 58.4942 68.5859 58.2891C68.3808 58.084 68.1026 57.9688 67.8125 57.9688ZM56.3281 51.4062H59.6094C60.0444 51.4066 60.4615 51.5796 60.7691 51.8872C61.0767 52.1948 61.2496 52.6119 61.25 53.0469V54.1406C61.2496 54.5756 61.0767 54.9927 60.7691 55.3003C60.4615 55.6079 60.0444 55.7809 59.6094 55.7812H56.3281C55.8931 55.7809 55.476 55.6079 55.1684 55.3003C54.8608 54.9927 54.6879 54.5756 54.6875 54.1406V53.0469C54.6879 52.6119 54.8608 52.1948 55.1684 51.8872C55.476 51.5796 55.8931 51.4066 56.3281 51.4062ZM44.8438 20.7812C44.8434 21.0712 44.728 21.3492 44.523 21.5542C44.3179 21.7592 44.04 21.8746 43.75 21.875V17.5H44.8438V20.7812ZM26.25 21.875C25.96 21.8746 25.6821 21.7592 25.477 21.5542C25.272 21.3492 25.1566 21.0712 25.1562 20.7812V17.5H26.25V21.875ZM25.1562 15.3125V13.6719C25.1588 11.207 26.1391 8.84378 27.8821 7.10083C29.625 5.35788 31.9882 4.37757 34.4531 4.375H35.5469C38.0118 4.37757 40.375 5.35788 42.1179 7.10083C43.8609 8.84378 44.8412 11.207 44.8438 13.6719V15.3125H43.75V14.7656C43.75 14.5564 43.7418 14.3473 43.7268 14.1436C43.7137 13.9725 43.6605 13.8069 43.5716 13.6602C43.4826 13.5134 43.3604 13.3897 43.2148 13.2989C43.0692 13.2081 42.9043 13.1529 42.7334 13.1377C42.5625 13.1224 42.3904 13.1476 42.2311 13.2111C37.0193 15.2865 27.4395 15.3125 27.3438 15.3125H25.1562ZM28.4375 22.4219V17.4836C30.9121 17.4221 37.0316 17.1309 41.5625 15.7568V22.4219C41.5606 24.0167 40.9262 25.5457 39.7985 26.6735C38.6707 27.8012 37.1417 28.4356 35.5469 28.4375H34.4531C32.8583 28.4356 31.3293 27.8012 30.2015 26.6735C29.0738 25.5457 28.4394 24.0167 28.4375 22.4219ZM39.375 29.6734V30.625C39.375 32.4338 37.4131 33.9062 35 33.9062C32.5869 33.9062 30.625 32.4338 30.625 30.625V29.6734C31.8038 30.2996 33.1184 30.6264 34.4531 30.625H35.5469C36.8816 30.6264 38.1962 30.2996 39.375 29.6734ZM18.1809 35.9064C18.1916 35.8573 18.1989 35.8075 18.2027 35.7574C18.2917 34.6603 18.7892 33.6366 19.5968 32.8887C20.4045 32.1408 21.4634 31.7233 22.5641 31.7188H28.5701C29.1799 34.2125 31.8309 36.0938 35 36.0938C38.1691 36.0938 40.8201 34.2125 41.4299 31.7188H47.4359C48.5366 31.7233 49.5955 32.1408 50.4032 32.8887C51.2108 33.6366 51.7083 34.6603 51.7973 35.7574C51.8011 35.8075 51.8084 35.8573 51.8191 35.9064L54.7832 49.5455C54.1046 49.8455 53.5276 50.336 53.1223 50.9576C52.717 51.5791 52.5008 52.3049 52.5 53.0469V54.1406C52.5011 55.1556 52.9048 56.1286 53.6225 56.8463C54.3401 57.5639 55.3132 57.9676 56.3281 57.9688H51.4062V41.0156C51.4051 40.0007 51.0014 39.0276 50.2838 38.31C49.5661 37.5923 48.5931 37.1886 47.5781 37.1875H22.4219C21.4069 37.1886 20.4339 37.5923 19.7162 38.31C18.9986 39.0276 18.5949 40.0007 18.5938 41.0156V57.9688H13.6719C14.6868 57.9676 15.6599 57.5639 16.3775 56.8463C17.0952 56.1286 17.4989 55.1556 17.5 54.1406V50.8594C17.4998 50.1993 17.3289 49.5505 17.0038 48.976C16.6787 48.4015 16.2105 47.9209 15.6447 47.5809L18.1809 35.9064ZM49.2188 41.0156V57.9688H20.7812V41.0156C20.7816 40.5806 20.9546 40.1635 21.2622 39.8559C21.5698 39.5483 21.9869 39.3754 22.4219 39.375H47.5781C48.0131 39.3754 48.4302 39.5483 48.7378 39.8559C49.0454 40.1635 49.2184 40.5806 49.2188 41.0156ZM10.9375 54.1406V50.8594C10.9379 50.4244 11.1108 50.0073 11.4184 49.6997C11.726 49.3921 12.1431 49.2191 12.5781 49.2188H13.6719C14.1069 49.2191 14.524 49.3921 14.8316 49.6997C15.1392 50.0073 15.3121 50.4244 15.3125 50.8594V54.1406C15.3121 54.5756 15.1392 54.9927 14.8316 55.3003C14.524 55.6079 14.1069 55.7809 13.6719 55.7812H12.5781C12.1431 55.7809 11.726 55.6079 11.4184 55.3003C11.1108 54.9927 10.9379 54.5756 10.9375 54.1406ZM64.5312 65.625H5.46875V64.5312H64.5312V65.625ZM66.7188 62.3438H3.28125V60.1562H66.7188V62.3438Z M35 45.9375C34.1347 45.9375 33.2888 46.1941 32.5694 46.6748C31.8499 47.1556 31.2892 47.8388 30.958 48.6383C30.6269 49.4377 30.5403 50.3174 30.7091 51.166C30.8779 52.0147 31.2946 52.7942 31.9064 53.4061C32.5183 54.0179 33.2978 54.4346 34.1465 54.6034C34.9952 54.7722 35.8748 54.6856 36.6742 54.3545C37.4737 54.0233 38.157 53.4626 38.6377 52.7431C39.1184 52.0237 39.375 51.1778 39.375 50.3125C39.3737 49.1526 38.9123 48.0405 38.0922 47.2203C37.272 46.4002 36.1599 45.9388 35 45.9375ZM35 52.5C34.5674 52.5 34.1444 52.3717 33.7847 52.1313C33.425 51.891 33.1446 51.5493 32.979 51.1496C32.8134 50.7499 32.7701 50.3101 32.8545 49.8857C32.9389 49.4614 33.1473 49.0716 33.4532 48.7657C33.7591 48.4598 34.1489 48.2514 34.5732 48.167C34.9976 48.0826 35.4374 48.1259 35.8371 48.2915C36.2368 48.4571 36.5785 48.7375 36.8188 49.0972C37.0592 49.4569 37.1875 49.8799 37.1875 50.3125C37.1868 50.8925 36.9561 51.4485 36.546 51.8585C36.136 52.2686 35.58 52.4993 35 52.5Z M31.7188 20.7812C32.3228 20.7812 32.8125 20.2916 32.8125 19.6875C32.8125 19.0834 32.3228 18.5938 31.7188 18.5938C31.1147 18.5938 30.625 19.0834 30.625 19.6875C30.625 20.2916 31.1147 20.7812 31.7188 20.7812Z M38.2812 20.7812C38.8853 20.7812 39.375 20.2916 39.375 19.6875C39.375 19.0834 38.8853 18.5938 38.2812 18.5938C37.6772 18.5938 37.1875 19.0834 37.1875 19.6875C37.1875 20.2916 37.6772 20.7812 38.2812 20.7812Z M33.9062 26.25H36.0938C36.3838 26.25 36.662 26.1348 36.8671 25.9296C37.0723 25.7245 37.1875 25.4463 37.1875 25.1562C37.1875 24.8662 37.0723 24.588 36.8671 24.3829C36.662 24.1777 36.3838 24.0625 36.0938 24.0625H33.9062C33.6162 24.0625 33.338 24.1777 33.1329 24.3829C32.9277 24.588 32.8125 24.8662 32.8125 25.1562C32.8125 25.4463 32.9277 25.7245 33.1329 25.9296C33.338 26.1348 33.6162 26.25 33.9062 26.25Z"/>
</svg>
