<svg xmlns="http://www.w3.org/2000/svg" viewBox="0 0 60 60">
	<path d="M14.9015 26.4H8.66667C6.09043 26.3968 4.00319 24.3091 4 21.7333V8.66667C4.00319 6.09043 6.09043 4.00319 8.66667 4H27.3333C29.9096 4.00319 31.9968 6.09043 32 8.66667V21.7333C31.9968 24.3091 29.9096 26.3968 27.3333 26.4H21.9389L22.648 29.9465C22.725 30.3234 22.5632 30.7085 22.2401 30.9172C22.0888 31.0143 21.9129 31.0662 21.7333 31.0667C21.5387 31.0667 21.3492 31.0056 21.191 30.8921L14.9015 26.4ZM8.66667 5.86667C7.12038 5.86667 5.86667 7.12038 5.86667 8.66667V21.7333C5.86667 23.2796 7.12038 24.5333 8.66667 24.5333H15.2C15.3941 24.5347 15.5828 24.5971 15.7396 24.7115L20.352 28.006L19.8854 25.6531C19.8293 25.3787 19.8995 25.0934 20.0768 24.8761C20.254 24.6591 20.5197 24.5333 20.8 24.5333H27.3333C28.8796 24.5333 30.1333 23.2796 30.1333 21.7333V8.66667C30.1333 7.12038 28.8796 5.86667 27.3333 5.86667H8.66667ZM58.128 6.69736L59.9947 23.4974C60.0257 23.779 59.9272 24.0593 59.7267 24.2598L58.2182 25.7678L59.9359 33.816C60.1697 34.9494 59.7641 36.1193 58.8795 36.8648C57.9945 37.6104 56.7727 37.8114 55.6953 37.3885C54.6184 36.9655 53.8596 35.9866 53.7188 34.8382L53.1259 30.8601L52.26 31.7265L50.9402 30.4067L52.7846 28.5623L52.3926 25.9278C52.3575 25.9993 52.3129 26.0663 52.26 26.1265L49.46 28.9265L48.1402 27.6067L50.2803 25.4666L38.5334 13.7197L34.5267 17.7265L33.2069 16.4067L37.8735 11.74C38.2381 11.3754 38.8288 11.3754 39.1933 11.74L52.2254 24.7684L50.7816 15.0618C49.4741 14.6535 48.6506 13.3629 48.8316 12.0052C49.0125 10.6472 50.145 9.61721 51.5135 9.56526C52.8825 9.51376 54.0898 10.4553 54.3723 11.7956C54.6553 13.1359 53.9316 14.4849 52.6583 14.9907L54.432 26.9199L58.0943 23.2572L56.3602 7.64436L40.7428 5.91031L34.5267 12.1265L33.2069 10.8067L39.7402 4.27333C39.9412 4.07418 40.2215 3.97574 40.5027 4.00536L57.3027 5.87203C57.737 5.91988 58.0797 6.26305 58.128 6.69736ZM52.5335 12.3999C52.5335 11.8845 52.1156 11.4666 51.6001 11.4666C51.0847 11.4666 50.6668 11.8845 50.6668 12.3999C50.6668 12.9153 51.0847 13.3332 51.6001 13.3332C52.1156 13.3332 52.5335 12.9153 52.5335 12.3999ZM57.6632 35.4325C58.0273 35.1326 58.1977 34.6577 58.1084 34.1952L56.6505 27.3405L54.7734 29.2177L55.5677 34.5853C55.621 35.0538 55.9264 35.4553 56.3634 35.6321C56.8005 35.8089 57.2995 35.7323 57.6632 35.4325ZM24.2599 59.7264C23.8953 60.0905 23.3047 60.0905 22.9401 59.7264L4.27343 41.0597C3.9093 40.6952 3.9093 40.1045 4.27343 39.7399L15.4734 28.5399L16.7932 29.8597L6.25312 40.3998L23.6 57.7467L27.6068 53.7399L28.9266 55.0597L24.2599 59.7264ZM10.8078 40.3002L16.8741 34.2339L18.1939 35.5537L12.1276 41.62L10.8078 40.3002ZM19.7657 37.1269L13.6994 43.1932L15.0192 44.513L21.0859 38.4467L19.7657 37.1269ZM16.5932 46.0861L20.1397 42.5396L21.46 43.8594L17.913 47.4059L16.5932 46.0861ZM22.0072 46.4598L19.4865 48.98L20.8068 50.3003L23.327 47.7796L22.0072 46.4598ZM22.3801 51.8734L24.2468 50.0071L25.5666 51.327L23.7004 53.1932L22.3801 51.8734ZM46.4294 52.4157C43.875 54.3092 40.7797 55.3319 37.6001 55.3333C30.8047 55.3401 24.8633 50.7541 23.1489 44.1788C21.434 37.6031 24.3798 30.6997 30.3139 27.3879C36.2475 24.0761 43.6695 25.1927 48.3662 30.1041C53.0625 35.015 53.8473 42.4794 50.2739 48.2594L50.3933 48.14L57.2803 55.027C58.4178 56.1645 58.4178 58.0093 57.2803 59.1468C56.1428 60.2843 54.2984 60.2843 53.1605 59.1468L46.4294 52.4157ZM55.9605 57.827C56.3693 57.4182 56.3693 56.7556 55.9605 56.3468L49.2845 49.6717C48.8484 50.2182 48.3749 50.7336 47.8667 51.2144L54.4803 57.827C54.8891 58.2358 55.5517 58.2358 55.9605 57.827ZM50.6667 40.3999C50.6667 33.1834 44.8165 27.3332 37.6001 27.3332C30.3868 27.341 24.5411 33.1866 24.5334 40.3999C24.5334 47.6164 30.3836 53.4666 37.6001 53.4666C44.8165 53.4666 50.6667 47.6164 50.6667 40.3999ZM37.5999 51.5999C43.7856 51.5999 48.8 46.5855 48.8 40.3999C48.8 34.2142 43.7856 29.1999 37.5999 29.1999C31.4143 29.1999 26.3999 34.2142 26.3999 40.3999C26.4068 46.5827 31.4171 51.593 37.5999 51.5999ZM37.5999 31.0665C42.7547 31.0665 46.9333 35.2451 46.9333 40.3999C46.9333 45.5546 42.7547 49.7332 37.5999 49.7332C32.4452 49.7332 28.2666 45.5546 28.2666 40.3999C28.2721 35.2474 32.4475 31.072 37.5999 31.0665ZM8.66673 22.6665H28.2667V20.7999H9.60007V18.3107L11.4667 15.8224L13.5203 18.5599C13.7076 18.7946 13.9915 18.9318 14.2918 18.9332C14.5949 18.925 14.8751 18.77 15.0433 18.5176L18.083 13.9575L21.949 18.5982C22.1272 18.8101 22.3897 18.9327 22.6667 18.9332C22.6959 18.935 22.7251 18.935 22.7547 18.9332C23.0609 18.904 23.333 18.7263 23.4825 18.457L28.1492 10.057L26.5177 9.15187L22.5118 16.3611L18.7178 11.806C18.5315 11.5754 18.2457 11.4487 17.9495 11.4665C17.656 11.4825 17.3867 11.6361 17.2235 11.8808L14.2221 16.3852L12.2132 13.7064C12.0296 13.4831 11.7557 13.3537 11.4667 13.3537C11.1778 13.3537 10.9039 13.4831 10.7202 13.7064L9.60007 15.1999V8.66652H7.7334V21.7332C7.7334 22.2486 8.1513 22.6665 8.66673 22.6665ZM36.7345 44.5749H39.0457V43.1178H36.7345V42.3498H39.0027C40.1703 42.3354 41.0818 42.0411 41.7374 41.4669C42.393 40.8879 42.7208 40.0911 42.7208 39.0767C42.7208 38.0813 42.3762 37.2846 41.6872 36.6864C40.9981 36.0835 40.0769 35.782 38.9237 35.782H34.9257V40.8927H33.4542V42.3498H34.9257V43.1178H33.4542V44.5749H34.9257V46.233H36.7345V44.5749ZM38.895 40.8927H36.7345V37.2463H39.0027C39.596 37.2607 40.0602 37.4377 40.3952 37.7775C40.7349 38.1172 40.9048 38.5551 40.9048 39.091C40.9048 39.6892 40.7325 40.139 40.388 40.4404C40.0434 40.7419 39.5458 40.8927 38.895 40.8927Z" />
</svg>