<svg viewBox="0 0 94 94" xmlns="http://www.w3.org/2000/svg">
<path d="M86.6562 22.0316H83.7188V20.5629H85.1875C86.3561 20.5629 87.4769 20.0986 88.3032 19.2723C89.1295 18.446 89.5938 17.3252 89.5938 16.1566C89.5938 14.988 89.1295 13.8673 88.3032 13.0409C87.4769 12.2146 86.3561 11.7504 85.1875 11.7504H83.7188V4.40661C83.7209 4.17666 83.6672 3.94962 83.5623 3.74497C83.4574 3.54032 83.3045 3.36416 83.1166 3.23161C82.9346 3.09386 82.7229 3.00082 82.4983 2.96C82.2738 2.91918 82.0428 2.93172 81.8241 2.99661L62.9359 8.81286H52.875C52.4855 8.81286 52.1119 8.96761 51.8364 9.24305C51.561 9.51849 51.4062 9.89208 51.4062 10.2816V11.7504H48.4688C48.0792 11.7504 47.7056 11.9051 47.4302 12.1805C47.1547 12.456 47 12.8296 47 13.2191V19.0941C47 19.4837 47.1547 19.8572 47.4302 20.1327C47.7056 20.4081 48.0792 20.5629 48.4688 20.5629H51.4062V22.0316H42.5938V8.81286C42.5938 8.42333 42.439 8.04974 42.1636 7.7743C41.8881 7.49886 41.5145 7.34411 41.125 7.34411H11.75C11.3605 7.34411 10.9869 7.49886 10.7114 7.7743C10.436 8.04974 10.2812 8.42333 10.2812 8.81286V22.0316H7.34375C6.17621 22.0351 5.05749 22.5004 4.23191 23.326C3.40634 24.1516 2.94099 25.2703 2.9375 26.4379V73.4379C2.94099 74.6054 3.40634 75.7241 4.23191 76.5497C5.05749 77.3753 6.17621 77.8406 7.34375 77.8441H41.125V82.2504H32.3125C31.923 82.2504 31.5494 82.4051 31.2739 82.6806C30.9985 82.956 30.8438 83.3296 30.8438 83.7191V89.5941C30.8438 89.9837 30.9985 90.3572 31.2739 90.6327C31.5494 90.9081 31.923 91.0629 32.3125 91.0629H61.6875C62.077 91.0629 62.4506 90.9081 62.7261 90.6327C63.0015 90.3572 63.1562 89.9837 63.1562 89.5941V83.7191C63.1562 83.3296 63.0015 82.956 62.7261 82.6806C62.4506 82.4051 62.077 82.2504 61.6875 82.2504H52.875V77.8441H86.6562C87.8238 77.8406 88.9425 77.3753 89.7681 76.5497C90.5937 75.7241 91.059 74.6054 91.0625 73.4379V26.4379C91.059 25.2703 90.5937 24.1516 89.7681 23.326C88.9425 22.5004 87.8238 22.0351 86.6562 22.0316ZM83.7188 14.6879H85.1875C85.577 14.6879 85.9506 14.8426 86.2261 15.1181C86.5015 15.3935 86.6562 15.7671 86.6562 16.1566C86.6562 16.5462 86.5015 16.9197 86.2261 17.1952C85.9506 17.4706 85.577 17.6254 85.1875 17.6254H83.7188V14.6879ZM64.625 11.3685L80.7812 6.38942V25.9238L64.625 20.9447V11.3685ZM54.3438 11.7504H61.6875V20.5629H54.3438V11.7504ZM58.5297 23.5004L57.4722 30.8441H55.8125V23.5004H58.5297ZM49.9375 17.6254V14.6879H51.4062V17.6254H49.9375ZM13.2188 10.2816H39.6562V30.8441H13.2188V10.2816ZM60.2188 85.1879V88.1254H33.7812V85.1879H60.2188ZM44.0625 82.2504V77.8441H49.9375V82.2504H44.0625ZM88.125 73.4379C88.125 73.8274 87.9703 74.201 87.6948 74.4764C87.4194 74.7519 87.0458 74.9066 86.6562 74.9066H7.34375C6.95421 74.9066 6.58063 74.7519 6.30519 74.4764C6.02974 74.201 5.875 73.8274 5.875 73.4379V71.9691H88.125V73.4379ZM88.125 69.0316H5.875V26.4379C5.875 26.0483 6.02974 25.6747 6.30519 25.3993C6.58063 25.1239 6.95421 24.9691 7.34375 24.9691H10.2812V32.3129C10.2812 32.7024 10.436 33.076 10.7114 33.3514C10.9869 33.6269 11.3605 33.7816 11.75 33.7816H41.125C41.5145 33.7816 41.8881 33.6269 42.1636 33.3514C42.439 33.076 42.5938 32.7024 42.5938 32.3129V24.9691H52.875V32.3129C52.875 32.7024 53.0297 33.076 53.3052 33.3514C53.5806 33.6269 53.9542 33.7816 54.3438 33.7816H58.75C59.1039 33.7816 59.4458 33.6537 59.713 33.4217C59.9801 33.1896 60.1545 32.8689 60.2041 32.5185L61.4966 23.5004H62.9359L81.8241 29.3166C81.962 29.3587 82.1058 29.3785 82.25 29.3754C82.6378 29.3697 83.008 29.2131 83.2823 28.9389C83.5565 28.6647 83.7131 28.2944 83.7188 27.9066V24.9691H86.6562C87.0458 24.9691 87.4194 25.1239 87.6948 25.3993C87.9703 25.6747 88.125 26.0483 88.125 26.4379V69.0316Z M10.2812 66.0938H48.4688C48.8583 66.0938 49.2319 65.939 49.5073 65.6636C49.7828 65.3881 49.9375 65.0145 49.9375 64.625V41.125C49.9375 40.7355 49.7828 40.3619 49.5073 40.0864C49.2319 39.811 48.8583 39.6562 48.4688 39.6562H10.2812C9.89171 39.6562 9.51813 39.811 9.24269 40.0864C8.96724 40.3619 8.8125 40.7355 8.8125 41.125V64.625C8.8125 65.0145 8.96724 65.3881 9.24269 65.6636C9.51813 65.939 9.89171 66.0938 10.2812 66.0938ZM11.75 63.1562V43.7526L28.6054 54.1264C28.8368 54.2688 29.1033 54.3442 29.375 54.3442C29.6467 54.3442 29.9132 54.2688 30.1446 54.1264L47 43.7526V63.1562H11.75ZM15.4703 42.5938H43.2797L29.375 51.1507L15.4703 42.5938Z M54.3438 57.2812H57.2812V61.6875C57.2812 62.077 57.436 62.4506 57.7114 62.7261C57.9869 63.0015 58.3605 63.1562 58.75 63.1562H83.7188C84.1083 63.1562 84.4819 63.0015 84.7573 62.7261C85.0328 62.4506 85.1875 62.077 85.1875 61.6875V44.0625C85.1875 43.673 85.0328 43.2994 84.7573 43.0239C84.4819 42.7485 84.1083 42.5938 83.7188 42.5938H82.25V38.1875C82.25 37.798 82.0953 37.4244 81.8198 37.1489C81.5444 36.8735 81.1708 36.7188 80.7812 36.7188H54.3438C53.9542 36.7188 53.5806 36.8735 53.3052 37.1489C53.0297 37.4244 52.875 37.798 52.875 38.1875V55.8125C52.875 56.202 53.0297 56.5756 53.3052 56.8511C53.5806 57.1265 53.9542 57.2812 54.3438 57.2812ZM82.25 60.2188H60.2188V45.5312H82.25V60.2188ZM55.8125 39.6562H79.3125V42.5938H58.75C58.3605 42.5938 57.9869 42.7485 57.7114 43.0239C57.436 43.2994 57.2812 43.673 57.2812 44.0625V54.3438H55.8125V39.6562Z M63.1562 48.4688H66.0938V51.4062H63.1562V48.4688Z M69.0312 48.4688H79.3125V51.4062H69.0312V48.4688Z M63.1562 54.3438H69.0312V57.2812H63.1562V54.3438Z M71.9688 54.3438H79.3125V57.2812H71.9688V54.3438Z M22.7274 26.2187C22.9404 26.3504 23.1835 26.4255 23.4336 26.4368C23.6837 26.4481 23.9326 26.3953 24.1565 26.2834L32.969 21.8771C33.2134 21.7553 33.4191 21.5678 33.5628 21.3355C33.7065 21.1033 33.7826 20.8357 33.7826 20.5626C33.7826 20.2895 33.7065 20.0218 33.5628 19.7896C33.4191 19.5574 33.2134 19.3699 32.969 19.248L24.1565 14.8418C23.9326 14.7299 23.6837 14.6771 23.4335 14.6884C23.1834 14.6997 22.9403 14.7748 22.7274 14.9065C22.5144 15.0382 22.3387 15.2222 22.2169 15.4409C22.095 15.6597 22.0311 15.9059 22.0313 16.1563V24.9688C22.0311 25.2192 22.095 25.4655 22.2169 25.6843C22.3387 25.903 22.5145 26.087 22.7274 26.2187ZM24.9688 18.5328L29.0284 20.5626L24.9688 22.5924V18.5328Z"/>
</svg>
