<svg viewBox="0 0 53 53" xmlns="http://www.w3.org/2000/svg">
<path d="M22.3613 35.8164C22.933 35.8164 23.3965 35.353 23.3965 34.7812C23.3965 34.2095 22.933 33.7461 22.3613 33.7461C21.7896 33.7461 21.3262 34.2095 21.3262 34.7812C21.3262 35.353 21.7896 35.8164 22.3613 35.8164Z M4.14258 14.0781V18.2188C4.14258 18.7905 4.60602 19.2539 5.17773 19.2539H35.0938C35.6654 19.2539 36.1289 18.7905 36.1289 18.2188V14.0781C36.1289 13.5064 35.6654 13.043 35.0938 13.043H5.17773C4.60602 13.043 4.14258 13.5064 4.14258 14.0781ZM15.1152 15.1133H34.0586V17.1836H15.1152V15.1133ZM6.21289 15.1133H13.0449V17.1836H6.21289V15.1133Z M5.17773 23.3945H35.0938C35.6654 23.3945 36.1289 22.9311 36.1289 22.3594C36.1289 21.7877 35.6654 21.3242 35.0938 21.3242H5.17773C4.60602 21.3242 4.14258 21.7877 4.14258 22.3594C4.14258 22.9311 4.60602 23.3945 5.17773 23.3945Z M5.17773 27.5352H35.0938C35.6654 27.5352 36.1289 27.0717 36.1289 26.5C36.1289 25.9283 35.6654 25.4648 35.0938 25.4648H5.17773C4.60602 25.4648 4.14258 25.9283 4.14258 26.5C4.14258 27.0717 4.60602 27.5352 5.17773 27.5352Z M5.17773 31.6758H22.3613C22.933 31.6758 23.3965 31.2123 23.3965 30.6406C23.3965 30.0689 22.933 29.6055 22.3613 29.6055H5.17773C4.60602 29.6055 4.14258 30.0689 4.14258 30.6406C4.14258 31.2123 4.60602 31.6758 5.17773 31.6758Z M5.17773 35.8164H18.2207C18.7924 35.8164 19.2559 35.353 19.2559 34.7812C19.2559 34.2095 18.7924 33.7461 18.2207 33.7461H5.17773C4.60602 33.7461 4.14258 34.2095 4.14258 34.7812C4.14258 35.353 4.60602 35.8164 5.17773 35.8164Z M14.0801 44.0977H19.36C19.8409 46.4573 21.932 48.2383 24.4316 48.2383C27.2856 48.2383 29.6074 45.9164 29.6074 43.0625C29.6074 40.2086 27.2856 37.8867 24.4316 37.8867C21.9322 37.8867 19.8409 39.6677 19.36 42.0273H14.0801C13.5084 42.0273 13.0449 42.4908 13.0449 43.0625C13.0449 43.6342 13.5084 44.0977 14.0801 44.0977ZM24.4316 42.0273H21.5042C21.9315 40.8225 23.0821 39.957 24.4316 39.957C26.144 39.957 27.5371 41.3501 27.5371 43.0625C27.5371 44.7749 26.144 46.168 24.4316 46.168C23.0822 46.168 21.9315 45.3025 21.5042 44.0977H24.4316C25.0033 44.0977 25.4668 43.6342 25.4668 43.0625C25.4668 42.4908 25.0034 42.0273 24.4316 42.0273Z M35.0938 8.28125C35.6654 8.28125 36.1289 7.81781 36.1289 7.24609C36.1289 6.67438 35.6654 6.21094 35.0938 6.21094H33.0234C32.4518 6.21094 31.9883 6.67438 31.9883 7.24609C31.9883 7.81781 32.4518 8.28125 33.0234 8.28125H35.0938Z M28.8828 8.28125C29.4544 8.28125 29.918 7.81781 29.918 7.24609C29.918 6.67438 29.4544 6.21094 28.8828 6.21094H26.8125C26.2409 6.21094 25.7773 6.67438 25.7773 7.24609C25.7773 7.81781 26.2409 8.28125 26.8125 8.28125H28.8828Z M22.6719 8.28125C23.2436 8.28125 23.707 7.81781 23.707 7.24609C23.707 6.67438 23.2436 6.21094 22.6719 6.21094H20.6016C20.0298 6.21094 19.5664 6.67438 19.5664 7.24609C19.5664 7.81781 20.0298 8.28125 20.6016 8.28125H22.6719Z M20.291 53C20.8627 53 21.3262 52.5365 21.3262 51.9648C21.3262 51.3931 20.8627 50.9297 20.291 50.9297C19.7193 50.9297 19.2559 51.3931 19.2559 51.9648C19.2559 52.5365 19.7193 53 20.291 53Z M1.03711 53H15.6328C16.2045 53 16.668 52.5366 16.668 51.9648C16.668 51.3931 16.2045 50.9297 15.6328 50.9297H2.07227V10.3516H9.31836C9.89008 10.3516 10.3535 9.88812 10.3535 9.31641V2.07031H38.1992V31.3292C37.7297 31.8848 37.2912 32.3725 36.9118 32.7618L34.7173 30.5672C32.6951 28.5437 29.4201 28.5428 27.3972 30.567L25.9334 32.0307C25.5292 32.435 25.5292 33.0904 25.9334 33.4947L38.1991 45.7603V50.9297H24.9491C24.3774 50.9297 23.914 51.3931 23.914 51.9648C23.914 52.5366 24.3774 53 24.9491 53H39.2343C39.8059 53 40.2694 52.5366 40.2694 51.9648V47.8306L40.5726 48.1338C40.9769 48.5378 41.6324 48.5381 42.0366 48.1338L43.5004 46.6701C45.5228 44.6476 45.5233 41.3731 43.5004 39.3503L41.3061 37.156C43.2697 35.2427 47.5889 32.0647 49.8583 31.0763C53.0437 29.6897 54.1931 25.3587 51.4753 22.6409C48.778 19.9423 44.4663 21.0388 43.0537 24.2333C42.5239 25.4306 41.4263 27.114 40.2695 28.6914V1.03516C40.2695 0.463439 39.806 0 39.2344 0H9.31836C9.03607 0 8.77076 0.119043 8.5864 0.303197L0.30515 8.58445C0.117891 8.77129 0.00195312 9.03547 0.00195312 9.31641V51.9648C0.00195312 52.5366 0.465393 53 1.03711 53ZM42.0363 40.8142C43.2498 42.0277 43.2501 43.9925 42.0363 45.2062L41.3047 45.938L28.1294 32.7627L28.8614 32.0307C30.0748 30.8167 32.039 30.8161 33.2531 32.0309L42.0363 40.8142ZM40.0457 32.3489C41.8397 30.1854 44.051 27.0958 44.947 25.0709C45.7516 23.2514 48.3088 22.4015 50.0113 24.1048C51.7145 25.808 50.8492 28.3871 49.0318 29.1782C46.456 30.3001 41.9729 33.6086 39.8421 35.692L38.3758 34.2257C38.8666 33.7235 39.44 33.0798 40.0457 32.3489ZM8.2832 3.53423V8.28125H3.53618L8.2832 3.53423Z" />
</svg>
