<svg viewBox="0 0 48 48" xmlns="http://www.w3.org/2000/svg">
<path d="M37.125 42.75C37.6425 42.75 38.0625 42.33 38.0625 41.8125C38.0625 41.295 37.6425 40.875 37.125 40.875C36.6075 40.875 36.1875 41.295 36.1875 41.8125C36.1875 42.33 36.6075 42.75 37.125 42.75Z M21.5625 42.75C22.08 42.75 22.5 42.33 22.5 41.8125C22.5 41.295 22.08 40.875 21.5625 40.875C21.045 40.875 20.625 41.295 20.625 41.8125C20.625 42.33 21.045 42.75 21.5625 42.75Z M47.8015 13.1107C47.6239 12.8829 47.3511 12.75 47.0625 12.75H13.3121L11.1753 3.66797C10.8743 2.39136 9.74817 1.5 8.4375 1.5H2.8125C1.2616 1.5 0 2.7616 0 4.3125C0 5.8634 1.2616 7.125 2.8125 7.125H6.20984L13.1997 36.832C13.5007 38.1086 14.6268 39 15.9375 39H17.8151C17.2251 39.7841 16.875 40.7582 16.875 41.8125C16.875 44.3972 18.9778 46.5 21.5625 46.5C24.1472 46.5 26.25 44.3972 26.25 41.8125C26.25 40.7582 25.8999 39.7841 25.3099 39H33.3776C32.7876 39.7841 32.4375 40.7582 32.4375 41.8125C32.4375 44.3972 34.5403 46.5 37.125 46.5C39.7097 46.5 41.8125 44.3972 41.8125 41.8125C41.8125 40.7582 41.4624 39.7841 40.8724 39H40.875C42.4259 39 43.6875 37.7384 43.6875 36.1875C43.6875 34.6366 42.4259 33.375 40.875 33.375H18.1652L17.2826 29.625H22.7783H22.7801H22.7816H36.4684H36.4702H36.472H41.8484C43.1407 29.625 44.2632 28.749 44.5774 27.4944L47.9722 13.9149C48.0421 13.6348 47.9791 13.3381 47.8015 13.1107ZM44.4554 20.25H38.4683L39.1714 14.625H45.8617L44.4554 20.25ZM33.375 22.125H36.3442L35.6411 27.75H30.5625V24.9375C30.5625 24.4197 30.1428 24 29.625 24C29.1072 24 28.6875 24.4197 28.6875 24.9375V27.75H23.6089L22.9058 22.125H25.875C26.3928 22.125 26.8125 21.7053 26.8125 21.1875C26.8125 20.6697 26.3928 20.25 25.875 20.25H22.6714L21.9683 14.625H28.6875V17.4375C28.6875 17.9553 29.1072 18.375 29.625 18.375C30.1428 18.375 30.5625 17.9553 30.5625 17.4375V14.625H37.2817L36.5786 20.25H33.375C32.8572 20.25 32.4375 20.6697 32.4375 21.1875C32.4375 21.7053 32.8572 22.125 33.375 22.125ZM16.8413 27.75L15.5178 22.125H21.0161L21.7192 27.75H16.8413ZM20.0786 14.625L20.7817 20.25H15.0765L13.7534 14.625H20.0786ZM24.375 41.8125C24.375 43.3634 23.1134 44.625 21.5625 44.625C20.0116 44.625 18.75 43.3634 18.75 41.8125C18.75 40.2616 20.0116 39 21.5625 39C23.1134 39 24.375 40.2616 24.375 41.8125ZM39.9375 41.8125C39.9375 43.3634 38.6759 44.625 37.125 44.625C35.5741 44.625 34.3125 43.3634 34.3125 41.8125C34.3125 40.2616 35.5741 39 37.125 39C38.6759 39 39.9375 40.2616 39.9375 41.8125ZM40.875 35.25C41.3921 35.25 41.8125 35.6704 41.8125 36.1875C41.8125 36.7046 41.3921 37.125 40.875 37.125H15.9375C15.5006 37.125 15.1252 36.8276 15.0249 36.4021L7.69482 5.25H2.8125C2.29541 5.25 1.875 4.82959 1.875 4.3125C1.875 3.79541 2.29541 3.375 2.8125 3.375H8.4375C8.87439 3.375 9.24975 3.67236 9.35009 4.0979L15.1802 28.8754C15.1805 28.8768 15.1809 28.8783 15.1813 28.8801L16.6802 35.25H40.875ZM42.7584 27.0392C42.6537 27.4578 42.2794 27.75 41.848 27.75H37.5308L38.2339 22.125H43.987L42.7584 27.0392Z M29.625 20.25C29.1075 20.25 28.6875 20.67 28.6875 21.1875C28.6875 21.705 29.1075 22.125 29.625 22.125C30.1425 22.125 30.5625 21.705 30.5625 21.1875C30.5625 20.67 30.1425 20.25 29.625 20.25Z"/>
</svg>
