<svg viewBox="0 0 121 121" xmlns="http://www.w3.org/2000/svg">
<path d="M76.8947 98.1597C95.2406 98.1597 110.166 83.2343 110.166 64.8883C110.166 46.5424 95.2406 31.6167 76.8947 31.6167C58.5487 31.6167 43.623 46.5421 43.623 64.8883C43.623 83.2345 58.5487 98.1597 76.8947 98.1597ZM52.1219 63.1057H47.2427C47.6503 56.2547 50.3897 50.0221 54.6771 45.1913L58.1174 48.6316C58.4653 48.9797 58.9216 49.1537 59.3776 49.1537C59.8337 49.1537 60.29 48.9797 60.6379 48.6316C61.334 47.9355 61.334 46.8069 60.6379 46.111L57.1977 42.6708C62.0284 38.3833 68.261 35.6439 75.112 35.2364V40.1156C75.112 41.0999 75.9098 41.898 76.8944 41.898C77.879 41.898 78.6768 41.0999 78.6768 40.1156V35.2364C85.5278 35.6439 91.7604 38.3833 96.5909 42.6708L93.1507 46.111C92.4546 46.8071 92.4546 47.9357 93.1507 48.6316C93.4989 48.9795 93.9552 49.1537 94.4112 49.1537C94.8673 49.1537 95.3235 48.9797 95.6717 48.6316L99.1117 45.1913C103.399 50.0221 106.139 56.2545 106.546 63.1055H101.667C100.682 63.1055 99.8843 63.9035 99.8843 64.8878C99.8843 65.8722 100.682 66.6702 101.667 66.6702H106.546C106.138 73.5212 103.399 79.7539 99.1115 84.5844L95.6715 81.1444C94.9752 80.4483 93.8468 80.4483 93.1507 81.1444C92.4546 81.8404 92.4546 82.969 93.1507 83.6649L96.5909 87.1051C91.7602 91.3926 85.5278 94.132 78.6768 94.5396V89.6603C78.6768 88.676 77.879 87.878 76.8944 87.878C75.9098 87.878 75.112 88.676 75.112 89.6603V94.5396C68.2608 94.132 62.0284 91.3926 57.1977 87.1051L60.6379 83.6651C61.334 82.969 61.334 81.8404 60.6379 81.1446C59.9416 80.4483 58.8132 80.4485 58.1174 81.1446L54.6771 84.5846C50.3897 79.7539 47.6503 73.5215 47.2427 66.6702H52.1219C53.1063 66.6702 53.9043 65.8722 53.9043 64.8878C53.9043 63.9037 53.1063 63.1057 52.1219 63.1057Z M98.5067 99.1926C92.0464 103.271 84.5732 105.427 76.895 105.427C54.541 105.427 36.3548 87.2409 36.3548 64.8869C36.3548 55.8369 39.2708 47.2772 44.7871 40.133C45.3886 39.3539 45.2449 38.2346 44.4656 37.6329C43.6866 37.0314 42.5672 37.1752 41.9655 37.9544C35.9627 45.7282 32.79 55.0413 32.79 64.8869C32.79 89.2065 52.5754 108.992 76.895 108.992C85.2479 108.992 93.3794 106.646 100.41 102.207C101.242 101.681 101.491 100.58 100.965 99.748C100.44 98.9157 99.3392 98.6674 98.5067 99.1926Z M87.6445 22.1104V15.354C87.6445 13.5093 86.1437 12.0088 84.2993 12.0088H69.4903C67.6457 12.0088 66.1451 13.5093 66.1451 15.354V22.1085C59.0572 23.8842 52.4812 27.4071 47.0078 32.453C46.2842 33.1203 46.2383 34.2477 46.9054 34.9716C47.5727 35.6952 48.7004 35.7413 49.424 35.074C56.9269 28.1572 66.6829 24.3479 76.8948 24.3479C99.2487 24.3479 117.435 42.5341 117.435 64.888C117.435 76.3621 112.54 87.3487 104.005 95.03C103.274 95.6886 103.214 96.8155 103.873 97.5472C104.225 97.9384 104.71 98.1371 105.198 98.1371C105.623 98.1371 106.049 97.9862 106.39 97.6796C115.675 89.3231 121 77.3709 121 64.8878C121 44.2754 106.785 26.9223 87.6445 22.1104ZM69.7101 21.368V15.5736H84.0799V21.3715C81.741 20.9865 79.3414 20.7831 76.8953 20.7831C74.4696 20.7831 72.0679 20.9808 69.7101 21.368Z M76.8949 66.1375C77.5637 66.1375 78.1454 65.7689 78.4503 65.2242L84.5989 59.0757C85.2949 58.3796 85.2949 57.251 84.5989 56.555C83.9028 55.8589 82.7744 55.8589 82.0779 56.555L78.6771 59.9555V51.2755C78.6771 50.2912 77.8793 49.4932 76.8947 49.4932C75.9101 49.4932 75.1123 50.2912 75.1123 51.2755V64.3547C75.1125 65.3395 75.9103 66.1375 76.8949 66.1375Z M26.302 65.2903C26.302 64.306 25.504 63.5079 24.5196 63.5079H1.78238C0.798032 63.5079 0 64.306 0 65.2903C0 66.2747 0.798032 67.0727 1.78238 67.0727H24.5196C25.504 67.0727 26.302 66.2749 26.302 65.2903Z M8.89176 56.6921H26.8967C27.881 56.6921 28.6791 55.894 28.6791 54.9097C28.6791 53.9253 27.881 53.1273 26.8967 53.1273H8.89176C7.90741 53.1273 7.10938 53.9253 7.10938 54.9097C7.10938 55.894 7.90717 56.6921 8.89176 56.6921Z M29.273 42.7488H14.507C13.5226 42.7488 12.7246 43.5468 12.7246 44.5312C12.7246 45.5155 13.5226 46.3135 14.507 46.3135H29.273C30.2573 46.3135 31.0554 45.5155 31.0554 44.5312C31.0554 43.5466 30.2573 42.7488 29.273 42.7488Z M28.6788 74.8653C28.6788 73.8809 27.8808 73.0829 26.8964 73.0829H8.89176C7.90741 73.0829 7.10938 73.8809 7.10938 74.8653C7.10938 75.8496 7.90741 76.6477 8.89176 76.6477H26.8967C27.8808 76.6477 28.6788 75.8496 28.6788 74.8653Z M29.273 83.4645H14.507C13.5226 83.4645 12.7246 84.2625 12.7246 85.2469C12.7246 86.2312 13.5226 87.0293 14.507 87.0293H29.273C30.2573 87.0293 31.0554 86.2312 31.0554 85.2469C31.0554 84.2625 30.2573 83.4645 29.273 83.4645Z" />
</svg>
