<svg viewBox="0 0 117 116" xmlns="http://www.w3.org/2000/svg">
<path d="M60.2546 96.6725H56.376V100.538H60.2546V96.6725Z M114.556 100.538H112.616V30.9588C112.616 26.6891 109.143 23.2278 104.859 23.2278H86.8237C83.6267 7.53646 68.2715 -2.60083 52.527 0.585555C41.0793 2.9022 32.1326 11.819 29.8081 23.2278H11.7725C7.48838 23.2278 4.01533 26.6891 4.01533 30.9588V100.538H2.07602C1.00504 100.538 0.136719 101.403 0.136719 102.471V108.269C0.136719 112.539 3.60977 116 7.89394 116H108.738C113.022 116 116.495 112.539 116.495 108.269V102.471C116.495 101.403 115.627 100.538 114.556 100.538ZM40.1085 11.6303C44.8646 6.68508 51.4425 3.89249 58.3159 3.90023C72.2234 3.88476 83.5104 15.1083 83.5259 28.9688C83.5336 35.8189 80.7313 42.3743 75.7696 47.1147V36.757C75.7626 31.0378 71.5727 26.1776 65.9005 25.3093C67.2582 23.6216 68.0027 21.5255 68.0124 19.3622C68.0124 14.0252 63.671 9.69849 58.3159 9.69849C52.9607 9.69849 48.6193 14.0252 48.6193 19.3622C48.629 21.5255 49.3735 23.6216 50.7312 25.3093C45.059 26.1776 40.8692 31.0378 40.8621 36.757V47.1147C30.8221 37.5234 30.4847 21.6364 40.1085 11.6303ZM64.1338 38.6898V53.4502C60.3119 54.3857 56.3198 54.3857 52.498 53.4502V38.6898H48.6193V52.2191C47.2689 51.6506 45.971 50.9652 44.7407 50.1703V36.757C44.7407 32.4873 48.2138 29.026 52.498 29.026H64.1338C68.418 29.026 71.891 32.4873 71.891 36.757V50.1645C70.661 50.9613 69.3631 51.6489 68.0124 52.2191V38.6898H64.1338ZM52.498 19.3622C52.498 16.1599 55.1027 13.564 58.3159 13.564C61.5291 13.564 64.1338 16.1599 64.1338 19.3622C64.1338 22.5646 61.5291 25.1605 58.3159 25.1605C55.1027 25.1605 52.498 22.5646 52.498 19.3622ZM40.8621 52.1649V52.2191H40.9358C51.2241 59.9503 65.4077 59.9503 75.6959 52.2191H75.7696V52.1649C81.453 47.9216 85.3842 41.7546 86.8237 34.8243H100.981V88.9414H15.6512V34.8243H29.8081C31.2475 41.7546 35.1787 47.9216 40.8621 52.1649ZM7.89394 30.9588C7.89394 28.8238 9.63034 27.0933 11.7725 27.0933H29.3252C29.2825 27.7349 29.2263 28.3727 29.2263 29.026C29.2263 29.6793 29.2825 30.3171 29.3252 30.9588H13.7119C12.6409 30.9588 11.7725 31.8242 11.7725 32.8915V90.8741C11.7725 91.9415 12.6409 92.8069 13.7119 92.8069H102.92C103.991 92.8069 104.859 91.9415 104.859 90.8741V32.8915C104.859 31.8242 103.991 30.9588 102.92 30.9588H87.3065C87.3492 30.3171 87.4054 29.6793 87.4054 29.026C87.4054 28.3727 87.3492 27.7349 87.3065 27.0933H104.859C107.001 27.0933 108.738 28.8238 108.738 30.9588V100.538H75.7696C75.2557 100.537 74.7624 100.741 74.3985 101.102L71.0881 104.403H45.5436L42.2332 101.102C41.8694 100.741 41.376 100.537 40.8621 100.538H7.89394V30.9588ZM112.616 108.269C112.616 110.404 110.88 112.134 108.738 112.134H7.89394C5.75173 112.134 4.01533 110.404 4.01533 108.269V104.403H40.0592L43.3696 107.703C43.7333 108.065 44.2263 108.269 44.7407 108.269H71.891C72.4054 108.269 72.8985 108.065 73.2621 107.703L76.5725 104.403H112.616V108.269Z M89.3447 61.8829H27.287C26.216 61.8829 25.3477 62.7483 25.3477 63.8157V79.2777C25.3477 80.3451 26.216 81.2105 27.287 81.2105H89.3447C90.4157 81.2105 91.284 80.3451 91.284 79.2777V63.8157C91.284 62.7483 90.4157 61.8829 89.3447 61.8829ZM87.4054 77.345H29.2263V65.7484H87.4054V77.345Z M60.2546 69.6139H56.376V73.4794H60.2546V69.6139Z M68.0124 69.6139H64.1338V73.4794H68.0124V69.6139Z M75.7692 69.6139H71.8906V73.4794H75.7692V69.6139Z M83.527 69.6139H79.6484V73.4794H83.527V69.6139Z M36.9831 69.6139H33.1045V73.4794H36.9831V69.6139Z M44.7409 69.6139H40.8623V73.4794H44.7409V69.6139Z M52.4978 69.6139H48.6191V73.4794H52.4978V69.6139Z" />
</svg>
