<svg viewBox="0 0 118 118" xmlns="http://www.w3.org/2000/svg">
<path d="M116.134 77.1831L110.669 74.8821L108.641 69.9912L110.883 64.4847C111.181 63.7522 111.012 62.9122 110.453 62.3529L104.043 55.9457C103.484 55.3865 102.644 55.2169 101.912 55.5151L96.4051 57.757L91.5122 55.7294L89.2152 50.2642C88.9082 49.5346 88.1936 49.0604 87.402 49.0607H78.338C77.5459 49.0607 76.8313 49.5358 76.5248 50.2662L74.2238 55.7294L69.3329 57.757L63.8264 55.5151C63.0939 55.2169 62.2539 55.3865 61.6946 55.9457L55.2855 62.3549C54.7262 62.9141 54.5566 63.7541 54.8548 64.4867L57.0967 69.9932L55.0691 74.8841L49.6059 77.185C48.8756 77.4916 48.4004 78.2062 48.4004 78.9982V88.0603C48.4001 88.8519 48.8743 89.5665 49.6039 89.8735L55.0691 92.1745L57.0967 97.0674L54.8548 102.574C54.5566 103.306 54.7262 104.146 55.2855 104.706L61.6966 111.113C62.2558 111.672 63.0958 111.842 63.8284 111.544L69.3349 109.304L74.2258 111.329L76.5267 116.796C76.8338 117.526 77.5484 118 78.3399 118H87.402C88.1931 118 88.9075 117.527 89.2152 116.798L91.5162 111.331L96.4091 109.304L101.916 111.545C102.647 111.841 103.485 111.671 104.043 111.113L110.455 104.702C111.014 104.142 111.183 103.302 110.885 102.57L108.645 97.0634L110.671 92.1705L116.138 89.8696C116.865 89.5616 117.338 88.8482 117.338 88.0584V78.9963C117.338 78.2047 116.864 77.4901 116.134 77.1831ZM113.404 86.7525L108.397 88.8627C107.92 89.0635 107.542 89.4443 107.343 89.9227L104.698 96.3102C104.503 96.7879 104.503 97.3233 104.698 97.8009L106.746 102.853L102.195 107.406L97.1505 105.353C96.6719 105.158 96.1364 105.158 95.6578 105.353L89.2723 108C88.7944 108.197 88.4136 108.575 88.2123 109.052L86.0942 114.063H79.6438L77.5376 109.056C77.3367 108.579 76.9559 108.2 76.4776 108.002L70.09 105.357C69.6119 105.16 69.0755 105.16 68.5974 105.357L63.5531 107.408L58.9925 102.853L61.0456 97.8088C61.2433 97.3309 61.2433 96.794 61.0456 96.3161L58.3986 89.9306C58.2009 89.4527 57.8229 89.0719 57.3465 88.8706L52.3395 86.7604V80.31L57.3445 78.2037C57.8216 78.0029 58.2005 77.6221 58.3986 77.1437L61.0456 70.7582C61.2423 70.2793 61.2423 69.7424 61.0456 69.2636L58.9925 64.2192L63.5531 59.6587L68.5974 61.7118C69.0755 61.9114 69.6139 61.9114 70.092 61.7118L76.4776 59.0648C76.9559 58.8666 77.3367 58.4878 77.5376 58.0107L79.6438 53.0057H86.0942L88.2044 58.0126C88.4057 58.489 88.7865 58.8671 89.2644 59.0648L95.65 61.7118C96.1276 61.9104 96.665 61.9104 97.1426 61.7118L102.195 59.6508L106.755 64.2114L104.702 69.2557C104.506 69.7346 104.506 70.2714 104.702 70.7503L107.349 77.1359C107.547 77.6142 107.926 77.995 108.403 78.1959L113.404 80.3021V86.7525Z M82.8701 63.8634C72.0088 63.8634 63.2041 72.6681 63.2041 83.5294C63.2041 94.3907 72.0088 103.195 82.8701 103.195C93.7314 103.195 102.536 94.3907 102.536 83.5294C102.524 72.673 93.7265 63.8752 82.8701 63.8634ZM82.8701 99.2622C74.1812 99.2622 67.1373 92.2183 67.1373 83.5294C67.1373 74.8405 74.1812 67.7966 82.8701 67.7966C91.5591 67.7966 98.6029 74.8405 98.6029 83.5294C98.5931 92.2144 91.5551 99.2524 82.8701 99.2622Z M84.8375 81.5629H80.9043V85.4961H84.8375V81.5629Z M76.9703 81.5629H73.0371V85.4961H76.9703V81.5629Z M92.6959 81.5629H88.7627V85.4961H92.6959V81.5629Z M82.8396 22.0082L77.6438 19.3317L76.7353 17.1409L78.517 11.5656C78.7409 10.865 78.5551 10.0978 78.0352 9.57735L74.3281 5.8703C73.8077 5.35038 73.0405 5.16454 72.3399 5.38849L66.7646 7.17023L64.5738 6.26166L61.8972 1.0659C61.56 0.411265 60.8852 0 60.1489 0H54.904C54.1678 0 53.493 0.411265 53.1557 1.0659L50.4733 6.26166L48.2844 7.17023L42.717 5.38849C42.0156 5.1638 41.2477 5.34965 40.7268 5.8703L37.0178 9.57735C36.4978 10.0978 36.312 10.865 36.5359 11.5656L38.3157 17.1409L37.4072 19.3317L32.2134 22.0082C31.5587 22.3455 31.1475 23.0203 31.1475 23.7565V29.0015C31.1475 29.7377 31.5587 30.4125 32.2134 30.7498L37.4072 33.4322L38.3157 35.6211L36.5359 41.1944C36.3113 41.8957 36.4971 42.6637 37.0178 43.1846L40.7248 46.8936C41.2452 47.4135 42.0124 47.5994 42.713 47.3754L48.2884 45.5956L50.4733 46.4983L53.1498 51.6921C53.4871 52.3467 54.1619 52.758 54.8981 52.758H60.1489C60.8852 52.758 61.56 52.3467 61.8972 51.6921L64.5738 46.4983L66.7646 45.5897L72.3399 47.3695C73.0405 47.5935 73.8077 47.4076 74.3281 46.8877L78.0352 43.1807C78.5551 42.6603 78.7409 41.893 78.517 41.1924L76.7353 35.6171L77.6438 33.4322L82.8396 30.7557C83.4962 30.4174 83.9077 29.7399 83.9055 29.0015V23.7565C83.9055 23.0203 83.4942 22.3455 82.8396 22.0082ZM79.9723 27.8038L75.2013 30.2621C74.7878 30.4749 74.4631 30.8275 74.2849 31.2572L72.8276 34.7774C72.6496 35.2063 72.63 35.6845 72.7726 36.1265L74.4068 41.2396L72.393 43.2652L67.2798 41.631C66.8371 41.4891 66.3585 41.5086 65.9288 41.686L62.4086 43.1453C61.9801 43.3232 61.6283 43.6472 61.4154 44.0597L58.9572 48.8307H56.1017L53.6434 44.0519C53.431 43.6384 53.0783 43.3141 52.6483 43.1374L49.1281 41.6782C48.6991 41.5002 48.221 41.4805 47.779 41.6231L42.6658 43.2574L40.6402 41.2455L42.2745 36.1324C42.4163 35.6896 42.3969 35.211 42.2194 34.7813L40.7602 31.2611C40.5835 30.8311 40.2592 30.4784 39.8457 30.266L35.0748 27.8077V24.9542L39.8457 22.496C40.2582 22.2831 40.5822 21.9313 40.7602 21.5028L42.2194 17.9826C42.3969 17.5529 42.4163 17.0743 42.2745 16.6315L40.6402 11.5125L42.6599 9.49868L47.7731 11.1329C48.2156 11.2765 48.6947 11.2568 49.1242 11.0779L52.6444 9.62061C53.0741 9.44239 53.4266 9.11766 53.6395 8.70418L56.1017 3.9332H58.9513L61.4095 8.70418C61.6219 9.11741 61.9737 9.44214 62.4027 9.62061L65.9229 11.0779C66.3523 11.2568 66.8314 11.2765 67.2739 11.1329L72.3871 9.49868L74.4068 11.5125L72.7726 16.6256C72.6307 17.0684 72.6501 17.547 72.8276 17.9767L74.2849 21.4969C74.4633 21.9259 74.7881 22.2777 75.2013 22.4901L79.9723 24.9542V27.8038Z M47.4407 66.6401L42.3137 63.997L41.7021 62.526L43.4603 57.0195C43.6845 56.3179 43.4976 55.5497 42.9765 55.0293L40.0266 52.0794C39.5057 51.5587 38.7377 51.3729 38.0364 51.5976L32.5299 53.3557L31.0569 52.7461L28.4138 47.6172C28.0765 46.9625 27.4017 46.5513 26.6655 46.5513H22.4963C21.7605 46.552 21.087 46.9633 20.7499 47.6172L18.1049 52.7461L16.6339 53.3557L11.1411 51.5995C10.4393 51.3741 9.67012 51.56 9.14897 52.0814L6.19907 55.0313C5.67202 55.5524 5.48273 56.3255 5.70938 57.0313L7.46753 62.5378L6.85788 64.0088L1.72898 66.6401C1.07509 66.9771 0.663823 67.6507 0.663086 68.3864V72.5674C0.663086 73.3037 1.07435 73.9785 1.72898 74.3157L6.85788 76.953L7.46753 78.4259L5.70938 83.9324C5.4847 84.6338 5.67054 85.4017 6.1912 85.9226L9.1411 88.8725C9.66471 89.3954 10.4376 89.58 11.1411 89.3504L16.6476 87.5923L18.1186 88.2039L20.7617 93.3308C21.0988 93.9847 21.7723 94.396 22.5081 94.3967H26.6773C27.4135 94.3967 28.0883 93.9854 28.4256 93.3308L31.0687 88.2039L32.5417 87.5923L38.0482 89.3504C38.7495 89.5751 39.5175 89.3892 40.0384 88.8686L42.9883 85.9187C43.5094 85.3983 43.6963 84.6301 43.4721 83.9285L41.7139 78.422L42.3255 76.949L47.4525 74.3059C48.0992 73.9672 48.5053 73.2978 48.5066 72.5674V68.3864C48.5058 67.6507 48.0946 66.9771 47.4407 66.6401ZM44.5734 71.3639L39.8692 73.7887C39.4553 74.0003 39.1308 74.3534 38.9548 74.7838L37.7945 77.5842C37.6158 78.0142 37.5956 78.4938 37.7374 78.9373L39.3501 83.9816L38.0914 85.2402L33.0471 83.6276C32.6039 83.4838 32.1235 83.5039 31.6941 83.6846L28.8936 84.8449C28.4632 85.0209 28.1102 85.3454 27.8985 85.7594L25.4737 90.4635H23.7038L21.279 85.7594C21.0673 85.3454 20.7143 85.0209 20.2839 84.8449L17.4815 83.6846C17.0525 83.5039 16.5729 83.4838 16.1304 83.6276L11.0861 85.2402L9.82745 83.9816L11.4401 78.9373C11.5829 78.4933 11.5635 78.0132 11.385 77.5823L10.2227 74.7818C10.0443 74.3529 9.71953 74.0011 9.3063 73.7887L4.59629 71.3639V69.5939L9.29843 67.1691C9.71166 66.9567 10.0364 66.6049 10.2149 66.176L11.3771 63.3736C11.5563 62.9436 11.5758 62.4638 11.4322 62.0206L9.81958 56.9762L11.0782 55.7176L16.1225 57.3302C16.5658 57.4735 17.0456 57.4541 17.4756 57.2751L20.278 56.1129C20.7032 55.9324 21.0513 55.608 21.2613 55.1964L23.6861 50.4943H25.456L27.8808 55.1964C28.0908 55.608 28.4389 55.9324 28.8641 56.1129L31.6646 57.2751C32.0955 57.4536 32.5756 57.473 33.0196 57.3302L38.0639 55.7176L39.3225 56.9762L37.7099 62.0206C37.5686 62.4635 37.5887 62.9421 37.767 63.3716L38.9272 66.174C39.1033 66.6045 39.4277 66.9575 39.8417 67.1691L44.5734 69.5861V71.3639Z M57.527 12.6118C49.9241 12.6118 43.7607 18.7751 43.7607 26.378C43.7607 33.9809 49.9241 40.1442 57.527 40.1442C65.1298 40.1442 71.2932 33.9809 71.2932 26.378C71.2833 18.7793 65.1257 12.6216 57.527 12.6118ZM57.527 36.211C52.0964 36.211 47.6939 31.8085 47.6939 26.378C47.6939 20.9475 52.0964 16.545 57.527 16.545C62.9575 16.545 67.36 20.9475 67.36 26.378C67.3536 31.8058 62.9548 36.2046 57.527 36.211Z M55.5602 24.4114H51.627V28.3446H55.5602V24.4114Z M63.4264 24.4114H59.4932V28.3446H63.4264V24.4114Z M24.584 60.6421C19.1535 60.6421 14.751 65.0446 14.751 70.4751C14.751 75.9056 19.1535 80.3081 24.584 80.3081C30.0145 80.3081 34.417 75.9056 34.417 70.4751C34.4106 65.0473 30.0118 60.6485 24.584 60.6421ZM24.584 76.3749C21.3256 76.3749 18.6842 73.7335 18.6842 70.4751C18.6842 67.2167 21.3256 64.5753 24.584 64.5753C27.8424 64.5753 30.4838 67.2167 30.4838 70.4751C30.4838 73.7335 27.8424 76.3749 24.584 76.3749Z M26.5514 68.5085H22.6182V72.4417H26.5514V68.5085Z M91.1166 22.3523L88.4932 25.2825C96.1314 32.1219 101.226 41.3484 102.946 51.456L106.824 50.807C104.957 39.8187 99.4198 29.7878 91.1166 22.3523Z M25.8178 22.1243C18.9155 28.2038 13.8589 36.0989 11.2236 44.9113L14.9916 46.0362C17.4167 37.9289 22.0699 30.6657 28.4216 25.0742L25.8178 22.1243Z M33.3303 96.6919L31.1533 99.9683C36.2987 103.398 42.0498 105.816 48.0995 107.095L48.9137 103.247C43.3504 102.07 38.062 99.8453 33.3303 96.6919Z"/>
</svg>
