<svg viewBox="0 0 121 121" xmlns="http://www.w3.org/2000/svg">
<path d="M21.2815 93.5739C19.5875 93.5739 17.9591 93.9967 16.5143 94.7907C8.90385 85.0347 4.72656 72.9155 4.72656 60.5C4.72656 29.746 29.746 4.72656 60.5 4.72656C64.2388 4.72656 67.9757 5.09859 71.6074 5.8325C72.8851 6.09099 74.1332 5.26384 74.3917 3.98434C74.6501 2.70485 73.823 1.45859 72.5435 1.19918C68.6044 0.403419 64.5527 0 60.5 0C44.3401 0 29.1468 6.29316 17.72 17.72C6.29316 29.1468 0 44.3401 0 60.5C0 74.0935 4.61578 87.3592 13.0193 97.994C11.9373 99.6105 11.3558 101.51 11.3558 103.5C11.3558 106.151 12.3888 108.644 14.2637 110.518C16.1377 112.392 18.6302 113.425 21.2815 113.425C23.9328 113.425 26.4254 112.392 28.3003 110.518C30.1752 108.644 31.2073 106.15 31.2073 103.499C31.2073 100.848 30.1752 98.355 28.3003 96.481C26.4254 94.606 23.9328 93.5739 21.2815 93.5739ZM24.9575 107.176C23.9762 108.158 22.67 108.699 21.2815 108.699C19.8931 108.699 18.5878 108.158 17.6055 107.176C16.6233 106.193 16.0823 104.888 16.0823 103.5C16.0823 102.11 16.6233 100.805 17.6055 99.8228C18.5868 98.8405 19.8931 98.3005 21.2815 98.3005C22.67 98.3005 23.9753 98.8415 24.9575 99.8228C25.9398 100.805 26.4807 102.11 26.4807 103.5C26.4807 104.888 25.9398 106.193 24.9575 107.176Z M107.979 23.0029C110.548 19.1488 110.135 13.8794 106.737 10.4812C104.862 8.60723 102.37 7.57422 99.7184 7.57422C97.0671 7.57422 94.5745 8.60723 92.6996 10.4812C90.8247 12.3562 89.7926 14.8487 89.7926 17.5C89.7926 20.1513 90.8247 22.6438 92.6996 24.5188C94.5745 26.3937 97.0671 27.4258 99.7184 27.4258C101.412 27.4258 103.041 27.003 104.486 26.2091C112.096 35.9659 116.273 48.0842 116.273 60.4997C116.273 91.2538 91.2539 116.273 60.4999 116.273C56.798 116.273 53.0962 115.909 49.4986 115.188C48.2191 114.933 46.9738 115.763 46.7172 117.042C46.4615 118.323 47.2914 119.567 48.5709 119.824C52.4731 120.604 56.4869 121 60.4999 121C76.6598 121 91.8531 114.707 103.28 103.28C114.707 91.8529 121 76.6596 121 60.4997C121 46.9053 116.383 33.6386 107.979 23.0029ZM96.0424 21.1769C95.0601 20.1947 94.5191 18.8894 94.5191 17.5C94.5191 16.1116 95.0601 14.8062 96.0424 13.824C97.0237 12.8418 98.3299 12.3008 99.7184 12.3008C101.107 12.3008 102.413 12.8418 103.395 13.824C105.422 15.8512 105.422 19.1497 103.395 21.1769C102.413 22.1582 101.107 22.6992 99.7184 22.6992C98.329 22.6992 97.0237 22.1582 96.0424 21.1769Z M50.7476 101.148C50.7476 102.454 51.8064 103.512 53.1108 103.512H67.8878C69.1932 103.512 70.2511 102.454 70.2511 101.148V96.5668C73.3584 95.7304 76.3292 94.4989 79.1208 92.8908L82.3555 96.1255C82.7986 96.5687 83.3996 96.8179 84.0274 96.8179C84.6533 96.8179 85.2552 96.5687 85.6983 96.1246L96.1429 85.6726C97.0651 84.7495 97.0651 83.253 96.1429 82.3308L92.9118 79.0998C94.52 76.3081 95.7514 73.3374 96.5878 70.2301H101.152C102.457 70.2301 103.515 69.1721 103.515 67.8668V53.0898C103.515 51.7845 102.457 50.7265 101.152 50.7265H96.5869C95.7505 47.6201 94.52 44.6494 92.9118 41.8578L96.1253 38.6443C96.5684 38.2011 96.8177 37.5993 96.8177 36.9724C96.8168 36.3456 96.5675 35.7437 96.1244 35.3006L85.6715 24.856C84.7493 23.9338 83.2528 23.9338 82.3297 24.8569L79.1208 28.0667C76.3292 26.4586 73.3584 25.2271 70.2511 24.3907V19.8516C70.2511 18.5462 69.1932 17.4883 67.8878 17.4883H53.1108C51.8064 17.4883 50.7476 18.5462 50.7476 19.8516V24.3916C47.6411 25.2271 44.6704 26.4586 41.8788 28.0667L38.669 24.8569C37.7467 23.9347 36.2503 23.9338 35.3272 24.856L24.8752 35.3015C24.4311 35.7446 24.1819 36.3456 24.1819 36.9724C24.1819 37.5993 24.4311 38.2011 24.8742 38.6443L28.0878 41.8578C26.4796 44.6494 25.2481 47.6192 24.4117 50.7265H19.856C18.5506 50.7265 17.4927 51.7845 17.4927 53.0889L17.4844 67.8659C17.4835 68.4927 17.7327 69.0946 18.1758 69.5377C18.6189 69.9808 19.2199 70.2301 19.8477 70.2301H24.4117C25.2481 73.3374 26.4796 76.3081 28.0878 79.0998L24.8567 82.3308C23.9345 83.253 23.9336 84.7495 24.8567 85.6726L35.3013 96.1246C35.7444 96.5677 36.3454 96.8179 36.9722 96.8179H36.9731C37.6 96.8179 38.2009 96.5687 38.6441 96.1255L41.8779 92.8908C44.6704 94.4989 47.6411 95.7304 50.7476 96.5668V101.148ZM42.8047 87.9205C41.8696 87.3159 40.639 87.4469 39.8506 88.2344L36.9731 91.1119L29.8694 84.0026L32.7442 81.127C33.5316 80.3396 33.6627 79.109 33.058 78.1738C30.9154 74.8579 29.4088 71.2234 28.5816 67.3701C28.3472 66.2817 27.3852 65.5035 26.271 65.5035H22.2119L22.2174 55.4531H26.271C27.3852 55.4531 28.3472 54.6758 28.5816 53.5865C29.4088 49.7341 30.9154 46.0997 33.058 42.7837C33.6627 41.8485 33.5316 40.618 32.7442 39.8305L29.8879 36.9734L36.9971 29.8697L39.8506 32.7241C40.639 33.5115 41.8686 33.6417 42.8047 33.0379C46.1198 30.8953 49.7542 29.3887 53.6075 28.5615C54.6959 28.3271 55.4741 27.3642 55.4741 26.2509V22.2148H65.5245V26.25C65.5245 27.3642 66.3018 28.3271 67.3912 28.5606C71.2435 29.3887 74.8789 30.8944 78.1939 33.037C79.1291 33.6417 80.3597 33.5115 81.1471 32.7231L84.0015 29.8697L91.1107 36.9734L88.2545 39.8296C87.4661 40.618 87.336 41.8485 87.9406 42.7837C90.0833 46.0997 91.5889 49.7341 92.417 53.5865C92.6506 54.6758 93.6134 55.4531 94.7277 55.4531H98.7886V65.5035H94.7277C93.6134 65.5035 92.6515 66.2817 92.417 67.3701C91.5899 71.2225 90.0833 74.8579 87.9406 78.1729C87.336 79.109 87.467 80.3396 88.2545 81.127L91.1292 84.0017L84.0255 91.111L81.148 88.2344C80.3597 87.446 79.1291 87.3159 78.1939 87.9205C74.878 90.0632 71.2435 91.5688 67.3912 92.3969C66.3018 92.6314 65.5245 93.5933 65.5245 94.7076V98.7852H55.4741V94.7076C55.4741 93.5942 54.6959 92.6314 53.6075 92.3969C49.7552 91.5698 46.1207 90.0632 42.8047 87.9205Z M80.0277 60.4999C80.0277 49.7322 71.2679 40.9724 60.5002 40.9724C49.7325 40.9724 40.9727 49.7322 40.9727 60.4999C40.9727 71.2676 49.7325 80.0275 60.5002 80.0275C71.2679 80.0275 80.0277 71.2676 80.0277 60.4999ZM45.6992 60.4999C45.6992 52.3383 52.3386 45.699 60.5002 45.699C68.6618 45.699 75.3012 52.3392 75.3012 60.4999C75.3012 68.6606 68.6618 75.3009 60.5002 75.3009C52.3386 75.3009 45.6992 68.6616 45.6992 60.4999 M82.2607 8.93783C82.8829 8.93783 83.4922 8.68488 83.9317 8.24546C84.3711 7.80327 84.624 7.19398 84.624 6.57178C84.624 5.95326 84.372 5.34306 83.9317 4.90086C83.4922 4.46144 82.8829 4.2085 82.2607 4.2085C81.6367 4.2085 81.0302 4.46144 80.5908 4.90086C80.1504 5.34306 79.8975 5.95049 79.8975 6.57178C79.8975 7.19583 80.1504 7.80327 80.5908 8.24546C81.0302 8.68488 81.6367 8.93783 82.2607 8.93783Z M38.8428 112.104C38.2215 112.104 37.6113 112.357 37.1719 112.797C36.7324 113.236 36.4795 113.846 36.4795 114.468C36.4795 115.092 36.7324 115.699 37.1719 116.139C37.6113 116.578 38.2215 116.831 38.8428 116.831C39.4641 116.831 40.0743 116.578 40.5137 116.139C40.9531 115.699 41.2061 115.089 41.2061 114.468C41.2061 113.846 40.9531 113.236 40.5137 112.797C40.0743 112.357 39.4641 112.104 38.8428 112.104Z" />
</svg>
