<svg version="1.2" baseProfile="tiny-ps" xmlns="http://www.w3.org/2000/svg" viewBox="0 0 702 619" width="702" height="619">
	<title>971-ai</title>
	<defs>
		<linearGradient id="grd1" gradientUnits="userSpaceOnUse"  x1="48.118" y1="498.719" x2="113.341" y2="498.719">
			<stop offset="0" stop-color="#e39a65"  />
			<stop offset="1" stop-color="#e95f8d"  />
		</linearGradient>
		<linearGradient id="grd2" gradientUnits="userSpaceOnUse"  x1="7.815" y1="395.849" x2="117.372" y2="395.849">
			<stop offset="0" stop-color="#e39a65"  />
			<stop offset="1" stop-color="#e95f8d"  />
		</linearGradient>
		<linearGradient id="grd3" gradientUnits="userSpaceOnUse"  x1="525.37" y1="523.553" x2="634.927" y2="523.553">
			<stop offset="0" stop-color="#e39a65"  />
			<stop offset="1" stop-color="#e95f8d"  />
		</linearGradient>
		<linearGradient id="grd4" gradientUnits="userSpaceOnUse"  x1="111.042" y1="262.588" x2="695.759" y2="262.588">
			<stop offset="0" stop-color="#e39a65"  />
			<stop offset="1" stop-color="#e95f8d"  />
		</linearGradient>
		<radialGradient id="grd5" gradientUnits="userSpaceOnUse"  cx="145.915" cy="4.482" r="443.94">
			<stop offset="0" stop-color="#e39a65"  />
			<stop offset="0.474" stop-color="#a92ffb"  />
			<stop offset="0.742" stop-color="#6507fa"  />
			<stop offset="0.802" stop-color="#0d0c6f"  />
		</radialGradient>
		<radialGradient id="grd6" gradientUnits="userSpaceOnUse"  cx="158.792" cy="363.041" r="488.345">
			<stop offset="0" stop-color="#e39a65"  />
			<stop offset="0.474" stop-color="#a92ffb"  />
			<stop offset="0.683" stop-color="#6507fa"  />
			<stop offset="0.738" stop-color="#0d0c6f"  />
		</radialGradient>
		<radialGradient id="grd7" gradientUnits="userSpaceOnUse"  cx="204.806" cy="265.512" r="435.524">
			<stop offset="0" stop-color="#e39a65"  />
			<stop offset="0.474" stop-color="#a92ffb"  />
			<stop offset="0.726" stop-color="#6507fa"  />
			<stop offset="1" stop-color="#3919bb"  />
		</radialGradient>
		<radialGradient id="grd8" gradientUnits="userSpaceOnUse"  cx="37.263" cy="98.243" r="444.029">
			<stop offset="0" stop-color="#e39a65"  />
			<stop offset="0.474" stop-color="#a92ffb"  />
			<stop offset="0.726" stop-color="#6507fa"  />
			<stop offset="1" stop-color="#3919bb"  />
		</radialGradient>
		<linearGradient id="grd9" gradientUnits="userSpaceOnUse"  x1="85.945" y1="18.897" x2="441.774" y2="18.897">
			<stop offset="0" stop-color="#3919bb"  />
			<stop offset="1" stop-color="#6507fa"  />
		</linearGradient>
		<radialGradient id="grd10" gradientUnits="userSpaceOnUse"  cx="-112.861" cy="3.584" r="691.564">
			<stop offset="0" stop-color="#e39a65"  />
			<stop offset="0.474" stop-color="#a92ffb"  />
			<stop offset="0.726" stop-color="#6507fa"  />
			<stop offset="1" stop-color="#3919bb"  />
		</radialGradient>
		<linearGradient id="grd11" gradientUnits="userSpaceOnUse"  x1="536.819" y1="216.602" x2="690.37" y2="216.602">
			<stop offset="0" stop-color="#e39a65"  />
			<stop offset="1" stop-color="#e95f8d"  />
		</linearGradient>
		<radialGradient id="grd12" gradientUnits="userSpaceOnUse"  cx="550.432" cy="138.725" r="330.699">
			<stop offset="0" stop-color="#e39a65"  />
			<stop offset="0.153" stop-color="#a92ffb"  />
			<stop offset="0.409" stop-color="#3919bb"  />
			<stop offset="0.931" stop-color="#3919bb"  />
		</radialGradient>
		<linearGradient id="grd13" gradientUnits="userSpaceOnUse"  x1="556.849" y1="55.101" x2="674.268" y2="55.101">
			<stop offset="0" stop-color="#e39a65"  />
			<stop offset="0.252" stop-color="#a92ffb"  />
			<stop offset="0.556" stop-color="#3919bb"  />
		</linearGradient>
		<linearGradient id="grd14" gradientUnits="userSpaceOnUse"  x1="571.702" y1="60.885" x2="659.482" y2="60.885">
			<stop offset="0" stop-color="#4f1fec"  />
			<stop offset="1" stop-color="#a92ffb"  />
		</linearGradient>
		<linearGradient id="grd15" gradientUnits="userSpaceOnUse"  x1="569.416" y1="60.885" x2="657.195" y2="60.885">
			<stop offset="0" stop-color="#4f1fec"  />
			<stop offset="1" stop-color="#a92ffb"  />
		</linearGradient>
		<linearGradient id="grd16" gradientUnits="userSpaceOnUse"  x1="568.399" y1="60.859" x2="687.423" y2="60.859">
			<stop offset="0" stop-color="#131060"  />
			<stop offset="0.607" stop-color="#740df8"  />
			<stop offset="1" stop-color="#e8975b"  />
		</linearGradient>
		<radialGradient id="grd17" gradientUnits="userSpaceOnUse"  cx="548.176" cy="67.365" r="196.782">
			<stop offset="0" stop-color="#e39a65"  />
			<stop offset="0.252" stop-color="#a92ffb"  />
			<stop offset="0.736" stop-color="#3919bb"  />
		</radialGradient>
		<linearGradient id="grd18" gradientUnits="userSpaceOnUse"  x1="607.965" y1="113.936" x2="624.775" y2="113.936">
			<stop offset="0" stop-color="#131060"  />
			<stop offset="0.607" stop-color="#740df8"  />
			<stop offset="1" stop-color="#e8975b"  />
		</linearGradient>
	</defs>
	<style>
		tspan { white-space:pre }
		.shp0 { fill: url(#grd1) } 
		.shp1 { fill: url(#grd2) } 
		.shp2 { fill: url(#grd3) } 
		.shp3 { opacity: 0.6;fill: #020230 } 
		.shp4 { fill: url(#grd4) } 
		.shp5 { fill: url(#grd5) } 
		.shp6 { fill: url(#grd6) } 
		.shp7 { fill: url(#grd7) } 
		.shp8 { fill: #ffffff } 
		.shp9 { fill: #06033e } 
		.shp10 { fill: url(#grd8) } 
		.shp11 { fill: url(#grd9) } 
		.shp12 { opacity: 0.4;fill: #06033e } 
		.shp13 { opacity: 0.502;fill: #06033e } 
		.shp14 { fill: url(#grd10) } 
		.shp15 { fill: #e8975b } 
		.shp16 { fill: #f8359e } 
		.shp17 { fill: url(#grd11) } 
		.shp18 { fill: url(#grd12) } 
		.shp19 { fill: url(#grd13) } 
		.shp20 { fill: url(#grd14) } 
		.shp21 { fill: url(#grd15) } 
		.shp22 { fill: url(#grd16) } 
		.shp23 { fill: url(#grd17) } 
		.shp24 { fill: #0c0a78 } 
		.shp25 { fill: url(#grd18) } 
		.shp26 { opacity: 0.502;fill: #ffffff } 
	</style>
	<g id="\321\353\356\351 1">
		<path id="&lt;Compound Path&gt;" fill-rule="evenodd" class="shp0" d="M80.73 541.01C78.32 541.01 75.91 540.39 73.77 539.15L50.29 525.6C48.93 524.81 48.12 523.4 48.12 521.83C48.12 520.26 48.93 518.85 50.29 518.07L73.77 504.51C78.06 502.04 83.4 502.03 87.69 504.51L111.16 518.07C112.53 518.85 113.34 520.26 113.34 521.83C113.34 523.4 112.53 524.81 111.16 525.6L87.69 539.15C85.55 540.39 83.14 541.01 80.73 541.01ZM80.73 506.38C78.96 506.38 77.2 506.83 75.63 507.74L52.15 521.29C51.88 521.45 51.84 521.7 51.84 521.83C51.84 521.97 51.88 522.22 52.15 522.37L75.63 535.93C75.63 535.93 75.63 535.93 75.63 535.93C78.77 537.74 82.68 537.74 85.83 535.93L109.31 522.37C109.58 522.22 109.62 521.97 109.62 521.83C109.62 521.7 109.58 521.45 109.31 521.29L85.83 507.74C84.26 506.83 82.49 506.38 80.73 506.38Z" />
		<path id="&lt;Compound Path&gt;" fill-rule="evenodd" class="shp1" d="M62.59 463.11C58.68 463.11 54.77 462.1 51.28 460.09L10.89 436.76C8.96 435.65 7.82 433.67 7.82 431.45C7.82 429.23 8.96 427.24 10.89 426.13L51.28 402.81C58.25 398.78 66.93 398.78 73.9 402.81L114.3 426.13C116.22 427.24 117.37 429.23 117.37 431.44C117.37 433.66 116.23 435.65 114.3 436.76L73.91 460.09C70.42 462.1 66.5 463.11 62.59 463.11ZM53.14 456.86C58.98 460.23 66.21 460.23 72.05 456.86L112.44 433.54C113.53 432.91 113.65 431.87 113.65 431.45C113.65 431.03 113.53 429.98 112.44 429.35L72.04 406.03C66.21 402.67 58.97 402.67 53.14 406.03L12.75 429.35C11.66 429.98 11.54 431.03 11.54 431.45C11.54 431.87 11.66 432.91 12.75 433.54L53.14 456.86Z" />
		<path id="&lt;Compound Path&gt;" fill-rule="evenodd" class="shp2" d="M580.15 590.81C576.24 590.81 572.33 589.81 568.84 587.79L528.44 564.47C526.52 563.36 525.37 561.37 525.37 559.15C525.37 556.93 526.52 554.94 528.44 553.83L568.84 530.51C575.81 526.48 584.48 526.48 591.46 530.51L631.85 553.84C633.78 554.95 634.93 556.93 634.93 559.15C634.93 561.37 633.78 563.36 631.85 564.47L591.46 587.79C587.97 589.81 584.06 590.81 580.15 590.81ZM580.15 531.21C576.88 531.21 573.61 532.05 570.7 533.73L530.3 557.06C529.21 557.69 529.09 558.73 529.09 559.15C529.09 559.57 529.21 560.62 530.3 561.25L570.7 584.57C576.53 587.93 583.77 587.93 589.6 584.57L630 561.25C631.09 560.62 631.2 559.57 631.2 559.15C631.2 558.73 631.09 557.69 630 557.06L589.6 533.73C586.68 532.05 583.41 531.21 580.15 531.21Z" />
		<g id="&lt;Group&gt;">
			<path id="&lt;Path&gt;" class="shp3" d="M343.01 576.88L157.62 469.84C152.76 467.04 152.23 462.79 156.44 460.36L445.3 293.59C449.51 291.15 456.86 291.46 461.73 294.27L647.12 401.3C651.98 404.11 652.51 408.36 648.3 410.79L359.44 577.56C355.23 579.99 347.87 579.69 343.01 576.88Z" />
			<path id="&lt;Compound Path&gt;" fill-rule="evenodd" class="shp4" d="M341.29 604.76L116.56 473.09C113.05 471.07 111.04 468.25 111.04 465.36C111.04 462.84 112.52 460.6 115.22 459.05L444.89 268.71C450.29 265.59 459.35 265.93 465.51 269.49L690.24 401.15C693.75 403.18 695.76 406 695.76 408.89C695.76 411.41 694.28 413.65 691.58 415.2L361.91 605.54L361.91 605.54C359.43 606.97 356.2 607.67 352.82 607.67C348.82 607.67 344.63 606.69 341.29 604.76ZM446.75 271.93L117.08 462.27C116.02 462.88 114.76 463.91 114.76 465.36C114.76 466.86 116.13 468.55 118.43 469.88L343.16 601.54C348.1 604.39 355.84 604.75 360.05 602.32C360.05 602.32 360.05 602.32 360.05 602.32L689.72 411.98C690.78 411.37 692.04 410.34 692.04 408.89C692.04 407.39 690.67 405.7 688.37 404.37L463.64 272.71C460.9 271.13 457.31 270.31 453.94 270.31C451.22 270.31 448.63 270.85 446.75 271.93Z" />
			<path id="&lt;Path&gt;" class="shp5" d="M79.7 180.76L367.42 14.64C369.4 13.5 371.46 13.27 373.3 13.8L373.3 13.8L373.3 13.8C373.31 13.8 373.32 13.81 373.32 13.81L378.65 15.67L376.78 16.11C377.53 17 378.13 18.1 378.53 19.4L443.6 230.66C445.21 235.9 442.85 242.27 438.33 244.88L150.6 411C149.9 411.4 149.19 411.68 148.49 411.86L149.2 413.41L144.11 411.63L144.12 411.62C142.04 410.79 140.32 408.93 139.49 406.24L74.42 194.98C72.81 189.74 75.17 183.37 79.7 180.76Z" />
			<path id="&lt;Path&gt;" class="shp6" d="M160.9 418.88L160.8 419.01L445 254.93C449.18 252.51 456.48 252.81 461.31 255.6L644.92 361.61L651.05 359.28L649.33 367.87L649.32 367.86C649.09 369.15 648.19 370.36 646.56 371.3L359.74 536.9C355.56 539.31 348.26 539.01 343.43 536.22L159.34 429.94C157.07 428.63 155.77 427 155.44 425.39L155.43 425.41L153.68 417.05L160.9 418.88Z" />
			<path id="&lt;Path&gt;" class="shp7" d="M343.01 528.66L157.62 421.62C152.76 418.82 152.23 414.57 156.44 412.14L445.3 245.37C449.51 242.93 456.86 243.24 461.73 246.05L647.12 353.08C651.98 355.89 652.51 360.14 648.3 362.57L359.44 529.34C355.23 531.77 347.87 531.47 343.01 528.66Z" />
			<path id="&lt;Path&gt;" class="shp8" d="M157.62 419.37L343.01 526.41C347.87 529.22 355.23 529.52 359.44 527.09L648.3 360.32C649.73 359.49 650.57 358.44 650.92 357.32C651.48 359.26 650.67 361.2 648.3 362.57L359.44 529.34C355.23 531.77 347.87 531.47 343.01 528.66L157.62 421.62C154.41 419.77 153.13 417.3 153.81 415.14C154.25 416.64 155.49 418.15 157.62 419.37Z" />
			<g id="&lt;Group&gt;" style="opacity: 0.4">
				<path id="&lt;Path&gt;" class="shp9" d="M507.46 335.38L495.95 328.73C495.04 328.21 494.95 327.42 495.73 326.97L505.48 321.34C506.26 320.88 507.63 320.94 508.54 321.46L520.05 328.11C520.95 328.63 521.05 329.42 520.27 329.87L510.51 335.5C509.73 335.95 508.36 335.9 507.46 335.38Z" />
				<path id="&lt;Path&gt;" class="shp9" d="M492.4 344.07L480.89 337.42C479.98 336.9 479.89 336.11 480.67 335.66L490.42 330.03C491.2 329.58 492.57 329.64 493.48 330.16L504.99 336.8C505.89 337.33 505.99 338.11 505.21 338.57L495.45 344.2C494.67 344.65 493.3 344.59 492.4 344.07Z" />
				<path id="&lt;Path&gt;" class="shp9" d="M477.34 352.77L465.83 346.12C464.92 345.6 464.83 344.81 465.61 344.36L475.36 338.73C476.14 338.27 477.51 338.33 478.42 338.85L489.93 345.5C490.83 346.02 490.93 346.81 490.15 347.26L480.39 352.89C479.61 353.34 478.24 353.29 477.34 352.77Z" />
				<path id="&lt;Path&gt;" class="shp9" d="M456.51 345.59L446.85 340.01C445.94 339.48 445.84 338.69 446.63 338.24L456.38 332.61C457.16 332.16 458.53 332.22 459.43 332.74L469.1 338.32C470 338.84 470.1 339.63 469.32 340.08L459.56 345.71C458.78 346.16 457.41 346.11 456.51 345.59Z" />
				<path id="&lt;Path&gt;" class="shp9" d="M441.45 354.28L431.79 348.7C430.88 348.18 430.78 347.39 431.57 346.94L441.32 341.31C442.1 340.86 443.47 340.91 444.37 341.43L454.04 347.01C454.94 347.53 455.04 348.32 454.26 348.78L444.5 354.41C443.72 354.86 442.35 354.8 441.45 354.28Z" />
				<path id="&lt;Path&gt;" class="shp9" d="M426.39 362.98L416.73 357.4C415.82 356.87 415.72 356.08 416.51 355.63L426.26 350C427.04 349.55 428.41 349.61 429.31 350.13L438.98 355.71C439.88 356.23 439.98 357.02 439.2 357.47L429.44 363.1C428.66 363.55 427.29 363.5 426.39 362.98Z" />
				<path id="&lt;Path&gt;" class="shp9" d="M411.33 371.67L401.66 366.09C400.76 365.57 400.66 364.78 401.45 364.33L411.2 358.7C411.98 358.25 413.35 358.3 414.25 358.82L423.92 364.4C424.82 364.93 424.92 365.72 424.14 366.17L414.38 371.8C413.6 372.25 412.23 372.19 411.33 371.67Z" />
				<path id="&lt;Path&gt;" class="shp9" d="M396.27 380.37L386.6 374.79C385.7 374.27 385.6 373.48 386.39 373.02L396.14 367.39C396.92 366.94 398.29 367 399.19 367.52L408.86 373.1C409.76 373.62 409.86 374.41 409.07 374.86L399.32 380.49C398.54 380.94 397.17 380.89 396.27 380.37Z" />
				<path id="&lt;Path&gt;" class="shp9" d="M381.21 389.06L371.54 383.48C370.64 382.96 370.54 382.17 371.32 381.72L381.08 376.09C381.86 375.64 383.23 375.69 384.13 376.21L393.79 381.79C394.7 382.32 394.8 383.11 394.01 383.56L384.26 389.19C383.48 389.64 382.11 389.58 381.21 389.06Z" />
				<path id="&lt;Path&gt;" class="shp9" d="M366.15 397.76L356.48 392.18C355.58 391.66 355.48 390.87 356.26 390.41L366.02 384.78C366.8 384.33 368.17 384.39 369.07 384.91L378.73 390.49C379.64 391.01 379.74 391.8 378.95 392.25L369.2 397.88C368.42 398.34 367.05 398.28 366.15 397.76Z" />
				<path id="&lt;Path&gt;" class="shp9" d="M351.09 406.45L341.42 400.87C340.52 400.35 340.42 399.56 341.2 399.11L350.96 393.48C351.74 393.03 353.11 393.08 354.01 393.61L363.67 399.18C364.58 399.71 364.68 400.5 363.89 400.95L354.14 406.58C353.36 407.03 351.99 406.97 351.09 406.45Z" />
				<path id="&lt;Path&gt;" class="shp9" d="M336.03 415.15L326.36 409.57C325.46 409.05 325.36 408.26 326.14 407.8L335.9 402.17C336.68 401.72 338.05 401.78 338.95 402.3L348.61 407.88C349.52 408.4 349.62 409.19 348.83 409.64L339.08 415.27C338.3 415.73 336.93 415.67 336.03 415.15Z" />
				<path id="&lt;Path&gt;" class="shp9" d="M320.96 423.84L311.3 418.26C310.4 417.74 310.3 416.95 311.08 416.5L320.83 410.87C321.62 410.42 322.99 410.47 323.89 411L333.55 416.57C334.46 417.1 334.55 417.89 333.77 418.34L324.02 423.97C323.24 424.42 321.87 424.36 320.96 423.84Z" />
				<path id="&lt;Path&gt;" class="shp9" d="M434.32 341.47L424.66 335.89C423.75 335.37 423.65 334.58 424.44 334.13L434.19 328.5C434.97 328.04 436.34 328.1 437.24 328.62L446.91 334.2C447.81 334.72 447.91 335.51 447.13 335.96L437.37 341.6C436.59 342.05 435.22 341.99 434.32 341.47Z" />
				<path id="&lt;Path&gt;" class="shp9" d="M449.6 332.64L439.94 327.06C439.04 326.54 438.94 325.75 439.72 325.3L449.47 319.67C450.26 319.22 451.62 319.27 452.53 319.8L462.19 325.38C463.1 325.9 463.19 326.69 462.41 327.14L452.66 332.77C451.88 333.22 450.51 333.17 449.6 332.64Z" />
				<path id="&lt;Path&gt;" class="shp9" d="M464.91 323.8L455.25 318.23C454.35 317.7 454.25 316.91 455.03 316.46L476.04 304.33C476.82 303.88 478.19 303.94 479.09 304.46L488.75 310.04C489.66 310.56 489.76 311.35 488.97 311.8L467.97 323.93C467.19 324.38 465.82 324.33 464.91 323.8Z" />
				<path id="&lt;Path&gt;" class="shp9" d="M454.21 313.05L444.55 307.48C443.65 306.95 443.55 306.16 444.33 305.71L461.38 295.87C462.16 295.42 463.53 295.48 464.43 296L474.09 301.58C475 302.1 475.1 302.89 474.31 303.34L457.27 313.18C456.48 313.63 455.12 313.58 454.21 313.05Z" />
				<path id="&lt;Path&gt;" class="shp9" d="M419.26 350.16L409.6 344.58C408.69 344.06 408.59 343.27 409.38 342.82L419.13 337.19C419.91 336.74 421.28 336.8 422.18 337.32L431.85 342.9C432.75 343.42 432.85 344.21 432.07 344.66L422.31 350.29C421.53 350.74 420.16 350.69 419.26 350.16Z" />
				<path id="&lt;Path&gt;" class="shp9" d="M404.2 358.86L394.53 353.28C393.63 352.76 393.53 351.97 394.32 351.52L404.07 345.89C404.85 345.43 406.22 345.49 407.12 346.01L416.79 351.59C417.69 352.11 417.79 352.9 417 353.36L407.25 358.99C406.47 359.44 405.1 359.38 404.2 358.86Z" />
				<path id="&lt;Path&gt;" class="shp9" d="M389.14 367.55L379.47 361.98C378.57 361.45 378.47 360.66 379.25 360.21L389.01 354.58C389.79 354.13 391.16 354.19 392.06 354.71L401.73 360.29C402.63 360.81 402.73 361.6 401.94 362.05L392.19 367.68C391.41 368.13 390.04 368.08 389.14 367.55Z" />
				<path id="&lt;Path&gt;" class="shp9" d="M374.08 376.25L364.41 370.67C363.51 370.15 363.41 369.36 364.19 368.91L373.95 363.28C374.73 362.82 376.1 362.88 377 363.4L386.66 368.98C387.57 369.5 387.67 370.29 386.88 370.75L377.13 376.38C376.35 376.83 374.98 376.77 374.08 376.25Z" />
				<path id="&lt;Path&gt;" class="shp9" d="M359.02 384.94L349.35 379.37C348.45 378.84 348.35 378.05 349.13 377.6L358.89 371.97C359.67 371.52 361.04 371.58 361.94 372.1L371.6 377.68C372.51 378.2 372.61 378.99 371.82 379.44L362.07 385.07C361.29 385.52 359.92 385.47 359.02 384.94Z" />
				<path id="&lt;Path&gt;" class="shp9" d="M343.96 393.64L334.29 388.06C333.39 387.54 333.29 386.75 334.07 386.3L343.83 380.67C344.61 380.21 345.98 380.27 346.88 380.79L356.54 386.37C357.45 386.89 357.55 387.68 356.76 388.14L347.01 393.77C346.23 394.22 344.86 394.16 343.96 393.64Z" />
				<path id="&lt;Path&gt;" class="shp9" d="M328.89 402.33L319.23 396.76C318.33 396.23 318.23 395.44 319.01 394.99L328.77 389.36C329.55 388.91 330.92 388.97 331.82 389.49L341.48 395.07C342.39 395.59 342.49 396.38 341.7 396.83L331.95 402.46C331.17 402.91 329.8 402.86 328.89 402.33Z" />
				<path id="&lt;Path&gt;" class="shp9" d="M313.83 411.03L304.17 405.45C303.27 404.93 303.17 404.14 303.95 403.69L313.7 398.06C314.49 397.6 315.86 397.66 316.76 398.18L326.42 403.76C327.33 404.28 327.42 405.07 326.64 405.53L316.89 411.16C316.11 411.61 314.74 411.55 313.83 411.03Z" />
				<path id="&lt;Path&gt;" class="shp9" d="M298.77 419.73L289.11 414.15C288.21 413.62 288.11 412.83 288.89 412.38L298.64 406.75C299.43 406.3 300.79 406.36 301.7 406.88L311.36 412.46C312.27 412.98 312.36 413.77 311.58 414.22L301.83 419.85C301.05 420.3 299.68 420.25 298.77 419.73Z" />
				<path id="&lt;Path&gt;" class="shp9" d="M272 435.18L262.34 429.6C261.43 429.08 261.33 428.29 262.12 427.84L283.4 415.56C284.18 415.1 285.55 415.16 286.45 415.68L296.11 421.26C297.02 421.78 297.12 422.57 296.33 423.02L275.05 435.31C274.27 435.76 272.9 435.71 272 435.18Z" />
				<path id="&lt;Path&gt;" class="shp9" d="M242.68 418.26L233.02 412.68C232.11 412.15 232.01 411.36 232.8 410.91L250.76 400.54C251.54 400.09 252.91 400.15 253.81 400.67L263.47 406.25C264.38 406.77 264.48 407.56 263.69 408.01L245.73 418.38C244.95 418.83 243.58 418.78 242.68 418.26Z" />
				<path id="&lt;Path&gt;" class="shp9" d="M392.88 348.46L383.22 342.88C382.32 342.36 382.22 341.57 383 341.12L392.75 335.49C393.54 335.04 394.9 335.09 395.81 335.62L405.47 341.19C406.38 341.72 406.47 342.51 405.69 342.96L395.94 348.59C395.16 349.04 393.79 348.98 392.88 348.46Z" />
				<path id="&lt;Path&gt;" class="shp9" d="M408.32 339.55L398.66 333.97C397.75 333.45 397.65 332.66 398.44 332.21L408.19 326.58C408.97 326.13 410.34 326.18 411.24 326.7L420.91 332.28C421.81 332.81 421.91 333.59 421.13 334.05L411.37 339.68C410.59 340.13 409.22 340.07 408.32 339.55Z" />
				<path id="&lt;Path&gt;" class="shp9" d="M423.75 330.64L414.09 325.06C413.19 324.54 413.09 323.75 413.87 323.3L423.62 317.67C424.41 317.21 425.78 317.27 426.68 317.79L436.34 323.37C437.25 323.89 437.34 324.68 436.56 325.14L426.81 330.77C426.03 331.22 424.66 331.16 423.75 330.64Z" />
				<path id="&lt;Path&gt;" class="shp9" d="M439.19 321.73L429.53 316.15C428.62 315.63 428.52 314.84 429.31 314.39L439.06 308.75C439.84 308.3 441.21 308.36 442.11 308.88L451.78 314.46C452.68 314.98 452.78 315.77 452 316.22L442.24 321.85C441.46 322.31 440.09 322.25 439.19 321.73Z" />
				<path id="&lt;Path&gt;" class="shp9" d="M377.82 357.16L368.16 351.58C367.26 351.06 367.16 350.27 367.94 349.82L377.69 344.18C378.48 343.73 379.84 343.79 380.75 344.31L390.41 349.89C391.32 350.41 391.41 351.2 390.63 351.65L380.88 357.28C380.1 357.74 378.73 357.68 377.82 357.16Z" />
				<path id="&lt;Path&gt;" class="shp9" d="M362.76 365.85L353.1 360.27C352.2 359.75 352.1 358.96 352.88 358.51L362.63 352.88C363.42 352.43 364.78 352.48 365.69 353.01L375.35 358.59C376.25 359.11 376.35 359.9 375.57 360.35L365.82 365.98C365.03 366.43 363.67 366.38 362.76 365.85Z" />
				<path id="&lt;Path&gt;" class="shp9" d="M347.7 374.55L338.04 368.97C337.14 368.45 337.04 367.66 337.82 367.21L347.57 361.58C348.36 361.12 349.72 361.18 350.63 361.7L360.29 367.28C361.19 367.8 361.29 368.59 360.51 369.04L350.76 374.67C349.97 375.13 348.61 375.07 347.7 374.55Z" />
				<path id="&lt;Path&gt;" class="shp9" d="M332.64 383.24L322.98 377.66C322.07 377.14 321.98 376.35 322.76 375.9L332.51 370.27C333.29 369.82 334.66 369.87 335.57 370.4L345.23 375.98C346.13 376.5 346.23 377.29 345.45 377.74L335.7 383.37C334.91 383.82 333.55 383.77 332.64 383.24Z" />
				<path id="&lt;Path&gt;" class="shp9" d="M317.58 391.94L307.92 386.36C307.01 385.84 306.92 385.05 307.7 384.6L317.45 378.97C318.23 378.51 319.6 378.57 320.51 379.09L330.17 384.67C331.07 385.19 331.17 385.98 330.39 386.43L320.64 392.07C319.85 392.52 318.49 392.46 317.58 391.94Z" />
				<path id="&lt;Path&gt;" class="shp9" d="M302.52 400.63L292.86 395.05C291.95 394.53 291.86 393.74 292.64 393.29L302.39 387.66C303.17 387.21 304.54 387.27 305.45 387.79L315.11 393.37C316.01 393.89 316.11 394.68 315.33 395.13L305.58 400.76C304.79 401.21 303.42 401.16 302.52 400.63Z" />
				<path id="&lt;Path&gt;" class="shp9" d="M287.46 409.33L277.8 403.75C276.89 403.23 276.79 402.44 277.58 401.99L287.33 396.36C288.11 395.9 289.48 395.96 290.39 396.48L300.05 402.06C300.95 402.58 301.05 403.37 300.27 403.83L290.52 409.46C289.73 409.91 288.36 409.85 287.46 409.33Z" />
				<path id="&lt;Path&gt;" class="shp9" d="M272.4 418.02L262.74 412.45C261.83 411.92 261.73 411.13 262.52 410.68L272.27 405.05C273.05 404.6 274.42 404.66 275.32 405.18L284.99 410.76C285.89 411.28 285.99 412.07 285.21 412.52L275.45 418.15C274.67 418.6 273.3 418.55 272.4 418.02Z" />
				<path id="&lt;Path&gt;" class="shp9" d="M257.34 426.72L247.68 421.14C246.77 420.62 246.67 419.83 247.46 419.38L257.21 413.75C257.99 413.29 259.36 413.35 260.26 413.87L269.93 419.45C270.83 419.97 270.93 420.76 270.15 421.22L260.39 426.85C259.61 427.3 258.24 427.24 257.34 426.72Z" />
				<path id="&lt;Path&gt;" class="shp9" d="M400.81 326.96L391.15 321.38C390.25 320.85 390.15 320.07 390.93 319.61L400.68 313.98C401.47 313.53 402.84 313.59 403.74 314.11L413.4 319.69C414.31 320.21 414.4 321 413.62 321.45L403.87 327.08C403.09 327.53 401.72 327.48 400.81 326.96Z" />
				<path id="&lt;Path&gt;" class="shp9" d="M415.8 318.3L406.14 312.72C405.23 312.2 405.13 311.41 405.92 310.96L415.67 305.33C416.45 304.88 417.82 304.93 418.72 305.46L428.39 311.04C429.29 311.56 429.39 312.35 428.61 312.8L418.85 318.43C418.07 318.88 416.7 318.83 415.8 318.3Z" />
				<path id="&lt;Path&gt;" class="shp9" d="M430.79 309.65L421.12 304.07C420.22 303.55 420.12 302.76 420.9 302.31L430.66 296.68C431.44 296.23 432.81 296.28 433.71 296.81L443.37 302.38C444.28 302.91 444.38 303.7 443.59 304.15L433.84 309.78C433.06 310.23 431.69 310.17 430.79 309.65Z" />
				<path id="&lt;Path&gt;" class="shp9" d="M445.77 301L436.11 295.42C435.2 294.9 435.11 294.11 435.89 293.66L445.64 288.03C446.42 287.57 447.79 287.63 448.7 288.15L458.36 293.73C459.26 294.25 459.36 295.04 458.58 295.5L448.83 301.13C448.04 301.58 446.68 301.52 445.77 301Z" />
				<path id="&lt;Path&gt;" class="shp9" d="M430.36 292.1L427.17 290.26C426.26 289.74 426.16 288.95 426.95 288.49L436.7 282.86C437.48 282.41 438.85 282.47 439.75 282.99L442.95 284.84C443.85 285.36 443.95 286.15 443.17 286.6L433.42 292.23C432.63 292.68 431.27 292.62 430.36 292.1Z" />
				<path id="&lt;Path&gt;" class="shp9" d="M410.81 303.39L407.61 301.55C406.71 301.03 406.61 300.24 407.39 299.79L417.14 294.16C417.93 293.7 419.29 293.76 420.2 294.28L423.39 296.13C424.3 296.65 424.4 297.44 423.61 297.89L413.86 303.52C413.08 303.97 411.71 303.92 410.81 303.39Z" />
				<path id="&lt;Path&gt;" class="shp9" d="M395.88 312.01L392.69 310.17C391.78 309.64 391.69 308.85 392.47 308.4L402.22 302.77C403 302.32 404.37 302.38 405.28 302.9L408.47 304.74C409.37 305.26 409.47 306.05 408.69 306.51L398.94 312.14C398.15 312.59 396.79 312.53 395.88 312.01Z" />
				<path id="&lt;Path&gt;" class="shp9" d="M380.96 320.63L377.76 318.78C376.86 318.26 376.76 317.47 377.55 317.02L387.3 311.39C388.08 310.93 389.45 310.99 390.35 311.51L393.55 313.36C394.45 313.88 394.55 314.67 393.77 315.12L384.01 320.75C383.23 321.2 381.86 321.15 380.96 320.63Z" />
				<path id="&lt;Path&gt;" class="shp9" d="M366.04 329.24L362.84 327.4C361.94 326.88 361.84 326.09 362.62 325.63L372.37 320C373.16 319.55 374.53 319.61 375.43 320.13L378.62 321.97C379.53 322.5 379.63 323.29 378.84 323.74L369.09 329.37C368.31 329.82 366.94 329.76 366.04 329.24Z" />
				<path id="&lt;Path&gt;" class="shp9" d="M282.72 377.34L279.53 375.5C278.62 374.98 278.53 374.19 279.31 373.73L289.06 368.1C289.84 367.65 291.21 367.71 292.12 368.23L295.31 370.07C296.21 370.6 296.31 371.39 295.53 371.84L285.78 377.47C284.99 377.92 283.63 377.86 282.72 377.34Z" />
				<path id="&lt;Path&gt;" class="shp9" d="M267.8 385.96L264.6 384.11C263.7 383.59 263.6 382.8 264.39 382.35L274.14 376.72C274.92 376.27 276.29 376.32 277.19 376.85L280.39 378.69C281.29 379.21 281.39 380 280.61 380.45L270.85 386.08C270.07 386.54 268.7 386.48 267.8 385.96Z" />
				<path id="&lt;Path&gt;" class="shp9" d="M252.88 394.57L249.68 392.73C248.78 392.21 248.68 391.42 249.46 390.97L259.21 385.34C260 384.88 261.36 384.94 262.27 385.46L265.46 387.31C266.37 387.83 266.47 388.62 265.68 389.07L255.93 394.7C255.15 395.15 253.78 395.1 252.88 394.57Z" />
				<path id="&lt;Path&gt;" class="shp9" d="M237.95 403.19L234.76 401.35C233.85 400.82 233.76 400.03 234.54 399.58L244.29 393.95C245.07 393.5 246.44 393.56 247.35 394.08L250.54 395.92C251.44 396.44 251.54 397.23 250.76 397.69L241.01 403.32C240.22 403.77 238.86 403.71 237.95 403.19Z" />
				<path id="&lt;Path&gt;" class="shp9" d="M385.75 335.65L376.09 330.07C375.19 329.55 375.09 328.76 375.87 328.31L385.62 322.68C386.41 322.23 387.77 322.28 388.68 322.8L398.34 328.38C399.25 328.91 399.34 329.69 398.56 330.15L388.81 335.78C388.03 336.23 386.66 336.17 385.75 335.65Z" />
				<path id="&lt;Path&gt;" class="shp9" d="M370.69 344.35L361.03 338.77C360.13 338.25 360.03 337.46 360.81 337L370.56 331.37C371.35 330.92 372.71 330.98 373.62 331.5L383.28 337.08C384.19 337.6 384.28 338.39 383.5 338.84L373.75 344.47C372.97 344.92 371.6 344.87 370.69 344.35Z" />
				<path id="&lt;Path&gt;" class="shp9" d="M355.63 353.04L345.97 347.46C345.07 346.94 344.97 346.15 345.75 345.7L355.5 340.07C356.29 339.62 357.65 339.67 358.56 340.19L368.22 345.77C369.12 346.3 369.22 347.09 368.44 347.54L358.69 353.17C357.9 353.62 356.54 353.56 355.63 353.04Z" />
				<path id="&lt;Path&gt;" class="shp9" d="M340.57 361.74L330.91 356.16C330 355.64 329.91 354.85 330.69 354.39L340.44 348.76C341.23 348.31 342.59 348.37 343.5 348.89L353.16 354.47C354.06 354.99 354.16 355.78 353.38 356.23L343.63 361.86C342.84 362.32 341.48 362.26 340.57 361.74Z" />
				<path id="&lt;Path&gt;" class="shp9" d="M325.51 370.43L315.85 364.85C314.94 364.33 314.85 363.54 315.63 363.09L325.38 357.46C326.16 357.01 327.53 357.06 328.44 357.58L338.1 363.16C339 363.69 339.1 364.48 338.32 364.93L328.57 370.56C327.78 371.01 326.42 370.95 325.51 370.43Z" />
				<path id="&lt;Path&gt;" class="shp9" d="M310.45 379.13L300.79 373.55C299.88 373.03 299.79 372.24 300.57 371.78L310.32 366.15C311.1 365.7 312.47 365.76 313.38 366.28L323.04 371.86C323.94 372.38 324.04 373.17 323.26 373.62L313.51 379.25C312.72 379.71 311.36 379.65 310.45 379.13Z" />
				<path id="&lt;Path&gt;" class="shp9" d="M295.39 387.82L285.73 382.24C284.82 381.72 284.73 380.93 285.51 380.48L295.26 374.85C296.04 374.4 297.41 374.45 298.32 374.98L307.98 380.55C308.88 381.08 308.98 381.87 308.2 382.32L298.45 387.95C297.66 388.4 296.29 388.34 295.39 387.82Z" />
				<path id="&lt;Path&gt;" class="shp9" d="M280.33 396.52L270.67 390.94C269.76 390.42 269.66 389.63 270.45 389.17L280.2 383.54C280.98 383.09 282.35 383.15 283.25 383.67L292.92 389.25C293.82 389.77 293.92 390.56 293.14 391.01L283.38 396.64C282.6 397.1 281.23 397.04 280.33 396.52Z" />
				<path id="&lt;Path&gt;" class="shp9" d="M265.27 405.21L255.61 399.63C254.7 399.11 254.6 398.32 255.39 397.87L265.14 392.24C265.92 391.79 267.29 391.84 268.19 392.37L277.86 397.94C278.76 398.47 278.86 399.26 278.08 399.71L268.32 405.34C267.54 405.79 266.17 405.73 265.27 405.21Z" />
				<path id="&lt;Path&gt;" class="shp9" d="M471.86 336.72L462.19 331.15C461.29 330.62 461.19 329.83 461.97 329.38L490.7 312.8C491.48 312.35 492.85 312.4 493.75 312.93L503.41 318.5C504.32 319.03 504.42 319.82 503.63 320.27L474.91 336.85C474.13 337.3 472.76 337.25 471.86 336.72Z" />
				<path id="&lt;Path&gt;" class="shp9" d="M286.83 443.55L277.17 437.97C276.27 437.45 276.17 436.66 276.95 436.2L305.67 419.62C306.46 419.17 307.83 419.23 308.73 419.75L318.39 425.33C319.3 425.85 319.39 426.64 318.61 427.09L289.89 443.67C289.11 444.13 287.74 444.07 286.83 443.55Z" />
				<path id="&lt;Path&gt;" class="shp9" d="M347.06 427.98L335.55 421.33C334.65 420.81 334.55 420.02 335.33 419.57L345.09 413.94C345.87 413.49 347.24 413.54 348.14 414.07L359.65 420.71C360.56 421.23 360.65 422.02 359.87 422.48L350.12 428.11C349.34 428.56 347.97 428.5 347.06 427.98Z" />
				<path id="&lt;Path&gt;" class="shp9" d="M456.43 364.84L444.92 358.19C444.02 357.67 443.92 356.88 444.7 356.43L460.3 347.42C461.08 346.97 462.45 347.03 463.36 347.55L474.87 354.19C475.77 354.72 475.87 355.51 475.09 355.96L459.49 364.96C458.71 365.41 457.34 365.36 456.43 364.84Z" />
				<path id="&lt;Path&gt;" class="shp9" d="M361.58 419.6L350.06 412.96C349.16 412.43 349.06 411.64 349.84 411.19L365.44 402.19C366.22 401.74 367.59 401.79 368.5 402.31L380.01 408.96C380.91 409.48 381.01 410.27 380.23 410.72L364.63 419.73C363.85 420.18 362.48 420.12 361.58 419.6Z" />
				<path id="&lt;Path&gt;" class="shp9" d="M434.7 377.38L423.19 370.74C422.29 370.21 422.19 369.42 422.97 368.97L438.57 359.97C439.35 359.51 440.72 359.57 441.63 360.09L453.14 366.74C454.04 367.26 454.14 368.05 453.36 368.5L437.76 377.51C436.98 377.96 435.61 377.9 434.7 377.38Z" />
				<path id="&lt;Path&gt;" class="shp9" d="M453.25 368.56L385.44 407.71C384.6 408.2 383.24 408.2 382.39 407.71L370.66 400.94C369.81 400.45 369.81 399.66 370.66 399.18L438.47 360.03L453.25 368.56Z" />
				<path id="&lt;Path&gt;" class="shp9" d="M310.53 443.98L315.24 446.69C315.98 447.12 316.06 447.77 315.42 448.14L304.56 454.41C303.92 454.78 302.79 454.74 302.05 454.31L297.34 451.59C296.6 451.16 296.52 450.51 297.16 450.14L308.03 443.87C308.67 443.5 309.79 443.55 310.53 443.98Z" />
				<path id="&lt;Path&gt;" class="shp9" d="M325.72 435.21L330.43 437.93C331.17 438.36 331.25 439 330.61 439.37L319.74 445.65C319.1 446.02 317.98 445.97 317.24 445.54L312.53 442.82C311.79 442.39 311.71 441.75 312.35 441.38L323.21 435.1C323.85 434.73 324.98 434.78 325.72 435.21Z" />
				<path id="&lt;Path&gt;" class="shp9" d="M340.78 426.51L345.49 429.23C346.23 429.66 346.31 430.31 345.67 430.68L334.8 436.95C334.16 437.32 333.04 437.27 332.3 436.85L327.59 434.13C326.85 433.7 326.77 433.05 327.41 432.68L338.27 426.41C338.92 426.04 340.04 426.09 340.78 426.51Z" />
				<path id="&lt;Path&gt;" class="shp9" d="M317.4 430.41L322.11 433.13C322.85 433.55 322.93 434.2 322.29 434.57L311.43 440.84C310.78 441.21 309.66 441.17 308.92 440.74L304.21 438.02C303.47 437.59 303.39 436.95 304.03 436.58L314.9 430.3C315.54 429.93 316.66 429.98 317.4 430.41Z" />
			</g>
			<g id="&lt;Group&gt;" style="opacity: 0.4">
				<path id="&lt;Path&gt;" class="shp9" d="M507.46 335.38L495.95 328.73C495.04 328.21 494.95 327.42 495.73 326.97L505.48 321.34C506.26 320.88 507.63 320.94 508.54 321.46L520.05 328.11C520.95 328.63 521.05 329.42 520.27 329.87L510.51 335.5C509.73 335.95 508.36 335.9 507.46 335.38Z" />
				<path id="&lt;Path&gt;" class="shp9" d="M492.4 344.07L480.89 337.42C479.98 336.9 479.89 336.11 480.67 335.66L490.42 330.03C491.2 329.58 492.57 329.64 493.48 330.16L504.99 336.8C505.89 337.33 505.99 338.11 505.21 338.57L495.45 344.2C494.67 344.65 493.3 344.59 492.4 344.07Z" />
				<path id="&lt;Path&gt;" class="shp9" d="M477.34 352.77L465.83 346.12C464.92 345.6 464.83 344.81 465.61 344.36L475.36 338.73C476.14 338.27 477.51 338.33 478.42 338.85L489.93 345.5C490.83 346.02 490.93 346.81 490.15 347.26L480.39 352.89C479.61 353.34 478.24 353.29 477.34 352.77Z" />
				<path id="&lt;Path&gt;" class="shp9" d="M456.51 345.59L446.85 340.01C445.94 339.48 445.84 338.69 446.63 338.24L456.38 332.61C457.16 332.16 458.53 332.22 459.43 332.74L469.1 338.32C470 338.84 470.1 339.63 469.32 340.08L459.56 345.71C458.78 346.16 457.41 346.11 456.51 345.59Z" />
				<path id="&lt;Path&gt;" class="shp9" d="M441.45 354.28L431.79 348.7C430.88 348.18 430.78 347.39 431.57 346.94L441.32 341.31C442.1 340.86 443.47 340.91 444.37 341.43L454.04 347.01C454.94 347.53 455.04 348.32 454.26 348.78L444.5 354.41C443.72 354.86 442.35 354.8 441.45 354.28Z" />
				<path id="&lt;Path&gt;" class="shp9" d="M426.39 362.98L416.73 357.4C415.82 356.87 415.72 356.08 416.51 355.63L426.26 350C427.04 349.55 428.41 349.61 429.31 350.13L438.98 355.71C439.88 356.23 439.98 357.02 439.2 357.47L429.44 363.1C428.66 363.55 427.29 363.5 426.39 362.98Z" />
				<path id="&lt;Path&gt;" class="shp9" d="M411.33 371.67L401.66 366.09C400.76 365.57 400.66 364.78 401.45 364.33L411.2 358.7C411.98 358.25 413.35 358.3 414.25 358.82L423.92 364.4C424.82 364.93 424.92 365.72 424.14 366.17L414.38 371.8C413.6 372.25 412.23 372.19 411.33 371.67Z" />
				<path id="&lt;Path&gt;" class="shp9" d="M396.27 380.37L386.6 374.79C385.7 374.27 385.6 373.48 386.39 373.02L396.14 367.39C396.92 366.94 398.29 367 399.19 367.52L408.86 373.1C409.76 373.62 409.86 374.41 409.07 374.86L399.32 380.49C398.54 380.94 397.17 380.89 396.27 380.37Z" />
				<path id="&lt;Path&gt;" class="shp9" d="M381.21 389.06L371.54 383.48C370.64 382.96 370.54 382.17 371.32 381.72L381.08 376.09C381.86 375.64 383.23 375.69 384.13 376.21L393.79 381.79C394.7 382.32 394.8 383.11 394.01 383.56L384.26 389.19C383.48 389.64 382.11 389.58 381.21 389.06Z" />
				<path id="&lt;Path&gt;" class="shp9" d="M366.15 397.76L356.48 392.18C355.58 391.66 355.48 390.87 356.26 390.41L366.02 384.78C366.8 384.33 368.17 384.39 369.07 384.91L378.73 390.49C379.64 391.01 379.74 391.8 378.95 392.25L369.2 397.88C368.42 398.34 367.05 398.28 366.15 397.76Z" />
				<path id="&lt;Path&gt;" class="shp9" d="M351.09 406.45L341.42 400.87C340.52 400.35 340.42 399.56 341.2 399.11L350.96 393.48C351.74 393.03 353.11 393.08 354.01 393.61L363.67 399.18C364.58 399.71 364.68 400.5 363.89 400.95L354.14 406.58C353.36 407.03 351.99 406.97 351.09 406.45Z" />
				<path id="&lt;Path&gt;" class="shp9" d="M336.03 415.15L326.36 409.57C325.46 409.05 325.36 408.26 326.14 407.8L335.9 402.17C336.68 401.72 338.05 401.78 338.95 402.3L348.61 407.88C349.52 408.4 349.62 409.19 348.83 409.64L339.08 415.27C338.3 415.73 336.93 415.67 336.03 415.15Z" />
				<path id="&lt;Path&gt;" class="shp9" d="M320.96 423.84L311.3 418.26C310.4 417.74 310.3 416.95 311.08 416.5L320.83 410.87C321.62 410.42 322.99 410.47 323.89 411L333.55 416.57C334.46 417.1 334.55 417.89 333.77 418.34L324.02 423.97C323.24 424.42 321.87 424.36 320.96 423.84Z" />
				<path id="&lt;Path&gt;" class="shp9" d="M434.32 341.47L424.66 335.89C423.75 335.37 423.65 334.58 424.44 334.13L434.19 328.5C434.97 328.04 436.34 328.1 437.24 328.62L446.91 334.2C447.81 334.72 447.91 335.51 447.13 335.96L437.37 341.6C436.59 342.05 435.22 341.99 434.32 341.47Z" />
				<path id="&lt;Path&gt;" class="shp9" d="M449.6 332.64L439.94 327.06C439.04 326.54 438.94 325.75 439.72 325.3L449.47 319.67C450.26 319.22 451.62 319.27 452.53 319.8L462.19 325.38C463.1 325.9 463.19 326.69 462.41 327.14L452.66 332.77C451.88 333.22 450.51 333.17 449.6 332.64Z" />
				<path id="&lt;Path&gt;" class="shp9" d="M464.91 323.8L455.25 318.23C454.35 317.7 454.25 316.91 455.03 316.46L476.04 304.33C476.82 303.88 478.19 303.94 479.09 304.46L488.75 310.04C489.66 310.56 489.76 311.35 488.97 311.8L467.97 323.93C467.19 324.38 465.82 324.33 464.91 323.8Z" />
				<path id="&lt;Path&gt;" class="shp9" d="M454.21 313.05L444.55 307.48C443.65 306.95 443.55 306.16 444.33 305.71L461.38 295.87C462.16 295.42 463.53 295.48 464.43 296L474.09 301.58C475 302.1 475.1 302.89 474.31 303.34L457.27 313.18C456.48 313.63 455.12 313.58 454.21 313.05Z" />
				<path id="&lt;Path&gt;" class="shp9" d="M419.26 350.16L409.6 344.58C408.69 344.06 408.59 343.27 409.38 342.82L419.13 337.19C419.91 336.74 421.28 336.8 422.18 337.32L431.85 342.9C432.75 343.42 432.85 344.21 432.07 344.66L422.31 350.29C421.53 350.74 420.16 350.69 419.26 350.16Z" />
				<path id="&lt;Path&gt;" class="shp9" d="M404.2 358.86L394.53 353.28C393.63 352.76 393.53 351.97 394.32 351.52L404.07 345.89C404.85 345.43 406.22 345.49 407.12 346.01L416.79 351.59C417.69 352.11 417.79 352.9 417 353.36L407.25 358.99C406.47 359.44 405.1 359.38 404.2 358.86Z" />
				<path id="&lt;Path&gt;" class="shp9" d="M389.14 367.55L379.47 361.98C378.57 361.45 378.47 360.66 379.25 360.21L389.01 354.58C389.79 354.13 391.16 354.19 392.06 354.71L401.73 360.29C402.63 360.81 402.73 361.6 401.94 362.05L392.19 367.68C391.41 368.13 390.04 368.08 389.14 367.55Z" />
				<path id="&lt;Path&gt;" class="shp9" d="M374.08 376.25L364.41 370.67C363.51 370.15 363.41 369.36 364.19 368.91L373.95 363.28C374.73 362.82 376.1 362.88 377 363.4L386.66 368.98C387.57 369.5 387.67 370.29 386.88 370.75L377.13 376.38C376.35 376.83 374.98 376.77 374.08 376.25Z" />
				<path id="&lt;Path&gt;" class="shp9" d="M359.02 384.94L349.35 379.37C348.45 378.84 348.35 378.05 349.13 377.6L358.89 371.97C359.67 371.52 361.04 371.58 361.94 372.1L371.6 377.68C372.51 378.2 372.61 378.99 371.82 379.44L362.07 385.07C361.29 385.52 359.92 385.47 359.02 384.94Z" />
				<path id="&lt;Path&gt;" class="shp9" d="M343.96 393.64L334.29 388.06C333.39 387.54 333.29 386.75 334.07 386.3L343.83 380.67C344.61 380.21 345.98 380.27 346.88 380.79L356.54 386.37C357.45 386.89 357.55 387.68 356.76 388.14L347.01 393.77C346.23 394.22 344.86 394.16 343.96 393.64Z" />
				<path id="&lt;Path&gt;" class="shp9" d="M328.89 402.33L319.23 396.76C318.33 396.23 318.23 395.44 319.01 394.99L328.77 389.36C329.55 388.91 330.92 388.97 331.82 389.49L341.48 395.07C342.39 395.59 342.49 396.38 341.7 396.83L331.95 402.46C331.17 402.91 329.8 402.86 328.89 402.33Z" />
				<path id="&lt;Path&gt;" class="shp9" d="M313.83 411.03L304.17 405.45C303.27 404.93 303.17 404.14 303.95 403.69L313.7 398.06C314.49 397.6 315.86 397.66 316.76 398.18L326.42 403.76C327.33 404.28 327.42 405.07 326.64 405.53L316.89 411.16C316.11 411.61 314.74 411.55 313.83 411.03Z" />
				<path id="&lt;Path&gt;" class="shp9" d="M298.77 419.73L289.11 414.15C288.21 413.62 288.11 412.83 288.89 412.38L298.64 406.75C299.43 406.3 300.79 406.36 301.7 406.88L311.36 412.46C312.27 412.98 312.36 413.77 311.58 414.22L301.83 419.85C301.05 420.3 299.68 420.25 298.77 419.73Z" />
				<path id="&lt;Path&gt;" class="shp9" d="M272 435.18L262.34 429.6C261.43 429.08 261.33 428.29 262.12 427.84L283.4 415.56C284.18 415.1 285.55 415.16 286.45 415.68L296.11 421.26C297.02 421.78 297.12 422.57 296.33 423.02L275.05 435.31C274.27 435.76 272.9 435.71 272 435.18Z" />
				<path id="&lt;Path&gt;" class="shp9" d="M242.68 418.26L233.02 412.68C232.11 412.15 232.01 411.36 232.8 410.91L250.76 400.54C251.54 400.09 252.91 400.15 253.81 400.67L263.47 406.25C264.38 406.77 264.48 407.56 263.69 408.01L245.73 418.38C244.95 418.83 243.58 418.78 242.68 418.26Z" />
				<path id="&lt;Path&gt;" class="shp9" d="M392.88 348.46L383.22 342.88C382.32 342.36 382.22 341.57 383 341.12L392.75 335.49C393.54 335.04 394.9 335.09 395.81 335.62L405.47 341.19C406.38 341.72 406.47 342.51 405.69 342.96L395.94 348.59C395.16 349.04 393.79 348.98 392.88 348.46Z" />
				<path id="&lt;Path&gt;" class="shp9" d="M408.32 339.55L398.66 333.97C397.75 333.45 397.65 332.66 398.44 332.21L408.19 326.58C408.97 326.13 410.34 326.18 411.24 326.7L420.91 332.28C421.81 332.81 421.91 333.59 421.13 334.05L411.37 339.68C410.59 340.13 409.22 340.07 408.32 339.55Z" />
				<path id="&lt;Path&gt;" class="shp9" d="M423.75 330.64L414.09 325.06C413.19 324.54 413.09 323.75 413.87 323.3L423.62 317.67C424.41 317.21 425.78 317.27 426.68 317.79L436.34 323.37C437.25 323.89 437.34 324.68 436.56 325.14L426.81 330.77C426.03 331.22 424.66 331.16 423.75 330.64Z" />
				<path id="&lt;Path&gt;" class="shp9" d="M439.19 321.73L429.53 316.15C428.62 315.63 428.52 314.84 429.31 314.39L439.06 308.75C439.84 308.3 441.21 308.36 442.11 308.88L451.78 314.46C452.68 314.98 452.78 315.77 452 316.22L442.24 321.85C441.46 322.31 440.09 322.25 439.19 321.73Z" />
				<path id="&lt;Path&gt;" class="shp9" d="M377.82 357.16L368.16 351.58C367.26 351.06 367.16 350.27 367.94 349.82L377.69 344.18C378.48 343.73 379.84 343.79 380.75 344.31L390.41 349.89C391.32 350.41 391.41 351.2 390.63 351.65L380.88 357.28C380.1 357.74 378.73 357.68 377.82 357.16Z" />
				<path id="&lt;Path&gt;" class="shp9" d="M362.76 365.85L353.1 360.27C352.2 359.75 352.1 358.96 352.88 358.51L362.63 352.88C363.42 352.43 364.78 352.48 365.69 353.01L375.35 358.59C376.25 359.11 376.35 359.9 375.57 360.35L365.82 365.98C365.03 366.43 363.67 366.38 362.76 365.85Z" />
				<path id="&lt;Path&gt;" class="shp9" d="M347.7 374.55L338.04 368.97C337.14 368.45 337.04 367.66 337.82 367.21L347.57 361.58C348.36 361.12 349.72 361.18 350.63 361.7L360.29 367.28C361.19 367.8 361.29 368.59 360.51 369.04L350.76 374.67C349.97 375.13 348.61 375.07 347.7 374.55Z" />
				<path id="&lt;Path&gt;" class="shp9" d="M332.64 383.24L322.98 377.66C322.07 377.14 321.98 376.35 322.76 375.9L332.51 370.27C333.29 369.82 334.66 369.87 335.57 370.4L345.23 375.98C346.13 376.5 346.23 377.29 345.45 377.74L335.7 383.37C334.91 383.82 333.55 383.77 332.64 383.24Z" />
				<path id="&lt;Path&gt;" class="shp9" d="M317.58 391.94L307.92 386.36C307.01 385.84 306.92 385.05 307.7 384.6L317.45 378.97C318.23 378.51 319.6 378.57 320.51 379.09L330.17 384.67C331.07 385.19 331.17 385.98 330.39 386.43L320.64 392.07C319.85 392.52 318.49 392.46 317.58 391.94Z" />
				<path id="&lt;Path&gt;" class="shp9" d="M302.52 400.63L292.86 395.05C291.95 394.53 291.86 393.74 292.64 393.29L302.39 387.66C303.17 387.21 304.54 387.27 305.45 387.79L315.11 393.37C316.01 393.89 316.11 394.68 315.33 395.13L305.58 400.76C304.79 401.21 303.42 401.16 302.52 400.63Z" />
				<path id="&lt;Path&gt;" class="shp9" d="M287.46 409.33L277.8 403.75C276.89 403.23 276.79 402.44 277.58 401.99L287.33 396.36C288.11 395.9 289.48 395.96 290.39 396.48L300.05 402.06C300.95 402.58 301.05 403.37 300.27 403.83L290.52 409.46C289.73 409.91 288.36 409.85 287.46 409.33Z" />
				<path id="&lt;Path&gt;" class="shp9" d="M272.4 418.02L262.74 412.45C261.83 411.92 261.73 411.13 262.52 410.68L272.27 405.05C273.05 404.6 274.42 404.66 275.32 405.18L284.99 410.76C285.89 411.28 285.99 412.07 285.21 412.52L275.45 418.15C274.67 418.6 273.3 418.55 272.4 418.02Z" />
				<path id="&lt;Path&gt;" class="shp9" d="M257.34 426.72L247.68 421.14C246.77 420.62 246.67 419.83 247.46 419.38L257.21 413.75C257.99 413.29 259.36 413.35 260.26 413.87L269.93 419.45C270.83 419.97 270.93 420.76 270.15 421.22L260.39 426.85C259.61 427.3 258.24 427.24 257.34 426.72Z" />
				<path id="&lt;Path&gt;" class="shp9" d="M400.81 326.96L391.15 321.38C390.25 320.85 390.15 320.07 390.93 319.61L400.68 313.98C401.47 313.53 402.84 313.59 403.74 314.11L413.4 319.69C414.31 320.21 414.4 321 413.62 321.45L403.87 327.08C403.09 327.53 401.72 327.48 400.81 326.96Z" />
				<path id="&lt;Path&gt;" class="shp9" d="M415.8 318.3L406.14 312.72C405.23 312.2 405.13 311.41 405.92 310.96L415.67 305.33C416.45 304.88 417.82 304.93 418.72 305.46L428.39 311.04C429.29 311.56 429.39 312.35 428.61 312.8L418.85 318.43C418.07 318.88 416.7 318.83 415.8 318.3Z" />
				<path id="&lt;Path&gt;" class="shp9" d="M430.79 309.65L421.12 304.07C420.22 303.55 420.12 302.76 420.9 302.31L430.66 296.68C431.44 296.23 432.81 296.28 433.71 296.81L443.37 302.38C444.28 302.91 444.38 303.7 443.59 304.15L433.84 309.78C433.06 310.23 431.69 310.17 430.79 309.65Z" />
				<path id="&lt;Path&gt;" class="shp9" d="M445.77 301L436.11 295.42C435.2 294.9 435.11 294.11 435.89 293.66L445.64 288.03C446.42 287.57 447.79 287.63 448.7 288.15L458.36 293.73C459.26 294.25 459.36 295.04 458.58 295.5L448.83 301.13C448.04 301.58 446.68 301.52 445.77 301Z" />
				<path id="&lt;Path&gt;" class="shp9" d="M430.36 292.1L427.17 290.26C426.26 289.74 426.16 288.95 426.95 288.49L436.7 282.86C437.48 282.41 438.85 282.47 439.75 282.99L442.95 284.84C443.85 285.36 443.95 286.15 443.17 286.6L433.42 292.23C432.63 292.68 431.27 292.62 430.36 292.1Z" />
				<path id="&lt;Path&gt;" class="shp9" d="M410.81 303.39L407.61 301.55C406.71 301.03 406.61 300.24 407.39 299.79L417.14 294.16C417.93 293.7 419.29 293.76 420.2 294.28L423.39 296.13C424.3 296.65 424.4 297.44 423.61 297.89L413.86 303.52C413.08 303.97 411.71 303.92 410.81 303.39Z" />
				<path id="&lt;Path&gt;" class="shp9" d="M395.88 312.01L392.69 310.17C391.78 309.64 391.69 308.85 392.47 308.4L402.22 302.77C403 302.32 404.37 302.38 405.28 302.9L408.47 304.74C409.37 305.26 409.47 306.05 408.69 306.51L398.94 312.14C398.15 312.59 396.79 312.53 395.88 312.01Z" />
				<path id="&lt;Path&gt;" class="shp9" d="M380.96 320.63L377.76 318.78C376.86 318.26 376.76 317.47 377.55 317.02L387.3 311.39C388.08 310.93 389.45 310.99 390.35 311.51L393.55 313.36C394.45 313.88 394.55 314.67 393.77 315.12L384.01 320.75C383.23 321.2 381.86 321.15 380.96 320.63Z" />
				<path id="&lt;Path&gt;" class="shp9" d="M366.04 329.24L362.84 327.4C361.94 326.88 361.84 326.09 362.62 325.63L372.37 320C373.16 319.55 374.53 319.61 375.43 320.13L378.62 321.97C379.53 322.5 379.63 323.29 378.84 323.74L369.09 329.37C368.31 329.82 366.94 329.76 366.04 329.24Z" />
				<path id="&lt;Path&gt;" class="shp9" d="M282.72 377.34L279.53 375.5C278.62 374.98 278.53 374.19 279.31 373.73L289.06 368.1C289.84 367.65 291.21 367.71 292.12 368.23L295.31 370.07C296.21 370.6 296.31 371.39 295.53 371.84L285.78 377.47C284.99 377.92 283.63 377.86 282.72 377.34Z" />
				<path id="&lt;Path&gt;" class="shp9" d="M267.8 385.96L264.6 384.11C263.7 383.59 263.6 382.8 264.39 382.35L274.14 376.72C274.92 376.27 276.29 376.32 277.19 376.85L280.39 378.69C281.29 379.21 281.39 380 280.61 380.45L270.85 386.08C270.07 386.54 268.7 386.48 267.8 385.96Z" />
				<path id="&lt;Path&gt;" class="shp9" d="M252.88 394.57L249.68 392.73C248.78 392.21 248.68 391.42 249.46 390.97L259.21 385.34C260 384.88 261.36 384.94 262.27 385.46L265.46 387.31C266.37 387.83 266.47 388.62 265.68 389.07L255.93 394.7C255.15 395.15 253.78 395.1 252.88 394.57Z" />
				<path id="&lt;Path&gt;" class="shp9" d="M237.95 403.19L234.76 401.35C233.85 400.82 233.76 400.03 234.54 399.58L244.29 393.95C245.07 393.5 246.44 393.56 247.35 394.08L250.54 395.92C251.44 396.44 251.54 397.23 250.76 397.69L241.01 403.32C240.22 403.77 238.86 403.71 237.95 403.19Z" />
				<path id="&lt;Path&gt;" class="shp9" d="M385.75 335.65L376.09 330.07C375.19 329.55 375.09 328.76 375.87 328.31L385.62 322.68C386.41 322.23 387.77 322.28 388.68 322.8L398.34 328.38C399.25 328.91 399.34 329.69 398.56 330.15L388.81 335.78C388.03 336.23 386.66 336.17 385.75 335.65Z" />
				<path id="&lt;Path&gt;" class="shp9" d="M370.69 344.35L361.03 338.77C360.13 338.25 360.03 337.46 360.81 337L370.56 331.37C371.35 330.92 372.71 330.98 373.62 331.5L383.28 337.08C384.19 337.6 384.28 338.39 383.5 338.84L373.75 344.47C372.97 344.92 371.6 344.87 370.69 344.35Z" />
				<path id="&lt;Path&gt;" class="shp9" d="M355.63 353.04L345.97 347.46C345.07 346.94 344.97 346.15 345.75 345.7L355.5 340.07C356.29 339.62 357.65 339.67 358.56 340.19L368.22 345.77C369.12 346.3 369.22 347.09 368.44 347.54L358.69 353.17C357.9 353.62 356.54 353.56 355.63 353.04Z" />
				<path id="&lt;Path&gt;" class="shp9" d="M340.57 361.74L330.91 356.16C330 355.64 329.91 354.85 330.69 354.39L340.44 348.76C341.23 348.31 342.59 348.37 343.5 348.89L353.16 354.47C354.06 354.99 354.16 355.78 353.38 356.23L343.63 361.86C342.84 362.32 341.48 362.26 340.57 361.74Z" />
				<path id="&lt;Path&gt;" class="shp9" d="M325.51 370.43L315.85 364.85C314.94 364.33 314.85 363.54 315.63 363.09L325.38 357.46C326.16 357.01 327.53 357.06 328.44 357.58L338.1 363.16C339 363.69 339.1 364.48 338.32 364.93L328.57 370.56C327.78 371.01 326.42 370.95 325.51 370.43Z" />
				<path id="&lt;Path&gt;" class="shp9" d="M310.45 379.13L300.79 373.55C299.88 373.03 299.79 372.24 300.57 371.78L310.32 366.15C311.1 365.7 312.47 365.76 313.38 366.28L323.04 371.86C323.94 372.38 324.04 373.17 323.26 373.62L313.51 379.25C312.72 379.71 311.36 379.65 310.45 379.13Z" />
				<path id="&lt;Path&gt;" class="shp9" d="M295.39 387.82L285.73 382.24C284.82 381.72 284.73 380.93 285.51 380.48L295.26 374.85C296.04 374.4 297.41 374.45 298.32 374.98L307.98 380.55C308.88 381.08 308.98 381.87 308.2 382.32L298.45 387.95C297.66 388.4 296.29 388.34 295.39 387.82Z" />
				<path id="&lt;Path&gt;" class="shp9" d="M280.33 396.52L270.67 390.94C269.76 390.42 269.66 389.63 270.45 389.17L280.2 383.54C280.98 383.09 282.35 383.15 283.25 383.67L292.92 389.25C293.82 389.77 293.92 390.56 293.14 391.01L283.38 396.64C282.6 397.1 281.23 397.04 280.33 396.52Z" />
				<path id="&lt;Path&gt;" class="shp9" d="M265.27 405.21L255.61 399.63C254.7 399.11 254.6 398.32 255.39 397.87L265.14 392.24C265.92 391.79 267.29 391.84 268.19 392.37L277.86 397.94C278.76 398.47 278.86 399.26 278.08 399.71L268.32 405.34C267.54 405.79 266.17 405.73 265.27 405.21Z" />
				<path id="&lt;Path&gt;" class="shp9" d="M471.86 336.72L462.19 331.15C461.29 330.62 461.19 329.83 461.97 329.38L490.7 312.8C491.48 312.35 492.85 312.4 493.75 312.93L503.41 318.5C504.32 319.03 504.42 319.82 503.63 320.27L474.91 336.85C474.13 337.3 472.76 337.25 471.86 336.72Z" />
				<path id="&lt;Path&gt;" class="shp9" d="M286.83 443.55L277.17 437.97C276.27 437.45 276.17 436.66 276.95 436.2L305.67 419.62C306.46 419.17 307.83 419.23 308.73 419.75L318.39 425.33C319.3 425.85 319.39 426.64 318.61 427.09L289.89 443.67C289.11 444.13 287.74 444.07 286.83 443.55Z" />
				<path id="&lt;Path&gt;" class="shp9" d="M347.06 427.98L335.55 421.33C334.65 420.81 334.55 420.02 335.33 419.57L345.09 413.94C345.87 413.49 347.24 413.54 348.14 414.07L359.65 420.71C360.56 421.23 360.65 422.02 359.87 422.48L350.12 428.11C349.34 428.56 347.97 428.5 347.06 427.98Z" />
				<path id="&lt;Path&gt;" class="shp9" d="M456.43 364.84L444.92 358.19C444.02 357.67 443.92 356.88 444.7 356.43L460.3 347.42C461.08 346.97 462.45 347.03 463.36 347.55L474.87 354.19C475.77 354.72 475.87 355.51 475.09 355.96L459.49 364.96C458.71 365.41 457.34 365.36 456.43 364.84Z" />
				<path id="&lt;Path&gt;" class="shp9" d="M361.58 419.6L350.06 412.96C349.16 412.43 349.06 411.64 349.84 411.19L365.44 402.19C366.22 401.74 367.59 401.79 368.5 402.31L380.01 408.96C380.91 409.48 381.01 410.27 380.23 410.72L364.63 419.73C363.85 420.18 362.48 420.12 361.58 419.6Z" />
				<path id="&lt;Path&gt;" class="shp9" d="M434.7 377.38L423.19 370.74C422.29 370.21 422.19 369.42 422.97 368.97L438.57 359.97C439.35 359.51 440.72 359.57 441.63 360.09L453.14 366.74C454.04 367.26 454.14 368.05 453.36 368.5L437.76 377.51C436.98 377.96 435.61 377.9 434.7 377.38Z" />
				<path id="&lt;Path&gt;" class="shp9" d="M453.25 368.56L385.44 407.71C384.6 408.2 383.24 408.2 382.39 407.71L370.66 400.94C369.81 400.45 369.81 399.66 370.66 399.18L438.47 360.03L453.25 368.56Z" />
				<path id="&lt;Path&gt;" class="shp9" d="M310.53 443.98L315.24 446.69C315.98 447.12 316.06 447.77 315.42 448.14L304.56 454.41C303.92 454.78 302.79 454.74 302.05 454.31L297.34 451.59C296.6 451.16 296.52 450.51 297.16 450.14L308.03 443.87C308.67 443.5 309.79 443.55 310.53 443.98Z" />
				<path id="&lt;Path&gt;" class="shp9" d="M325.72 435.21L330.43 437.93C331.17 438.36 331.25 439 330.61 439.37L319.74 445.65C319.1 446.02 317.98 445.97 317.24 445.54L312.53 442.82C311.79 442.39 311.71 441.75 312.35 441.38L323.21 435.1C323.85 434.73 324.98 434.78 325.72 435.21Z" />
				<path id="&lt;Path&gt;" class="shp9" d="M340.78 426.51L345.49 429.23C346.23 429.66 346.31 430.31 345.67 430.68L334.8 436.95C334.16 437.32 333.04 437.27 332.3 436.85L327.59 434.13C326.85 433.7 326.77 433.05 327.41 432.68L338.27 426.41C338.92 426.04 340.04 426.09 340.78 426.51Z" />
				<path id="&lt;Path&gt;" class="shp9" d="M317.4 430.41L322.11 433.13C322.85 433.55 322.93 434.2 322.29 434.57L311.43 440.84C310.78 441.21 309.66 441.17 308.92 440.74L304.21 438.02C303.47 437.59 303.39 436.95 304.03 436.58L314.9 430.3C315.54 429.93 316.66 429.98 317.4 430.41Z" />
			</g>
			<path id="&lt;Path&gt;" class="shp10" d="M144.39 407.96L79.33 196.69C77.72 191.45 80.08 185.09 84.6 182.48L372.33 16.36C376.85 13.75 381.82 15.88 383.44 21.12L448.5 232.38C450.11 237.62 447.75 243.98 443.23 246.6L155.5 412.71C150.98 415.32 146.01 413.2 144.39 407.96Z" />
			<path id="&lt;Path&gt;" class="shp11" d="M147.59 400.76L85.38 198.8C83.84 193.78 86.1 187.69 90.43 185.19L369.5 23.93C373.83 21.43 378.59 23.47 380.13 28.49L442.34 230.45C443.88 235.47 441.62 241.56 437.29 244.06L158.22 405.31C153.89 407.81 149.13 405.78 147.59 400.76Z" />
			<path id="&lt;Path&gt;" class="shp12" d="M147.59 400.76L85.38 198.8C83.84 193.78 86.1 187.69 90.43 185.19L369.5 23.93C373.83 21.43 378.59 23.47 380.13 28.49L442.34 230.45C443.88 235.47 441.62 241.56 437.29 244.06L158.22 405.31C153.89 407.81 149.13 405.78 147.59 400.76Z" />
			<path id="&lt;Path&gt;" class="shp12" d="M147.59 400.76L85.38 198.8C83.84 193.78 86.1 187.69 90.43 185.19L369.5 23.93C373.83 21.43 378.59 23.47 380.13 28.49L442.34 230.45C443.88 235.47 441.62 241.56 437.29 244.06L158.22 405.31C153.89 407.81 149.13 405.78 147.59 400.76Z" />
			<path id="&lt;Path&gt;" class="shp13" d="M165.92 340.47L123.19 201.76C122.13 198.32 123.69 194.14 126.66 192.42L315.58 83.35C318.55 81.63 321.81 83.03 322.87 86.47L365.59 225.19C366.65 228.63 365.1 232.81 362.13 234.52L173.21 343.59C170.24 345.31 166.97 343.91 165.92 340.47Z" />
			<g id="&lt;Group&gt;">
				<path id="&lt;Path&gt;" class="shp14" d="M191.44 343.82L148.72 205.1C147.66 201.66 149.21 197.48 152.18 195.77L341.1 86.7C344.07 84.98 347.34 86.38 348.4 89.82L391.12 228.53C392.18 231.97 390.63 236.15 387.66 237.87L198.74 346.94C195.77 348.66 192.5 347.26 191.44 343.82Z" />
			</g>
			<g id="&lt;Group&gt;" style="opacity: 0.502">
				<path id="&lt;Path&gt;" class="shp9" d="M191.44 343.82L148.72 205.1C147.66 201.66 149.21 197.48 152.18 195.77L341.1 86.7C344.07 84.98 347.34 86.38 348.4 89.82L391.12 228.53C392.18 231.97 390.63 236.15 387.66 237.87L198.74 346.94C195.77 348.66 192.5 347.26 191.44 343.82Z" />
			</g>
			<path id="&lt;Path&gt;" class="shp8" d="M152.18 195.77L341.1 86.7C342.96 85.62 344.94 85.77 346.42 86.88C345.53 86.85 344.6 87.05 343.69 87.58L154.77 196.65C151.8 198.36 150.25 202.54 151.31 205.98L194.03 344.7C194.42 345.98 195.13 346.98 196.01 347.64C193.98 347.58 192.18 346.21 191.44 343.82L148.72 205.1C147.66 201.66 149.21 197.48 152.18 195.77Z" />
			<path id="&lt;Compound Path&gt;" fill-rule="evenodd" class="shp12" d="M428.1 457.97L389.13 435.47C386.48 433.94 384.96 431.83 384.96 429.68C384.96 427.83 386.07 426.18 388.07 425.02L463.76 381.32C467.93 378.92 474.91 379.19 479.67 381.93L518.64 404.43C521.29 405.96 522.81 408.07 522.81 410.22C522.81 412.06 521.71 413.72 519.7 414.88L444.01 458.58L444.01 458.58C442.1 459.68 439.61 460.22 437.01 460.22C433.92 460.22 430.68 459.46 428.1 457.97ZM464.85 383.22L389.16 426.91C388.24 427.45 387.15 428.36 387.15 429.68C387.15 431.03 388.27 432.45 390.23 433.58L429.19 456.07C433.2 458.39 439.48 458.66 442.91 456.69L518.61 412.98C519.53 412.45 520.63 411.54 520.63 410.22C520.63 408.87 519.5 407.45 517.54 406.32L478.58 383.83C476.37 382.55 473.46 381.89 470.73 381.89C468.5 381.89 466.39 382.33 464.85 383.22Z" />
		</g>
		<g id="&lt;Group&gt;">
			<g id="&lt;Group&gt;">
				<path id="&lt;Path&gt;" class="shp8" d="M219.66 203.02L207.98 209.76C206.9 210.39 205.3 210.14 204.42 209.21C203.54 208.27 203.71 207.01 204.79 206.39L216.47 199.64C217.55 199.02 219.14 199.27 220.03 200.2C220.91 201.13 220.74 202.39 219.66 203.02Z" />
				<path id="&lt;Path&gt;" class="shp8" d="M247.48 186.96L230.26 196.9C229.18 197.53 227.58 197.28 226.7 196.34C225.82 195.41 225.98 194.15 227.07 193.52L244.29 183.58C245.37 182.95 246.97 183.2 247.85 184.14C248.73 185.07 248.56 186.33 247.48 186.96Z" />
				<path id="&lt;Path&gt;" class="shp8" d="M252.92 249.42L241.24 256.16C240.15 256.79 238.56 256.54 237.68 255.61C236.8 254.67 236.96 253.41 238.04 252.79L249.72 246.04C250.81 245.42 252.4 245.66 253.28 246.6C254.16 247.53 254 248.79 252.92 249.42Z" />
				<path id="&lt;Path&gt;" class="shp8" d="M277.72 235.1L260.49 245.04C259.41 245.67 257.82 245.42 256.94 244.49C256.05 243.55 256.22 242.29 257.3 241.67L274.52 231.72C275.61 231.1 277.2 231.35 278.08 232.28C278.96 233.21 278.8 234.47 277.72 235.1Z" />
				<path id="&lt;Path&gt;" class="shp8" d="M194.14 228.69L186.84 232.9C185.76 233.52 184.17 233.27 183.29 232.34C182.41 231.41 182.57 230.15 183.65 229.52L190.95 225.31C192.03 224.68 193.63 224.93 194.51 225.86C195.39 226.8 195.22 228.06 194.14 228.69Z" />
				<path id="&lt;Path&gt;" class="shp8" d="M224.56 223.48L202.27 236.35C201.19 236.97 199.59 236.72 198.71 235.79C197.83 234.86 198 233.6 199.08 232.97L221.37 220.1C222.46 219.47 224.05 219.72 224.93 220.66C225.81 221.59 225.65 222.85 224.56 223.48Z" />
				<path id="&lt;Path&gt;" class="shp8" d="M216.94 249.28L209.64 253.49C208.56 254.12 206.97 253.87 206.09 252.94C205.2 252.01 205.37 250.74 206.45 250.12L213.75 245.9C214.83 245.28 216.42 245.53 217.31 246.46L217.31 246.46C218.19 247.39 218.02 248.65 216.94 249.28Z" />
				<path id="&lt;Path&gt;" class="shp8" d="M299.34 244.48L279.85 255.73C278.77 256.36 277.18 256.11 276.3 255.18C275.41 254.24 275.58 252.98 276.66 252.36L296.15 241.1C297.23 240.48 298.83 240.73 299.71 241.66C300.59 242.59 300.42 243.85 299.34 244.48Z" />
				<path id="&lt;Path&gt;" class="shp8" d="M219.7 267.93L215.02 270.64C213.93 271.26 212.34 271.02 211.46 270.08C210.58 269.15 210.74 267.89 211.82 267.26L216.51 264.56C217.59 263.93 219.18 264.18 220.06 265.11C220.95 266.05 220.78 267.31 219.7 267.93Z" />
				<path id="&lt;Path&gt;" class="shp8" d="M227.2 287.43L221.39 290.78C220.3 291.41 218.71 291.16 217.83 290.23L217.83 290.23C216.95 289.3 217.11 288.03 218.2 287.41L224.01 284.05C225.1 283.43 226.69 283.67 227.57 284.61C228.45 285.54 228.29 286.8 227.2 287.43Z" />
				<path id="&lt;Path&gt;" class="shp8" d="M271.83 260.36L256.5 269.22C255.41 269.84 253.82 269.59 252.94 268.66C252.06 267.73 252.22 266.47 253.3 265.84L268.64 256.99C269.72 256.36 271.31 256.61 272.2 257.54C273.08 258.48 272.91 259.74 271.83 260.36Z" />
				<path id="&lt;Path&gt;" class="shp8" d="M247.1 286.49L236.07 292.86C234.99 293.48 233.4 293.23 232.52 292.3C231.63 291.37 231.8 290.11 232.88 289.48L243.91 283.12C244.99 282.49 246.58 282.74 247.46 283.67C248.35 284.6 248.18 285.87 247.1 286.49Z" />
				<path id="&lt;Path&gt;" class="shp8" d="M245.1 275.85L238.02 279.94C236.94 280.56 235.34 280.32 234.46 279.38C233.58 278.45 233.75 277.19 234.83 276.56L241.91 272.47C242.99 271.85 244.59 272.1 245.47 273.03C246.35 273.96 246.18 275.22 245.1 275.85Z" />
				<path id="&lt;Path&gt;" class="shp8" d="M243.08 233.61L223.59 244.86C222.51 245.49 220.92 245.24 220.03 244.31C219.15 243.37 219.32 242.11 220.4 241.49L239.89 230.24C240.97 229.61 242.57 229.86 243.45 230.79C244.33 231.72 244.16 232.99 243.08 233.61Z" />
			</g>
			<path id="&lt;Path&gt;" class="shp15" d="M239.92 224.81L205.96 244.42C204.87 245.05 203.28 244.8 202.4 243.86C201.52 242.93 201.68 241.67 202.77 241.04L236.73 221.43C237.81 220.81 239.41 221.06 240.29 221.99C241.17 222.92 241.01 224.18 239.92 224.81Z" />
			<path id="&lt;Path&gt;" class="shp15" d="M231.82 250.31L212.33 261.57C211.25 262.19 209.65 261.94 208.77 261.01C207.89 260.08 208.05 258.82 209.14 258.19L228.63 246.94C229.71 246.31 231.3 246.56 232.18 247.49C233.06 248.43 232.9 249.69 231.82 250.31Z" />
			<path id="&lt;Path&gt;" class="shp15" d="M257.86 225.08L250.78 229.17C249.7 229.79 248.1 229.54 247.22 228.61C246.34 227.68 246.51 226.42 247.59 225.79L254.67 221.7C255.75 221.08 257.35 221.32 258.23 222.26C259.11 223.19 258.94 224.45 257.86 225.08Z" />
			<path id="&lt;Path&gt;" class="shp15" d="M300.01 156.63L258.08 180.84C257 181.46 255.4 181.21 254.52 180.28C253.64 179.35 253.81 178.09 254.89 177.46L296.82 153.25C297.9 152.63 299.5 152.88 300.38 153.81C301.26 154.74 301.09 156 300.01 156.63Z" />
			<path id="&lt;Path&gt;" class="shp16" d="M241.13 267.19L217.7 280.71C216.62 281.34 215.02 281.09 214.14 280.16C213.26 279.22 213.43 277.96 214.51 277.34L237.94 263.81C239.02 263.19 240.61 263.43 241.49 264.37C242.37 265.3 242.21 266.56 241.13 267.19Z" />
			<path id="&lt;Path&gt;" class="shp16" d="M197.38 215.88L180.16 225.82C179.07 226.45 177.48 226.2 176.6 225.27C175.72 224.34 175.88 223.07 176.97 222.45L194.19 212.51C195.27 211.88 196.87 212.13 197.75 213.06C198.63 213.99 198.46 215.26 197.38 215.88Z" />
			<path id="&lt;Path&gt;" class="shp15" d="M246.96 297.04L227.02 308.55C225.94 309.18 224.34 308.93 223.46 308C222.58 307.07 222.74 305.8 223.83 305.18L243.77 293.66C244.86 293.04 246.45 293.29 247.33 294.22C248.21 295.15 248.05 296.41 246.96 297.04Z" />
		</g>
		<g id="&lt;Group&gt;">
			<path id="&lt;Path&gt;" class="shp8" d="M283.69 141.77L275.15 146.7C274.36 147.16 273.19 146.98 272.55 146.29C271.91 145.61 272.03 144.69 272.82 144.23L281.36 139.3C282.15 138.85 283.31 139.03 283.96 139.71C284.6 140.39 284.48 141.31 283.69 141.77Z" />
			<path id="&lt;Path&gt;" class="shp8" d="M299.97 132.37L291.43 137.3C290.64 137.76 289.48 137.57 288.83 136.89C288.19 136.21 288.31 135.29 289.1 134.83L297.64 129.9C298.43 129.44 299.6 129.63 300.24 130.31C300.88 130.99 300.76 131.91 299.97 132.37Z" />
			<path id="&lt;Path&gt;" class="shp8" d="M316.26 122.97L307.72 127.9C306.93 128.35 305.76 128.17 305.12 127.49C304.47 126.81 304.59 125.89 305.39 125.43L313.92 120.5C314.72 120.04 315.88 120.22 316.52 120.91C317.17 121.59 317.05 122.51 316.26 122.97Z" />
			<path id="&lt;Path&gt;" class="shp16" d="M324.27 118.35L324 118.49C323.21 118.95 322.05 118.77 321.4 118.09C320.76 117.41 320.88 116.48 321.67 116.03L321.93 115.88C322.73 115.42 323.89 115.61 324.53 116.29C325.18 116.97 325.06 117.89 324.27 118.35Z" />
		</g>
		<path id="&lt;Compound Path&gt;" fill-rule="evenodd" class="shp17" d="M613.59 308.64C608.19 308.64 602.79 307.25 597.97 304.46L540.78 271.44C538.3 270.01 536.82 267.45 536.82 264.59C536.82 261.72 538.3 259.16 540.78 257.73L597.97 224.71C607.6 219.15 619.58 219.14 629.22 224.71L686.41 257.73C688.89 259.16 690.37 261.73 690.37 264.59C690.37 267.45 688.89 270.01 686.41 271.45L629.22 304.46C624.4 307.25 619 308.64 613.59 308.64ZM599.83 301.24C608.32 306.14 618.87 306.14 627.36 301.24L684.55 268.22C685.86 267.46 686.65 266.11 686.65 264.59C686.65 263.07 685.86 261.71 684.55 260.95L627.36 227.93C618.86 223.03 608.32 223.03 599.83 227.93L542.64 260.95C541.33 261.71 540.54 263.07 540.54 264.59C540.54 266.1 541.33 267.46 542.64 268.22L599.83 301.24Z" />
		<g id="&lt;Group&gt;">
			<path id="&lt;Path&gt;" class="shp3" d="M641.08 281.4C625.74 290.26 600.87 290.26 585.53 281.4C570.19 272.54 570.19 258.18 585.53 249.33C600.87 240.47 625.74 240.47 641.08 249.33C656.42 258.19 656.42 272.54 641.08 281.4Z" />
			<path id="&lt;Path&gt;" class="shp18" d="M661.13 224.86C661.13 231.59 656.68 238.32 647.79 243.45C630.01 253.72 601.18 253.72 583.39 243.45C574.5 238.32 570.06 231.59 570.06 224.86L559.65 103.73L671.53 103.73L661.13 224.86Z" />
			<path id="&lt;Path&gt;" class="shp12" d="M669.47 127.71L661.13 224.86C661.13 231.59 656.68 238.32 647.79 243.45C640.2 247.84 630.6 250.33 620.71 250.97C634.13 248.13 641.11 243.12 644.74 238.85C647.24 235.9 648.57 232.15 648.74 228.29L652.46 139.69C628.39 149.9 593.11 147.17 571.73 132.98C567.38 130.09 563.93 126.94 561.36 123.66L559.65 103.73L671.53 103.73L669.47 127.71Z" />
			<path id="&lt;Path&gt;" class="shp12" d="M655.15 126.57C633.3 139.18 597.88 139.18 576.04 126.56C554.19 113.95 554.19 93.5 576.03 80.89C597.88 68.27 633.3 68.28 655.15 80.89C677 93.5 677 113.95 655.15 126.57Z" />
			<path id="&lt;Path&gt;" class="shp12" d="M649.66 112.01C630.85 122.88 600.34 122.88 581.52 112.01C562.7 101.15 562.7 83.53 581.52 72.67C600.34 61.81 630.85 61.81 649.66 72.67C668.48 83.54 668.48 101.15 649.66 112.01Z" />
			<path id="&lt;Path&gt;" class="shp19" d="M657.54 127.92C634.37 141.3 596.81 141.3 573.65 127.92C561.48 120.9 555.72 111.58 556.33 102.38L556.32 102.39L556.34 102.23C556.35 101.98 556.39 101.73 556.42 101.47L557.44 91.82L557.45 91.85C557.68 83.43 563.34 75.04 574.47 68.62C597.18 55.51 634 55.51 656.72 68.62C667.57 74.89 673.23 83.02 673.71 91.22L673.75 91.1L674.83 101.95C674.83 102 674.84 102.06 674.84 102.11L674.85 102.21L674.85 102.2C675.55 111.46 669.78 120.85 657.54 127.92Z" />
			<path id="&lt;Path&gt;" class="shp20" d="M649.66 112.01C630.85 122.88 600.34 122.88 581.52 112.01C562.7 101.15 562.7 83.53 581.52 72.67C600.34 61.81 630.85 61.81 649.66 72.67C668.48 83.54 668.48 101.15 649.66 112.01Z" />
			<path id="&lt;Path&gt;" class="shp21" d="M647.38 112.01C628.56 122.88 598.05 122.88 579.23 112.01C560.42 101.15 560.42 83.53 579.23 72.67C598.05 61.81 628.56 61.81 647.38 72.67C666.19 83.54 666.19 101.15 647.38 112.01Z" />
			<path id="&lt;Path&gt;" class="shp12" d="M580.85 111.58C562.74 100.69 562.94 83.4 581.52 72.67C600.34 61.81 630.85 61.81 649.66 72.67C652.12 74.09 654.24 75.63 656.05 77.25C655.82 77.11 655.62 76.95 655.38 76.82C636.56 65.95 606.05 65.95 587.24 76.81C570.88 86.26 568.76 100.8 580.85 111.58Z" />
			<path id="&lt;Path&gt;" class="shp22" d="M567.6 94.76C566.41 86.85 571.05 78.72 581.52 72.67C600.34 61.81 630.85 61.81 649.66 72.67C660.14 78.72 664.77 86.86 663.59 94.76C662.64 88.46 658.01 82.32 649.66 77.5C630.85 66.64 600.34 66.63 581.52 77.5C573.18 82.32 568.54 88.46 567.6 94.76Z" />
			<path id="&lt;Compound Path&gt;" fill-rule="evenodd" class="shp23" d="M656.66 116.54C633.75 129.5 596.79 129.17 574.11 115.81C551.42 102.45 551.61 81.11 574.52 68.15C597.44 55.19 634.4 55.51 657.08 68.87C679.76 82.24 679.57 103.58 656.66 116.54ZM649.66 72.67C630.85 61.81 600.34 61.81 581.52 72.67C562.7 83.53 562.7 101.15 581.52 112.01C587.81 115.64 595.41 118.03 603.43 119.23L604.3 116.36C604.66 115.2 605.73 114.41 606.94 114.41L624.24 114.41C625.46 114.41 626.53 115.2 626.88 116.36L627.75 119.23C635.78 118.03 643.38 115.64 649.66 112.01C668.48 101.15 668.48 83.54 649.66 72.67Z" />
			<g id="&lt;Group&gt;">
				<path id="&lt;Path&gt;" class="shp8" d="M663.73 91.31C663.3 84.54 658.62 77.84 649.66 72.67C630.85 61.81 600.34 61.81 581.52 72.67C572.57 77.84 567.88 84.54 567.45 91.31C566.97 83.85 571.66 76.3 581.52 70.61C600.34 59.75 630.85 59.75 649.66 70.61C659.53 76.31 664.21 83.85 663.73 91.31Z" />
				<path id="&lt;Path&gt;" class="shp8" d="M673.93 91.61C674.42 100.65 668.67 109.74 656.66 116.54C633.75 129.5 596.79 129.17 574.11 115.81C562.41 108.92 556.81 99.91 557.26 91.02C557.71 99.23 563.31 107.39 574.11 113.75C596.79 127.11 633.75 127.44 656.66 114.48C667.76 108.2 673.5 99.96 673.93 91.61Z" />
			</g>
			<path id="&lt;Path&gt;" class="shp24" d="M620.76 120.73L610.42 120.73C609.7 120.73 609.11 120.15 609.11 119.42L609.11 119.24C609.11 118.52 609.7 117.94 610.42 117.94L620.76 117.94C621.48 117.94 622.07 118.52 622.07 119.24L622.07 119.42C622.07 120.15 621.48 120.73 620.76 120.73Z" />
			<path id="&lt;Path&gt;" class="shp25" d="M622.07 119.24L622.07 119.43C622.07 119.55 622.03 119.66 622 119.77C621.84 119.22 621.36 118.81 620.76 118.81L610.42 118.81C609.82 118.81 609.34 119.22 609.18 119.77C609.15 119.66 609.11 119.55 609.11 119.43L609.11 119.24C609.11 118.52 609.7 117.94 610.42 117.94L620.76 117.94C621.48 117.94 622.07 118.52 622.07 119.24Z" />
		</g>
		<path id="&lt;Path&gt;" class="shp26" d="M612.37 119.33C622.01 115.02 626.89 106.89 627.03 94.96C627.2 79.9 624.01 83.52 609.46 52.03C599.76 31.03 600.1 12.78 610.48 -2.74C600.55 26.01 625.21 36.97 637.87 72.91C646.31 96.87 640.11 112.35 619.26 119.33L612.37 119.33Z" />
		<path id="&lt;Path&gt;" class="shp26" d="M622.07 2.26C619.9 -12.07 625.54 -26.46 638.98 -40.91C627.09 -14.35 623.09 5.48 626.98 18.59C623.83 10.26 622.2 4.82 622.07 2.26Z" />
	</g>
</svg>