<svg viewBox="0 0 59 59" xmlns="http://www.w3.org/2000/svg">
<path d="M6.90049 23.8046C7.12163 23.8046 7.34288 23.7202 7.51171 23.5514L29.321 1.74197C29.3397 1.72307 29.371 1.72376 29.3906 1.74324L32.2988 4.65146L28.4635 8.48676C28.1659 8.78453 28.0455 9.20618 28.1412 9.61481C28.284 10.2229 28.1061 10.8491 27.6656 11.2897C27.2249 11.7303 26.5983 11.9084 25.9904 11.7653C25.5816 11.6697 25.1604 11.7901 24.8623 12.0879L21.3049 15.6452C20.9674 15.9828 20.9674 16.53 21.3049 16.8674C21.4737 17.0361 21.695 17.1206 21.9161 17.1206C22.1373 17.1206 22.3585 17.0363 22.5274 16.8674L25.8903 13.5045C26.7014 13.6249 27.5132 13.4598 28.2027 13.0463L30.3561 15.1995C30.5249 15.3682 30.7461 15.4527 30.9673 15.4527C31.1884 15.4527 31.4097 15.3683 31.5785 15.1995C31.916 14.862 31.916 14.3147 31.5785 13.9773L29.4241 11.8233C29.8361 11.1343 30.0006 10.3239 29.8805 9.51432L37.5447 1.85006C37.7069 1.68781 37.9711 1.68769 38.1335 1.85006L43.5615 7.27804C42.4351 9.59844 42.8934 12.418 44.7379 14.2625C46.5824 16.1069 49.402 16.5654 51.7224 15.439L52.7102 16.4269C53.0477 16.7644 53.595 16.7645 53.9324 16.4269C54.27 16.0894 54.27 15.5422 53.9325 15.2047L52.6738 13.946C52.2898 13.5622 51.6925 13.4816 51.2219 13.7499C49.5142 14.7228 47.3508 14.431 45.9601 13.0403C44.5693 11.6495 44.2774 9.48586 45.2505 7.77851C45.5189 7.30743 45.4382 6.71016 45.0542 6.32642L39.3557 0.627864C38.5193 -0.208406 37.1587 -0.208176 36.3223 0.627864L33.521 3.42915L30.6129 0.52104C29.9192 -0.172568 28.7915 -0.173029 28.0988 0.519657L6.28928 22.3292C5.95175 22.6667 5.95175 23.214 6.28928 23.5514C6.4581 23.7202 6.67924 23.8046 6.90049 23.8046Z M27.6458 44.7174L25.4393 42.5109C25.1016 42.1734 24.5545 42.1734 24.2169 42.5109C23.8794 42.8484 23.8794 43.3957 24.2169 43.7331L26.4235 45.9396C26.8045 46.3205 27.3108 46.5302 27.8495 46.5302C28.3882 46.5302 28.8945 46.3205 29.2755 45.9396L38.2816 36.9336C38.6624 36.5527 38.8721 36.0462 38.8721 35.5076C38.8721 34.9689 38.6624 34.4625 38.2816 34.0816L31.7901 27.5902L32.0021 27.3782C32.5635 26.8165 32.5635 25.9028 32.0021 25.3411L29.4897 22.8289C29.2178 22.5568 28.8559 22.4069 28.4711 22.4069C28.0864 22.4069 27.7246 22.5567 27.4524 22.8287L25.441 24.8402C25.2873 24.2889 24.9943 23.7832 24.5786 23.3676L24.2996 23.0885C22.9852 21.7742 20.8467 21.7742 19.5326 23.0885L19.2537 23.3675C18.6698 23.9499 18.2047 24.9585 18.2712 25.9296C17.4593 25.8777 16.3997 26.211 15.7092 26.9119L15.4299 27.191C14.1158 28.5052 14.1158 30.6436 15.4301 31.9579L15.709 32.2369C16.1248 32.6526 16.6305 32.9455 17.1819 33.0993L15.1704 35.1107C14.8984 35.3828 14.7484 35.7446 14.7484 36.1294C14.7484 36.5143 14.8984 36.8761 15.1703 37.148L17.6827 39.6603C17.9547 39.9324 18.3165 40.0823 18.7013 40.0823C19.086 40.0823 19.4479 39.9325 19.7198 39.6604L19.9319 39.4484L21.3602 40.8767C21.5289 41.0454 21.7502 41.1299 21.9713 41.1299C22.1925 41.1299 22.4137 41.0455 22.5826 40.8767C22.9201 40.5392 22.9201 39.9919 22.5824 39.6545L21.1541 38.2263L24.0631 35.3173L30.7581 42.0124L28.0528 44.7177C27.9406 44.8299 27.7579 44.8297 27.6458 44.7174ZM37.0592 35.304C37.1717 35.4164 37.1717 35.5991 37.0592 35.7115L34.354 38.4168L27.6588 31.7216L30.5677 28.8127L37.0592 35.304ZM28.4712 24.2548L30.5762 26.3597L26.4366 30.4992L24.3317 28.3943L28.4712 24.2548ZM23.1094 29.6167L25.2143 31.7216L24.0633 32.8726L21.9584 30.7677L23.1094 29.6167ZM19.9951 25.751C19.9951 25.3124 20.1659 24.9 20.4763 24.5898L20.7552 24.3108C21.0653 24.0007 21.4778 23.8298 21.9164 23.8298C22.355 23.8298 22.7674 24.0006 23.0775 24.3107L23.3566 24.5898C23.6667 24.8999 23.8376 25.3123 23.8376 25.7509C23.8376 26.1895 23.6668 26.6019 23.3566 26.912H23.3565L21.9164 28.3521L20.4761 26.912C20.1659 26.6019 19.9951 26.1896 19.9951 25.751ZM16.6526 30.7357C16.0122 30.0954 16.0122 29.0536 16.6525 28.4134L16.9317 28.1343C17.2417 27.8242 17.6542 27.6535 18.0927 27.6535C18.5314 27.6535 18.9437 27.8242 19.2538 28.1343L20.6941 29.5746L19.2539 31.0148C18.9437 31.3249 18.5313 31.4957 18.0927 31.4957C17.6541 31.4957 17.2417 31.3249 16.9316 31.0147L16.6526 30.7357ZM18.7015 38.2343L16.5966 36.1294L20.7361 31.9899L22.841 34.0948L18.7015 38.2343ZM25.2857 34.0948L26.4366 32.9438L33.1318 39.639L31.9808 40.7899L25.2857 34.0948Z M58.3728 19.6449L56.8377 18.1098C56.5004 17.7723 55.9531 17.7723 55.6155 18.1098C55.278 18.4474 55.278 18.9946 55.6155 19.332L57.1506 20.8671C57.3129 21.0295 57.3129 21.2936 57.1506 21.456L49.5443 29.0622C48.6978 28.9035 47.8269 29.0627 47.097 29.4959L45.0235 27.4224C44.686 27.0849 44.1389 27.0849 43.8012 27.4224C43.4637 27.76 43.4637 28.3072 43.8012 28.6446L45.8739 30.7174C45.4391 31.4482 45.2791 32.3206 45.4383 33.1683L21.4561 57.1503C21.2938 57.3124 21.0296 57.3126 20.8674 57.1503L15.4394 51.7223C16.5657 49.4019 16.1074 46.5823 14.2629 44.7379C12.4186 42.8935 9.59896 42.435 7.27845 43.5614L1.85047 38.1334C1.74433 38.0273 1.72843 37.9034 1.72843 37.839C1.72843 37.7746 1.74433 37.6507 1.85047 37.5446L19.683 19.7121C20.0205 19.3746 20.0205 18.8273 19.683 18.4899C19.3453 18.1524 18.7982 18.1524 18.4606 18.4899L4.65175 32.2988L1.74364 29.3906C1.73949 29.3864 1.72855 29.3756 1.72855 29.3546C1.72855 29.3348 1.73846 29.3249 1.74226 29.3211L4.59067 26.4727C4.9282 26.1351 4.9282 25.5879 4.59067 25.2505C4.25303 24.9129 3.70589 24.9129 3.36836 25.2505L0.519947 28.0989C-0.172739 28.7916 -0.172163 29.9194 0.521329 30.6128L3.42955 33.521L0.628154 36.3224C0.223213 36.7275 0 37.2662 0 37.839C0 38.412 0.223213 38.9506 0.628154 39.3557L6.32694 45.0545C6.71068 45.4383 7.30795 45.5188 7.7788 45.2505C9.48626 44.2776 11.6498 44.5695 13.0406 45.9602C14.4314 47.351 14.7233 49.5146 13.7502 51.222C13.4819 51.6931 13.5625 52.2903 13.9465 52.6741L19.645 58.3727C20.0632 58.7908 20.6126 58.9999 21.1617 58.9999C21.711 58.9999 22.2602 58.7908 22.6784 58.3726L46.8645 34.1866C47.1728 33.8782 47.2909 33.4246 47.1728 33.0028C46.9981 32.3801 47.1732 31.7098 47.6294 31.2536C48.0856 30.7974 48.7559 30.6224 49.3783 30.7969C49.8003 30.9154 50.2539 30.7972 50.5624 30.4886L58.3728 22.6783C59.2092 21.8419 59.2092 20.4812 58.3728 19.6449Z M41.7232 26.2073C41.9444 26.2073 42.1655 26.1229 42.3344 25.9541C42.6719 25.6166 42.6719 25.0693 42.3344 24.7319L39.6454 22.0431C39.3077 21.7055 38.7606 21.7055 38.4231 22.0431C38.0855 22.3806 38.0855 22.9278 38.4231 23.2652L41.1121 25.9541C41.2809 26.1228 41.502 26.2073 41.7232 26.2073Z M36.3452 20.8302C36.5664 20.8302 36.7876 20.7459 36.9564 20.577C37.2939 20.2395 37.2939 19.6923 36.9564 19.3549L34.2674 16.666C33.9298 16.3285 33.3827 16.3285 33.0451 16.666C32.7076 17.0035 32.7076 17.5508 33.0451 17.8882L35.7341 20.577C35.9029 20.7459 36.1242 20.8302 36.3452 20.8302Z M44.3013 21.4056L44.6562 21.7605C44.825 21.9292 45.0463 22.0137 45.2674 22.0137C45.4885 22.0137 45.7098 21.9294 45.8786 21.7605C46.2161 21.423 46.2161 20.8758 45.8786 20.5383L45.4476 20.1074C46.0163 19.0219 45.8173 17.7651 45.2196 16.9258C44.4132 15.7931 43.0112 15.4429 41.7309 16.0543C41.0328 16.3879 40.2427 16.738 39.676 16.8065C39.5155 16.826 39.3097 16.6973 39.1657 16.4864C39.0927 16.3795 38.871 15.9996 39.0844 15.6022C39.5019 14.8247 40.186 14.7496 40.2627 14.7436C40.7386 14.7062 41.0941 14.2902 41.0569 13.8144C41.0196 13.3386 40.6036 12.9833 40.1277 13.0203C39.9638 13.0331 39.4058 13.1029 38.8034 13.4631L38.4636 13.1232C38.1262 12.7857 37.5789 12.7858 37.2414 13.1232C36.9039 13.4607 36.9039 14.008 37.2415 14.3454L37.6046 14.7085C37.1735 15.4221 37.1467 16.5993 37.7385 17.4612C38.2525 18.2138 39.0753 18.6205 39.8838 18.5225C40.5405 18.4431 41.2917 18.1799 42.4763 17.614C43.2253 17.2563 43.6597 17.7148 43.812 17.9285C44.1238 18.3664 44.2136 19.0869 43.6737 19.634C43.1238 20.1914 42.9402 20.3246 42.2454 20.4699C41.7782 20.5676 41.4787 21.0256 41.5764 21.4927C41.6615 21.9003 42.0208 22.1803 42.4214 22.1802C43.0443 22.1167 43.8359 21.7993 44.3013 21.4056Z"/>
</svg>
