<?xml version="1.0" encoding="iso-8859-1"?>
<!-- Generator: Adobe Illustrator 19.0.0, SVG Export Plug-In . SVG Version: 6.00 Build 0)  -->
<svg version="1.1" id="Layer_1" xmlns="http://www.w3.org/2000/svg" xmlns:xlink="http://www.w3.org/1999/xlink" x="0px" y="0px"
	 viewBox="0 0 417.496 417.496" style="enable-background:new 0 0 417.496 417.496;" xml:space="preserve">
<g>
	<g>
		<path d="M163.267,121.811c-22.857,0-41.454,18.596-41.454,41.454c0,22.858,18.597,41.454,41.454,41.454
			s41.453-18.596,41.453-41.454C204.72,140.407,186.124,121.811,163.267,121.811z M163.267,189.719
			c-14.587-0.001-26.454-11.867-26.454-26.454c0-14.587,11.867-26.454,26.454-26.454c14.586,0,26.453,11.867,26.453,26.454
			C189.72,177.852,177.853,189.719,163.267,189.719z"/>
	</g>
</g>
<g>
	<g>
		<path d="M254.232,212.777c-22.857,0-41.453,18.596-41.453,41.454s18.596,41.454,41.453,41.454s41.454-18.596,41.454-41.454
			S277.089,212.777,254.232,212.777z M254.232,280.684c-14.586,0-26.453-11.867-26.453-26.454s11.867-26.454,26.453-26.454
			c14.587,0,26.454,11.867,26.454,26.454S268.819,280.684,254.232,280.684z"/>
	</g>
</g>
<g>
	<g>
		<path d="M257.267,160.231c-2.929-2.928-7.677-2.929-10.607,0l-86.428,86.427c-2.929,2.929-2.929,7.677,0,10.606
			c1.465,1.465,3.384,2.197,5.304,2.197c1.919,0,3.839-0.732,5.304-2.197l86.428-86.427
			C260.196,167.908,260.196,163.16,257.267,160.231z"/>
	</g>
</g>
<g>
	<g>
		<path d="M403.806,208.748c0-6.428,3.233-14.164,6.36-21.645c4.635-11.088,9.427-22.553,6.362-34.02
			c-3.192-11.941-13.311-19.614-23.097-27.035c-6.543-4.962-12.723-9.648-15.727-14.84c-3.094-5.347-4.097-13.152-5.158-21.415
			c-1.55-12.063-3.153-24.537-11.729-33.114c-8.577-8.577-21.051-10.179-33.113-11.729c-8.264-1.062-16.068-2.064-21.416-5.158
			c-5.192-3.004-9.879-9.184-14.84-15.727c-7.421-9.786-15.094-19.904-27.034-23.096c-11.468-3.065-22.934,1.727-34.021,6.362
			c-7.48,3.127-15.216,6.36-21.645,6.36s-14.164-3.233-21.645-6.36c-11.088-4.634-22.55-9.427-34.021-6.362
			c-11.94,3.191-19.614,13.31-27.035,23.096c-4.961,6.543-9.647,12.723-14.84,15.727c-5.348,3.094-13.152,4.096-21.416,5.158
			c-12.063,1.55-24.536,3.152-33.113,11.729c-8.576,8.577-10.179,21.05-11.729,33.113c-1.062,8.263-2.064,16.069-5.159,21.416
			c-3.003,5.192-9.184,9.878-15.727,14.84c-9.785,7.42-19.903,15.094-23.096,27.034c-3.064,11.467,1.728,22.932,6.361,34.02
			c3.127,7.481,6.36,15.217,6.36,21.645s-3.233,14.164-6.36,21.645c-4.634,11.088-9.426,22.553-6.361,34.02
			c3.192,11.941,13.311,19.614,23.097,27.035c6.543,4.962,12.723,9.648,15.727,14.84c3.094,5.347,4.097,13.152,5.158,21.415
			c1.55,12.063,3.153,24.537,11.729,33.114c8.577,8.577,21.051,10.18,33.113,11.729c8.264,1.062,16.068,2.064,21.416,5.158
			c5.191,3.004,9.878,9.184,14.839,15.727c7.421,9.786,15.094,19.905,27.035,23.096c11.465,3.065,22.932-1.727,34.02-6.362
			c7.48-3.127,15.217-6.36,21.646-6.36c6.429,0,14.164,3.233,21.646,6.36c8.652,3.617,17.533,7.329,26.467,7.329
			c2.515,0,5.034-0.294,7.552-0.967c11.941-3.191,19.615-13.311,27.036-23.096c4.962-6.543,9.648-12.723,14.84-15.727
			c5.347-3.094,13.152-4.096,21.415-5.158c12.063-1.55,24.536-3.153,33.113-11.729c8.576-8.577,10.18-21.051,11.729-33.114
			c1.062-8.263,2.064-16.068,5.157-21.415c3.005-5.192,9.185-9.878,15.728-14.84c9.786-7.42,19.904-15.094,23.097-27.034
			c3.064-11.467-1.728-22.932-6.362-34.02C407.039,222.912,403.806,215.176,403.806,208.748z M396.327,236.177
			c3.834,9.172,7.455,17.835,5.71,24.362c-1.862,6.971-9.54,12.792-17.668,18.956c-7.438,5.641-15.13,11.473-19.647,19.28
			c-4.603,7.957-5.848,17.646-7.052,27.015c-1.286,10.008-2.5,19.46-7.459,24.419c-4.958,4.958-14.41,6.172-24.417,7.458
			c-9.37,1.204-19.06,2.449-27.016,7.052c-7.807,4.517-13.64,12.208-19.28,19.646c-6.164,8.128-11.985,15.805-18.957,17.669
			c-6.526,1.745-15.19-1.877-24.361-5.71c-8.846-3.697-17.992-7.521-27.43-7.521s-18.585,3.823-27.431,7.521
			c-9.172,3.834-17.834,7.453-24.361,5.71c-6.971-1.863-12.792-9.541-18.956-17.668c-5.641-7.438-11.473-15.13-19.279-19.646
			c-7.957-4.604-17.646-5.849-27.016-7.052c-10.008-1.286-19.46-2.5-24.418-7.458c-4.959-4.958-6.173-14.411-7.459-24.419
			c-1.204-9.37-2.449-19.058-7.053-27.015c-4.517-7.807-12.208-13.64-19.646-19.28c-8.128-6.164-15.806-11.986-17.668-18.956
			c-1.745-6.527,1.876-15.19,5.709-24.362c3.697-8.846,7.521-17.992,7.521-27.43s-3.823-18.584-7.521-27.43
			c-3.833-9.172-7.454-17.835-5.709-24.362c1.862-6.97,9.54-12.792,17.667-18.956c7.438-5.641,15.131-11.474,19.646-19.28
			c4.604-7.957,5.85-17.646,7.054-27.017c1.285-10.007,2.5-19.459,7.458-24.417s14.41-6.172,24.418-7.458
			c9.369-1.204,19.059-2.449,27.016-7.052c7.807-4.517,13.64-12.208,19.28-19.647c6.164-8.128,11.985-15.805,18.956-17.668
			c6.528-1.744,15.19,1.877,24.362,5.71c8.846,3.697,17.992,7.52,27.43,7.52s18.584-3.823,27.43-7.52
			c9.173-3.834,17.836-7.454,24.362-5.71c6.971,1.863,12.792,9.54,18.955,17.668c5.641,7.439,11.474,15.131,19.28,19.647
			c7.957,4.604,17.646,5.849,27.017,7.052c10.007,1.286,19.46,2.5,24.417,7.458c4.959,4.958,6.173,14.411,7.459,24.419
			c1.204,9.37,2.449,19.059,7.053,27.016c4.517,7.807,12.208,13.639,19.646,19.28c8.128,6.164,15.805,11.985,17.668,18.956
			c1.745,6.527-1.876,15.19-5.71,24.361c-3.697,8.846-7.521,17.993-7.521,27.43C388.806,218.185,392.629,227.332,396.327,236.177z"
			/>
	</g>
</g>
<g>
	<g>
		<path d="M208.749,54.482c-85.063,0-154.266,69.203-154.266,154.265s69.203,154.265,154.266,154.265
			c85.062,0,154.265-69.203,154.265-154.265S293.811,54.482,208.749,54.482z M208.749,348.013
			c-76.791,0-139.266-62.474-139.266-139.265S131.958,69.483,208.749,69.483s139.265,62.474,139.265,139.265
			S285.54,348.013,208.749,348.013z"/>
	</g>
</g>
<g>
</g>
<g>
</g>
<g>
</g>
<g>
</g>
<g>
</g>
<g>
</g>
<g>
</g>
<g>
</g>
<g>
</g>
<g>
</g>
<g>
</g>
<g>
</g>
<g>
</g>
<g>
</g>
<g>
</g>
</svg>
