<svg  xmlns="http://www.w3.org/2000/svg" viewBox="0 0 119 119">
<path d="M39.0469 98.5469H42.7656V102.266H39.0469V98.5469Z M39.0469 105.984H42.7656V109.703H39.0469V105.984Z M81.8924 61.3594C83.577 61.3594 85.1631 60.6175 86.2397 59.3234L93.8408 50.2031H107.844C112.97 50.2031 117.141 46.0325 117.141 40.9062V22.3125C117.141 17.1862 112.97 13.0156 107.844 13.0156H98.5469C98.5469 6.86295 93.5433 1.85938 87.3906 1.85938C81.238 1.85938 76.2344 6.86295 76.2344 13.0156H66.9375C61.8112 13.0156 57.6406 17.1862 57.6406 22.3125V32.5781C54.1022 29.6515 49.5654 27.8906 44.625 27.8906H42.7656C36.5999 27.8906 30.6983 30.7262 26.8382 35.5122C20.9533 36.9328 16.7344 42.2469 16.7344 48.3438C16.7344 54.7623 19.4862 60.7793 24.2723 65.0205C24.8952 70.8031 28.4782 75.697 33.4688 78.1867V82.1992L20.494 85.2523C9.52186 87.8332 1.85938 97.5093 1.85938 108.781V117.141H79.9531V108.781C79.9531 105.138 79.1424 101.669 77.6903 98.5469H84.6592L92.2603 107.665C93.3369 108.961 94.923 109.703 96.6076 109.703C99.7276 109.703 102.266 107.165 102.266 104.045V98.5469H107.844C112.97 98.5469 117.141 94.3763 117.141 89.25V74.375C117.141 69.2487 112.97 65.0781 107.844 65.0781H70.6562C65.53 65.0781 61.3594 69.2487 61.3594 74.375V85.2635C61.3445 85.2598 61.3315 85.2542 61.3185 85.2523L48.3438 82.1992V78.1867C53.3343 75.697 56.9173 70.8013 57.5402 65.0205C61.8595 61.192 64.5017 55.917 64.9759 50.2031H76.2344V55.7013C76.2344 58.8213 78.7724 61.3594 81.8924 61.3594ZM87.3906 5.57812C91.4924 5.57812 94.8281 8.91384 94.8281 13.0156C94.8281 17.1174 91.4924 20.4531 87.3906 20.4531C83.2888 20.4531 79.9531 17.1174 79.9531 13.0156C79.9531 8.91384 83.2888 5.57812 87.3906 5.57812ZM34.5714 85.76L38.582 91.1094L34.2515 96.8827L30.5068 86.7157L34.5714 85.76ZM40.9062 94.2071L46.0307 101.038L41.4696 113.422H40.3447L35.7837 101.038L40.9062 94.2071ZM5.57812 108.781C5.57812 99.2423 12.0618 91.0555 21.3475 88.8707L26.8568 87.5747L36.3805 113.422H20.4531V102.266H16.7344V113.422H5.57812V108.781ZM65.0781 74.375C65.0781 71.2996 67.5808 68.7969 70.6562 68.7969H107.844C110.919 68.7969 113.422 71.2996 113.422 74.375V89.25C113.422 92.3254 110.919 94.8281 107.844 94.8281H98.5469V104.045C98.5469 105.114 97.6767 105.984 96.6076 105.984C96.0293 105.984 95.4863 105.73 95.1182 105.287L86.4033 94.8281H75.5278C72.9451 91.1689 69.3584 88.2422 65.0781 86.4702V74.375ZM76.2344 108.781V113.422H65.0781V102.266H61.3594V113.422H45.432L54.9538 87.5747L60.4632 88.8707C69.7507 91.0573 76.2344 99.2441 76.2344 108.781ZM51.3076 86.7175L47.5628 96.8846L43.2305 91.1094L47.2411 85.76L51.3076 86.7175ZM44.625 83.0527L40.9062 88.0117L37.1875 83.0527V79.5218C38.3849 79.7951 39.627 79.9531 40.9062 79.9531C42.1855 79.9531 43.4276 79.7951 44.625 79.5218V83.0527ZM53.9219 63.2188C53.9219 70.3959 48.0816 76.2344 40.9062 76.2344C33.7309 76.2344 27.8906 70.3959 27.8906 63.2188V54.4853C27.8906 53.1484 28.9765 52.0625 30.3134 52.0625C30.7931 52.0625 31.258 52.2038 31.6577 52.4697L36.6241 55.7812H48.3438C51.4192 55.7812 53.9219 58.284 53.9219 61.3594V63.2188ZM57.4751 59.7157C56.6923 55.3741 52.9067 52.0625 48.3438 52.0625H37.7509L33.7198 49.3757C32.7083 48.7008 31.5294 48.3438 30.3134 48.3438C26.9256 48.3438 24.1719 51.0975 24.1719 54.4853V59.4758C21.7844 56.2926 20.4531 52.4139 20.4531 48.3438C20.4531 43.8403 23.6587 39.9301 28.0766 39.0469L28.9542 38.8702L29.3781 38.3031C32.5223 34.1121 37.5278 31.6094 42.7656 31.6094H44.625C53.8531 31.6094 61.3594 39.1175 61.3594 48.3438C61.3594 52.5143 59.9741 56.4897 57.4751 59.7157ZM64.9833 46.4844C64.6523 42.8363 63.3582 39.4652 61.3594 36.6204V22.3125C61.3594 19.2371 63.8621 16.7344 66.9375 16.7344H76.8852C77.5992 18.7462 78.8691 20.4903 80.5184 21.7863C73.661 24.5252 68.7969 31.2226 68.7969 39.0469V42.7656H105.984V39.0469C105.984 31.2226 101.12 24.5252 94.2629 21.7863C95.9121 20.4903 97.1821 18.7462 97.8961 16.7344H107.844C110.919 16.7344 113.422 19.2371 113.422 22.3125V40.9062C113.422 43.9817 110.919 46.4844 107.844 46.4844H92.0967L83.38 56.9434C83.0137 57.3859 82.4707 57.6406 81.8924 57.6406C80.8233 57.6406 79.9531 56.7704 79.9531 55.7013V46.4844H64.9833ZM87.3906 24.1719C95.5923 24.1719 102.266 30.8452 102.266 39.0469H72.5156C72.5156 30.8452 79.1889 24.1719 87.3906 24.1719Z M68.7969 72.5156H109.703V76.2344H68.7969V72.5156Z M68.7969 79.9531H109.703V83.6719H68.7969V79.9531Z M76.2344 87.3906H102.266V91.1094H76.2344V87.3906Z M105.984 87.3906H109.703V91.1094H105.984V87.3906Z"/>
</svg>
