<svg viewBox="0 0 68 68" xmlns="http://www.w3.org/2000/svg">
<path d="M62.099 35.3075C62.099 26.9205 54.7217 20.4331 46.3436 21.5658C46.5015 19.9215 45.7069 18.0817 44.2403 17.0415C44.3686 16.7205 44.4412 16.3714 44.4412 16.0053V8.35824C44.4412 5.95847 42.3596 4.21013 40.2346 4.37415C39.8139 4.40669 39.4551 4.16033 39.3825 3.78845C38.8841 1.23927 37.2786 0 34.4746 0H31.7458C31.1956 0 30.7497 0.445982 30.7497 0.996088C30.7497 1.54619 31.1956 1.99218 31.7458 1.99218H34.4746C36.8081 1.99218 37.2029 3.02266 37.4274 4.17069C37.6927 5.52855 38.9648 6.46979 40.3873 6.36049C41.3918 6.28213 42.4489 7.15616 42.4489 8.35824V16.0054C42.4489 17.5702 39.1857 16.7715 39.1857 14.3648C39.1857 13.825 38.8199 13.3565 38.2962 13.2251C37.7731 13.0939 37.2308 13.3344 36.9766 13.8096C35.9849 15.6643 34.0646 16.8166 31.965 16.8166C30.7499 16.8166 21.8146 16.8166 20.5609 16.8166C19.5921 16.8166 18.7455 16.0284 18.7455 15.0012V7.6732C18.7455 4.5407 21.2941 1.99218 24.4266 1.99218H27.0973C27.6475 1.99218 28.0934 1.54619 28.0934 0.996088C28.0934 0.445982 27.6475 0 27.0973 0H24.4266C20.1956 0 16.7534 3.44221 16.7534 7.6732V15.0012C16.7534 16.029 17.1635 16.9624 17.8278 17.6482C16.8923 18.582 16.3035 19.8848 16.3035 21.1825C16.3035 23.5698 18.3704 25.5195 20.8205 25.8223C21.1578 28.7152 22.6829 31.3417 25.0885 33.0584V35.6236C25.0301 35.6549 23.0706 36.4102 23.0087 36.4342H17.1858C15.1567 36.4342 13.5059 38.0851 13.5059 40.1142V40.1183L11.7213 40.8101C11.7149 40.8126 11.7086 40.8152 11.7023 40.8177C8.90791 41.9677 5.90039 45.263 5.90039 49.7809V65.2762C5.90039 66.7781 7.12226 68 8.62423 68H54.1583C55.6603 68 56.8822 66.7781 56.8822 65.2762V59.3477C56.8822 58.7976 56.4363 58.3516 55.8861 58.3516C55.3358 58.3516 54.89 58.7976 54.89 59.3477V65.2762C54.89 65.6796 54.5617 66.0078 54.1583 66.0078H51.3191C51.4496 65.6648 51.5218 65.2929 51.5218 64.9042V63.3477C51.5218 62.549 50.8739 61.8992 50.0776 61.8992H48.9128C49.1454 61.4151 49.2768 60.879 49.2768 60.3222V49.1377C51.1493 48.9989 52.9474 48.4874 54.5856 47.6409C54.7877 48.3397 54.8899 49.0561 54.8899 49.7809V54.6993C54.8899 55.2494 55.3357 55.6954 55.8859 55.6954C56.4362 55.6954 56.882 55.2494 56.882 54.6993V49.7809C56.882 48.6856 56.6946 47.6086 56.3301 46.5676C59.8516 44.0232 62.099 39.9372 62.099 35.3075ZM20.7464 23.7896C19.3773 23.487 18.2957 22.4025 18.2957 21.1827C18.2957 20.2507 18.8643 19.2443 19.6622 18.7008C20.0605 18.7976 20.3636 18.8089 20.7464 18.8089V23.7896ZM41.9213 18.7945C42.2585 18.7603 42.5987 18.6535 42.865 18.5238C44.0502 19.1843 44.7032 20.844 44.1939 22.0319C43.4099 22.2691 42.6501 22.5765 41.9213 22.9495V18.7945ZM22.7385 24.593V18.8088H31.965C34.132 18.8088 36.2026 17.8798 37.6384 16.302C38.1067 17.265 38.9142 18.0324 39.9031 18.4535C39.9119 18.4572 39.9204 18.4615 39.9291 18.4652V24.1943C37.1307 26.2937 35.336 29.2536 34.6624 32.4244C29.3224 34.6176 22.7385 30.9394 22.7385 24.593ZM34.4067 36.4342H26.9297C27.0303 36.2002 27.0808 35.9397 27.0808 35.6533V34.1741C29.2324 35.0833 31.9162 35.3486 34.3773 34.6328C34.3481 35.2304 34.3578 35.8326 34.4067 36.4342ZM15.4982 40.1142C15.4982 39.1836 16.2553 38.4264 17.1859 38.4264H34.7144C35.9911 43.9677 40.5998 48.5366 47.2849 49.1443V60.3224C47.2849 61.0197 46.8423 61.6508 46.1939 61.8994H16.5891C15.9407 61.6508 15.4982 61.0198 15.4982 60.3224C15.4982 57.7601 15.4982 40.6606 15.4982 40.1142ZM45.6784 33.8888L46.3101 36.2464C46.4485 36.7632 46.8554 37.17 47.3718 37.3083L49.7299 37.9402C50.2461 38.0783 50.8017 37.9296 51.18 37.5515L54.7339 33.9974C55.0908 39.1733 48.6696 42.0713 45.0554 38.1637H45.0553C41.6319 34.4617 44.5482 28.3327 49.6904 28.815L46.0669 32.4385C45.6887 32.8168 45.5398 33.3727 45.6784 33.8888ZM45.527 41.0286L41.4776 45.078C40.2856 44.2503 39.2761 43.2377 38.461 42.058L42.5102 38.0087C42.5188 38.0247 42.5288 38.0397 42.5376 38.0556C43.2273 39.3042 44.2862 40.3483 45.527 41.0286ZM11.2611 63.3479V64.9043C11.2611 65.293 11.3333 65.6649 11.4637 66.008H8.62449C8.22114 66.008 7.89283 65.6798 7.89283 65.2763V49.7809C7.89283 45.9421 10.6153 43.4241 12.4513 42.6638L13.5059 42.255V60.3224C13.5059 60.8793 13.6373 61.4153 13.8699 61.8994H12.705C11.9088 61.8993 11.2611 62.549 11.2611 63.3479ZM49.5298 63.8915V64.9042C49.5298 65.5123 49.0446 66.007 48.4477 66.0078H14.3351C13.7384 66.0072 13.2531 65.5123 13.2531 64.9042V63.8915H49.5298ZM43.2698 46.1033L47.5838 41.7893C52.9916 42.9261 57.6991 38.1431 56.5748 32.8086C56.3155 31.578 54.7908 31.1234 53.9007 32.0132L49.9716 35.9424L48.1611 35.4573L47.6761 33.6468L51.6586 29.6642C52.539 28.7842 52.1032 27.2795 50.8892 26.9964C45.5612 25.7531 40.6083 30.4269 41.758 35.9436L37.4373 40.2643C33.8223 32.3711 39.6188 23.4306 48.2297 23.4306C54.794 23.4306 60.1067 28.7426 60.1067 35.3075C60.1068 44.0131 51.0703 49.6923 43.2698 46.1033Z M29.0771 52.1677H32.1178C32.668 52.1677 33.1138 51.7217 33.1138 51.1716C33.1138 50.6215 32.668 50.1755 32.1178 50.1755H29.0771C28.5269 50.1755 28.0811 50.6215 28.0811 51.1716C28.0811 51.7217 28.5269 52.1677 29.0771 52.1677Z" />
</svg>
