<svg xmlns="http://www.w3.org/2000/svg" width="120" height="120" viewBox="0 0 100 100" fill="none"><path xmlns="http://www.w3.org/2000/svg" d="M87.645,38.4L61.6,12.355C58.5,9.256,54.383,7.55,50,7.55c-4.382,0-8.502,1.706-11.6,4.805L12.356,38.4   C9.256,41.498,7.55,45.618,7.55,50c0,4.383,1.706,8.5,4.806,11.6L38.4,87.645c3.097,3.098,7.218,4.805,11.6,4.805   c4.383,0,8.502-1.707,11.6-4.805L87.645,61.6c3.098-3.098,4.805-7.217,4.805-11.6C92.449,45.618,90.742,41.497,87.645,38.4z    M85.262,59.217L59.217,85.262C56.754,87.723,53.48,89.08,50,89.08c-3.482,0-6.755-1.357-9.217-3.818L20.735,65.213h17.242   l5.74,9.945h12.566l6.281-10.881l-6.281-10.881H43.717l-5.74,9.943H18.862l-4.123-4.123C12.277,56.754,10.92,53.482,10.92,50   c0-3.482,1.356-6.755,3.818-9.217l26.044-26.044c2.462-2.462,5.734-3.817,9.217-3.817c3.483,0,6.754,1.355,9.217,3.817   L79.639,35.16H62.023l-5.74-9.944H43.717l-6.281,10.881l6.281,10.88h12.566l5.74-9.943h19.488l3.75,3.75   c2.461,2.462,3.818,5.734,3.818,9.217C89.08,53.48,87.723,56.754,85.262,59.217z M41.328,64.277l4.336-7.51h8.672l4.336,7.51   l-4.336,7.51h-8.672L41.328,64.277z M58.672,36.096l-4.336,7.51h-8.672l-4.336-7.51l4.336-7.51h8.672L58.672,36.096z" fill="url(#paint0_linear_138_4567)"></path><polygon points="62.236,41.679 58.055,48.922 41.946,48.922 37.764,41.679 28.157,41.679 23.353,50 28.157,58.32 37.764,58.32    41.946,51.078 58.055,51.078 62.236,58.32 71.844,58.32 76.646,50 71.844,41.679" fill="url(#paint0_linear_138_4567)"></polygon><defs><linearGradient id="paint0_linear_138_4567" x1="60.001" y1="28.5614" x2="4" y2="28.5614" gradientUnits="userSpaceOnUse"><stop stop-color="#9281CE"></stop><stop offset="1" stop-color="#68DBFF"></stop></linearGradient></defs></svg>