<?xml version="1.0" encoding="UTF-8"?>
<!DOCTYPE svg PUBLIC "-//W3C//DTD SVG 1.1//EN" "http://www.w3.org/Graphics/SVG/1.1/DTD/svg11.dtd">
<svg xmlns="http://www.w3.org/2000/svg" version="1.1" width="507px" height="508px" style="shape-rendering:geometricPrecision; text-rendering:geometricPrecision; image-rendering:optimizeQuality; fill-rule:evenodd; clip-rule:evenodd" xmlns:xlink="http://www.w3.org/1999/xlink">
<g><path style="opacity:1" fill="#07202f" d="M 276.5,5.5 C 276.5,131.833 276.5,258.167 276.5,384.5C 345.167,384.5 413.833,384.5 482.5,384.5C 482.5,363.167 482.5,341.833 482.5,320.5C 440.833,320.5 399.167,320.5 357.5,320.5C 357.5,215.5 357.5,110.5 357.5,5.5C 405.833,5.5 454.167,5.5 502.5,5.5C 502.5,170.833 502.5,336.167 502.5,501.5C 372.833,501.5 243.167,501.5 113.5,501.5C 113.5,430.5 113.5,359.5 113.5,288.5C 132.503,288.667 151.503,288.5 170.5,288C 229.141,283.028 256.641,251.195 253,192.5C 247.123,149.792 222.623,127.459 179.5,125.5C 130.67,124.501 81.6695,124.168 32.5,124.5C 32.5,206.833 32.5,289.167 32.5,371.5C 32.5,414.833 32.5,458.167 32.5,501.5C 23.8333,501.5 15.1667,501.5 6.5,501.5C 6.5,336.167 6.5,170.833 6.5,5.5C 96.5,5.5 186.5,5.5 276.5,5.5 Z"/></g>
<g><path style="opacity:1" fill="#6cd9af" d="M 276.5,5.5 C 303.5,5.5 330.5,5.5 357.5,5.5C 357.5,110.5 357.5,215.5 357.5,320.5C 399.167,320.5 440.833,320.5 482.5,320.5C 482.5,341.833 482.5,363.167 482.5,384.5C 413.833,384.5 345.167,384.5 276.5,384.5C 276.5,258.167 276.5,131.833 276.5,5.5 Z"/></g>
<g><path style="opacity:1" fill="#ffe1e1" d="M 179.5,125.5 C 130.833,125.5 82.1667,125.5 33.5,125.5C 33.8326,207.668 33.4993,289.668 32.5,371.5C 32.5,289.167 32.5,206.833 32.5,124.5C 81.6695,124.168 130.67,124.501 179.5,125.5 Z"/></g>
<g><path style="opacity:1" fill="#6cd9af" d="M 179.5,125.5 C 222.623,127.459 247.123,149.792 253,192.5C 256.641,251.195 229.141,283.028 170.5,288C 151.503,288.5 132.503,288.667 113.5,288.5C 113.5,359.5 113.5,430.5 113.5,501.5C 86.5,501.5 59.5,501.5 32.5,501.5C 32.5,458.167 32.5,414.833 32.5,371.5C 33.4993,289.668 33.8326,207.668 33.5,125.5C 82.1667,125.5 130.833,125.5 179.5,125.5 Z"/></g>
<g><path style="opacity:1" fill="#07202f" d="M 113.5,177.5 C 124.172,177.333 134.839,177.5 145.5,178C 170.146,181.658 178.98,195.492 172,219.5C 166.369,228.567 158.203,233.4 147.5,234C 136.197,235.18 124.864,235.68 113.5,235.5C 113.5,216.167 113.5,196.833 113.5,177.5 Z"/></g>
</svg>
