<?xml version="1.0" standalone="no"?>
<!DOCTYPE svg PUBLIC "-//W3C//DTD SVG 20010904//EN"
 "http://www.w3.org/TR/2001/REC-SVG-20010904/DTD/svg10.dtd">
<svg version="1.0" xmlns="http://www.w3.org/2000/svg"
 width="177.000000pt" height="201.000000pt" viewBox="0 0 177.000000 201.000000"
 preserveAspectRatio="xMidYMid meet">

<g transform="translate(0.000000,201.000000) scale(0.100000,-0.100000)"
fill="#000000" stroke="none">
<path d="M830 1924 c-133 -58 -197 -263 -140 -445 25 -80 44 -111 33 -54 -30
154 20 331 112 393 44 31 72 28 110 -12 93 -99 62 -291 -69 -421 -56 -56 -76
-67 -76 -40 0 18 -31 35 -63 35 -20 0 -28 10 -51 70 -38 95 -91 173 -169 248
-173 164 -344 158 -424 -16 -29 -62 -33 -148 -10 -203 49 -119 221 -190 449
-188 l113 2 -83 8 c-94 9 -171 29 -245 65 -100 48 -147 108 -147 188 0 59 28
126 61 150 93 65 307 -68 444 -275 l34 -52 -22 -28 c-16 -23 -18 -32 -9 -41 9
-9 12 -9 12 3 0 16 39 39 64 39 22 0 37 -25 24 -38 -16 -16 75 -16 175 -1 272
41 546 157 711 301 l40 35 -35 31 -34 31 -55 -56 c-112 -112 -304 -222 -503
-288 -135 -44 -165 -45 -64 -1 160 70 267 182 312 327 23 73 17 89 -33 89
l-40 0 -4 -55 c-10 -119 -123 -268 -257 -339 -117 -61 -212 -88 -119 -33 65
38 146 129 179 202 38 85 46 156 25 228 -37 126 -142 186 -246 141z"/>
<path d="M985 1235 c-93 -7 -171 -13 -172 -14 -2 -1 -3 -49 -3 -107 l0 -107
163 7 c89 3 214 9 278 12 l116 6 6 92 c3 50 8 99 12 109 7 16 -2 17 -111 16
-66 -1 -195 -7 -289 -14z"/>
<path d="M328 1197 l-198 -10 0 -110 0 -110 73 6 c39 3 163 12 275 18 l202 13
0 65 c0 36 -3 83 -6 104 l-7 37 -71 -2 c-39 -1 -160 -6 -268 -11z"/>
<path d="M847 933 l-37 -4 6 -177 c3 -97 9 -269 15 -382 5 -112 9 -214 9 -227
l0 -23 188 0 c103 0 203 3 223 6 l35 6 1 355 c1 195 4 377 8 404 l7 49 -209
-2 c-114 -1 -225 -3 -246 -5z"/>
<path d="M360 908 c-91 -5 -166 -10 -167 -11 -1 -1 5 -51 12 -112 18 -150 35
-415 35 -558 l0 -118 213 1 c116 1 224 4 240 7 l27 5 0 157 c0 86 -7 253 -15
371 -8 118 -15 227 -15 243 l0 27 -82 -2 c-46 0 -157 -5 -248 -10z"/>
</g>
</svg>
