<svg width="110" height="35" viewBox="0 0 110 35" fill="none" xmlns="http://www.w3.org/2000/svg">
<g clip-path="url(#clip0_821_6868)">
<path fill-rule="evenodd" clip-rule="evenodd" d="M110 0H0V35H110V0ZM17.19 21.916C17.2553 21.972 17.3347 22 17.428 22H18.702C18.8047 22 18.884 21.9673 18.94 21.902C19.0053 21.8367 19.038 21.7573 19.038 21.664V13.95H23.168V21.664C23.168 21.7573 23.2007 21.8367 23.266 21.902C23.3313 21.9673 23.4107 22 23.504 22H24.764C24.8667 22 24.9507 21.9673 25.016 21.902C25.0813 21.8367 25.114 21.7573 25.114 21.664V12.55C25.114 12.4473 25.0813 12.3633 25.016 12.298C24.9507 12.2327 24.8667 12.2 24.764 12.2H17.428C17.3347 12.2 17.2553 12.2327 17.19 12.298C17.1247 12.3633 17.092 12.4473 17.092 12.55V21.664C17.092 21.7667 17.1247 21.8507 17.19 21.916ZM28.4532 21.748C28.9666 22.0093 29.5966 22.14 30.3432 22.14C31.0899 22.14 31.7152 22.0093 32.2192 21.748C32.7326 21.4867 33.1199 21.118 33.3812 20.642C33.6519 20.166 33.8059 19.6107 33.8432 18.976C33.8526 18.808 33.8572 18.6027 33.8572 18.36C33.8572 18.1173 33.8526 17.912 33.8432 17.744C33.8059 17.1 33.6472 16.5447 33.3672 16.078C33.0966 15.602 32.7046 15.2333 32.1912 14.972C31.6872 14.7107 31.0712 14.58 30.3432 14.58C29.6152 14.58 28.9946 14.7107 28.4812 14.972C27.9772 15.2333 27.5852 15.602 27.3052 16.078C27.0346 16.5447 26.8806 17.1 26.8432 17.744C26.8339 17.912 26.8292 18.1173 26.8292 18.36C26.8292 18.6027 26.8339 18.808 26.8432 18.976C26.8806 19.6107 27.0299 20.166 27.2912 20.642C27.5619 21.118 27.9492 21.4867 28.4532 21.748ZM31.4912 20.292C31.2206 20.6 30.8379 20.754 30.3432 20.754C29.8486 20.754 29.4659 20.6 29.1952 20.292C28.9246 19.9747 28.7752 19.5127 28.7472 18.906C28.7379 18.766 28.7332 18.584 28.7332 18.36C28.7332 18.136 28.7379 17.954 28.7472 17.814C28.7752 17.2167 28.9246 16.7593 29.1952 16.442C29.4659 16.1247 29.8486 15.966 30.3432 15.966C30.8379 15.966 31.2206 16.1247 31.4912 16.442C31.7619 16.7593 31.9112 17.2167 31.9392 17.814C31.9486 17.954 31.9532 18.136 31.9532 18.36C31.9532 18.584 31.9486 18.766 31.9392 18.906C31.9112 19.5127 31.7619 19.9747 31.4912 20.292ZM34.8904 23.442C34.9557 23.5073 35.035 23.54 35.1284 23.54H36.2904C36.3837 23.54 36.463 23.5073 36.5284 23.442C36.5937 23.3767 36.6264 23.2973 36.6264 23.204V22H41.0784V23.204C41.0784 23.2973 41.111 23.3767 41.1764 23.442C41.2417 23.5073 41.321 23.54 41.4144 23.54H42.5764C42.679 23.54 42.7584 23.5073 42.8144 23.442C42.8797 23.3767 42.9124 23.2973 42.9124 23.204V20.838C42.9124 20.7447 42.8797 20.6653 42.8144 20.6C42.7584 20.5347 42.679 20.502 42.5764 20.502H41.9464V15.056C41.9464 14.9627 41.9137 14.8833 41.8484 14.818C41.7924 14.7527 41.713 14.72 41.6104 14.72H36.6264C36.533 14.72 36.4537 14.7527 36.3884 14.818C36.323 14.8833 36.2904 14.9627 36.2904 15.056V16.946C36.2904 17.758 36.253 18.43 36.1784 18.962C36.1037 19.4847 35.987 19.8767 35.8284 20.138C35.679 20.39 35.483 20.516 35.2404 20.516H35.1284C35.035 20.516 34.9557 20.5487 34.8904 20.614C34.825 20.6793 34.7924 20.7587 34.7924 20.852V23.204C34.7924 23.2973 34.825 23.3767 34.8904 23.442ZM40.1124 20.502L37.3964 20.516C37.611 20.208 37.7744 19.7787 37.8864 19.228C37.9984 18.6773 38.0544 17.982 38.0544 17.142V16.204H40.1124V20.502ZM44.3114 24.562C44.3767 24.6273 44.4561 24.66 44.5494 24.66H45.7394C45.8421 24.66 45.9214 24.6273 45.9774 24.562C46.0427 24.4967 46.0754 24.4173 46.0754 24.324V21.146C46.2994 21.4447 46.5887 21.6873 46.9434 21.874C47.2981 22.0513 47.7274 22.14 48.2314 22.14C48.7261 22.14 49.1554 22.056 49.5194 21.888C49.8834 21.72 50.1867 21.4913 50.4294 21.202C50.6814 20.9033 50.8727 20.558 51.0034 20.166C51.1341 19.7647 51.2041 19.3307 51.2134 18.864C51.2227 18.696 51.2274 18.528 51.2274 18.36C51.2274 18.192 51.2227 18.0287 51.2134 17.87C51.1947 17.3847 51.1201 16.9413 50.9894 16.54C50.8587 16.1387 50.6721 15.7933 50.4294 15.504C50.1867 15.2053 49.8834 14.9767 49.5194 14.818C49.1554 14.6593 48.7261 14.58 48.2314 14.58C47.6901 14.58 47.2374 14.678 46.8734 14.874C46.5094 15.07 46.2154 15.3173 45.9914 15.616V15.056C45.9914 14.9627 45.9587 14.8833 45.8934 14.818C45.8374 14.7527 45.7581 14.72 45.6554 14.72H44.5494C44.4561 14.72 44.3767 14.7527 44.3114 14.818C44.2461 14.8833 44.2134 14.9627 44.2134 15.056V24.324C44.2134 24.4173 44.2461 24.4967 44.3114 24.562ZM48.6514 20.39C48.4274 20.558 48.1147 20.642 47.7134 20.642C47.3401 20.642 47.0367 20.558 46.8034 20.39C46.5701 20.222 46.3927 20.012 46.2714 19.76C46.1501 19.4987 46.0847 19.228 46.0754 18.948C46.0661 18.7707 46.0614 18.5887 46.0614 18.402C46.0614 18.2153 46.0661 18.038 46.0754 17.87C46.0941 17.5807 46.1547 17.3007 46.2574 17.03C46.3694 16.75 46.5421 16.5213 46.7754 16.344C47.0181 16.1667 47.3307 16.078 47.7134 16.078C48.1147 16.078 48.4274 16.1667 48.6514 16.344C48.8754 16.512 49.0341 16.736 49.1274 17.016C49.2301 17.296 49.2907 17.604 49.3094 17.94C49.3281 18.22 49.3281 18.5 49.3094 18.78C49.2907 19.116 49.2301 19.424 49.1274 19.704C49.0341 19.984 48.8754 20.2127 48.6514 20.39ZM54.129 21.748C54.6423 22.0093 55.2723 22.14 56.019 22.14C56.7657 22.14 57.391 22.0093 57.895 21.748C58.4083 21.4867 58.7957 21.118 59.057 20.642C59.3277 20.166 59.4817 19.6107 59.519 18.976C59.5283 18.808 59.533 18.6027 59.533 18.36C59.533 18.1173 59.5283 17.912 59.519 17.744C59.4817 17.1 59.323 16.5447 59.043 16.078C58.7723 15.602 58.3803 15.2333 57.867 14.972C57.363 14.7107 56.747 14.58 56.019 14.58C55.291 14.58 54.6703 14.7107 54.157 14.972C53.653 15.2333 53.261 15.602 52.981 16.078C52.7103 16.5447 52.5563 17.1 52.519 17.744C52.5097 17.912 52.505 18.1173 52.505 18.36C52.505 18.6027 52.5097 18.808 52.519 18.976C52.5563 19.6107 52.7057 20.166 52.967 20.642C53.2377 21.118 53.625 21.4867 54.129 21.748ZM57.167 20.292C56.8963 20.6 56.5137 20.754 56.019 20.754C55.5243 20.754 55.1417 20.6 54.871 20.292C54.6003 19.9747 54.451 19.5127 54.423 18.906C54.4137 18.766 54.409 18.584 54.409 18.36C54.409 18.136 54.4137 17.954 54.423 17.814C54.451 17.2167 54.6003 16.7593 54.871 16.442C55.1417 16.1247 55.5243 15.966 56.019 15.966C56.5137 15.966 56.8963 16.1247 57.167 16.442C57.4377 16.7593 57.587 17.2167 57.615 17.814C57.6243 17.954 57.629 18.136 57.629 18.36C57.629 18.584 57.6243 18.766 57.615 18.906C57.587 19.5127 57.4377 19.9747 57.167 20.292ZM62.4422 21.734C62.9555 22.0047 63.5995 22.14 64.3742 22.14C65.1302 22.14 65.7602 22.014 66.2642 21.762C66.7682 21.51 67.1555 21.1553 67.4262 20.698C67.6968 20.2407 67.8462 19.7133 67.8742 19.116C67.8928 18.836 67.8928 18.528 67.8742 18.192C67.8462 17.5853 67.7062 17.058 67.4542 16.61C67.2115 16.1527 66.8615 15.798 66.4042 15.546C65.9468 15.294 65.3822 15.168 64.7102 15.168C64.3275 15.168 63.9635 15.2427 63.6182 15.392C63.2822 15.532 62.9975 15.7233 62.7642 15.966C62.724 16.0078 62.6864 16.0503 62.6515 16.0935C62.664 15.8533 62.6876 15.6382 62.7222 15.448C62.7968 15.0373 62.9275 14.706 63.1142 14.454C63.3102 14.1927 63.5762 13.9827 63.9122 13.824C64.2482 13.6653 64.6728 13.5253 65.1862 13.404C65.6995 13.2733 66.3108 13.1287 67.0202 12.97C67.1042 12.9513 67.1695 12.9093 67.2162 12.844C67.2628 12.7693 67.2768 12.6853 67.2582 12.592L67.0762 11.668C67.0668 11.5653 67.0202 11.4907 66.9362 11.444C66.8615 11.3973 66.7775 11.3833 66.6842 11.402C65.8628 11.598 65.1395 11.7847 64.5142 11.962C63.8888 12.1393 63.3475 12.3493 62.8902 12.592C62.4328 12.8253 62.0595 13.124 61.7702 13.488C61.4808 13.8427 61.2615 14.2953 61.1122 14.846C60.9722 15.3873 60.8928 16.0687 60.8742 16.89V17.73V18.57C60.9115 19.3353 61.0562 19.984 61.3082 20.516C61.5602 21.048 61.9382 21.454 62.4422 21.734ZM65.5362 20.39C65.2655 20.698 64.8782 20.852 64.3742 20.852C63.8795 20.852 63.4968 20.698 63.2262 20.39C62.9555 20.082 62.8108 19.634 62.7922 19.046C62.7828 18.9433 62.7782 18.822 62.7782 18.682C62.7782 18.5327 62.7828 18.3927 62.7922 18.262C62.8108 17.674 62.9695 17.226 63.2682 16.918C63.5762 16.61 63.9822 16.456 64.4862 16.456C64.9248 16.456 65.2748 16.61 65.5362 16.918C65.8068 17.226 65.9515 17.674 65.9702 18.262C65.9795 18.3927 65.9842 18.5327 65.9842 18.682C65.9842 18.822 65.9795 18.9433 65.9702 19.046C65.9515 19.634 65.8068 20.082 65.5362 20.39ZM69.5357 21.902C69.601 21.9673 69.6803 22 69.7737 22H70.9357C71.0383 22 71.1177 21.9673 71.1737 21.902C71.239 21.8367 71.2717 21.7573 71.2717 21.664V19.032H74.4357V21.664C74.4357 21.7573 74.4683 21.8367 74.5337 21.902C74.599 21.9673 74.6783 22 74.7717 22H75.9337C76.027 22 76.1063 21.9673 76.1717 21.902C76.237 21.8367 76.2697 21.7573 76.2697 21.664V15.056C76.2697 14.9627 76.237 14.8833 76.1717 14.818C76.1063 14.7527 76.027 14.72 75.9337 14.72H74.7717C74.6783 14.72 74.599 14.7527 74.5337 14.818C74.4683 14.8833 74.4357 14.9627 74.4357 15.056V17.562H71.2717V15.056C71.2717 14.9627 71.239 14.8833 71.1737 14.818C71.1177 14.7527 71.0383 14.72 70.9357 14.72H69.7737C69.6803 14.72 69.601 14.7527 69.5357 14.818C69.4703 14.8833 69.4377 14.9627 69.4377 15.056V21.664C69.4377 21.7573 69.4703 21.8367 69.5357 21.902ZM78.8323 21.244C79.439 21.8413 80.2603 22.14 81.2963 22.14C81.819 22.14 82.281 22.0747 82.6823 21.944C83.093 21.804 83.4337 21.6313 83.7043 21.426C83.975 21.2207 84.1803 21.0107 84.3203 20.796C84.4697 20.5813 84.549 20.3993 84.5583 20.25C84.5677 20.166 84.5397 20.096 84.4743 20.04C84.4183 19.984 84.3437 19.956 84.2503 19.956H83.0463C82.9437 19.956 82.8643 19.97 82.8083 19.998C82.7617 20.0167 82.6963 20.082 82.6123 20.194C82.5657 20.2593 82.4863 20.3433 82.3743 20.446C82.2623 20.5487 82.1177 20.642 81.9403 20.726C81.763 20.8007 81.5437 20.838 81.2823 20.838C80.965 20.838 80.6897 20.754 80.4563 20.586C80.2323 20.418 80.0597 20.1987 79.9383 19.928C79.8263 19.648 79.7657 19.3447 79.7563 19.018V18.948V18.906H84.4043C84.507 18.906 84.591 18.8733 84.6563 18.808C84.7217 18.7427 84.7543 18.6633 84.7543 18.57V18.276C84.7543 17.548 84.6237 16.9087 84.3623 16.358C84.101 15.798 83.7137 15.364 83.2003 15.056C82.687 14.7387 82.0523 14.58 81.2963 14.58C80.615 14.58 80.0223 14.72 79.5183 15C79.0143 15.2707 78.6177 15.6627 78.3283 16.176C78.0483 16.6893 77.8897 17.296 77.8523 17.996C77.843 18.08 77.8383 18.1967 77.8383 18.346C77.8383 18.486 77.843 18.6027 77.8523 18.696C77.899 19.7973 78.2257 20.6467 78.8323 21.244ZM82.8503 17.73H79.7563V17.688C79.7563 17.324 79.8123 17.0067 79.9243 16.736C80.0457 16.4653 80.223 16.2507 80.4563 16.092C80.6897 15.9333 80.9697 15.854 81.2963 15.854C81.623 15.854 81.903 15.9333 82.1363 16.092C82.3697 16.2507 82.547 16.4653 82.6683 16.736C82.7897 17.0067 82.8503 17.324 82.8503 17.688V17.73ZM86.9124 21.244C87.5191 21.8413 88.3404 22.14 89.3764 22.14C89.8991 22.14 90.3611 22.0747 90.7624 21.944C91.1731 21.804 91.5137 21.6313 91.7844 21.426C92.0551 21.2207 92.2604 21.0107 92.4004 20.796C92.5497 20.5813 92.6291 20.3993 92.6384 20.25C92.6477 20.166 92.6197 20.096 92.5544 20.04C92.4984 19.984 92.4237 19.956 92.3304 19.956H91.1264C91.0237 19.956 90.9444 19.97 90.8884 19.998C90.8417 20.0167 90.7764 20.082 90.6924 20.194C90.6457 20.2593 90.5664 20.3433 90.4544 20.446C90.3424 20.5487 90.1977 20.642 90.0204 20.726C89.8431 20.8007 89.6237 20.838 89.3624 20.838C89.0451 20.838 88.7697 20.754 88.5364 20.586C88.3124 20.418 88.1397 20.1987 88.0184 19.928C87.9064 19.648 87.8457 19.3447 87.8364 19.018V18.948V18.906H92.4844C92.5871 18.906 92.6711 18.8733 92.7364 18.808C92.8017 18.7427 92.8344 18.6633 92.8344 18.57V18.276C92.8344 17.548 92.7037 16.9087 92.4424 16.358C92.1811 15.798 91.7937 15.364 91.2804 15.056C90.7671 14.7387 90.1324 14.58 89.3764 14.58C88.6951 14.58 88.1024 14.72 87.5984 15C87.0944 15.2707 86.6977 15.6627 86.4084 16.176C86.1284 16.6893 85.9697 17.296 85.9324 17.996C85.9231 18.08 85.9184 18.1967 85.9184 18.346C85.9184 18.486 85.9231 18.6027 85.9324 18.696C85.9791 19.7973 86.3057 20.6467 86.9124 21.244ZM90.9304 17.73H87.8364V17.688C87.8364 17.324 87.8924 17.0067 88.0044 16.736C88.1257 16.4653 88.3031 16.2507 88.5364 16.092C88.7697 15.9333 89.0497 15.854 89.3764 15.854C89.7031 15.854 89.9831 15.9333 90.2164 16.092C90.4497 16.2507 90.6271 16.4653 90.7484 16.736C90.8697 17.0067 90.9304 17.324 90.9304 17.688V17.73Z" fill="white"/>
</g>
<defs>
<clipPath id="clip0_821_6868">
<rect width="110" height="35" fill="white"/>
</clipPath>
</defs>
</svg>
