<svg width="19" height="17" viewBox="0 0 19 17" fill="none" xmlns="http://www.w3.org/2000/svg">
<path fill-rule="evenodd" clip-rule="evenodd" d="M15.9985 11.9985V13.4956H13.0044V11.9985H15.9985ZM11.4941 11.9985V13.4956H8.5V11.9985H11.4941ZM6.99561 11.9985V13.4956H4.00146V11.9985H6.99561ZM15.9985 9.00439V10.5015H13.0044V9.00439H15.9985ZM11.4941 9.00439V10.5015H8.5V9.00439H11.4941ZM6.99561 9.00439V10.5015H4.00146V9.00439H6.99561ZM17.4985 15.0029V7.49707H2.50439V15.0029H17.4985ZM2.50439 16.5C2.05322 16.5 1.69092 16.3633 1.41748 16.0898C1.14404 15.8164 1.00391 15.4541 0.99707 15.0029V4.50293C0.99707 4.10644 1.14062 3.75781 1.42773 3.45703C1.71485 3.15625 2.07373 3.00244 2.50439 2.99561H5.49854V4.50293H6.99561V2.99561H12.9971V4.50293H14.5044V2.99561H17.4985C17.9292 3.00244 18.2881 3.15625 18.5752 3.45703C18.8623 3.75781 19.0024 4.10644 18.9956 4.50293V15.0029C18.9956 15.4541 18.8589 15.8164 18.5854 16.0898C18.312 16.3633 17.9497 16.5 17.4985 16.5H2.50439ZM14.5044 2.99561H12.9971V0.00146484H14.5044V2.99561ZM6.99561 2.99561H5.49854V0.00146484H6.99561V2.99561Z" fill="white"/>
</svg>
