<svg width="362" height="191" viewBox="0 0 362 191" fill="none" xmlns="http://www.w3.org/2000/svg">
<g style="mix-blend-mode:overlay" opacity="0.1">
<path fill-rule="evenodd" clip-rule="evenodd" d="M202.849 143.812C203.231 145.357 203.533 146.902 203.749 148.448C209.633 146.1 216.176 145.016 223.135 144.797C231.311 144.54 240.056 145.474 248.969 146.94C249.188 146.966 249.408 147.02 249.623 147.104C250.986 147.638 251.66 149.178 251.128 150.544C247.878 158.858 244.269 166.771 239.95 173.629C236.29 179.443 232.124 184.49 227.25 188.377C232.124 192.264 236.289 197.311 239.949 203.125C244.268 209.983 247.877 217.895 251.127 226.21C251.191 226.381 251.241 226.562 251.271 226.75C251.506 228.196 250.526 229.56 249.082 229.795C234.527 232.197 220.428 233.184 208.515 229.901C206.878 229.45 205.284 228.921 203.738 228.306C202.868 234.592 200.573 240.825 197.322 246.991C193.492 254.256 188.324 261.442 182.603 268.519C181.681 269.655 180.012 269.827 178.878 268.903C178.721 268.775 178.583 268.632 178.462 268.479C169.14 256.943 161.29 245.109 158.284 233.079C157.887 231.489 157.573 229.898 157.351 228.306C151.467 230.654 144.925 231.738 137.967 231.957C129.755 232.216 120.972 231.273 112.018 229.795C110.574 229.56 109.594 228.197 109.829 226.751C109.86 226.563 109.909 226.382 109.976 226.211C115.408 212.306 121.847 199.539 130.918 190.945C131.87 190.042 132.85 189.186 133.859 188.381C128.982 184.493 124.815 179.445 121.153 173.628C116.835 166.77 113.226 158.858 109.976 150.543C109.444 149.178 110.117 147.637 111.481 147.104C111.696 147.02 111.916 146.966 112.135 146.94C126.846 144.519 141.08 143.549 153.047 146.971C154.523 147.393 155.963 147.88 157.363 148.436C158.236 142.154 160.529 135.925 163.779 129.763C167.602 122.511 172.758 115.338 178.467 108.273C178.586 108.12 178.724 107.978 178.882 107.851C180.016 106.927 181.684 107.098 182.607 108.235C191.975 119.824 199.863 131.716 202.849 143.812ZM198.686 225.884C198.121 232.069 195.912 238.298 192.632 244.518C189.44 250.574 185.24 256.612 180.549 262.594C172.56 252.409 166.001 242.073 163.431 231.791C160.925 221.76 162.276 211.657 169.984 201.612C172.65 203.886 176.04 205.334 179.76 205.56C180.098 205.581 180.44 205.592 180.783 205.592L180.925 205.591C181.176 205.589 181.425 205.581 181.673 205.568C182.365 207.275 183.117 208.883 183.927 210.397C187.716 217.498 192.743 222.494 198.686 225.884ZM183.837 199.855C183.632 199.91 183.439 199.958 183.237 200.005C182.447 200.179 181.626 200.271 180.784 200.271C177.65 200.271 174.813 198.998 172.759 196.942C170.915 195.095 169.702 192.614 169.474 189.854C169.449 189.542 169.436 189.226 169.436 188.906C169.436 188.623 169.446 188.344 169.465 188.071C169.668 185.265 170.889 182.741 172.759 180.868C174.771 178.854 177.534 177.592 180.592 177.541C180.656 177.541 180.72 177.54 180.787 177.54C181 177.54 181.212 177.546 181.422 177.557C184.302 177.717 186.896 178.953 188.81 180.868C190.863 182.925 192.134 185.767 192.134 188.905C192.134 192.044 190.863 194.886 188.81 196.942L188.799 196.953L188.713 197.036L188.664 197.084L188.56 197.184C187.243 198.425 185.629 199.355 183.837 199.855ZM198.996 191.241C198.441 191.184 197.879 191.117 197.311 191.038C197.382 190.482 197.425 189.918 197.44 189.347C197.443 189.264 197.445 189.181 197.446 189.098C197.447 189.034 197.447 188.97 197.447 188.906C197.447 188.402 197.424 187.902 197.38 187.408C197.118 184.459 196.089 181.73 194.496 179.423C194.864 178.967 195.221 178.51 195.567 178.054C201.602 170.088 204.142 162.064 204.145 154.037C209.791 151.473 216.286 150.317 223.3 150.097C230.122 149.883 237.441 150.554 244.963 151.681C242.142 158.597 239.045 165.12 235.468 170.802C231.469 177.153 226.861 182.467 221.349 186.108C221.31 186.132 221.273 186.156 221.236 186.182C220.598 186.599 219.949 186.995 219.286 187.367C218.731 187.676 218.167 187.969 217.591 188.256C217.215 188.439 216.835 188.614 216.451 188.783C216.182 188.899 215.912 189.011 215.637 189.124L215.509 189.178L215.327 189.25L215.271 189.269C214.617 189.52 213.978 189.741 213.314 189.96C213.188 190 213.062 190.041 212.936 190.079C212.584 190.181 212.231 190.277 211.875 190.373L211.876 190.378L211.867 190.381C211.688 190.428 211.509 190.473 211.329 190.517L210.994 190.597L210.639 190.667L210.64 190.671C210.021 190.807 209.422 190.915 208.8 191.024C208.589 191.05 208.38 191.084 208.17 191.117L208.051 191.136L206.934 191.27C205.928 191.354 204.97 191.422 203.975 191.452C203.471 191.462 202.962 191.463 202.447 191.453C202.243 191.448 202.038 191.443 201.834 191.436C201.506 191.425 201.176 191.409 200.843 191.39C200.224 191.348 199.609 191.301 198.996 191.241ZM220.531 192.725C221.253 192.358 221.962 191.967 222.658 191.555C227.596 195.147 231.789 200.111 235.467 205.952C239.044 211.633 242.142 218.157 244.962 225.073C232.223 226.982 220.06 227.586 209.906 224.789C199.983 222.055 191.884 215.96 186.94 204.415C189.066 203.569 190.976 202.296 192.566 200.704C193.873 199.395 194.964 197.869 195.781 196.185C195.877 196.199 195.973 196.213 196.069 196.227C196.2 196.246 196.331 196.264 196.462 196.282C196.924 196.347 197.383 196.405 197.838 196.457L197.952 196.471L198.068 196.483C198.954 196.579 199.827 196.651 200.687 196.698L200.794 196.704L200.838 196.706C202.465 196.79 204.046 196.785 205.583 196.698L205.928 196.68L206.19 196.665C207.321 196.58 208.564 196.472 209.671 196.256L210.014 196.205C210.223 196.163 210.434 196.124 210.644 196.086C211.023 196.016 211.403 195.945 211.779 195.859L211.78 195.864L211.944 195.827L212.183 195.763C212.536 195.68 212.894 195.595 213.244 195.5L213.244 195.506C213.744 195.371 214.253 195.228 214.748 195.07L214.89 195.026L214.891 195.031L215.395 194.872L215.589 194.799C216.122 194.62 216.634 194.436 217.16 194.236L217.341 194.161C217.437 194.123 217.533 194.085 217.629 194.046L217.63 194.05C218.286 193.781 218.977 193.483 219.622 193.172L219.817 193.079L220.469 192.759L220.531 192.725ZM138.442 185.197C146.013 180.688 155.075 178.813 166.189 180.715L166.258 180.726C167.006 179.396 167.932 178.178 169.002 177.106C170.586 175.52 172.488 174.252 174.604 173.405C169.77 161.328 161.635 154.954 151.595 152.083C141.352 149.154 129.039 149.747 116.141 151.68C118.961 158.596 122.058 165.12 125.635 170.801C129.313 176.642 133.505 181.605 138.442 185.197ZM134.549 194.789C136.169 193.255 137.881 191.877 139.698 190.678L139.755 190.644L139.791 190.621L139.822 190.601C140.354 190.251 140.894 189.917 141.444 189.599C147.748 185.969 155.26 184.421 164.409 185.805C164.221 186.81 164.122 187.846 164.122 188.905C164.122 192.04 164.986 194.973 166.487 197.479C166.022 198.059 165.575 198.64 165.146 199.221C159.391 207.017 156.959 214.867 156.955 222.719C151.309 225.282 144.815 226.437 137.801 226.658C130.98 226.872 123.66 226.201 116.138 225.073C121.067 212.99 126.836 202.096 134.549 194.789ZM162.416 150.858C169.888 155.118 175.913 161.917 179.847 172.245C180.157 172.228 180.47 172.219 180.784 172.219C184.54 172.219 188.006 173.464 190.793 175.564C198.759 165.417 200.203 155.212 197.702 145.08C195.156 134.764 188.574 124.387 180.552 114.16C175.861 120.142 171.661 126.18 168.469 132.235C165.191 138.452 162.982 144.676 162.416 150.858Z" fill="white"/>
<path fill-rule="evenodd" clip-rule="evenodd" d="M180.988 0.548096C214.663 0.548096 245.167 12.996 267.261 33.1192C267.542 33.3749 267.821 33.6319 268.099 33.8901C268.47 33.9952 268.84 34.1023 269.21 34.2112C297.857 42.6493 324.33 62.2745 341.837 91.083C359.347 119.897 364.59 152.46 358.912 181.813C358.439 184.257 357.891 186.679 357.268 189.074C357.892 191.475 358.441 193.901 358.915 196.35C364.579 225.653 359.357 258.168 341.928 286.945L341.923 286.952L341.928 286.956L341.825 287.123C324.319 315.932 297.846 335.557 269.198 343.995C268.847 344.098 268.495 344.2 268.143 344.3C267.94 344.489 267.736 344.677 267.531 344.864L267.305 345.07C245.25 365.154 214.795 377.592 181.185 377.642V377.652H180.988C147.313 377.652 116.809 365.204 94.7148 345.081C94.4318 344.823 94.1501 344.564 93.8698 344.304C93.5133 344.202 93.1572 344.099 92.8014 343.995C64.1545 335.557 37.681 315.932 20.1744 287.123L20.0724 286.956L20.077 286.952L20.0724 286.945C2.64245 258.168 -2.57968 225.653 3.08464 196.35C3.55813 193.901 4.10755 191.474 4.73212 189.074C4.10898 186.678 3.56067 184.257 3.08794 181.813C-2.59001 152.46 2.65282 119.897 20.1627 91.083C37.6693 62.2745 64.1428 42.6493 92.7904 34.2112C93.1486 34.1057 93.5071 34.0019 93.866 33.8999C94.1476 33.6384 94.4305 33.3782 94.7148 33.1192C116.809 12.996 147.313 0.548096 180.988 0.548096ZM85.8011 42.1705C61.6694 51.3931 39.7381 69.0787 24.6867 93.8473C8.29254 120.826 3.10496 151.209 7.92563 178.797C9.94656 173.234 12.3948 167.857 15.2599 162.722C13.564 140.836 18.5404 118.048 30.9372 97.6483C41.9553 79.5164 57.3442 65.7316 74.8122 56.8887C78.0488 51.7087 81.7273 46.7885 85.8011 42.1705ZM10.2212 189.074C11.8187 183.235 13.8855 177.567 16.4093 172.135C16.7484 174.162 17.1455 176.177 17.6001 178.177C18.4388 181.866 19.4727 185.505 20.6978 189.076C19.4702 192.654 18.4346 196.3 17.595 199.997C17.1424 201.99 16.7469 203.998 16.409 206.018C13.8854 200.584 11.8186 194.914 10.2212 189.074ZM22.7676 177.013C23.0809 178.391 23.4229 179.762 23.7934 181.124C25.8575 176.402 28.273 171.83 31.0301 167.453C30.0705 162 29.5948 156.473 29.6206 150.941C26.2967 155.03 23.3136 159.373 20.6796 163.924C21.0918 168.34 21.7901 172.713 22.7676 177.013ZM35.184 144.666C34.7573 150.109 34.8544 155.575 35.456 160.991C42.5175 151.488 51.3272 143.11 61.7693 136.374C60.957 133.044 60.3078 129.66 59.8295 126.229C58.0429 127.157 56.2738 128.15 54.5227 129.214L54.5181 129.217L54.5227 129.225L54.3032 129.355C47.171 133.714 40.7881 138.87 35.184 144.666ZM32.6933 175.053C30.2019 179.556 28.0724 184.247 26.3155 189.077C28.0734 193.91 30.2044 198.605 32.6975 203.113L32.741 202.948C33.9874 198.23 35.601 193.595 37.5698 189.087C35.6023 184.584 33.9892 179.953 32.7426 175.24C32.7261 175.177 32.7097 175.115 32.6933 175.053ZM40.6712 182.649C39.5859 179.771 38.6504 176.847 37.868 173.889C37.4002 172.121 36.9872 170.34 36.6295 168.55C43.4809 158.173 52.4008 149.018 63.2383 141.757C64.2366 145.059 65.3981 148.302 66.7142 151.476C55.6532 160.175 46.8937 170.866 40.6712 182.649ZM40.6718 195.527C39.5856 198.408 38.6496 201.336 37.867 204.299C37.4015 206.061 36.9902 207.835 36.6339 209.619C43.4826 219.998 52.3967 229.16 63.2237 236.436C64.2211 233.128 65.3814 229.883 66.697 226.709C55.6469 218 46.8927 207.307 40.6718 195.527ZM68.9295 221.702C57.7573 212.636 49.148 201.405 43.3869 189.088C49.1488 176.767 57.7626 165.538 68.945 156.483C70.0526 158.805 71.2445 161.086 72.5173 163.324C72.9173 164.028 73.2691 164.591 73.6191 165.152L73.6309 165.171C74.0971 165.918 74.5647 166.667 74.8939 167.284C79.1407 175.247 81.1329 182.934 80.9822 190.359C80.8309 197.741 78.5452 204.936 74.2348 211.952C74.0309 212.284 73.6816 212.87 73.1777 213.728C72.7173 214.511 72.3776 215.097 72.1478 215.505C71.0069 217.534 69.9333 219.601 68.9295 221.702ZM71.092 229.982C69.8669 233.051 68.7952 236.187 67.8846 239.379C70.3804 240.859 72.9186 242.212 75.4918 243.442C75.895 241.116 76.3774 238.815 76.9365 236.542C77.1322 235.746 77.3374 234.953 77.5518 234.165C77.2422 233.981 76.9331 233.795 76.6247 233.607C74.7274 232.45 72.8829 231.241 71.092 229.982ZM79.1324 228.921C77.1041 227.677 75.14 226.368 73.2412 225C74.3293 222.657 75.5087 220.357 76.7757 218.103C77.2004 217.348 77.5277 216.776 77.7439 216.409C77.9192 216.11 78.2608 215.547 78.7588 214.737C83.5569 206.927 86.1037 198.84 86.2745 190.463C86.4439 182.128 84.2485 173.573 79.5634 164.79C79.0681 163.861 78.6042 163.118 78.1418 162.377L78.1342 162.365C77.7647 161.773 77.3945 161.18 77.1244 160.705C75.7315 158.256 74.4404 155.75 73.2561 153.193C75.1561 151.827 77.1215 150.521 79.1512 149.279C80.9716 154.759 83.2502 160.048 85.9437 165.101C86.2569 165.69 86.5775 166.238 86.8971 166.785L86.9242 166.832C87.3125 167.495 87.7015 168.16 88.0157 168.788C91.7184 176.199 93.4561 183.359 93.3236 190.28C93.1918 197.162 91.2015 203.859 87.4489 210.377C87.0177 211.125 86.7054 211.674 86.5171 212.017C86.245 212.511 85.9456 213.066 85.6197 213.685C83.0563 218.55 80.8819 223.643 79.1324 228.921ZM82.3284 236.835C82.245 237.159 82.1633 237.484 82.0833 237.809C81.4495 240.386 80.9201 243.005 80.4992 245.661C83.0649 246.712 85.6596 247.644 88.2765 248.459C88.5119 248.532 88.7475 248.605 88.9832 248.676C89.1638 245.883 89.459 243.12 89.8642 240.392C87.3253 239.321 84.811 238.136 82.3284 236.835ZM90.8124 235.023C88.4583 233.995 86.128 232.862 83.8279 231.624C85.5398 226.255 87.7143 221.084 90.3099 216.157C90.5586 215.686 90.8444 215.157 91.1658 214.573C91.5671 213.845 91.8567 213.326 92.0353 213.017C96.2373 205.717 98.4665 198.17 98.6158 190.363C98.7645 182.595 96.8437 174.617 92.747 166.418C92.3392 165.602 91.9145 164.876 91.4898 164.151L91.4684 164.115C91.1716 163.607 90.875 163.099 90.6132 162.607C87.9022 157.52 85.6321 152.164 83.8524 146.588C86.1568 145.363 88.4853 144.255 90.8369 143.254C91.0041 144.063 91.1811 144.869 91.3677 145.671C93.1151 153.179 95.7086 160.342 99.0346 167.038L99.0385 167.036C99.2879 167.536 99.5853 168.083 99.8833 168.628L99.9164 168.688C100.239 169.28 100.56 169.871 100.819 170.427C103.992 177.237 105.48 183.82 105.366 190.183C105.254 196.504 103.548 202.657 100.333 208.65C100.076 209.127 99.8106 209.633 99.5373 210.165C99.36 210.511 99.1028 211.025 98.7658 211.712C95.5132 218.333 92.993 225.395 91.3002 232.776C91.1292 233.522 90.9666 234.271 90.8124 235.023ZM94.9415 242.371C94.5989 244.914 94.3567 247.492 94.219 250.102C99.8959 251.476 105.647 252.318 111.404 252.644C112.071 252.682 112.627 252.692 113.18 252.701C114.094 252.716 115.009 252.731 115.768 252.794C124.89 253.551 132.699 256.058 139.257 260.229C145.783 264.38 151.033 270.163 155.07 277.491L155.155 277.636C155.406 278.095 155.698 278.616 156.036 279.206C156.433 279.902 156.732 280.418 156.93 280.749C160.565 286.842 164.896 292.556 169.884 297.771C172.249 296.325 174.528 294.792 176.718 293.181C174.954 291.685 173.253 290.137 171.617 288.54C166.197 283.25 161.482 277.422 157.526 271.2C157.133 270.583 156.836 270.108 156.616 269.748C156.384 269.369 156.088 268.871 155.734 268.268C152.299 262.41 147.936 257.754 142.595 254.366C137.231 250.965 130.842 248.817 123.377 247.99C122.691 247.914 122.022 247.882 121.355 247.852L121.317 247.849C120.654 247.819 120 247.787 119.566 247.75C112.127 247.115 104.671 245.61 97.3567 243.202C96.5498 242.936 95.7446 242.659 94.9415 242.371ZM180.994 289.844C179.017 288.208 177.122 286.503 175.312 284.737C170.174 279.723 165.716 274.217 161.988 268.352C161.786 268.035 161.497 267.569 161.14 266.984C160.789 266.41 160.51 265.947 160.3 265.587C156.432 258.99 151.49 253.728 145.417 249.878C139.37 246.042 132.234 243.628 123.958 242.711C123.184 242.626 122.395 242.588 121.607 242.551L121.558 242.55C121.12 242.53 120.67 242.507 120.002 242.451C112.957 241.849 105.905 240.426 98.9963 238.151C97.9329 237.801 96.8728 237.43 95.8165 237.039C96.0168 236.006 96.234 234.98 96.4677 233.96C98.0742 226.954 100.455 220.277 103.518 214.04C103.672 213.725 103.918 213.241 104.248 212.597C104.482 212.142 104.734 211.664 105.002 211.164C108.614 204.434 110.531 197.471 110.659 190.266C110.787 183.102 109.135 175.744 105.613 168.183C105.262 167.431 104.9 166.766 104.538 166.102L104.533 166.092C104.288 165.644 104.043 165.195 103.787 164.678L103.782 164.67L103.787 164.668C100.639 158.331 98.1859 151.558 96.5353 144.465C96.2907 143.415 96.0637 142.356 95.8546 141.291C96.8826 140.923 97.9148 140.574 98.9511 140.243C105.628 138.111 112.512 136.726 119.572 135.893L119.923 135.851L119.969 135.846C120.844 135.743 121.726 135.639 122.638 135.567C130.077 134.982 136.888 132.79 143.098 129.068C149.246 125.383 154.773 120.207 159.71 113.616C160.481 112.586 161.087 111.535 161.691 110.484C162.052 109.857 162.414 109.227 162.87 108.54C166.584 102.936 170.955 97.6751 175.946 92.8844C177.563 91.3327 179.246 89.8299 180.994 88.3803C182.741 89.8299 184.424 91.3327 186.041 92.8844C191.032 97.6751 195.403 102.936 199.117 108.54C199.573 109.227 199.935 109.857 200.296 110.484C200.9 111.535 201.505 112.586 202.277 113.616C207.214 120.207 212.74 125.383 218.889 129.068C225.098 132.79 231.909 134.982 239.348 135.567C240.265 135.639 241.15 135.743 242.028 135.847L242.064 135.851L242.415 135.893C249.474 136.726 256.358 138.111 263.036 140.243C264.075 140.575 265.11 140.925 266.141 141.294C266.002 142.002 265.855 142.707 265.7 143.409C264.209 150.169 261.993 156.643 259.143 162.735C258.876 163.307 258.486 164.019 258.097 164.731L258.09 164.743C257.515 165.793 256.94 166.845 256.452 168.068C253.399 175.709 251.858 183.125 251.912 190.303C251.965 197.553 253.636 204.52 257.004 211.19C257.436 212.045 257.797 212.833 258.156 213.617L258.289 213.909C261.254 220.384 263.66 227.015 265.323 233.884C265.58 234.946 265.82 236.013 266.041 237.087C265.028 237.46 264.01 237.815 262.99 238.151C256.081 240.426 249.029 241.849 241.984 242.451C241.316 242.507 240.867 242.53 240.429 242.55L240.383 242.551L240.377 242.552C239.59 242.589 238.801 242.626 238.029 242.711C229.753 243.628 222.618 246.042 216.569 249.878C210.497 253.728 205.555 258.99 201.687 265.587C201.476 265.947 201.199 266.41 200.847 266.984C200.489 267.569 200.201 268.035 199.999 268.352C196.271 274.217 191.813 279.723 186.675 284.737C184.865 286.503 182.97 288.208 180.994 289.844ZM180.993 296.609C178.68 298.362 176.27 300.03 173.768 301.604C176.058 303.739 178.469 305.776 180.998 307.705C183.525 305.777 185.935 303.741 188.224 301.607C185.72 300.032 183.309 298.363 180.993 296.609ZM192.108 297.774C189.741 296.327 187.46 294.793 185.268 293.181C187.033 291.685 188.734 290.136 190.37 288.54C195.79 283.25 200.505 277.422 204.462 271.2C204.854 270.583 205.152 270.108 205.371 269.748C205.602 269.369 205.899 268.871 206.253 268.268C209.688 262.41 214.051 257.754 219.392 254.366C224.756 250.965 231.145 248.817 238.61 247.99C239.296 247.914 239.964 247.882 240.632 247.852L240.67 247.849C241.333 247.819 241.987 247.787 242.42 247.75C249.86 247.115 257.316 245.61 264.63 243.202C265.413 242.944 266.195 242.675 266.975 242.396C267.344 244.929 267.609 247.498 267.762 250.105C262.09 251.478 256.343 252.319 250.591 252.644C249.924 252.682 249.368 252.692 248.816 252.701C247.902 252.716 246.986 252.731 246.227 252.794C237.105 253.551 229.296 256.058 222.739 260.229C216.212 264.38 210.962 270.163 206.925 277.491L206.84 277.636C206.589 278.095 206.297 278.616 205.96 279.206C205.562 279.902 205.263 280.418 205.066 280.749C201.429 286.843 197.097 292.558 192.108 297.774ZM192.969 304.416C190.6 306.694 188.106 308.869 185.49 310.933C186.766 311.796 188.068 312.633 189.397 313.443C190.69 314.231 191.995 314.985 193.31 315.704C194.056 314.978 194.789 314.241 195.509 313.493C197.18 311.756 198.782 309.962 200.313 308.114C197.837 306.992 195.386 305.76 192.969 304.416ZM203.683 303.806C201.377 302.8 199.094 301.693 196.839 300.485C201.725 295.242 205.993 289.534 209.61 283.471C210.04 282.753 210.358 282.21 210.567 281.846C210.84 281.368 211.15 280.812 211.49 280.192L211.559 280.055C215.153 273.529 219.808 268.391 225.583 264.718C231.409 261.012 238.416 258.778 246.663 258.094C247.511 258.024 248.206 258.012 248.899 258.001C249.598 257.99 250.297 257.977 250.881 257.944C256.586 257.621 262.28 256.821 267.905 255.528C267.901 257.909 267.809 260.268 267.632 262.602C264.84 262.918 262.037 263.115 259.23 263.196C258.578 263.215 257.93 263.207 257.284 263.199L257.257 263.199C256.315 263.188 255.374 263.177 254.475 263.228C244.55 263.786 236.108 266.356 229.079 270.84C222.033 275.334 216.462 281.717 212.29 289.892C212.007 290.447 211.702 291.028 211.381 291.631C211.181 292.003 210.871 292.565 210.439 293.337C208.406 296.965 206.153 300.462 203.683 303.806ZM205.412 310.254C203.494 312.642 201.465 314.95 199.327 317.171C198.982 317.531 198.633 317.887 198.282 318.242C209.672 323.645 221.728 326.617 233.828 327.319C236.863 324.893 239.74 322.263 242.441 319.448C243.282 318.572 244.105 317.678 244.911 316.766C231.762 317.351 218.301 315.246 205.412 310.254ZM249.506 311.127C236.048 312.446 222.104 310.767 208.76 305.848C211.048 302.663 213.152 299.353 215.066 295.935C215.286 295.543 215.618 294.931 216.05 294.125C216.358 293.548 216.676 292.94 217.001 292.302C220.74 284.977 225.692 279.282 231.922 275.308C238.17 271.324 245.762 269.034 254.765 268.528C255.598 268.481 256.393 268.49 257.188 268.499H257.195L257.222 268.499C257.941 268.508 258.662 268.517 259.375 268.496C261.946 268.422 264.511 268.255 267.068 267.996C264.911 284.123 258.684 298.887 249.506 311.127ZM252.334 316.147C250.419 318.576 248.391 320.906 246.26 323.127C244.828 324.619 243.349 326.062 241.826 327.454C247.166 327.326 252.488 326.762 257.738 325.776C261.308 321.796 264.555 317.535 267.438 313.033C265.442 313.618 263.425 314.137 261.39 314.589C258.405 315.253 255.383 315.773 252.334 316.147ZM271.471 306.13C267.814 307.469 264.064 308.566 260.249 309.414C259.076 309.675 257.898 309.912 256.714 310.126C265.051 297.68 270.626 283.084 272.511 267.299C275.898 266.776 279.263 266.085 282.595 265.223C281.966 279.918 278.022 293.782 271.471 306.13ZM275.199 310.385C272.591 315.074 269.623 319.546 266.33 323.767C272.203 322.12 277.944 319.935 283.476 317.232C286.327 312.519 288.794 307.587 290.84 302.471C285.886 305.61 280.646 308.254 275.199 310.385ZM293.798 293.97C289.145 297.496 284.157 300.513 278.924 303.002C284.415 290.926 287.608 277.644 287.963 263.678C291.22 262.643 294.441 261.44 297.614 260.066C297.751 262.078 297.823 264.11 297.826 266.164H297.816V266.312C297.816 275.88 296.418 285.153 293.798 293.97ZM298.39 297.123C296.725 302.402 294.643 307.519 292.179 312.444C305.731 304.107 317.624 292.441 326.525 277.792L326.53 277.794L326.604 277.672C336.912 260.657 341.806 241.896 341.76 223.504C338.802 227.85 335.516 231.98 331.91 235.853C330.617 248.788 326.522 261.566 319.401 273.319L319.396 273.326L319.401 273.329L319.342 273.425C313.668 282.763 306.537 290.695 298.39 297.123ZM325.708 241.971C323.923 251.854 320.353 261.535 314.881 270.568L314.877 270.565L314.818 270.661C310.848 277.193 306.121 282.995 300.806 288.028C302.33 281.005 303.129 273.744 303.129 266.312V266.164H303.119C303.115 263.295 302.984 260.467 302.735 257.678C305.273 256.408 307.776 255.023 310.238 253.522C315.835 250.111 320.996 246.239 325.708 241.971ZM332.36 227.254C335.69 223.154 338.679 218.801 341.318 214.238C340.906 209.827 340.209 205.457 339.233 201.161C338.919 199.775 338.575 198.398 338.203 197.029C336.135 201.76 333.716 206.341 330.954 210.726C331.913 216.184 332.387 221.716 332.36 227.254ZM326.528 217.191C327.129 222.612 327.226 228.083 326.798 233.532C321.14 239.39 314.69 244.596 307.478 248.992C305.697 250.077 303.892 251.099 302.068 252.058C301.561 248.637 300.877 245.272 300.031 241.956C310.552 235.186 319.424 226.756 326.528 217.191ZM329.292 203.124C331.788 198.612 333.921 193.913 335.68 189.076C333.922 184.243 331.79 179.55 329.297 175.043L329.245 175.24C327.998 179.953 326.385 184.584 324.417 189.088C326.386 193.595 327.999 198.231 329.246 202.948C329.261 203.006 329.277 203.065 329.292 203.124ZM321.315 195.527C322.402 198.408 323.338 201.336 324.12 204.299C324.587 206.064 324.999 207.841 325.355 209.628C318.454 220.085 309.455 229.306 298.516 236.607C297.497 233.334 296.325 230.109 295.015 226.925C306.195 218.177 315.043 207.405 321.315 195.527ZM321.316 182.649C322.401 179.771 323.336 176.847 324.119 173.889C324.587 172.117 325.001 170.334 325.359 168.541C318.505 158.162 309.581 149.006 298.739 141.745C297.74 145.05 296.579 148.294 295.263 151.468C306.329 160.169 315.091 170.863 321.316 182.649ZM293.034 156.476C304.22 165.533 312.837 176.764 318.6 189.088C312.798 201.492 304.107 212.795 292.818 221.895C291.824 219.743 290.768 217.608 289.657 215.488L289.486 215.163L289.482 215.165L289.471 215.144C288.919 214.09 288.364 213.032 287.835 212.117C283.822 205.177 281.832 197.957 281.769 190.47C281.705 182.911 283.595 175.031 287.337 166.846C287.82 165.792 288.493 164.716 289.166 163.641L289.177 163.624C289.685 162.814 290.193 162.003 290.69 161.089L290.772 160.947C291.561 159.474 292.315 157.984 293.034 156.476ZM290.866 148.203C292.089 145.134 293.162 141.998 294.074 138.804C291.578 137.334 289.047 136.005 286.483 134.807C286.136 136.796 285.731 138.765 285.27 140.714C285.005 141.831 284.722 142.943 284.42 144.047C284.727 144.229 285.033 144.412 285.338 144.598L285.454 144.668L285.456 144.664C287.31 145.794 289.114 146.974 290.866 148.203ZM282.836 149.28C284.862 150.519 286.824 151.822 288.721 153.185C287.899 154.959 287.026 156.709 286.103 158.432L286.034 158.569C285.652 159.269 285.183 160.017 284.715 160.766L284.695 160.798L284.685 160.813C283.924 162.028 283.162 163.245 282.522 164.644C278.457 173.532 276.406 182.161 276.476 190.512C276.547 198.936 278.769 207.031 283.249 214.778C283.829 215.781 284.304 216.687 284.776 217.586L284.797 217.625V217.636L284.967 217.961C286.219 220.35 287.396 222.756 288.492 225.182C286.596 226.538 284.637 227.835 282.613 229.069C280.847 223.822 278.693 218.701 276.223 213.672L276.219 213.674L276.086 213.405C275.559 212.329 275.029 211.25 274.636 210.524C271.133 204.059 269.397 197.338 269.341 190.375C269.286 183.382 270.916 176.087 274.147 168.506L274.205 168.381C274.655 167.331 275.226 166.359 275.796 165.387L275.817 165.35C276.282 164.557 276.749 163.762 277.196 162.872C279.393 158.494 281.282 153.954 282.836 149.28ZM279.631 141.394C279.794 140.761 279.951 140.126 280.102 139.488C280.635 137.235 281.089 134.951 281.461 132.641C278.929 131.637 276.368 130.75 273.777 129.97C273.515 129.891 273.252 129.813 272.99 129.737C272.803 132.49 272.505 135.216 272.099 137.91C274.635 138.952 277.145 140.109 279.631 141.394ZM271.145 143.252C273.498 144.253 275.828 145.362 278.133 146.588C276.597 151.405 274.696 156.053 272.464 160.502C272.114 161.201 271.68 161.939 271.247 162.677L271.235 162.697L271.23 162.706C270.545 163.873 269.86 165.042 269.328 166.282L269.272 166.424C265.76 174.661 263.987 182.664 264.049 190.417C264.111 198.282 266.053 205.836 269.966 213.06C270.563 214.161 270.951 214.951 271.334 215.733C271.349 215.762 271.481 216.015 271.471 216.02C273.998 221.166 276.177 226.398 277.922 231.751C275.652 232.964 273.353 234.076 271.031 235.085C270.854 234.266 270.667 233.45 270.47 232.638C268.723 225.424 266.204 218.477 263.104 211.706L262.971 211.415C262.557 210.512 262.142 209.604 261.736 208.801C258.738 202.864 257.251 196.687 257.204 190.282C257.156 183.805 258.57 177.053 261.371 170.042C261.726 169.151 262.231 168.228 262.736 167.305L262.74 167.299L262.748 167.284C263.132 166.581 263.518 165.875 263.937 164.98C266.949 158.542 269.292 151.699 270.868 144.551C270.963 144.119 271.055 143.686 271.145 143.252ZM267.023 135.989C267.367 133.481 267.612 130.935 267.756 128.357C262.268 127.061 256.679 126.203 250.998 125.693L250.648 125.661C249.7 125.576 248.745 125.49 247.694 125.438C239.48 125.03 232.025 122.766 225.292 118.737C218.616 114.741 212.682 109.021 207.456 101.669C206.626 100.502 206.003 99.3403 205.381 98.1789C204.981 97.433 204.58 96.6865 204.14 95.9796C200.685 90.442 196.662 85.2316 192.094 80.4482C189.729 81.8951 187.452 83.4284 185.263 85.0409C186.795 86.342 188.278 87.6826 189.714 89.06C194.991 94.1245 199.611 99.6864 203.538 105.61C203.98 106.277 204.426 107.052 204.871 107.826L204.883 107.845C205.4 108.744 205.918 109.644 206.511 110.436C211.031 116.471 216.054 121.188 221.607 124.516C227.097 127.806 233.141 129.747 239.763 130.268C240.713 130.342 241.696 130.458 242.674 130.574C242.771 130.574 242.928 130.601 243.032 130.616C250.369 131.481 257.574 132.938 264.634 135.193C265.432 135.448 266.229 135.713 267.023 135.989ZM180.993 81.6111C183.305 79.8562 185.713 78.1872 188.215 76.6121C185.928 74.4771 183.522 72.4401 180.998 70.5113C178.472 72.4411 176.065 74.4793 173.777 76.6154C176.277 78.1896 178.683 79.8575 180.993 81.6111ZM169.035 73.8058C171.402 71.5257 173.894 69.3473 176.51 67.2813C175.229 66.4145 173.922 65.574 172.589 64.7612C171.306 63.9792 170.011 63.231 168.707 62.5162C168.199 63.0113 167.698 63.5115 167.203 64.0165C165.28 65.9767 163.448 68.0108 161.707 70.1125C164.178 71.2332 166.623 72.4638 169.035 73.8058ZM158.337 74.4192C160.639 75.4255 162.918 76.5317 165.169 77.7392C160.708 82.5337 156.762 87.7071 153.352 93.1737C152.843 93.9911 152.393 94.828 151.944 95.6642C151.393 96.6937 150.841 97.7244 150.223 98.5932C145.422 105.348 140.018 110.573 133.985 114.185C128.006 117.763 121.372 119.774 114.053 120.138C113.063 120.186 111.977 120.284 110.895 120.382L110.877 120.384L110.54 120.414C104.951 120.916 99.4616 121.734 94.0839 122.944C94.0843 120.571 94.1718 118.221 94.3432 115.895C96.9822 115.57 99.646 115.326 102.333 115.156L102.73 115.131C103.862 115.059 104.995 114.987 105.935 114.966C114.882 114.771 122.944 112.465 130.162 108.15C137.329 103.866 143.624 97.6242 149.092 89.5275C149.91 88.316 150.571 86.9926 151.23 85.6719L151.232 85.6689C151.645 84.8414 152.059 84.0127 152.517 83.2326C154.3 80.1973 156.241 77.255 158.337 74.4192ZM156.615 67.972C158.751 65.3092 161.022 62.747 163.426 60.2962C163.53 60.19 163.634 60.084 163.739 59.9783C152.344 54.5669 140.282 51.5896 128.174 50.8851C125.142 53.3104 122.268 55.9395 119.57 58.7527C118.729 59.6298 117.905 60.5249 117.099 61.4372C130.254 60.8572 143.722 62.9697 156.615 67.972ZM112.509 67.074C125.973 65.7602 139.923 67.4477 153.27 72.3779C151.372 75.0196 149.599 77.7475 147.951 80.5521C147.422 81.4541 146.96 82.3788 146.499 83.3022C145.945 84.4103 145.391 85.5204 144.692 86.5556C139.655 94.0151 133.917 99.7279 127.443 103.598C121.019 107.439 113.828 109.492 105.831 109.666C104.536 109.694 103.444 109.764 102.359 109.833L102.002 109.856C99.6169 110.007 97.2489 110.214 94.8981 110.482C97.035 94.2462 103.283 79.3836 112.509 67.074ZM109.681 62.0531C111.595 59.6244 113.622 57.2952 115.752 55.074C117.182 53.5825 118.659 52.1398 120.18 50.7485C114.845 50.8755 109.528 51.4377 104.283 52.4211C100.716 56.3987 97.4717 60.6567 94.5897 65.1566C96.5681 64.5783 98.5674 64.0645 100.584 63.6161C103.582 62.9496 106.618 62.4277 109.681 62.0531ZM90.5579 72.055C94.1975 70.725 97.9286 69.635 101.725 68.7911C102.912 68.5271 104.106 68.2871 105.305 68.0714C96.9139 80.6015 91.3163 95.3112 89.454 111.218C86.0594 111.752 82.703 112.425 79.3873 113.254C79.997 98.4497 83.96 84.4839 90.5579 72.055ZM86.8318 67.7985C89.4396 63.1126 92.4063 58.6432 95.6961 54.4251C89.8231 56.0702 84.0806 58.253 78.5478 60.953C75.6975 65.6639 73.2291 70.5926 71.1805 75.7047C76.1382 72.5675 81.3822 69.9261 86.8318 67.7985ZM68.2161 84.2047C72.8743 80.6793 77.8673 77.6632 83.1067 75.1762C77.5778 87.3213 74.368 100.687 74.0233 114.742C70.7593 115.742 67.5361 116.906 64.3562 118.251C64.226 116.195 64.1601 114.123 64.1601 112.036C64.1601 102.406 65.5714 93.0752 68.2161 84.2047ZM61.2001 90.1464C59.6565 97.224 58.847 104.543 58.847 112.036C58.847 114.919 58.9673 117.778 59.2036 120.608C56.7029 121.843 54.2304 123.197 51.7876 124.681L51.783 124.673L51.5148 124.842C46.0046 128.212 40.9194 132.031 36.2715 136.235C38.0608 126.319 41.6493 116.606 47.1557 107.544C51.1337 100.999 55.872 95.1865 61.2001 90.1464ZM63.6264 81.0485C55.4613 87.4825 48.316 95.4258 42.6316 104.78C35.4705 116.564 31.3592 129.378 30.0668 142.349C26.4682 146.212 23.1891 150.33 20.2369 154.664C20.1907 136.244 25.1049 117.454 35.4612 100.413C44.3712 85.75 56.2776 74.0758 69.8443 65.7371C67.3792 70.6592 65.2951 75.7734 63.6264 81.0485ZM169.898 80.4516C172.261 81.8974 174.537 83.4296 176.724 85.0409C175.192 86.3419 173.708 87.6825 172.273 89.06C166.996 94.1245 162.376 99.6864 158.45 105.61C158.007 106.276 157.561 107.051 157.116 107.824L157.104 107.845C156.587 108.744 156.069 109.644 155.476 110.436C150.956 116.471 145.933 121.188 140.38 124.516C134.89 127.806 128.846 129.747 122.223 130.268C121.273 130.342 120.289 130.458 119.31 130.574C119.235 130.574 119.125 130.59 119.031 130.605L118.956 130.616C111.617 131.481 104.412 132.938 97.3531 135.193C96.5566 135.447 95.7624 135.712 94.9704 135.987C94.6255 133.477 94.3789 130.932 94.2347 128.358C99.7238 127.062 105.314 126.203 110.997 125.693L111.335 125.662L111.347 125.661C112.296 125.576 113.249 125.49 114.302 125.438C122.515 125.03 129.97 122.766 136.703 118.737C143.38 114.741 149.313 109.021 154.539 101.669C155.369 100.502 155.993 99.3403 156.615 98.1789C157.014 97.433 157.415 96.6865 157.856 95.9796C161.309 90.4433 165.331 85.234 169.898 80.4516ZM22.7625 201.161C23.0771 199.776 23.4206 198.398 23.7929 197.029C25.8584 201.757 28.2756 206.333 31.0346 210.716C30.0753 216.172 29.6002 221.701 29.627 227.238C26.3003 223.141 23.3146 218.791 20.6786 214.232C21.0904 209.823 21.7873 205.455 22.7625 201.161ZM35.1884 233.518C34.7615 228.071 34.8584 222.601 35.4603 217.182C42.5194 226.688 51.3243 235.074 61.7577 241.823C60.9454 245.164 60.2974 248.558 59.8209 251.999C58.0342 251.058 56.267 250.055 54.5213 248.992C47.3036 244.593 40.849 239.381 35.1884 233.518ZM64.853 254.468C65.2468 251.17 65.8057 247.92 66.5229 244.726C69.2064 246.262 71.9328 247.663 74.6941 248.928C74.3386 251.949 74.1158 255.005 74.0311 258.093C70.931 257.048 67.8683 255.84 64.853 254.468ZM79.3122 259.707C79.3478 256.804 79.5106 253.933 79.7957 251.1C82.0781 251.998 84.3805 252.807 86.6986 253.53C87.39 253.745 88.083 253.953 88.7774 254.153C88.7735 254.515 88.7716 254.877 88.7716 255.239C88.7716 257.459 88.844 259.662 88.9864 261.845C85.7368 261.297 82.5085 260.585 79.3122 259.707ZM94.3657 262.602C94.1863 260.267 94.0914 257.908 94.0844 255.526C99.7111 256.82 105.408 257.621 111.114 257.944C111.698 257.977 112.397 257.99 113.096 258.001C113.79 258.012 114.484 258.024 115.332 258.094C123.579 258.778 130.587 261.012 136.413 264.718C142.187 268.391 146.843 273.529 150.437 280.055L150.506 280.192C150.845 280.812 151.155 281.368 151.428 281.846C151.637 282.21 151.956 282.753 152.385 283.471C156.002 289.533 160.269 295.24 165.154 300.482C162.9 301.69 160.618 302.796 158.313 303.802C155.845 300.459 153.592 296.964 151.561 293.337C151.128 292.565 150.818 292.003 150.619 291.631C150.297 291.028 149.993 290.447 149.71 289.892C145.538 281.717 139.966 275.334 132.921 270.84C125.891 266.356 117.45 263.786 107.526 263.228C106.627 263.177 105.684 263.188 104.743 263.199L104.716 263.199C104.07 263.207 103.42 263.215 102.77 263.196C99.9616 263.115 97.158 262.917 94.3657 262.602ZM161.683 308.11C164.158 306.988 166.607 305.757 169.023 304.413C171.392 306.692 173.888 308.868 176.506 310.933C175.229 311.796 173.927 312.633 172.598 313.443C171.306 314.23 170.002 314.983 168.688 315.703C167.942 314.977 167.21 314.24 166.491 313.493C164.818 311.755 163.215 309.959 161.683 308.11ZM175.358 317.973C177.291 316.796 179.171 315.563 180.998 314.279C182.825 315.563 184.705 316.796 186.637 317.973C187.486 318.491 188.34 318.995 189.199 319.484C186.602 321.737 183.868 323.867 181 325.862C178.131 323.866 175.396 321.736 172.799 319.483C173.656 318.993 174.51 318.49 175.358 317.973ZM185.769 328.979C188.715 326.837 191.523 324.556 194.188 322.15C204.798 327.446 215.988 330.711 227.297 332.064C222.446 335.255 217.273 337.96 211.84 340.113C202.899 337.764 194.207 334.122 185.995 329.117L185.769 328.979ZM220.636 341.996C225.898 339.385 230.885 336.271 235.54 332.713C240.896 332.917 246.254 332.702 251.565 332.078C247.104 336.25 242.252 340.03 237.068 343.361C231.561 343.352 226.068 342.902 220.636 341.996ZM256.657 334.549C257.964 333.279 259.238 331.976 260.476 330.642C262.244 330.278 264.003 329.869 265.752 329.416C269.886 328.343 273.964 327.018 277.959 325.448C274.235 330.466 270.05 335.18 265.461 339.538C259.359 341.198 253.165 342.329 246.949 342.908C250.357 340.312 253.599 337.52 256.657 334.549ZM276.216 336.025C280.294 331.404 283.975 326.479 287.213 321.295C304.665 312.452 320.039 298.674 331.049 280.555L331.045 280.553L331.128 280.416C343.469 260.045 348.427 237.292 346.736 215.441C349.603 210.301 352.053 204.92 354.074 199.352C358.888 226.903 353.725 257.249 337.408 284.194L337.404 284.191L337.301 284.36C322.255 309.118 300.336 326.799 276.216 336.025ZM351.779 189.075C350.18 194.917 348.113 200.589 345.588 206.025C345.249 204.002 344.853 201.992 344.4 199.997C343.561 196.3 342.525 192.654 341.297 189.076C342.523 185.505 343.556 181.866 344.395 178.177C344.85 176.175 345.248 174.158 345.587 172.128C348.112 177.562 350.18 183.233 351.779 189.075ZM339.227 177.013C338.914 178.391 338.572 179.761 338.202 181.124C336.136 176.397 333.719 171.822 330.959 167.442C331.918 161.988 332.393 156.459 332.366 150.925C335.694 155.017 338.68 159.362 341.316 163.917C340.904 168.335 340.205 172.71 339.227 177.013ZM326.802 144.652C327.23 150.096 327.133 155.564 326.532 160.98C319.468 151.476 310.655 143.098 300.208 136.363C301.02 133.033 301.67 129.649 302.148 126.217C303.942 127.148 305.718 128.146 307.477 129.214L307.481 129.217L307.477 129.225L307.697 129.355C314.823 133.71 321.201 138.861 326.802 144.652ZM297.109 123.797C296.712 127.071 296.152 130.3 295.436 133.475C292.749 131.948 290.031 130.575 287.284 129.342C287.637 126.364 287.862 123.348 287.952 120.3C291.049 121.303 294.102 122.464 297.109 123.797ZM282.673 118.751C282.63 121.607 282.462 124.432 282.175 127.223C279.9 126.354 277.605 125.575 275.292 124.879C274.6 124.67 273.906 124.469 273.21 124.275C273.215 123.837 273.218 123.398 273.218 122.958C273.218 120.848 273.153 118.753 273.024 116.676C276.281 117.227 279.498 117.913 282.673 118.751ZM267.646 115.893C267.817 118.219 267.905 120.57 267.905 122.942C262.529 121.733 257.042 120.916 251.455 120.414L251.118 120.384L251.101 120.382C250.019 120.285 248.932 120.186 247.942 120.138C240.623 119.774 233.99 117.763 228.011 114.185C221.977 110.573 216.574 105.348 211.772 98.5932C211.155 97.7244 210.602 96.6937 210.051 95.6642L210.044 95.6513C209.597 94.8193 209.151 93.9868 208.643 93.1737C205.232 87.7059 201.286 82.5314 196.823 77.7361C199.076 76.5281 201.357 75.4214 203.66 74.4148C205.757 77.2519 207.699 80.1957 209.483 83.2326C209.941 84.0136 210.356 84.8434 210.769 85.6719L210.775 85.6846C211.433 87.0005 212.092 88.3204 212.907 89.5275C218.375 97.6242 224.67 103.866 231.838 108.15C239.056 112.465 247.117 114.771 256.065 114.966C257.006 114.987 258.141 115.059 259.274 115.131L259.666 115.156C262.35 115.326 265.01 115.569 267.646 115.893ZM200.289 70.1081C197.817 71.2291 195.371 72.4601 192.957 73.8026C190.592 71.5236 188.1 69.3463 185.486 67.2812C186.766 66.4144 188.073 65.574 189.406 64.7612C190.69 63.9787 191.986 63.2299 193.291 62.5146C193.799 63.0103 194.301 63.5109 194.797 64.0165C196.718 65.9754 198.55 68.008 200.289 70.1081ZM186.647 60.2299C184.71 61.4101 182.827 62.6456 180.998 63.9333C179.168 62.6456 177.285 61.4101 175.349 60.2299C174.508 59.7174 173.663 59.2187 172.813 58.7336C175.405 56.4804 178.135 54.35 181 52.3543C183.864 54.3496 186.593 56.4795 189.185 58.7323C188.335 59.2178 187.488 59.717 186.647 60.2299ZM176.234 49.2366C173.291 51.3793 170.488 53.6605 167.827 56.0679C157.212 50.7652 146.017 47.496 134.702 46.1408C139.55 42.9506 144.721 40.2466 150.152 38.0944C159.091 40.4428 167.782 44.0851 175.993 49.0891L176.234 49.2366ZM141.341 36.2083C136.087 38.8196 131.107 41.9337 126.459 45.4909C121.108 45.2862 115.756 45.5006 110.45 46.1218C114.906 41.9525 119.753 38.1747 124.933 34.8451C130.431 34.855 135.917 35.3046 141.341 36.2083ZM105.363 43.6474C104.057 44.9176 102.783 46.2205 101.545 47.5547C99.7659 47.9199 97.9949 48.3312 96.2344 48.7881C92.1123 49.8579 88.0473 51.178 84.0635 52.7419C87.7849 47.7275 91.9648 43.0177 96.5484 38.6624C102.648 37.0037 108.841 35.8749 115.054 35.2968C111.653 37.8902 108.416 40.6796 105.363 43.6474ZM7.92515 199.352C3.1109 226.903 8.27472 257.248 24.5919 284.194L24.5965 284.191L24.6984 284.36C39.7486 309.125 61.6759 326.809 85.8036 336.033C81.7285 331.413 78.0488 326.492 74.8114 321.31C57.3472 312.467 41.9621 298.684 30.9457 280.555L30.9502 280.553L30.8671 280.416C18.525 260.042 13.5676 237.287 15.2595 215.435C12.3945 210.296 9.94615 204.917 7.92515 199.352ZM20.2353 223.498C20.1882 241.892 25.0825 260.655 35.3911 277.672L35.4651 277.794L35.4697 277.792C44.3779 292.45 56.2806 304.122 69.8432 312.461C67.3777 307.537 65.2933 302.422 63.6245 297.145C55.4657 290.713 48.3259 282.774 42.645 273.425L42.5865 273.329L42.5911 273.326L42.5865 273.319C35.4619 261.561 31.367 248.778 30.0753 235.838C26.4729 231.967 23.1903 227.841 20.2353 223.498ZM36.2768 241.958C38.0608 251.845 41.6317 261.531 47.1061 270.568L47.1106 270.565L47.1691 270.661C51.1431 277.201 55.8762 283.008 61.1982 288.045C59.6559 280.97 58.847 273.653 58.847 266.164C58.847 263.3 58.9651 260.458 59.1975 257.644C56.6825 256.383 54.202 255.01 51.7616 253.522C46.1588 250.108 40.9928 246.23 36.2768 241.958ZM64.3481 260.05C64.2233 262.072 64.1601 264.111 64.1601 266.164C64.1601 275.791 65.5708 285.12 68.2144 293.989C72.873 297.517 77.8668 300.534 83.1071 303.023C77.6068 290.941 74.4015 277.651 74.0289 263.675C70.7614 262.637 67.531 261.43 64.3481 260.05ZM79.3991 265.222C80.0465 279.924 84.0016 293.794 90.5591 306.146C94.2026 307.478 97.9378 308.569 101.738 309.414C102.922 309.677 104.113 309.917 105.309 310.132C96.9719 297.685 91.3919 283.086 89.4921 267.3C86.1019 266.776 82.7339 266.084 79.3991 265.222ZM94.9354 267.996C97.1072 284.125 103.338 298.89 112.514 311.13C125.965 312.444 139.901 310.762 153.238 305.844C150.95 302.66 148.847 299.352 146.934 295.935C146.714 295.543 146.381 294.931 145.95 294.125C145.641 293.548 145.324 292.94 144.999 292.302C141.26 284.977 136.308 279.282 130.077 275.308C123.83 271.324 116.239 269.034 107.235 268.528C106.399 268.481 105.601 268.49 104.804 268.499L104.778 268.499C104.058 268.508 103.337 268.517 102.624 268.496C100.055 268.422 97.4906 268.255 94.9354 267.996ZM156.585 310.25C143.703 315.241 130.248 317.348 117.105 316.768C117.909 317.678 118.731 318.571 119.57 319.446C122.27 322.261 125.147 324.892 128.181 327.318C140.278 326.615 152.33 323.643 163.716 318.241C163.365 317.886 163.017 317.53 162.672 317.171C160.533 314.949 158.504 312.64 156.585 310.25ZM167.81 322.149C157.203 327.444 146.016 330.709 134.71 332.063C139.56 335.254 144.734 337.958 150.169 340.11C159.106 337.762 167.795 334.12 176.005 329.117L176.231 328.979C173.284 326.836 170.476 324.556 167.81 322.149ZM181 332.246C180.263 332.722 179.518 333.189 178.765 333.648C172.373 337.543 165.708 340.656 158.868 343.015C165.933 344.951 173.349 345.981 180.995 345.981H181.107V345.992C188.719 345.982 196.105 344.95 203.143 343.019C196.299 340.659 189.63 337.545 183.235 333.648C182.482 333.189 181.737 332.722 181 332.246ZM212.16 345.672C202.457 349.297 192.003 351.278 181.107 351.292V351.302H180.995C170.056 351.302 159.562 349.317 149.826 345.675C144.461 346.989 139.017 347.864 133.54 348.313C147.704 355.583 163.853 359.699 180.994 359.699H181.145V359.709C198.231 359.686 214.335 355.569 228.47 348.314C222.985 347.864 217.533 346.988 212.16 345.672ZM238.603 348.662C222.008 358.985 202.29 364.98 181.145 365.009V365.02H180.994C159.794 365.02 140.03 359.017 123.4 348.662C117.297 348.586 111.186 347.995 105.127 346.909C125.538 362.761 152.028 372.331 180.988 372.331H181.185V372.342C210.063 372.299 236.498 362.732 256.881 346.908C250.821 347.995 244.708 348.585 238.603 348.662ZM354.074 178.797C358.895 151.21 353.707 120.826 337.313 93.8473C322.254 69.0663 300.309 51.3754 276.163 42.1567C280.238 46.7744 283.917 51.6946 287.155 56.8746C304.635 65.7169 320.034 79.5068 331.059 97.6483C343.453 118.046 348.43 140.831 346.736 162.715C349.603 167.853 352.053 173.232 354.074 178.797ZM341.758 154.657C341.803 136.239 336.889 117.452 326.534 100.413C317.618 85.7399 305.701 74.0597 292.123 65.7199C294.59 70.6438 296.676 75.7601 298.346 81.0375C306.517 87.4734 313.667 95.4204 319.355 104.78C326.514 116.56 330.625 129.368 331.919 142.334C335.521 146.199 338.803 150.319 341.758 154.657ZM325.713 136.221C323.923 126.31 320.335 116.602 314.831 107.544C310.85 100.993 306.107 95.1766 300.773 90.1334C302.319 97.215 303.129 104.539 303.129 112.036C303.129 114.915 303.009 117.771 302.773 120.597C305.282 121.834 307.762 123.193 310.212 124.681L310.216 124.673L310.485 124.842C315.989 128.208 321.069 132.023 325.713 136.221ZM297.62 118.241C297.75 116.188 297.816 114.119 297.816 112.036C297.816 102.402 296.404 93.0678 293.757 84.1941C289.103 80.6737 284.116 77.6615 278.882 75.1772C284.41 87.3211 287.62 100.685 287.965 114.739C291.225 115.737 294.444 116.899 297.62 118.241ZM282.601 113.251C281.991 98.4482 278.028 84.4837 271.431 72.0558C267.791 70.7254 264.059 69.6352 260.262 68.7911C259.076 68.5273 257.883 68.2875 256.684 68.0719C265.075 80.6015 270.673 95.3104 272.536 111.217C275.93 111.75 279.286 112.423 282.601 113.251ZM267.091 110.48C264.954 94.2454 258.707 79.3833 249.481 67.0743C236.019 65.7602 222.072 67.4465 208.727 72.3741C210.626 75.0171 212.4 77.7462 214.048 80.5521C214.578 81.454 215.04 82.3787 215.501 83.302C216.054 84.4101 216.609 85.5204 217.307 86.5556C222.344 94.0151 228.082 99.7279 234.556 103.598C240.98 107.439 248.172 109.492 256.169 109.666C257.464 109.694 258.556 109.764 259.64 109.833L259.998 109.856C262.379 110.007 264.744 110.213 267.091 110.48ZM205.381 67.9681C218.272 62.9683 231.737 60.8571 244.89 61.4374C244.084 60.5249 243.26 59.6298 242.419 58.7527C239.721 55.9396 236.847 53.3107 233.815 50.8855C221.711 51.5906 209.652 54.5672 198.259 59.9767C198.365 60.083 198.47 60.1895 198.574 60.2962C200.977 62.7458 203.247 65.3068 205.381 67.9681ZM194.171 56.0666C204.784 50.7655 215.976 47.4969 227.288 46.1414C222.441 42.9518 217.271 40.2482 211.841 38.0961C202.904 40.4446 194.216 44.0863 186.007 49.0891L185.766 49.2367C188.708 51.379 191.511 53.6597 194.171 56.0666ZM181 45.9679C181.741 45.4898 182.49 45.0199 183.247 44.5586C189.64 40.6626 196.305 37.5493 203.146 35.1898C196.074 33.25 188.65 32.2169 180.995 32.2169C173.341 32.2169 165.919 33.2494 158.849 35.1881C165.691 37.5478 172.358 40.6617 178.753 44.5586C179.51 45.0199 180.259 45.4898 181 45.9679ZM149.809 32.5298C159.55 28.8831 170.05 26.8963 180.995 26.8963C191.942 26.8963 202.443 28.8837 212.185 32.5313C217.548 31.2183 222.989 30.3435 228.464 29.8939C214.295 22.6191 198.142 18.5001 180.994 18.5001C163.847 18.5001 147.694 22.6187 133.526 29.893C139.002 30.3423 144.445 31.2169 149.809 32.5298ZM123.389 29.5437C117.287 29.6204 111.178 30.2104 105.121 31.2958C125.532 15.4405 152.025 5.86876 180.988 5.86876C209.947 5.86876 236.437 15.4383 256.848 31.2902C250.798 30.2077 244.694 29.6196 238.599 29.5436C221.968 19.1851 202.199 13.1794 180.994 13.1794C159.79 13.1794 140.02 19.1852 123.389 29.5437ZM265.418 38.6533C259.325 36.9984 253.139 35.8722 246.933 35.2956C250.335 37.8894 253.572 40.6791 256.625 43.6474C257.931 44.9171 259.204 46.2194 260.442 47.553C262.224 47.9186 263.997 48.3305 265.761 48.7881C269.874 49.8555 273.93 51.1721 277.905 52.7313C274.183 47.7174 270.002 43.008 265.418 38.6533ZM283.42 60.9395C277.893 58.2443 272.157 56.0651 266.29 54.4225C269.581 58.6417 272.549 63.1122 275.157 67.7994C280.601 69.9249 285.839 72.5629 290.792 75.6957C288.742 70.582 286.272 65.6517 283.42 60.9395ZM257.704 52.4194C261.271 56.3977 264.516 60.6564 267.399 65.1572C265.42 64.5786 263.42 64.0646 261.403 63.6161C258.406 62.9497 255.37 62.428 252.308 62.0534C250.394 59.6246 248.368 57.2952 246.238 55.074C244.807 53.5825 243.33 52.1397 241.809 50.7483C247.143 50.875 252.459 51.4366 257.704 52.4194ZM88.9985 129.739C89.1836 132.495 89.4805 135.221 89.8847 137.911C87.3493 138.953 84.8387 140.111 82.3539 141.395C82.2889 141.143 82.2249 140.891 82.1618 140.639C81.507 138.015 80.96 135.349 80.5258 132.645C83.0602 131.639 85.625 130.751 88.2187 129.97C88.4784 129.892 88.7384 129.815 88.9985 129.739ZM77.0151 141.927C77.1921 142.636 77.3767 143.342 77.5687 144.046C77.2615 144.228 76.9548 144.412 76.6484 144.598L76.5329 144.668L76.5303 144.664C74.6728 145.796 72.8661 146.979 71.1109 148.209C69.8884 145.142 68.8165 142.008 67.9034 138.815C70.4038 137.342 72.939 136.01 75.5076 134.81C75.9267 137.21 76.4302 139.584 77.0151 141.927ZM78.5473 317.246C75.6966 312.534 73.2279 307.605 71.1792 302.492C76.1376 305.631 81.3825 308.273 86.8332 310.402C89.4413 315.089 92.4084 319.558 95.6987 323.777C89.8244 322.131 84.081 319.947 78.5473 317.246ZM104.286 325.781C100.719 321.804 97.4743 317.546 94.5919 313.046C96.574 313.625 98.577 314.14 100.597 314.589C103.593 315.255 106.626 315.777 109.686 316.151C111.599 318.578 113.623 320.905 115.752 323.124C117.184 324.618 118.662 326.062 120.186 327.455C114.85 327.328 109.532 326.765 104.286 325.781ZM272.975 248.688C272.778 245.892 272.461 243.141 272.031 240.43C274.535 239.377 277.015 238.213 279.464 236.936C279.535 237.198 279.604 237.461 279.672 237.723C280.355 240.35 280.93 243.009 281.39 245.705C278.859 246.737 276.3 247.655 273.719 248.459C273.471 248.536 273.223 248.612 272.975 248.688ZM284.798 236.393C284.615 235.689 284.425 234.987 284.228 234.288L284.544 234.1L284.853 233.915L284.962 233.849C285.096 233.768 285.229 233.688 285.362 233.607C287.161 232.51 288.912 231.367 290.615 230.178C291.841 233.256 292.93 236.369 293.866 239.524C291.408 240.971 288.909 242.297 286.377 243.502C285.935 241.105 285.407 238.736 284.798 236.393ZM295.284 244.833C292.637 246.342 289.948 247.718 287.225 248.963C287.605 251.961 287.847 255.006 287.941 258.102C291.022 257.064 294.066 255.867 297.062 254.506C296.637 251.233 296.039 248.01 295.284 244.833ZM273.2 254.158C273.901 253.957 274.599 253.747 275.297 253.53C277.598 252.813 279.883 252.01 282.15 251.119C282.46 253.939 282.641 256.8 282.684 259.708C279.488 260.586 276.26 261.297 273.011 261.845C273.148 259.704 273.218 257.544 273.218 255.367V255.239H273.208C273.207 254.878 273.205 254.518 273.2 254.158ZM110.455 332.081C115.761 332.703 121.114 332.917 126.466 332.713C131.116 336.271 136.099 339.386 141.356 341.997C135.931 342.901 130.444 343.351 124.944 343.361C119.762 340.031 114.913 336.252 110.455 332.081ZM84.0635 325.458C88.0504 327.024 92.1187 328.345 96.2441 329.416C98.0025 329.872 99.7714 330.283 101.549 330.648C102.786 331.981 104.058 333.282 105.363 334.551C108.419 337.522 111.658 340.314 115.063 342.909C108.848 342.331 102.654 341.201 96.5531 339.542C91.9676 335.186 87.7862 330.474 84.0635 325.458ZM66.541 133.485C69.2318 131.956 71.9539 130.579 74.7061 129.344C74.3518 126.366 74.1269 123.35 74.037 120.304C70.9359 121.309 67.8787 122.471 64.8678 123.807C65.2644 127.082 65.8246 130.31 66.541 133.485ZM79.8131 127.226C82.0905 126.356 84.3874 125.576 86.7032 124.879C87.3935 124.671 88.0858 124.47 88.7801 124.277C88.7745 123.838 88.7716 123.398 88.7716 122.958C88.7716 120.848 88.837 118.754 88.9657 116.678C85.7081 117.229 82.4906 117.915 79.3159 118.754C79.3589 121.61 79.5264 124.436 79.8131 127.226ZM235.531 45.4912C240.88 45.2861 246.232 45.5002 251.536 46.1208C247.081 41.952 242.234 38.1744 237.055 34.8451C231.558 34.8557 226.073 35.3057 220.651 36.2096C225.904 38.8207 230.883 41.9344 235.531 45.4912Z" fill="white"/>
<path d="M12.6951 329.618C16.3887 329.618 19.3828 326.62 19.3828 322.921C19.3828 319.222 16.3887 316.224 12.6951 316.224C9.00163 316.224 6.00743 319.222 6.00743 322.921C6.00743 326.62 9.00163 329.618 12.6951 329.618Z" fill="white"/>
<path d="M32.8551 353.573C29.7895 353.96 26.7304 352.839 24.1194 350.346C19.4752 345.912 19.0895 339.365 23.3947 334.843C27.6999 330.32 34.2487 330.395 38.9136 334.85C41.5039 337.321 42.7675 340.329 42.548 343.392L38.3629 343.324C38.4591 341.207 37.7675 339.4 36.2694 337.97C33.4661 335.293 29.598 335.365 26.9044 338.194C24.2109 341.023 24.3239 344.895 27.1278 347.572C28.6259 349.003 30.4597 349.608 32.5883 349.39L32.8551 353.573Z" fill="white"/>
<path fill-rule="evenodd" clip-rule="evenodd" d="M55.4812 362.936C51.663 367.803 45.0773 368.383 39.9623 364.357C34.8246 360.313 33.872 353.763 37.6721 348.92C41.4727 344.077 48.0526 343.456 53.1909 347.5C58.3059 351.525 59.3001 358.07 55.4812 362.936ZM41.4851 351.921C39.0552 355.018 39.5779 358.857 42.4837 361.144C45.3903 363.431 49.2384 363.032 51.6682 359.935C54.0981 356.839 53.576 353 50.6695 350.712C47.7636 348.426 43.9149 348.824 41.4851 351.921Z" fill="white"/>
<path fill-rule="evenodd" clip-rule="evenodd" d="M65.2365 366.715C68.7709 363.005 74.1982 362.374 78.8534 365.363C84.1554 368.766 85.6223 375.09 82.2866 380.3C78.9509 385.511 72.6008 386.815 67.2989 383.411C62.569 380.375 60.8813 375 62.9521 370.174L60.6624 368.703L56.1137 375.808L52.1059 373.234L63.2774 355.785L67.2852 358.358L62.8962 365.213L65.2365 366.715ZM67.9475 371.094C65.8092 374.435 66.6131 378.117 69.5015 379.971C72.3885 381.825 76.0658 381.02 78.2041 377.679C80.3424 374.339 79.5385 370.657 76.6515 368.803C73.7631 366.949 70.0865 367.754 67.9475 371.094Z" fill="white"/>
<path d="M99.5815 382.058C98.7529 383.893 97.0445 384.875 95.0451 384.847C96.8861 386.59 97.4516 388.861 96.4893 390.993C94.8815 394.554 90.0756 394.849 85.549 392.799C83.0425 391.665 80.6554 389.836 78.9203 387.426L81.6807 384.906C82.9301 386.739 84.812 388.176 86.6444 389.006C89.1237 390.128 91.5581 390.125 92.3503 388.371C92.9958 386.941 92.0191 385.654 90.0522 384.763L85.445 382.677L86.9308 379.386L91.2152 381.325C92.9938 382.13 94.3704 381.812 94.9308 380.57C95.625 379.032 94.3198 377.467 92.1912 376.503C90.6016 375.783 88.5477 375.373 86.5172 375.559L86.7314 371.561C89.2542 371.436 91.7367 371.975 93.8925 372.95C98.2575 374.927 101.128 378.631 99.5815 382.058Z" fill="white"/>
<path fill-rule="evenodd" clip-rule="evenodd" d="M125.41 406.744L120.574 405.369L120.023 400.595L110.778 397.966L107.802 401.737L103.08 400.394L117.61 382.978L122.161 384.272L125.41 406.744ZM118.572 388.146L113.25 394.882L119.565 396.678L118.572 388.146Z" fill="white"/>
<path fill-rule="evenodd" clip-rule="evenodd" d="M131.663 387.289L140.483 388.867C145.927 389.84 148.829 393.277 148.012 397.854C147.201 402.401 143.291 404.62 137.848 403.646L133.743 402.913L132.74 408.539L128.025 407.695L131.663 387.289ZM134.429 399.065L138.272 399.752C141.154 400.267 142.843 399.215 143.238 397C143.639 394.756 142.417 393.183 139.536 392.668L135.693 391.98L134.429 399.065Z" fill="white"/>
<path d="M173.598 392.854L172.059 413.526L167.577 413.184L168.486 400.81L161.634 410.534L159.507 410.372L154.183 399.958L153.262 412.094L148.78 411.753L150.349 391.084L154.3 391.385L161.06 404.818L169.647 392.553L173.598 392.854Z" fill="white"/>
<path fill-rule="evenodd" clip-rule="evenodd" d="M175.536 400.731C175.414 395.906 178.8 392.917 184.268 392.778L193.196 392.552L193.719 413.274L188.989 413.394L188.85 407.888L184.476 407.999L180.949 413.598L175.894 413.725L180.052 407.37C177.245 406.315 175.618 403.987 175.536 400.731ZM188.565 396.579L184.485 396.683C181.766 396.752 180.32 398.062 180.383 400.549C180.443 402.947 181.867 404.273 184.557 404.205L188.754 404.098L188.565 396.579Z" fill="white"/>
<path d="M211.4 398.812L210.371 390.704L215.124 390.098L217.733 410.663L212.981 411.267L211.911 402.836L202.582 404.023L203.652 412.454L198.9 413.059L196.291 392.495L201.043 391.891L202.072 399.998L211.4 398.812Z" fill="white"/>
<path fill-rule="evenodd" clip-rule="evenodd" d="M225.416 388.251L234.035 385.8C239.355 384.287 243.467 386.104 244.735 390.576C245.995 395.02 243.45 398.73 238.13 400.242L234.119 401.383L235.678 406.881L231.07 408.191L225.416 388.251ZM233.054 397.623L236.808 396.555C239.625 395.754 240.683 394.068 240.069 391.903C239.447 389.71 237.662 388.832 234.846 389.633L231.091 390.701L233.054 397.623Z" fill="white"/>
<path fill-rule="evenodd" clip-rule="evenodd" d="M267.646 385.023C269.914 390.781 267.089 396.766 261.037 399.156C254.958 401.556 248.831 399.074 246.575 393.344C244.318 387.614 247.104 381.611 253.184 379.211C259.236 376.821 265.379 379.265 267.646 385.023ZM251.086 391.562C252.529 395.226 256.102 396.712 259.54 395.354C262.979 393.996 264.578 390.468 263.134 386.804C261.692 383.14 258.119 381.654 254.68 383.012C251.242 384.37 249.643 387.898 251.086 391.562Z" fill="white"/>
<path d="M289.622 381.808C288.977 384.834 286.912 387.357 283.701 389.004C277.99 391.933 271.69 390.14 268.846 384.579C266.002 379.018 268.231 372.851 273.968 369.908C277.152 368.275 280.403 368.071 283.219 369.288L281.776 373.223C279.81 372.434 277.881 372.492 276.038 373.437C272.59 375.205 271.383 378.886 273.162 382.365C274.942 385.844 278.63 387.014 282.077 385.246C283.92 384.3 285.095 382.766 285.591 380.682L289.622 381.808Z" fill="white"/>
<path d="M307.141 370.752C306.79 373.826 304.978 376.537 301.941 378.487C296.539 381.955 290.096 380.78 286.729 375.52C283.361 370.26 284.985 363.906 290.411 360.422C293.424 358.488 296.64 357.971 299.559 358.91L298.503 362.966C296.471 362.371 294.555 362.616 292.813 363.734C289.552 365.828 288.705 369.608 290.811 372.899C292.918 376.189 296.702 376.997 299.963 374.903C301.705 373.785 302.727 372.143 303.019 370.021L307.141 370.752Z" fill="white"/>
<path d="M315.113 369.017L311.556 371.816L298.766 355.518L302.509 352.571L310.841 363.189L310.274 346.46L313.809 343.679L326.599 359.978L322.878 362.905L314.565 352.311L315.113 369.017Z" fill="white"/>
<path d="M333.719 353.418L330.445 356.545L316.161 341.542L319.607 338.252L328.911 348.025L326.755 331.427L330.008 328.321L344.291 343.324L340.867 346.593L331.583 336.842L333.719 353.418Z" fill="white"/>
<path d="M348.883 329.618C352.577 329.618 355.571 326.62 355.571 322.921C355.571 319.222 352.577 316.224 348.883 316.224C345.19 316.224 342.196 319.222 342.196 322.921C342.196 326.62 345.19 329.618 348.883 329.618Z" fill="white"/>
</g>
</svg>
