<svg width="285" height="146" viewBox="0 0 285 146" fill="none" xmlns="http://www.w3.org/2000/svg">
<path d="M0 0H285V146H0V0Z" fill="#4A4797"/>
<path d="M122.141 103.765L159.163 106.893C159.163 106.893 172.72 122.536 172.199 125.926C171.677 129.315 175.327 145.479 168.549 148.868C161.77 152.258 140.391 145.218 137.002 144.436C133.613 143.654 122.663 148.868 115.363 139.483C108.063 129.576 113.538 135.572 113.538 130.618C113.016 125.665 122.141 103.765 122.141 103.765Z" fill="#555659"/>
<path d="M167.246 103.504C166.204 103.764 165.682 104.025 165.682 104.286C165.682 105.068 166.725 104.546 170.114 106.111C165.547 107.435 160.769 107.877 156.036 107.414C156.626 106.259 157.064 105.032 157.339 103.764C157.665 103.116 157.843 102.404 157.861 101.679C161.511 101.157 159.946 100.636 163.857 100.114C163.857 99.8536 165.421 99.8536 165.421 99.5929C164.9 99.3321 167.768 98.8107 167.246 98.8107C166.705 98.4941 166.183 98.1459 165.682 97.7679C174.202 93.2707 180.717 85.7317 183.932 76.65C175.589 75.3464 172.2 72.4786 170.896 66.4821C168.024 65.8566 165.042 65.9582 162.219 66.7777C159.396 67.5972 156.823 69.1087 154.732 71.175C154.471 69.8714 154.471 68.8286 154.211 67.525C150.3 73.7821 149.257 74.825 146.65 75.3464C144.476 70.9021 142.982 66.1563 142.218 61.2679C140.914 67.2643 140.914 70.9143 138.307 76.1286C135.961 75.6071 133.875 73.5214 129.964 67.525C129.681 68.7235 129.506 69.9451 129.443 71.175C127.423 69.2737 124.939 67.936 122.239 67.2955C119.54 66.655 116.72 66.7341 114.061 67.525C112.757 73.5214 112.757 75.8679 104.414 77.4321C107.804 86.8179 112.496 93.3357 121.1 98.0286C120.37 98.4835 119.58 98.8345 118.754 99.0714C118.232 99.3321 117.971 99.8536 117.45 100.114C117.45 100.375 115.364 99.0714 115.364 99.3321C118.754 99.8536 122.664 101.157 126.054 101.939C126.38 102.587 126.558 103.3 126.575 104.025C126.851 105.293 127.289 106.52 127.879 107.675C123.146 108.138 118.368 107.696 113.8 106.371C118.232 105.85 118.232 105.329 118.232 104.546C118.232 104.286 118.232 103.504 116.929 103.243C102.068 101.679 95.55 89.6857 92.4214 84.4714C95.55 85.775 97.1143 86.8179 97.6357 86.0357C98.1571 85.2536 98.1571 84.9929 97.1143 84.2107C93.9857 81.0821 92.4214 70.9143 91.9 66.4821C93.9857 67.2643 97.6357 69.0893 101.025 68.0464C105.196 66.7429 108.586 63.0929 110.932 57.0964C111.193 57.0964 111.454 57.3571 111.714 57.3571L112.496 55.7929C112.626 55.5061 112.693 55.195 112.693 54.8804C112.693 54.5657 112.626 54.2546 112.496 53.9679C110.771 49.5556 109.802 44.8843 109.629 40.15C109.874 38.307 110.222 36.4791 110.671 34.675C113.538 36.0796 116.037 38.1327 117.971 40.6714C119.03 41.9522 120.162 43.1708 121.361 44.3214C123.186 46.1464 126.575 46.9286 127.096 44.3214C127.357 43.5393 126.575 42.7571 126.054 41.975C125.984 41.975 125.918 41.9475 125.869 41.8986C125.82 41.8497 125.793 41.7834 125.793 41.7143C128.661 40.6714 135.439 38.325 141.175 39.6286H141.957C142.218 39.6286 142.479 39.8893 142.739 39.6286C148.279 38.4864 154.017 38.7554 159.425 40.4107L160.729 42.4964C160.207 43.2786 158.904 44.0607 159.164 44.5821C159.946 45.625 160.207 46.1464 162.032 44.0607C163.086 42.6936 164.218 41.3879 165.421 40.15C168.161 37.0327 171.54 34.5428 175.329 32.85C175.589 34.4143 176.111 39.3679 176.111 40.6714C176.063 45.1678 175.086 49.6058 173.243 53.7071C172.982 54.2286 171.939 55.0107 172.2 55.7929C172.461 56.575 172.2 55.7929 172.461 56.3143C172.721 56.3143 173.504 56.8357 173.764 56.8357L173.504 57.3571C175.85 63.3536 178.979 65.9607 183.15 67.2643C186.589 67.9987 190.175 67.5389 193.318 65.9607C192.796 70.1321 189.407 81.0821 186.018 84.4714C185.236 85.2536 185.236 86.0357 185.496 86.2964C185.757 86.5571 188.364 85.2536 191.754 83.95C189.407 91.25 179.5 101.679 167.246 103.504Z" fill="#C3C2CE"/>
<path d="M191.753 74.3038C191.056 75.7965 189.856 76.9964 188.363 77.6931V73.0002C183.67 73.5216 175.588 74.0431 174.545 63.0931H174.285C172.247 61.7758 169.922 60.9707 167.506 60.7466C166.724 60.7466 165.942 60.4859 165.42 60.4859L167.245 57.3573C167.245 57.3573 156.556 56.8359 150.82 63.0931C150.038 63.8752 150.82 59.1823 150.82 59.1823C148.074 59.993 145.508 61.3203 143.26 63.0931L142.217 67.0038L141.174 63.0931C138.926 61.3203 136.359 59.993 133.613 59.1823C133.613 59.1823 134.395 63.6145 133.613 63.0931C127.617 56.8359 117.188 57.3573 117.188 57.3573L119.013 60.4859C118.308 60.4436 117.601 60.532 116.928 60.7466C114.561 61.1767 112.275 61.9681 110.149 63.0931H109.888C108.845 74.0431 100.763 73.5216 96.0704 73.0002V77.6931C95.2953 77.4045 94.5914 76.9524 94.0066 76.3676C93.4218 75.7828 92.9697 75.0789 92.6811 74.3038L92.4204 75.6073L92.6811 77.1716C99.7204 92.5538 107.02 94.9002 118.231 97.5074L121.62 97.7681L126.053 100.114L126.574 103.243C127.617 107.154 129.181 108.197 132.57 110.804L133.874 111.847L137.785 109.761L141.956 109.239L146.128 109.761L149.256 111.325L150.82 111.847C153.945 109.843 156.255 106.793 157.338 103.243L157.86 100.114L162.292 97.7681L165.681 97.5074C176.892 94.6395 185.235 90.7288 192.013 75.0859L191.753 74.3038Z" fill="white"/>
<path d="M139.87 95.1616C140.826 94.755 141.86 94.5674 142.898 94.6125C143.936 94.6576 144.95 94.9343 145.867 95.4223C146.293 95.5804 146.671 95.8474 146.963 96.1968C147.255 96.5463 147.45 96.9659 147.529 97.4141C147.608 97.8623 147.568 98.3234 147.414 98.7515C147.259 99.1796 146.996 99.5599 146.649 99.8545L146.388 100.115C143.26 104.287 141.174 103.244 138.306 99.3331C138.106 99.0684 137.967 98.7632 137.897 98.4389C137.828 98.1145 137.831 97.7789 137.906 97.4558C137.98 97.1326 138.125 96.8298 138.329 96.5685C138.533 96.3073 138.792 96.094 139.088 95.9438C139.088 95.4223 139.349 95.4223 139.87 95.1616Z" fill="#1E1E40"/>
<path d="M192.538 81.8636C191.756 82.1243 190.973 82.6457 190.191 82.9064C192.646 77.285 194.144 71.293 194.623 65.1778L194.884 62.8314L193.059 64.135C190.239 65.8204 186.887 66.3791 183.673 65.6993C180.284 64.6564 177.156 61.5278 175.07 56.0528V55.7921C175.053 55.6506 175.067 55.507 175.112 55.3718C175.158 55.2366 175.232 55.113 175.331 55.01C176.572 52.3077 177.618 49.5196 178.459 46.6671C180.117 41.8177 179.931 36.5277 177.938 31.8064C176.373 28.4171 176.373 28.4171 172.723 29.1993C167.577 30.6338 162.958 33.5321 159.427 37.5421C159.232 37.7707 158.993 37.9577 158.724 38.092C158.456 38.2264 158.163 38.3054 157.863 38.3243C152.975 36.4045 147.655 35.8634 142.481 36.76H141.959C136.785 35.8634 131.465 36.4045 126.577 38.3243C126.277 38.3054 125.984 38.2264 125.715 38.092C125.447 37.9577 125.208 37.7707 125.013 37.5421C121.41 33.6179 116.817 30.7361 111.716 29.1993C108.066 28.1564 108.066 28.4171 106.502 31.8064C104.213 36.5227 103.84 41.942 105.459 46.9278C106.241 49.7957 107.545 52.1421 108.588 55.2707C108.571 55.4122 108.585 55.5558 108.63 55.691C108.675 55.8263 108.75 55.9498 108.848 56.0528V56.3136C106.763 61.5279 104.156 64.9171 100.245 65.96C98.6545 66.3295 97.0067 66.3815 95.3962 66.1131C93.7856 65.8447 92.2438 65.2611 90.8592 64.3957L89.0342 63.0921L89.8163 65.1778C90.2959 71.293 91.7939 77.285 94.2485 82.9064C93.4663 82.6457 92.6842 82.1243 91.902 81.8636L89.0342 80.56L90.3378 83.4279C90.5985 84.21 97.8985 99.3314 111.977 104.024C110.673 104.285 109.37 104.285 108.066 104.546L104.416 105.067L107.806 106.892C113.372 108.716 119.161 109.768 125.013 110.021C126.418 109.992 127.816 109.817 129.184 109.499C129.741 110.321 130.449 111.028 131.27 111.585C131.853 111.975 132.463 112.323 133.095 112.628H133.877L136.223 111.324C136.646 111.526 137.082 111.7 137.527 111.846C138.914 112.497 140.427 112.834 141.959 112.834C143.491 112.834 145.005 112.497 146.391 111.846L147.695 111.324L150.041 112.628H150.823C151.506 112.43 152.131 112.072 152.648 111.585C153.408 110.957 154.106 110.259 154.734 109.499C156.103 109.817 157.501 109.992 158.906 110.021C164.754 109.738 170.539 108.686 176.113 106.892L180.806 105.328L175.852 104.806C174.548 104.546 173.245 104.546 171.941 104.285C186.02 99.5921 193.32 84.21 193.581 83.6886L194.884 80.8207L192.538 81.8636ZM150.563 110.281C146.652 107.935 144.306 106.631 142.22 106.631C140.134 106.631 138.048 107.674 133.877 110.281C127.881 106.892 127.359 95.9421 130.227 90.7279C130.691 91.7283 131.041 92.7778 131.27 93.8564C132.027 91.7259 132.898 89.6372 133.877 87.5993C135.702 84.21 136.223 83.4279 136.223 83.4279C138.309 80.2993 145.87 80.2993 147.695 83.4279C148.67 84.7007 149.46 86.1051 150.041 87.5993C151.112 89.595 151.986 91.6907 152.648 93.8564C152.909 92.8136 153.431 91.7707 153.691 90.7279C156.82 96.2029 156.298 107.153 150.563 110.281ZM126.316 84.9921C122.927 84.21 121.363 81.6029 119.538 80.0386C123.709 80.56 130.227 82.1243 131.531 83.4279C130.918 84.1804 130.093 84.7318 129.164 85.0107C128.234 85.2896 127.242 85.2831 126.316 84.9921ZM152.909 83.4279C154.213 82.1243 160.731 80.56 164.902 80.0386C163.187 82.3291 160.827 84.0542 158.123 84.9921C157.196 85.2623 156.21 85.2584 155.285 84.9808C154.36 84.7032 153.535 84.1639 152.909 83.4279ZM167.248 103.503C166.206 103.764 163.859 104.024 164.12 104.024C164.381 104.546 165.684 104.546 170.377 106.11C165.809 107.434 161.032 107.877 156.298 107.414C156.888 106.258 157.326 105.031 157.602 103.764C157.928 103.115 158.106 102.403 158.123 101.678C161.773 101.156 165.423 100.374 169.073 99.8529C168.59 99.5713 168.151 99.2199 167.77 98.81C167.228 98.4934 166.706 98.1452 166.206 97.7671C174.725 93.27 181.241 85.7309 184.456 76.6493C176.113 75.3457 172.723 72.4779 171.42 66.4814C168.548 65.8559 165.565 65.9574 162.742 66.777C159.92 67.5965 157.346 69.108 155.256 71.1743C154.995 69.8707 154.995 68.8279 154.734 67.5243C150.823 73.7814 149.781 74.8243 147.173 75.3457C144.875 69.8532 143.383 64.0577 142.741 58.1386C141.438 64.135 140.916 69.8707 138.309 75.3457C135.963 74.8243 134.92 73.7814 130.748 67.5243C130.465 68.7228 130.291 69.9444 130.227 71.1743C128.162 69.0711 125.59 67.5347 122.759 66.7128C119.928 65.891 116.933 65.8113 114.063 66.4814C112.759 72.4779 109.37 75.3457 101.027 76.6493C104.306 85.6937 110.803 93.2122 119.277 97.7671C118.82 98.2028 118.291 98.5556 117.713 98.81C117.191 99.0707 116.931 99.0707 116.409 99.3314C119.798 99.8529 122.927 101.678 126.316 102.46C126.577 102.981 127.62 103.242 127.62 104.024C127.895 105.292 128.334 106.519 128.923 107.674C124.19 108.137 119.412 107.695 114.845 106.371C119.277 105.849 119.277 105.328 119.277 104.546C119.277 104.285 119.277 103.503 117.973 103.242C105.72 101.678 97.8985 90.9886 94.7699 85.5136C97.8985 86.8171 99.4628 87.86 99.9842 87.3386C100.506 86.8171 98.9413 85.7743 98.1592 84.7314C95.552 81.0814 93.727 71.6957 93.2056 67.2636C96.0869 68.4872 99.2831 68.7612 102.331 68.0457C106.502 66.7421 109.891 63.0921 112.238 57.0957C112.498 57.0957 112.759 57.3564 113.02 57.3564L113.802 55.7921C113.932 55.5054 113.999 55.1943 113.999 54.8796C113.999 54.565 113.932 54.2539 113.802 53.9671C112.077 49.5549 111.107 44.8836 110.934 40.1493C110.995 38.747 111.17 37.352 111.456 35.9778C114.396 37.2606 116.989 39.2271 119.016 41.7136C120.071 43.0806 121.202 44.3863 122.406 45.6243C122.831 46.0691 123.364 46.3972 123.953 46.5772C124.542 46.7572 125.167 46.783 125.769 46.6522C126.371 46.5214 126.929 46.2383 127.39 45.8301C127.851 45.4219 128.199 44.9022 128.402 44.3207C128.663 43.5386 127.881 42.7564 127.359 41.9743C127.29 41.9743 127.224 41.9468 127.175 41.8979C127.126 41.849 127.098 41.7827 127.098 41.7136C129.966 40.6707 136.745 38.3243 142.481 39.6278H143.784C149.005 38.7937 154.356 39.5192 159.166 41.7136H157.863C157.341 42.4957 156.559 43.5386 156.82 44.06C157.016 44.6465 157.362 45.172 157.823 45.5848C158.283 45.9977 158.843 46.2838 159.448 46.4152C160.052 46.5466 160.681 46.5188 161.271 46.3345C161.861 46.1501 162.394 45.8155 162.816 45.3636C163.871 43.9965 165.002 42.6908 166.206 41.4528C168.211 38.9436 170.809 36.9726 173.766 35.7171C174.052 37.0913 174.227 38.4863 174.288 39.8886C174.24 44.6372 173.266 49.3309 171.42 53.7064C171.29 53.9932 171.223 54.3042 171.223 54.6189C171.223 54.9336 171.29 55.2447 171.42 55.5314L172.202 57.0957C172.463 57.0957 172.723 56.835 172.984 56.835C175.331 62.8314 178.72 66.4814 182.891 67.785C185.925 68.666 189.177 68.3872 192.016 67.0029C191.25 72.8735 189.579 78.59 187.063 83.9493C186.281 85.2529 184.977 86.5564 185.238 86.8171C185.498 87.0779 187.063 86.5564 189.931 85.2529C187.063 90.4671 179.502 101.678 167.248 103.503Z" fill="#1E1E40"/>
<path d="M142.479 97.7689C143.775 97.7689 144.825 97.4187 144.825 96.9867C144.825 96.5548 143.775 96.2046 142.479 96.2046C141.183 96.2046 140.132 96.5548 140.132 96.9867C140.132 97.4187 141.183 97.7689 142.479 97.7689Z" fill="white"/>
<path d="M124.229 100.895L131.529 109.76C134.125 113.049 136.152 116.751 137.525 120.71C139.872 128.27 141.436 125.924 142.74 136.874L142.479 149.649L126.315 148.606C126.315 148.606 124.229 147.563 112.757 122.013C111.975 120.188 109.107 102.72 109.107 102.72L120.579 101.156H124.229V100.895Z" fill="#4A4797"/>
<path d="M124.487 99.8546C124.227 100.897 124.227 101.68 123.966 102.722L130.484 110.805L132.048 113.151C133.9 115.676 135.311 118.497 136.219 121.494C137.002 124.101 138.305 126.708 139.348 129.837C139.869 131.14 141.694 134.269 142.216 136.094C142.737 135.312 142.737 132.965 143.259 132.183C142.998 131.401 141.694 130.097 141.434 129.315C140.252 126.677 139.208 123.979 138.305 121.233C137.306 117.982 135.811 114.904 133.873 112.108C133.292 111.368 132.769 110.583 132.309 109.762L124.487 100.376V99.8546Z" fill="#1E1E40"/>
<path d="M212.61 134.528C212.87 125.403 210.002 124.099 203.224 118.364C196.967 113.149 183.67 110.281 183.67 110.281C183.67 108.717 184.713 100.896 184.974 99.5921C186.799 93.0742 186.017 92.5528 186.017 92.5528C179.784 92.7163 173.583 93.5023 167.506 94.8992C161.895 95.8209 156.238 96.4302 150.56 96.7242L152.124 104.806H145.606L145.867 120.971L142.217 140.785C142.217 140.785 141.174 155.124 137.785 149.389C134.656 144.174 134.656 144.956 132.31 140.785C126.313 131.399 128.66 135.831 119.274 121.231C117.71 118.885 126.052 115.496 125.531 112.889L123.967 107.674L124.749 101.156L103.37 97.5064L103.892 99.8528C104.206 101.363 104.641 102.845 105.195 104.285C105.977 106.371 107.02 108.456 108.063 110.803L108.845 112.367C108.845 112.367 89.0309 112.106 81.7309 123.317C79.3977 126.407 77.5513 129.836 76.2559 133.485C74.9361 137.697 74.5797 142.152 75.2131 146.521L77.8202 149.128L156.556 150.431L211.827 147.824C211.827 148.085 212.349 141.046 212.61 134.528Z" fill="#2E2C55"/>
<path d="M141.174 152.779L73.6492 149.389C73.5903 143.73 73.8514 138.072 74.4314 132.443C75.6846 128.957 77.6364 125.763 80.1671 123.057C89.0314 113.15 102.067 111.325 106.76 111.064C105.648 108.964 104.69 106.785 103.892 104.546C103.371 102.982 103.11 101.679 102.589 100.114L101.806 95.9429L125.792 100.114L124.749 107.675L126.053 112.889C126.574 114.975 124.489 116.539 122.664 118.104C121.881 118.886 120.056 120.189 120.056 120.711C121.099 122.796 125.792 129.314 129.703 135.05L133.092 140.004C134.79 142.528 136.356 145.139 137.785 147.825C139.089 150.171 140.653 147.043 140.653 147.043L140.392 140.525L144.042 120.711L144.303 103.504H150.821L149.256 95.4214H150.821C156.325 95.1144 161.808 94.5051 167.246 93.5964C173.311 92.1352 179.519 91.3483 185.756 91.25H186.017L186.278 91.5107C187.06 92.0321 187.581 93.3357 185.756 99.8536C185.496 101.157 184.714 106.893 184.453 109.239C187.581 110.021 198.01 112.368 203.485 117.321C210.524 123.579 213.914 126.446 213.131 135.832C212.089 152.779 212.871 149.911 212.871 149.911L141.174 152.779ZM147.171 106.111L146.91 120.971L143.781 147.825L175.328 147.564L206.614 147.304L211.306 146.782V135.311C211.567 126.186 208.699 124.882 202.181 119.407C196.185 114.454 183.41 111.586 183.41 111.586L182.628 111.325V110.282C182.628 108.457 183.671 100.636 183.931 99.0714C184.425 97.3658 184.774 95.6215 184.974 93.8571C179.177 94.0905 173.415 94.8762 167.767 96.2036C162.587 97.0783 157.366 97.6875 152.124 98.0286L153.689 106.111H147.171ZM76.5171 148.346L116.667 149.389C116.406 148.868 141.435 154.082 131.267 141.307L127.878 136.354C123.706 130.096 119.274 124.1 118.231 122.014C117.189 119.929 119.274 118.104 121.36 116.279C122.403 115.496 124.228 113.932 123.967 113.411L122.403 107.675L122.924 101.939L104.414 98.8107L104.674 99.5929C104.935 100.896 105.456 102.461 105.717 103.764C106.455 105.943 107.416 108.04 108.585 110.021L110.41 113.411H108.324C106.499 113.411 93.2028 113.932 84.3385 122.275C81.1015 125.217 78.601 128.879 77.0385 132.964C76.6092 134.311 76.4325 135.725 76.5171 137.136C76.2011 140.866 76.2011 144.616 76.5171 148.346Z" fill="#1E1E40"/>
<path d="M115.366 116.8C115.225 116.817 115.081 116.803 114.946 116.758C114.811 116.713 114.687 116.638 114.584 116.54C113.684 115.481 112.566 114.63 111.305 114.045C110.045 113.46 108.673 113.155 107.284 113.15C106.946 113.126 106.629 112.981 106.389 112.742C106.15 112.502 106.005 112.184 105.98 111.847C105.969 111.673 105.995 111.498 106.056 111.335C106.118 111.171 106.213 111.023 106.337 110.899C106.46 110.776 106.608 110.68 106.772 110.619C106.935 110.557 107.11 110.532 107.284 110.543C110.631 110.659 113.806 112.06 116.148 114.454C116.67 114.975 116.67 115.757 116.148 116.018C115.627 116.279 115.627 116.8 115.366 116.8ZM98.4197 149.911C97.6376 149.911 97.1162 149.39 97.3769 148.607C97.3769 148.607 97.8983 138.961 97.6376 135.832C97.6376 135.311 97.8983 134.529 98.6804 134.529C99.4626 134.529 99.984 134.79 99.984 135.572C100.198 140.005 100.111 144.447 99.7233 148.868C99.6124 149.138 99.4345 149.376 99.2065 149.558C98.9784 149.741 98.7077 149.862 98.4197 149.911ZM189.93 149.911C189.247 149.881 188.599 149.603 188.105 149.129C186.28 147.565 185.759 143.132 186.541 136.875C186.541 136.354 187.323 135.832 187.845 135.832C188.366 135.832 188.888 136.615 188.888 137.136C188.105 144.697 189.148 146.782 189.67 147.304C190.191 147.825 189.93 147.565 190.191 147.565C190.452 147.565 191.495 147.825 191.495 148.347C191.495 148.868 191.234 149.65 190.452 149.65C190.191 149.911 190.191 149.911 189.93 149.911ZM157.863 122.536C157.721 122.553 157.577 122.538 157.442 122.493C157.307 122.448 157.183 122.374 157.08 122.275C156.559 121.754 156.559 120.972 157.08 120.711C170.377 108.718 183.413 109.24 183.934 109.24C184.088 109.257 184.237 109.304 184.373 109.379C184.509 109.454 184.629 109.554 184.725 109.675C184.822 109.796 184.894 109.935 184.937 110.084C184.981 110.233 184.994 110.389 184.977 110.543C184.96 110.697 184.912 110.846 184.838 110.982C184.763 111.118 184.662 111.238 184.541 111.335C184.42 111.431 184.281 111.503 184.132 111.547C183.983 111.59 183.827 111.603 183.673 111.586C174.224 111.954 165.233 115.755 158.384 122.275C158.384 122.536 158.123 122.536 157.863 122.536Z" fill="#1E1E40"/>
<path d="M156.296 116.278C155.775 116.278 155.253 116.017 155.253 115.495C155.193 115.342 155.165 115.177 155.172 115.013C155.179 114.848 155.221 114.686 155.295 114.538C155.368 114.391 155.473 114.26 155.6 114.156C155.728 114.051 155.876 113.975 156.036 113.931C164.663 110.55 173.887 108.954 183.15 109.238C183.461 109.273 183.746 109.43 183.941 109.674C184.137 109.919 184.227 110.231 184.193 110.542C184.158 110.853 184.001 111.138 183.757 111.333C183.512 111.529 183.2 111.619 182.889 111.585C174.002 111.474 165.169 112.976 156.818 116.017C156.682 116.166 156.496 116.259 156.296 116.278Z" fill="#1E1E40"/>
</svg>
