<?xml version="1.0" standalone="no"?>
<!DOCTYPE svg PUBLIC "-//W3C//DTD SVG 1.1//EN" "http://www.w3.org/Graphics/SVG/1.1/DTD/svg11.dtd" >
<svg xmlns="http://www.w3.org/2000/svg" xmlns:xlink="http://www.w3.org/1999/xlink" version="1.1">
<metadata>
Created by FontForge 20200511 at Fri Nov  2 15:52:42 2012
 By convertio
Created by gluk (gluksza@wp.pl | www.glukfonts.pl) with FontForge.
This Font is licensed unter SIL Open Font License v.1.1.
</metadata>
<defs>
<font id="FoglihtenNo06" horiz-adv-x="1314" >
  <font-face 
    font-family="FoglihtenNo06"
    font-weight="500"
    font-stretch="normal"
    units-per-em="2048"
    panose-1="0 0 6 0 0 0 0 0 0 0"
    ascent="1583"
    descent="-465"
    x-height="1473"
    cap-height="1473"
    bbox="-37 -500 2327 1950"
    underline-thickness="34"
    underline-position="-288"
    unicode-range="U+000D-E000"
  />
<missing-glyph horiz-adv-x="748" 
d="M68 0v1365h544v-1365h-544zM136 68h408v1229h-408v-1229z" />
    <glyph glyph-name=".notdef" horiz-adv-x="748" 
d="M68 0v1365h544v-1365h-544zM136 68h408v1229h-408v-1229z" />
    <glyph glyph-name="glyph1" horiz-adv-x="2048" 
 />
    <glyph glyph-name="glyph1" horiz-adv-x="2048" 
 />
    <glyph glyph-name="uni000D" unicode="&#xd;" horiz-adv-x="604" 
 />
    <glyph glyph-name="space" unicode=" " horiz-adv-x="544" 
 />
    <glyph glyph-name="exclam" unicode="!" horiz-adv-x="471" 
d="M145 72q0 41 24.5 66.5t66.5 25.5q40 0 66 -25t26 -67q0 -40 -25 -65t-67 -25q-41 0 -66 24t-25 66zM164 1499q0 19 72 19q73 0 73 -19q0 -199 -26.5 -540t-26.5 -541h-37q0 200 -27.5 541t-27.5 540z" />
    <glyph glyph-name="quotedbl" unicode="&#x22;" horiz-adv-x="417" 
d="M72 1266l20 293q40 -2 56 -10.5t16 -35.5q0 -33 -12 -118l-17 -133zM236 1266l20 293q40 -2 56 -10.5t16 -35.5q0 -25 -13 -118l-16 -133z" />
    <glyph glyph-name="numbersign" unicode="#" horiz-adv-x="944" 
d="M55 457v39h219l33 305h-217v41h219l35 329l39 -4l-35 -325h270l35 329l39 -4l-35 -325h234v-41h-238l-30 -305h231v-39h-236l-34 -344l-39 4l35 340h-271l-35 -344l-38 4l34 340h-215zM313 496h271l32 305h-272z" />
    <glyph glyph-name="dollar" unicode="$" horiz-adv-x="995" 
d="M57 584l37 1l4 -84q9 -178 116 -288t256 -110h1v604q-154 64 -212 101q-146 92 -158 239q-1 13 -1 28q0 142 101.5 232.5t269.5 98.5v138h35v-137q149 0 270 -90q9 -7 20 -23.5t13 -23.5l14 4q-5 16 -8 65l-6 109h20l23 -483l-37 -2l-4 86q-7 132 -85 226t-220 95v-518
q15 -6 46 -19q37 -15 55.5 -23t53 -23.5t53.5 -26.5t48.5 -28.5t46.5 -33.5t38.5 -37t34 -43.5t24.5 -49.5t17 -58t5 -66q0 -175 -111 -272t-311 -105v-139h-35v138q-91 0 -167 27t-157 83q-11 8 -29 31.5t-22 36.5l-8 -2q5 -17 8 -88l6 -129h-18zM244 1120q0 -48 17 -87
t50.5 -69t70 -51.5t89.5 -45.5v502q-110 -8 -168.5 -72t-58.5 -177zM506 105q126 10 197 89.5t71 217.5q0 55 -20 98.5t-62 77t-82.5 55.5t-103.5 49v-587z" />
    <glyph glyph-name="percent" unicode="%" horiz-adv-x="1325" 
d="M90 1098q0 127 78.5 205.5t206.5 78.5q127 0 204.5 -78t77.5 -206t-77.5 -205.5t-204.5 -77.5q-128 0 -206.5 78t-78.5 205zM169 154l973 1067l27 -25l-972 -1067zM209 1110q0 -127 42.5 -193.5t123.5 -66.5t123.5 60t42.5 175q0 127 -43 194t-125 67q-80 0 -122 -60.5
t-42 -175.5zM670 266q0 128 77.5 205.5t204.5 77.5q128 0 206.5 -78t78.5 -205t-78.5 -205.5t-206.5 -78.5q-127 0 -204.5 78t-77.5 206zM786 279q0 -127 43 -194t125 -67q80 0 122 60t42 174q0 127 -42.5 193.5t-123.5 66.5t-123.5 -59.5t-42.5 -173.5z" />
    <glyph glyph-name="ampersand" unicode="&#x26;" horiz-adv-x="1239" 
d="M63 383q0 162 95.5 278t247.5 136v2q-80 15 -134 94.5t-54 175.5q0 125 91 202t240 77q93 0 158 -27q46 -18 69 -59l4 2q-2 8 -2 34v43h19v-274h-19v33q-8 109 -73 160t-156 51q-103 0 -165.5 -64.5t-62.5 -169.5q0 -104 59 -186t152 -82h33v-37h-43q-140 0 -218.5 -102
t-78.5 -287q0 -158 101 -254t267 -96q175 0 282.5 88t107.5 231q0 103 -64 180.5t-167 77.5v1q-77 -7 -118.5 -40.5t-41.5 -107.5v-10h-37v18q0 61 18 106.5t44.5 71t71 42.5t81.5 24t92 12q139 13 172 21q112 24 134 102q7 23 7 51q0 16 -1 25h28l4 -56q1 -12 1 -35
q0 -58 -15.5 -99t-39.5 -64.5t-63.5 -37t-77 -17.5t-90.5 -4q-6 0 -20 0.5t-21 0.5q65 -38 103.5 -111t38.5 -156q0 -164 -129.5 -263.5t-341.5 -99.5q-219 0 -353.5 109.5t-134.5 289.5z" />
    <glyph glyph-name="quotesingle" unicode="'" horiz-adv-x="253" 
d="M72 1266l20 293q40 -2 56 -10.5t16 -35.5q0 -33 -12 -118l-17 -133z" />
    <glyph glyph-name="parenleft" unicode="(" horiz-adv-x="528" 
d="M72 571q0 302 103 580t300 475l26 -26q-135 -135 -209.5 -420t-74.5 -617t74.5 -617.5t209.5 -419.5l-26 -26q-192 192 -297.5 476.5t-105.5 594.5z" />
    <glyph glyph-name="parenright" unicode=")" horiz-adv-x="528" 
d="M29 -474q134 134 208 419.5t74 617.5t-74 617.5t-208 419.5l26 26q196 -196 299 -474t103 -581q0 -310 -105.5 -595t-296.5 -476z" />
    <glyph glyph-name="asterisk" unicode="*" horiz-adv-x="544" 
d="M68 1212l4 7q8 4 85 40.5t85 40.5h4v7l-4 -2q-8 4 -85 42t-85 42q-4 2 -4 6l22 41h8q8 -4 79 -53.5t79 -53.5l2 -4l4 2l-4 4q0 9 -6 95.5t-6 95.5q2 4 4 6h47l2 -6q0 -9 -6 -95.5t-6 -95.5l-4 -4l4 -2l2 4q8 4 80 53.5t80 53.5h6l22 -41l-2 -6q-8 -4 -86 -42t-86 -42
l-4 2v-7h4q8 -4 86 -40.5t86 -40.5q2 -3 2 -7l-22 -41h-6q-8 4 -80 53.5t-80 53.5l-2 4l-4 -2l4 -4q0 -9 6 -95.5t6 -95.5q0 -4 -2 -6h-47l-4 6q0 9 6 95.5t6 95.5l4 4l-4 2l-2 -4q-8 -4 -79 -53.5t-79 -53.5h-8z" />
    <glyph glyph-name="plus" unicode="+" horiz-adv-x="888" 
d="M55 618l2 56h365v370l55 -2v-368h359l-5 -56h-354v-358l-55 4v354h-367z" />
    <glyph glyph-name="comma" unicode="," horiz-adv-x="399" 
d="M109 72q0 44 24 68t68 24q41 0 65.5 -25.5t24.5 -66.5q0 -115 -46.5 -185.5t-121.5 -70.5v18q40 0 74.5 34.5t42.5 78.5q1 6 2.5 16.5l2.5 17.5t3 11l-6 4q-11 -14 -41 -14q-92 0 -92 90z" />
    <glyph glyph-name="hyphen" unicode="-" horiz-adv-x="581" 
d="M37 563l8 55h502l-10 -55h-500z" />
    <glyph glyph-name="period" unicode="." horiz-adv-x="399" 
d="M109 72q0 40 25 66t67 26q40 0 65 -25t25 -67q0 -40 -24 -65t-66 -25q-41 0 -66.5 24t-25.5 66z" />
    <glyph glyph-name="slash" unicode="/" horiz-adv-x="999" 
d="M37 -352l878 1855l48 -24l-877 -1856z" />
    <glyph glyph-name="zero" unicode="0" horiz-adv-x="1112" 
d="M63 737q0 338 136 545t358 207t358 -207t136 -545q0 -339 -136 -546t-358 -207t-358 207t-136 546zM217 809q0 -385 88.5 -587t257.5 -202q163 0 248.5 165t85.5 479q0 385 -89 586.5t-259 201.5q-162 0 -247 -164.5t-85 -478.5z" />
    <glyph glyph-name="one" unicode="1" horiz-adv-x="649" 
d="M20 0v18h132q74 0 92 20.5t18 106.5v959q0 76 6 119l-8 4q-26 -39 -51 -64l-136 -156l-15 11l79 100q244 312 244 371h27v-1344q0 -86 17.5 -106.5t90.5 -20.5h113v-18h-609z" />
    <glyph glyph-name="two" unicode="2" horiz-adv-x="948" 
d="M72 0v123q19 2 75 42t99 97q103 136 178 245.5t141.5 226t100.5 219.5t34 190q0 151 -65.5 230t-190.5 79q-83 0 -145 -41t-93 -100.5t-42 -132.5v-70h-35v360h18v-88q57 51 137 80t160 29q181 0 291.5 -102t110.5 -269q0 -82 -35 -176.5t-90.5 -182.5t-139.5 -189.5
t-165.5 -185.5t-184.5 -183q-69 -66 -86 -74l7 -10q70 10 118 10h301q65 0 106 3.5t81 15t62.5 34t37.5 60t19 92.5l4 58l22 -1l-22 -389h-809z" />
    <glyph glyph-name="three" unicode="3" horiz-adv-x="962" 
d="M72 133v256h37v-63q5 -55 27 -108t59 -98t95.5 -72.5t127.5 -27.5q156 0 237.5 97t81.5 282q0 188 -83.5 308t-221.5 120h-186v37h155q122 0 196.5 91.5t74.5 228.5q0 131 -64.5 199.5t-187.5 68.5q-69 0 -122 -25t-83.5 -68t-47 -90t-20.5 -100v-67h-34v366h18v-82l6 -2
q6 11 19.5 24t25.5 19q99 58 236 62q172 0 276.5 -82.5t104.5 -218.5q0 -115 -74.5 -216t-173.5 -120v-2q148 -20 244 -152.5t96 -298.5q0 -187 -130 -301t-343 -114q-86 0 -180 38.5t-166 110.5z" />
    <glyph glyph-name="four" unicode="4" horiz-adv-x="999" 
d="M37 291v45l19 37q20 37 50 95.5t69 136t81.5 169t83.5 184.5t79 192t64 182q16 51 16 77q0 43 -79 43v21q144 0 190.5 12.5t75.5 68.5l12 -4l-604 -1188h561v492h146v-492h129v-71h-129v-146q0 -86 20.5 -106.5t106.5 -20.5h35v-18h-531v18h94q87 0 108 20.5t21 106.5
v146h-618z" />
    <glyph glyph-name="five" unicode="5" horiz-adv-x="962" 
d="M72 135v254h37v-63q2 -51 23.5 -104t59.5 -98.5t97.5 -74.5t128.5 -29q156 0 237.5 116t81.5 337t-81.5 336t-237.5 115q-76 0 -152.5 -26.5t-130.5 -68.5h-35l37 574q3 70 10 70h547q75 0 94.5 15t28.5 83v11l21 -1l-15 -235h-526q-35 0 -52 -0.5t-34.5 -5.5t-23.5 -9.5
t-12 -21.5t-7.5 -31.5t-3.5 -48.5l-25 -350q59 38 133 60t146 22q215 0 344 -131t129 -357q0 -214 -131 -351.5t-342 -137.5q-88 2 -183 40.5t-163 110.5z" />
    <glyph glyph-name="six" unicode="6" horiz-adv-x="999" 
d="M72 674q0 242 58 427t163.5 286.5t243.5 101.5q33 -1 65 -6.5t59.5 -17t49.5 -22.5t45.5 -28t35.5 -26.5t31 -26t23 -19.5v-210h-19v28q-11 53 -29.5 99t-51.5 92t-86.5 73t-122.5 27q-99 0 -170.5 -102.5t-106.5 -272.5t-35 -385h8q46 115 130 175.5t182 60.5
q172 0 277.5 -132.5t105.5 -349.5q0 -214 -117 -338t-311 -124q-127 0 -224.5 85.5t-150.5 242.5t-53 362zM233 459q17 -211 85.5 -325t181.5 -114q133 0 202.5 109t69.5 317q0 217 -61.5 331t-178.5 114q-53 0 -106 -32t-95.5 -87t-69.5 -137.5t-28 -175.5z" />
    <glyph glyph-name="seven" unicode="7" horiz-adv-x="925" 
d="M43 1133l23 340h825v-103q-21 -6 -60 -50t-88 -117t-99.5 -180t-92.5 -227.5t-69 -272t-27 -302.5v-221h-146v98q0 159 51 356t124 362.5t142 291t115 180.5q35 44 58 53l-2 13q-21 -8 -152 -8h-452q-77 0 -97 -15.5t-24 -83.5l-9 -114h-20z" />
    <glyph glyph-name="eight" unicode="8" horiz-adv-x="1052" 
d="M72 420q0 164 95 287t245 143v2q-101 19 -173.5 110.5t-72.5 204.5q0 145 99 233.5t261 88.5q163 0 263 -88.5t100 -233.5q0 -113 -73.5 -204.5t-174.5 -110.5v-2q150 -20 245 -143t95 -287q0 -196 -125 -316t-330 -120t-329.5 119.5t-124.5 316.5zM227 420
q0 -195 76.5 -297.5t222.5 -102.5q147 0 224 102.5t77 297.5q0 199 -77 303t-224 104q-146 0 -222.5 -104t-76.5 -303zM293 1163q0 -146 59.5 -222.5t173.5 -76.5q115 0 175.5 77t60.5 222q0 141 -60.5 215t-175.5 74q-114 0 -173.5 -74t-59.5 -215z" />
    <glyph glyph-name="nine" unicode="9" horiz-adv-x="999" 
d="M72 1026q0 215 117 339t311 124q127 0 224.5 -85.5t150.5 -242.5t53 -362q0 -242 -58 -427t-163.5 -286.5t-243.5 -101.5q-33 1 -65 6.5t-60 17t-49.5 22t-45 27.5t-35.5 26t-31.5 26t-22.5 20v211h18v-29q11 -53 30 -99.5t52 -92t86.5 -72.5t122.5 -27q99 0 170.5 102.5
t106 272.5t34.5 385h-8q-46 -114 -129.5 -174.5t-181.5 -60.5q-172 0 -277.5 132.5t-105.5 348.5zM227 1026q0 -217 61.5 -330.5t178.5 -113.5q53 0 106 32t95.5 87t69.5 137.5t28 175.5q-17 211 -85 324.5t-181 113.5q-133 0 -203 -109t-70 -317z" />
    <glyph glyph-name="colon" unicode=":" horiz-adv-x="399" 
d="M109 72q0 40 25 66t67 26q40 0 65 -25t25 -67q0 -40 -24 -65t-66 -25q-41 0 -66.5 24t-25.5 66zM109 791q0 40 25 66t67 26q40 0 65 -25t25 -67q0 -41 -24 -66t-66 -25q-41 0 -66.5 24.5t-25.5 66.5z" />
    <glyph glyph-name="semicolon" unicode=";" horiz-adv-x="399" 
d="M109 72q0 44 24 68t68 24q41 0 65.5 -25.5t24.5 -66.5q0 -115 -46.5 -185.5t-121.5 -70.5v37q38 0 67.5 33t36.5 69q2 15 13 37l-7 4q-11 -14 -32 -14q-92 0 -92 90zM109 791q0 40 25 66t67 26q40 0 65 -25t25 -67q0 -41 -24 -66t-66 -25q-41 0 -66.5 24.5t-25.5 66.5z
" />
    <glyph glyph-name="less" unicode="&#x3c;" horiz-adv-x="761" 
d="M31 633v24l596 476l71 -74l-460 -307q-14 -9 -40 -26.5t-41 -28t-34 -22t-32.5 -18t-22.5 -8.5v-8q9 -2 21.5 -7.5t33.5 -18.5t33 -21t42.5 -28.5t39.5 -26.5l460 -308l-71 -73z" />
    <glyph glyph-name="equal" unicode="=" horiz-adv-x="944" 
d="M72 471l8 55h790l-6 -55h-792zM72 762l8 55h790l-6 -55h-792z" />
    <glyph glyph-name="greater" unicode="&#x3e;" horiz-adv-x="761" 
d="M63 231l461 312q17 11 48 32.5t47 32t35 21t30 12.5v8q-11 2 -29.5 12.5t-35.5 21.5t-47 32t-48 33l-461 311l72 74l596 -476v-24l-596 -475z" />
    <glyph glyph-name="question" unicode="?" horiz-adv-x="825" 
d="M66 1120v393h20v-79q54 43 125.5 67.5t142.5 26.5q182 0 294 -90.5t112 -237.5q0 -74 -40.5 -146.5t-98 -130t-114.5 -111.5t-97.5 -109t-40.5 -103v-182h-56v182q0 62 30 127.5t72.5 121.5t85.5 111.5t73 118t30 121.5q0 134 -63.5 203.5t-184.5 69.5q-56 0 -98.5 -15.5
t-68 -39t-44 -61.5t-27 -71.5t-16.5 -81.5v-84h-36zM250 72q0 38 27 65t65 27q40 0 65 -25t25 -67q0 -40 -24 -65t-66 -25q-41 0 -66.5 24t-25.5 66z" />
    <glyph glyph-name="at" unicode="@" horiz-adv-x="1759" 
d="M74 741q0 166 68 317.5t182.5 261t273 174.5t332.5 65q205 0 379 -93t275.5 -252.5t101.5 -347.5q0 -159 -53.5 -293.5t-145 -213t-199.5 -78.5q-71 0 -125 60.5t-80 178.5h-14q-20 -46 -47 -86t-65 -76.5t-89 -57.5t-108 -21q-137 0 -233.5 111t-96.5 306
q0 100 30 192.5t88.5 168t155 121t218.5 45.5q124 0 237 -58q45 0 64 19t28 68l6 54l20 -3l-8 -71l1 -1l-74 -672q-6 -69 -6 -70q0 -81 27 -126.5t77 -45.5q96 0 178 73.5t129.5 200t47.5 275.5q0 133 -57 254.5t-153 209.5t-229.5 140t-279.5 52q-166 0 -318 -62
t-261.5 -166.5t-174.5 -249t-65 -303.5q0 -214 97.5 -395.5t265 -287t364.5 -105.5q126 0 252 45t198 121l26 -26q-78 -81 -210 -129t-266 -48q-155 0 -296.5 65.5t-244 175.5t-163 263t-60.5 321zM578 668q0 -157 54.5 -253t143.5 -96q84 0 169.5 93t117.5 243l51 490
q-84 41 -182 41q-90 0 -160 -46.5t-111 -122.5t-62 -165t-21 -184z" />
    <glyph glyph-name="A" unicode="A" horiz-adv-x="1552" 
d="M16 0v18h33q35 0 60 32t53 95l575 1328h158v-25q0 -74 18 -119l484 -1184q34 -82 46 -98q24 -29 75 -29h16v-18h-391v18h157v5q-29 10 -63 96l-114 280h-811l-111 -254q-11 -27 -11 -46q0 -36 27 -58.5t72 -22.5h100v-18h-373zM328 436h780l-348 854q-17 40 -17 82h-18
q0 -22 -25 -82z" />
    <glyph glyph-name="B" unicode="B" horiz-adv-x="1212" 
d="M37 0v20h72q73 0 90.5 17.5t17.5 91.5v1217q0 74 -17.5 91t-90.5 17h-72v19h500q218 0 351.5 -85.5t133.5 -224.5q0 -95 -81 -181t-214 -105v-9q129 -9 234 -75.5t161 -164t56 -202.5q0 -125 -75.5 -223t-204 -150.5t-286.5 -52.5h-575zM342 37h233q190 0 307 107
t117 282q0 184 -122.5 303t-313.5 119h-108v35h82q135 0 223 77.5t88 198.5q0 125 -93.5 201t-246.5 76h-166v-2q35 -35 35 -107v-1182q0 -69 -35 -104v-4z" />
    <glyph glyph-name="C" unicode="C" horiz-adv-x="1335" 
d="M72 741q0 222 88.5 392t251 263t374.5 93q222 0 375 -131q16 -16 23 -41l14 4q-4 16 -6 59l-4 149l18 1l19 -592l-37 -1l-6 189q-5 89 -65 165.5t-153 119.5t-194 43q-252 0 -384 -174t-132 -506q0 -367 138 -560.5t401 -193.5q149 0 276 76.5t179 203.5l34 -13
q-58 -148 -192 -225.5t-302 -77.5q-213 0 -375.5 94t-251.5 266t-89 397z" />
    <glyph glyph-name="D" unicode="D" horiz-adv-x="1480" 
d="M37 0v18h72q73 0 90.5 17.5t17.5 91.5v1200q0 77 -18.5 102t-89.5 25h-72v19h577q238 0 420 -91.5t281.5 -259t99.5 -385.5q0 -331 -220.5 -534t-580.5 -203h-577zM342 37h217q331 0 505.5 179.5t174.5 520.5t-174.5 520t-505.5 179h-217v-2q35 -35 35 -97v-1202
q0 -61 -35 -96v-2z" />
    <glyph glyph-name="E" unicode="E" horiz-adv-x="1130" 
d="M37 0v18h72q73 0 90.5 17.5t17.5 91.5v1219q0 74 -17.5 91t-90.5 17h-72v19h817q57 0 76 -19h2l-6 95l18 1l37 -555h-37l-8 144q-9 161 -85.5 229t-229.5 68h-289v-2q45 -45 45 -107v-536h82q40 0 68 3.5t59 16.5t50 35.5t31.5 63.5t12.5 98v71h18v-657h-18v113
q0 57 -12.5 98t-31.5 64t-50 36.5t-59.5 17t-67.5 3.5h-82v-609q0 -61 -45 -106v-2h407q149 0 222 64.5t83 211.5l13 164h33l-35 -555l-19 1l6 95h-2q-18 -18 -75 -18h-928z" />
    <glyph glyph-name="F" unicode="F" horiz-adv-x="1036" 
d="M37 0v18h72q73 0 90.5 17.5t17.5 91.5v1219q0 74 -17.5 91t-90.5 17h-72v19h852q23 0 33.5 -4t21.5 -15h2l-8 140l18 1l39 -600h-37l-8 144q-4 80 -34.5 139t-81.5 93t-114 49.5t-140 15.5h-248v-2q45 -45 45 -107v-610h82q40 0 71 3.5t67.5 16.5t60 35.5t39.5 63.5
t16 98v123h18v-678h-18v84q0 106 -65 161.5t-189 55.5h-82v-553q0 -73 18 -91t92 -18h134v-18h-584z" />
    <glyph glyph-name="G" unicode="G" horiz-adv-x="1486" 
d="M68 741q0 222 87.5 392t247 263t367.5 93q222 0 375 -129q14 -12 22 -39l9 2q-7 28 -7 47l-10 200l21 1l32 -631l-34 -2l-9 135q-11 173 -133 276t-286 103q-246 0 -375 -173.5t-129 -504.5q0 -367 139.5 -560.5t405.5 -193.5q106 2 199.5 44t154.5 124v269
q0 86 -52.5 138t-138.5 52h-237v37h764v-37h-174v-168v-561h-19v143q-2 40 -25.5 70.5t-56.5 30.5q-30 0 -59 -29q-68 -72 -163.5 -110.5t-201.5 -38.5q-322 0 -518 208t-196 549z" />
    <glyph glyph-name="H" unicode="H" 
d="M37 0v18h72q71 0 89.5 25t18.5 102v1182q0 77 -18.5 102t-89.5 25h-72v19h504v-19h-54q-71 0 -90.5 -25t-19.5 -102v-534h561v534q0 77 -20 102t-91 25h-53v19h506v-19h-74q-71 0 -89.5 -25t-18.5 -102v-1182q0 -77 18.5 -102t89.5 -25h74v-18h-506v18h55q71 0 90 25
t19 102v611h-561v-611q0 -77 19.5 -102t90.5 -25h54v-18h-504z" />
    <glyph glyph-name="I" unicode="I" horiz-adv-x="593" 
d="M37 0v18h72q74 0 91 17t17 90v1223q0 73 -17 89.5t-91 16.5h-72v19h522v-23h-72q-74 0 -92 -17t-18 -90v-1218q0 -73 18 -90t92 -17h72v-18h-522z" />
    <glyph glyph-name="J" unicode="J" horiz-adv-x="831" 
d="M49 242h19q0 -99 66.5 -159t176.5 -60q80 0 122 55.5t42 161.5v1157q0 23 3.5 32t15.5 21v4h-283v19h586v-19h-54q-108 0 -108 -108v-1014q0 -154 -91.5 -250t-232.5 -96q-118 0 -190 70.5t-72 185.5z" />
    <glyph glyph-name="K" unicode="K" horiz-adv-x="1200" 
d="M37 0v18h72q73 0 90.5 20.5t17.5 106.5v1201q0 74 -17.5 91t-90.5 17h-71v19h469v-19h-19q-74 0 -92.5 -17.5t-18.5 -90.5v-461q60 0 90 5.5t43 22.5l324 408q37 47 37 77q0 56 -106 56h-19v19h453v-19h-25q-80 0 -161 -33t-140 -108l-325 -412l2 -8q75 -17 134.5 -50
t98.5 -72.5t67.5 -92t44 -102t27.5 -109.5q8 -40 15 -93.5t11.5 -91.5t12 -81t18 -72t26 -54t40 -37t57.5 -12q45 0 97 41l27 21l11 -14l-26 -21q-85 -76 -166 -76q-32 0 -60 7.5t-49 18.5t-40 32.5t-32 39.5t-25.5 50.5t-20 55t-16.5 63.5t-13.5 64.5t-13 69t-12.5 68.5
q-10 52 -19 91t-24.5 85t-33.5 79.5t-45.5 66t-60.5 53t-78.5 33t-99.5 12.5h-25v-721q0 -86 18.5 -106.5t92.5 -20.5h72v-18h-523z" />
    <glyph glyph-name="L" unicode="L" horiz-adv-x="1054" 
d="M37 0v18h72q71 0 89.5 23t18.5 100v1207q0 73 -17 89.5t-91 16.5h-72v19h522v-19h-72q-74 0 -92 -16.5t-18 -89.5v-1203q0 -61 -45 -106v-2h276q80 0 135.5 9.5t103 34t73.5 72t32 119.5l17 205h41l-41 -581l-21 2l8 120h-2q-11 -11 -21 -14.5t-34 -3.5h-862z" />
    <glyph glyph-name="M" unicode="M" horiz-adv-x="1847" 
d="M18 0v18h33q76 0 99 28.5t28 117.5l55 1182q2 32 2 43q0 37 -19.5 51t-82.5 14h-82v19h301l531 -1174q30 -68 30 -88h11q0 26 28 88l531 1174h307v-19h-70q-70 0 -92 -20.5t-22 -69.5q0 -13 2 -55l48 -1145q3 -91 25.5 -118.5t104.5 -27.5h45v-18h-535v18h74
q78 0 102 18.5t24 60.5q0 5 -0.5 17t-0.5 19l-41 1079q-2 37 -2 91h-12q0 -5 -33 -84l-551 -1227l-6 -15h-4l-6 15l-543 1204q-23 52 -23 86h-8q0 -33 -2 -70l-51 -1075q-2 -34 -2 -46q0 -40 24.5 -56.5t104.5 -16.5h74v-18h-396z" />
    <glyph glyph-name="N" unicode="N" horiz-adv-x="1191" 
d="M37 0v18h53q74 0 92.5 18t18.5 91v1219q0 73 -18.5 90.5t-92.5 17.5h-53v19h313l561 -1033q37 -63 37 -75h13q-3 35 -3 86v874q0 73 -28.5 101t-102.5 28h-92v19h422v-19h-33q-74 0 -102.5 -28t-28.5 -101v-1364h-16q0 24 -57 127l-635 1153q-7 14 -18.5 34.5t-17 31
t-5.5 14.5h-11q3 -34 3 -88v-1106q0 -73 18 -91t92 -18h53v-18h-362z" />
    <glyph glyph-name="O" unicode="O" horiz-adv-x="1642" 
d="M63 737q0 338 209 545t551 207q340 0 548 -207t208 -545q0 -224 -94 -395t-266 -264.5t-396 -93.5q-342 0 -551 207t-209 546zM242 774q0 -368 150.5 -561t436.5 -193q278 0 425 173.5t147 504.5q0 368 -150 561t-436 193q-280 0 -426.5 -173.5t-146.5 -504.5z" />
    <glyph glyph-name="P" unicode="P" horiz-adv-x="1120" 
d="M37 0v18h72q73 0 90.5 17.5t17.5 91.5v1219q0 74 -17.5 91t-90.5 17h-72v19h516q231 0 372.5 -124t141.5 -327q0 -202 -141.5 -325.5t-372.5 -123.5h-176v-446q0 -73 18 -91t92 -18h52v-18h-502zM342 1423q35 -46 35 -127v-686h115q194 0 295.5 105.5t101.5 306.5
t-101.5 306.5t-295.5 105.5h-150v-11z" />
    <glyph glyph-name="Q" unicode="Q" horiz-adv-x="1646" 
d="M72 788q0 315 207 508t546 193q337 0 543.5 -193t206.5 -508q0 -451 -627 -789q-52 -28 -119 -59.5t-111 -53t-65 -36.5q43 0 173 -28t273.5 -61t335 -61t343.5 -28q379 0 536 173l13 -13q-292 -321 -670 -321q-118 0 -247.5 30.5t-236 74t-202.5 87t-178 74t-131 30.5
q-34 0 -55.5 -24t-21.5 -56q0 -28 18 -50t48 -27l-6 -37q-51 9 -77 41t-26 74q0 50 22.5 85t68.5 65q28 19 128.5 66t162.5 85q241 148 357 343.5t116 415.5q0 323 -148.5 493.5t-431.5 170.5q-277 0 -422 -170.5t-145 -493.5q0 -153 48.5 -287t156.5 -249.5t268 -185.5
l-39 -21q-294 101 -453 301t-159 442z" />
    <glyph glyph-name="R" unicode="R" horiz-adv-x="1261" 
d="M37 0v18h72q73 0 90.5 17.5t17.5 91.5v1219q0 74 -17.5 91t-90.5 17h-72v19h534q246 0 395.5 -125.5t149.5 -329.5q0 -184 -122.5 -304.5t-311.5 -138.5l-41 -2v-12q70 -7 131 -46.5t96 -94.5l103 -162q6 -10 23 -37t26.5 -41.5t26 -38.5t29.5 -37.5t29.5 -28.5t33 -21.5
t32.5 -6.5q30 0 59 25l45 39l11 -15l-45 -39q-91 -78 -169 -78q-37 0 -71.5 16.5t-66 50t-52.5 62.5t-51 76l-143 222q-57 87 -98 122t-105 35h-24v35h94q187 0 285 107.5t98 312.5q0 204 -98 311t-285 107h-213v-2q35 -35 35 -107v-1200q0 -73 18 -91t92 -18h119v-18h-569z
" />
    <glyph glyph-name="S" unicode="S" horiz-adv-x="978" 
d="M57 502l37 2l4 -84q9 -178 115 -288.5t255 -110.5q142 0 224 80.5t82 228.5q0 60 -23 112t-62 91.5t-89.5 76t-106.5 70t-112 68.5t-106.5 76.5t-89.5 88t-62 109t-23 135.5q0 149 111 240.5t293 91.5q151 0 272 -90q9 -7 20 -23.5t13 -23.5l14 4q-5 16 -8 65l-6 109h20
l23 -483l-37 -2l-4 86q-3 63 -23 119t-56.5 102t-95.5 73t-132 27q-125 0 -192.5 -64.5t-67.5 -185.5q0 -58 23.5 -108t63 -88.5t91 -74.5t108 -70t113 -69.5t108 -78.5t91 -92t63 -115.5t23.5 -143.5q0 -182 -121 -280t-336 -98q-92 0 -167 26.5t-157 83.5q-11 8 -29 31.5
t-22 36.5l-8 -2q5 -17 8 -88l6 -128l-18 -1z" />
    <glyph glyph-name="T" unicode="T" horiz-adv-x="1101" 
d="M31 1118l30 475l23 -1l-10 -119h954l-10 117l22 1l31 -473l-37 -2l-6 84q-5 75 -20.5 120t-49.5 71.5t-81 35.5t-125 9h-119v-1309q0 -74 17.5 -91.5t90.5 -17.5h152v-18h-684v18h156q73 0 90.5 17.5t17.5 91.5v1309h-123q-153 0 -211 -46t-65 -190l-6 -84z" />
    <glyph glyph-name="U" unicode="U" horiz-adv-x="1187" 
d="M37 1454v19h522v-19h-90q-74 0 -91.5 -17.5t-17.5 -90.5v-1084q0 -118 63.5 -180t184.5 -62q165 0 251.5 81t86.5 235v973q0 79 -23.5 112t-93.5 33h-75v19h399v-19h-53q-70 0 -93.5 -33t-23.5 -112v-973q0 -172 -96 -262t-279 -90q-184 0 -295.5 97t-111.5 255v1010
q0 73 -18.5 90.5t-92.5 17.5h-53z" />
    <glyph glyph-name="V" unicode="V" horiz-adv-x="1523" 
d="M18 1454v19h406v-19h-158v-4q36 -12 64 -94l471 -1141q16 -48 16 -74h27q0 34 20 82l459 1104q14 33 14 57q0 70 -100 70h-176v19h446v-19h-24q-11 0 -20.5 -1.5t-16.5 -2.5t-14.5 -6.5t-12 -8t-10.5 -11.5t-8.5 -13t-8.5 -17.5t-8.5 -18.5t-9.5 -23t-10 -25l-541 -1337
l-110 -8l-543 1345q-32 81 -47 98q-25 29 -74 29h-31z" />
    <glyph glyph-name="W" unicode="W" horiz-adv-x="2213" 
d="M18 1454v19h295v-29q0 -34 15 -88l424 -1141q12 -36 12 -74h20q0 24 15 74l293 975l-41 137q-23 76 -45.5 101.5t-75.5 25.5h-47v19h458v-19h-194v-4q20 -7 37.5 -35t25.5 -59l342 -1141q13 -52 13 -74h28q0 27 19 80l403 1108q14 36 14 60q0 65 -102 65h-78v19h349v-19
h-31q-24 0 -41 -7.5t-30 -27.5t-21 -37.5t-21 -54.5l-485 -1335l-115 -10l-344 1142l-340 -1134l-115 -8l-487 1345q-25 79 -45.5 103t-73.5 24h-31z" />
    <glyph glyph-name="X" unicode="X" horiz-adv-x="1175" 
d="M37 0v16h18q62 0 98 31.5t87 130.5l279 548l-265 568q-44 94 -79 127t-81 33h-22v19h350v-19h-111v-4q22 -8 54.5 -42t50.5 -71l226 -484l241 447q44 82 44 112q0 22 -21 32t-70 10h-72v19h342v-19h-25q-45 0 -74.5 -30t-84.5 -130l-261 -482l295 -634q60 -106 76 -125
q29 -35 74 -35h35v-18h-475v18h43q58 0 83 12t25 39q0 29 -39 101l-239 513l-258 -505q-43 -84 -43 -116q0 -25 22 -35.5t74 -10.5h69v-16h-366z" />
    <glyph glyph-name="Y" unicode="Y" horiz-adv-x="1177" 
d="M20 1456v17h388v-17h-127v-4q18 -6 34 -29t43 -74q5 -8 7 -12l264 -503q21 -39 26 -66h15q4 21 26 66l246 475q30 58 30 90q0 57 -87 57h-123v17h395v-17h-35q-44 0 -67.5 -28t-69.5 -117l-303 -586v-600q0 -73 18 -91t91 -18h151v-16h-706v16h176q73 0 90.5 17.5
t17.5 91.5v569l-321 619q-7 13 -19 37t-17 33t-14.5 25t-16.5 22t-18 13.5t-23 10t-28 2.5h-43z" />
    <glyph glyph-name="Z" unicode="Z" horiz-adv-x="1064" 
d="M0 0v18q26 0 67.5 40.5t79.5 119.5l537 1127q22 47 65 82t82 45v6h-401q-79 0 -128.5 -9t-88.5 -35t-57.5 -73t-22.5 -123l-2 -40l-14 1l22 434l15 -2l-7 -137q11 11 21 15t33 4h796v-19q-22 0 -62.5 -40t-78.5 -120l-537 -1122q-43 -91 -98 -129v-6h469q154 0 218 44
t71 179l4 75l21 -1l-25 -436l-21 1l7 117h-2q-11 -11 -18.5 -13.5t-31.5 -2.5h-913z" />
    <glyph glyph-name="bracketleft" unicode="[" horiz-adv-x="434" 
d="M63 -463q9 92 9 170v1892h346v-36h-236v-2q35 -35 35 -107v-1782q0 -69 -35 -104v-4h236v-37h-355v10z" />
    <glyph glyph-name="backslash" unicode="\" horiz-adv-x="999" 
d="M37 1479l49 24l877 -1855l-48 -25z" />
    <glyph glyph-name="bracketright" unicode="]" horiz-adv-x="434" 
d="M16 -436h236v4q-35 35 -35 104v1782q0 72 35 107v2h-236v36h346v-1892q0 -78 9 -170v-10h-355v37z" />
    <glyph glyph-name="asciicircum" unicode="^" horiz-adv-x="753" 
d="M55 1012l320 313h6l319 -313l-61 -64l-164 191q-80 86 -92 147h-10q-12 -61 -92 -147l-166 -191z" />
    <glyph glyph-name="underscore" unicode="_" horiz-adv-x="835" 
d="M0 -236h836v-55h-836v55z" />
    <glyph glyph-name="grave" unicode="`" horiz-adv-x="362" 
d="M37 1370q0 14 10 21l33 26q12 8 18 8q9 0 19 -10l200 -239l-28 -25l-219 172l-27 31q-6 9 -6 16z" />
    <glyph glyph-name="a" unicode="a" horiz-adv-x="1103" 
d="M51 319q0 192 151 309t398 117h160v439q0 132 -62 200t-180 68q-147 0 -229 -77t-88 -201l-6 -127h-37l22 483h21l-6 -109q-3 -44 -9 -65l15 -4q2 7 12.5 23.5t19.5 23.5q121 90 283 90q199 0 303.5 -85t104.5 -247v-1012q0 -64 11.5 -84t55.5 -20q5 0 19 1t22 1l35 2
l1 -18q-128 -13 -226 -45v16q0 50 -19 168t-20 149h-21q-43 -174 -133.5 -252.5t-210.5 -78.5q-168 0 -277.5 92.5t-109.5 242.5zM229 319q0 -126 64.5 -203t169.5 -77q55 0 107 26t95 75.5t69 133.5t26 189v246h-150q-172 0 -276.5 -107.5t-104.5 -282.5z" />
    <glyph glyph-name="b" unicode="b" horiz-adv-x="1212" 
d="M37 0v20h72q73 0 90.5 17.5t17.5 91.5v1217q0 74 -17.5 91t-90.5 17h-72v19h500q218 0 351.5 -85.5t133.5 -224.5q0 -95 -81 -181t-214 -105v-9q129 -9 234 -75.5t161 -164t56 -202.5q0 -125 -75.5 -223t-204 -150.5t-286.5 -52.5h-575zM342 37h233q190 0 307 107
t117 282q0 184 -122.5 303t-313.5 119h-108v35h82q135 0 223 77.5t88 198.5q0 125 -93.5 201t-246.5 76h-166v-2q35 -35 35 -107v-1182q0 -69 -35 -104v-4z" />
    <glyph glyph-name="c" unicode="c" horiz-adv-x="1335" 
d="M72 741q0 222 88.5 392t251 263t374.5 93q222 0 375 -131q16 -16 23 -41l14 4q-4 16 -6 59l-4 149l18 1l19 -592l-37 -1l-6 189q-5 89 -65 165.5t-153 119.5t-194 43q-252 0 -384 -174t-132 -506q0 -367 138 -560.5t401 -193.5q149 0 276 76.5t179 203.5l34 -13
q-58 -148 -192 -225.5t-302 -77.5q-213 0 -375.5 94t-251.5 266t-89 397z" />
    <glyph glyph-name="d" unicode="d" horiz-adv-x="1480" 
d="M37 0v18h72q73 0 90.5 17.5t17.5 91.5v1200q0 77 -18.5 102t-89.5 25h-72v19h577q238 0 420 -91.5t281.5 -259t99.5 -385.5q0 -331 -220.5 -534t-580.5 -203h-577zM342 37h217q331 0 505.5 179.5t174.5 520.5t-174.5 520t-505.5 179h-217v-2q35 -35 35 -97v-1202
q0 -61 -35 -96v-2z" />
    <glyph glyph-name="e" unicode="e" horiz-adv-x="1542" 
d="M63 741q0 222 94 392t266 263t396 93q178 0 327 -76.5t239 -220t90 -324.5v-10q0 -25 -19 -42t-45 -17h-1165v-25q0 -362 154 -558t421 -196q204 0 362 83.5t248 234.5l30 -23q-96 -158 -263 -244.5t-383 -86.5q-214 0 -385 93.5t-269 267t-98 396.5zM247 836l1029 14
q16 0 16 18q0 263 -132 423.5t-349 160.5q-262 0 -406 -157.5t-158 -458.5z" />
    <glyph glyph-name="f" unicode="f" horiz-adv-x="1036" 
d="M37 0v18h72q73 0 90.5 17.5t17.5 91.5v1219q0 74 -17.5 91t-90.5 17h-72v19h852q23 0 33.5 -4t21.5 -15h2l-8 140l18 1l39 -600h-37l-8 144q-4 80 -34.5 139t-81.5 93t-114 49.5t-140 15.5h-248v-2q45 -45 45 -107v-610h82q40 0 71 3.5t67.5 16.5t60 35.5t39.5 63.5
t16 98v123h18v-678h-18v84q0 106 -65 161.5t-189 55.5h-82v-553q0 -73 18 -91t92 -18h134v-18h-584z" />
    <glyph glyph-name="g" unicode="g" horiz-adv-x="1486" 
d="M68 741q0 222 87.5 392t247 263t367.5 93q222 0 375 -129q14 -12 22 -39l9 2q-7 28 -7 47l-10 200l21 1l32 -631l-34 -2l-9 135q-11 173 -133 276t-286 103q-246 0 -375 -173.5t-129 -504.5q0 -367 139.5 -560.5t405.5 -193.5q106 2 199.5 44t154.5 124v269
q0 86 -52.5 138t-138.5 52h-237v37h764v-37h-174v-168v-561h-19v143q-2 40 -25.5 70.5t-56.5 30.5q-30 0 -59 -29q-68 -72 -163.5 -110.5t-201.5 -38.5q-322 0 -518 208t-196 549z" />
    <glyph glyph-name="h" unicode="h" 
d="M37 0v18h72q71 0 89.5 25t18.5 102v1182q0 77 -18.5 102t-89.5 25h-72v19h504v-19h-54q-71 0 -90.5 -25t-19.5 -102v-534h561v534q0 77 -20 102t-91 25h-53v19h506v-19h-74q-71 0 -89.5 -25t-18.5 -102v-1182q0 -77 18.5 -102t89.5 -25h74v-18h-506v18h55q71 0 90 25
t19 102v611h-561v-611q0 -77 19.5 -102t90.5 -25h54v-18h-504z" />
    <glyph glyph-name="i" unicode="i" horiz-adv-x="579" 
d="M37 0v18h72q74 0 91 17t17 90v1223q0 73 -17 89.5t-91 16.5h-72v19h522v-23h-72q-74 0 -92 -17t-18 -90v-1218q0 -73 18 -90t92 -17h72v-18h-522z" />
    <glyph glyph-name="j" unicode="j" horiz-adv-x="831" 
d="M49 242h19q0 -99 66.5 -159t176.5 -60q80 0 122 55.5t42 161.5v1157q0 23 3.5 32t15.5 21v4h-283v19h586v-19h-54q-108 0 -108 -108v-1014q0 -154 -91.5 -250t-232.5 -96q-118 0 -190 70.5t-72 185.5z" />
    <glyph glyph-name="k" unicode="k" horiz-adv-x="1200" 
d="M37 0v18h72q73 0 90.5 20.5t17.5 106.5v1201q0 74 -17.5 91t-90.5 17h-71v19h469v-19h-19q-74 0 -92.5 -17.5t-18.5 -90.5v-461q60 0 90 5.5t43 22.5l324 408q37 47 37 77q0 56 -106 56h-19v19h453v-19h-25q-80 0 -161 -33t-140 -108l-325 -412l2 -8q75 -17 134.5 -50
t98.5 -72.5t67.5 -92t44 -102t27.5 -109.5q8 -40 15 -93.5t11.5 -91.5t12 -81t18 -72t26 -54t40 -37t57.5 -12q45 0 97 41l27 21l11 -14l-26 -21q-85 -76 -166 -76q-32 0 -60 7.5t-49 18.5t-40 32.5t-32 39.5t-25.5 50.5t-20 55t-16.5 63.5t-13.5 64.5t-13 69t-12.5 68.5
q-10 52 -19 91t-24.5 85t-33.5 79.5t-45.5 66t-60.5 53t-78.5 33t-99.5 12.5h-25v-721q0 -86 18.5 -106.5t92.5 -20.5h72v-18h-523z" />
    <glyph glyph-name="l" unicode="l" horiz-adv-x="1054" 
d="M37 0v18h72q71 0 89.5 23t18.5 100v1207q0 73 -17 89.5t-91 16.5h-72v19h522v-19h-72q-74 0 -92 -16.5t-18 -89.5v-1203q0 -61 -45 -106v-2h276q80 0 135.5 9.5t103 34t73.5 72t32 119.5l17 205h41l-41 -581l-21 2l8 120h-2q-11 -11 -21 -14.5t-34 -3.5h-862z" />
    <glyph glyph-name="m" unicode="m" horiz-adv-x="1826" 
d="M18 1362l158 33q65 13 104 51t39 98v8h17v-268q0 -148 -4 -188h18q11 80 33 141q96 252 324 252q150 0 211 -71.5t61 -198.5v-123h8q3 44 22 107t29 83q53 100 124.5 151.5t178.5 51.5q137 0 221.5 -71t84.5 -201v-1090q0 -73 18 -91t92 -18h53v-18h-460v18h155v5
q-11 11 -14.5 20t-3.5 33v1122q0 121 -45.5 188.5t-118.5 67.5q-140 0 -225.5 -130t-85.5 -343v-854q0 -73 18 -91t92 -18h54v-18h-443v18h137v5q-11 11 -14.5 20t-3.5 33v1122q0 121 -45.5 188.5t-118.5 67.5q-140 0 -225.5 -130t-85.5 -343v-854q0 -73 18 -91t92 -18h72
v-18h-522v18h72q73 0 90.5 17.5t17.5 91.5v1167q0 28 -19 47t-49 19h-8l-121 -10z" />
    <glyph glyph-name="n" unicode="n" horiz-adv-x="1304" 
d="M18 1362l158 33q66 13 109 51t43 98v8h16v-268q0 -179 -4 -215h14q6 54 33 133q44 131 146 209t229 78q163 0 253.5 -83.5t90.5 -225.5v-1053q0 -74 17.5 -91.5t90.5 -17.5h74v-18h-522v18h199v5q-12 12 -15.5 21t-3.5 32v1069q0 155 -47.5 232t-153.5 77
q-159 0 -263.5 -139t-104.5 -361v-827q0 -73 18 -91t92 -18h72v-18h-522v18h72q73 0 90.5 17.5t17.5 91.5v1167q0 28 -19 47t-49 19h-8l-121 -10z" />
    <glyph glyph-name="o" unicode="o" horiz-adv-x="1642" 
d="M63 737q0 338 209 545t551 207q340 0 548 -207t208 -545q0 -224 -94 -395t-266 -264.5t-396 -93.5q-342 0 -551 207t-209 546zM242 774q0 -368 150.5 -561t436.5 -193q278 0 425 173.5t147 504.5q0 368 -150 561t-436 193q-280 0 -426.5 -173.5t-146.5 -504.5z" />
    <glyph glyph-name="p" unicode="p" horiz-adv-x="1120" 
d="M37 0v18h72q73 0 90.5 17.5t17.5 91.5v1219q0 74 -17.5 91t-90.5 17h-72v19h516q231 0 372.5 -124t141.5 -327q0 -202 -141.5 -325.5t-372.5 -123.5h-176v-446q0 -73 18 -91t92 -18h52v-18h-502zM342 1423q35 -46 35 -127v-686h115q194 0 295.5 105.5t101.5 306.5
t-101.5 306.5t-295.5 105.5h-150v-11z" />
    <glyph glyph-name="q" unicode="q" horiz-adv-x="1646" 
d="M72 788q0 315 207 508t546 193q337 0 543.5 -193t206.5 -508q0 -451 -627 -789q-52 -28 -119 -59.5t-111 -53t-65 -36.5q43 0 173 -28t273.5 -61t335 -61t343.5 -28q379 0 536 173l13 -13q-292 -321 -670 -321q-118 0 -247.5 30.5t-236 74t-202.5 87t-178 74t-131 30.5
q-34 0 -55.5 -24t-21.5 -56q0 -28 18 -50t48 -27l-6 -37q-51 9 -77 41t-26 74q0 50 22.5 85t68.5 65q28 19 128.5 66t162.5 85q241 148 357 343.5t116 415.5q0 323 -148.5 493.5t-431.5 170.5q-277 0 -422 -170.5t-145 -493.5q0 -153 48.5 -287t156.5 -249.5t268 -185.5
l-39 -21q-294 101 -453 301t-159 442z" />
    <glyph glyph-name="r" unicode="r" horiz-adv-x="1261" 
d="M37 0v18h72q73 0 90.5 17.5t17.5 91.5v1219q0 74 -17.5 91t-90.5 17h-72v19h534q246 0 395.5 -125.5t149.5 -329.5q0 -184 -122.5 -304.5t-311.5 -138.5l-41 -2v-12q70 -7 131 -46.5t96 -94.5l103 -162q6 -10 23 -37t26.5 -41.5t26 -38.5t29.5 -37.5t29.5 -28.5t33 -21.5
t32.5 -6.5q30 0 59 25l45 39l11 -15l-45 -39q-91 -78 -169 -78q-37 0 -71.5 16.5t-66 50t-52.5 62.5t-51 76l-143 222q-57 87 -98 122t-105 35h-24v35h94q187 0 285 107.5t98 312.5q0 204 -98 311t-285 107h-213v-2q35 -35 35 -107v-1200q0 -73 18 -91t92 -18h119v-18h-569z
" />
    <glyph glyph-name="s" unicode="s" horiz-adv-x="978" 
d="M57 502l37 2l4 -84q9 -178 115 -288.5t255 -110.5q142 0 224 80.5t82 228.5q0 60 -23 112t-62 91.5t-89.5 76t-106.5 70t-112 68.5t-106.5 76.5t-89.5 88t-62 109t-23 135.5q0 149 111 240.5t293 91.5q151 0 272 -90q9 -7 20 -23.5t13 -23.5l14 4q-5 16 -8 65l-6 109h20
l23 -483l-37 -2l-4 86q-3 63 -23 119t-56.5 102t-95.5 73t-132 27q-125 0 -192.5 -64.5t-67.5 -185.5q0 -58 23.5 -108t63 -88.5t91 -74.5t108 -70t113 -69.5t108 -78.5t91 -92t63 -115.5t23.5 -143.5q0 -182 -121 -280t-336 -98q-92 0 -167 26.5t-157 83.5q-11 8 -29 31.5
t-22 36.5l-8 -2q5 -17 8 -88l6 -128l-18 -1z" />
    <glyph glyph-name="t" unicode="t" horiz-adv-x="1101" 
d="M31 1118l30 475l23 -1l-10 -119h954l-10 117l22 1l31 -473l-37 -2l-6 84q-5 75 -20.5 120t-49.5 71.5t-81 35.5t-125 9h-119v-1309q0 -74 17.5 -91.5t90.5 -17.5h152v-18h-684v18h156q73 0 90.5 17.5t17.5 91.5v1309h-123q-153 0 -211 -46t-65 -190l-6 -84z" />
    <glyph glyph-name="u" unicode="u" horiz-adv-x="1247" 
d="M25 1395v18h116q47 0 87 9t71 35t31 65v8h16v-174v-1045q0 -139 54.5 -215t146.5 -76q165 0 265.5 144t100.5 379v803q0 73 -18 90.5t-92 17.5h-35v19l317 8v-17q-8 -82 -8 -108v-1211q0 -73 18.5 -90.5t92.5 -17.5h35v-19q-143 -6 -277 -36v16q8 82 8 117v32
q0 27 -1 127.5t-1 118.5v8h-16q-31 -210 -142 -313.5t-266 -103.5t-250.5 81t-95.5 228v1040q0 62 -61 62h-96z" />
    <glyph glyph-name="v" unicode="v" horiz-adv-x="1523" 
d="M18 1454v19h406v-19h-158v-4q36 -12 64 -94l471 -1141q16 -48 16 -74h27q0 34 20 82l459 1104q14 33 14 57q0 70 -100 70h-176v19h446v-19h-24q-11 0 -20.5 -1.5t-16.5 -2.5t-14.5 -6.5t-12 -8t-10.5 -11.5t-8.5 -13t-8.5 -17.5t-8.5 -18.5t-9.5 -23t-10 -25l-541 -1337
l-110 -8l-543 1345q-32 81 -47 98q-25 29 -74 29h-31z" />
    <glyph glyph-name="w" unicode="w" horiz-adv-x="2213" 
d="M18 1454v19h295v-29q0 -34 15 -88l424 -1141q12 -36 12 -74h20q0 24 15 74l293 975l-41 137q-23 76 -45.5 101.5t-75.5 25.5h-47v19h458v-19h-194v-4q20 -7 37.5 -35t25.5 -59l342 -1141q13 -52 13 -74h28q0 27 19 80l403 1108q14 36 14 60q0 65 -102 65h-78v19h349v-19
h-31q-24 0 -41 -7.5t-30 -27.5t-21 -37.5t-21 -54.5l-485 -1335l-115 -10l-344 1142l-340 -1134l-115 -8l-487 1345q-25 79 -45.5 103t-73.5 24h-31z" />
    <glyph glyph-name="x" unicode="x" horiz-adv-x="1175" 
d="M37 0v16h18q62 0 98 31.5t87 130.5l279 548l-265 568q-44 94 -79 127t-81 33h-22v19h350v-19h-111v-4q22 -8 54.5 -42t50.5 -71l226 -484l241 447q44 82 44 112q0 22 -21 32t-70 10h-72v19h342v-19h-25q-45 0 -74.5 -30t-84.5 -130l-261 -482l295 -634q60 -106 76 -125
q29 -35 74 -35h35v-18h-475v18h43q58 0 83 12t25 39q0 29 -39 101l-239 513l-258 -505q-43 -84 -43 -116q0 -25 22 -35.5t74 -10.5h69v-16h-366z" />
    <glyph glyph-name="y" unicode="y" horiz-adv-x="1177" 
d="M20 1456v17h388v-17h-127v-4q18 -6 34 -29t43 -74q5 -8 7 -12l264 -503q21 -39 26 -66h15q4 21 26 66l246 475q30 58 30 90q0 57 -87 57h-123v17h395v-17h-35q-44 0 -67.5 -28t-69.5 -117l-303 -586v-600q0 -73 18 -91t91 -18h151v-16h-706v16h176q73 0 90.5 17.5
t17.5 91.5v569l-321 619q-7 13 -19 37t-17 33t-14.5 25t-16.5 22t-18 13.5t-23 10t-28 2.5h-43z" />
    <glyph glyph-name="z" unicode="z" horiz-adv-x="1064" 
d="M0 0v18q26 0 67.5 40.5t79.5 119.5l537 1127q22 47 65 82t82 45v6h-401q-79 0 -128.5 -9t-88.5 -35t-57.5 -73t-22.5 -123l-2 -40l-14 1l22 434l15 -2l-7 -137q11 11 21 15t33 4h796v-19q-22 0 -62.5 -40t-78.5 -120l-537 -1122q-43 -91 -98 -129v-6h469q154 0 218 44
t71 179l4 75l21 -1l-25 -436l-21 1l7 117h-2q-11 -11 -18.5 -13.5t-31.5 -2.5h-913z" />
    <glyph glyph-name="braceleft" unicode="{" horiz-adv-x="563" 
d="M41 559v8q117 126 137 153q37 50 37 91q0 52 -41 245.5t-41 252.5q0 130 64 210t165 80h183v-36h-109q-83 0 -128.5 -48.5t-45.5 -128.5q0 -62 47 -281.5t47 -258.5q0 -35 -49.5 -86t-121 -109t-93.5 -84q-1 -1 -1 -4t1 -4q19 -21 91.5 -80t122.5 -111t50 -87
q0 -39 -47 -258t-47 -281q0 -80 45.5 -129t128.5 -49h109v-37h-183q-100 0 -164.5 80.5t-64.5 210.5q0 59 41 253t41 246q0 11 -1.5 20.5t-6.5 20.5t-9 19.5t-15 22.5t-18 23t-24 28t-27.5 30t-34 36.5t-38.5 41.5z" />
    <glyph glyph-name="bar" unicode="|" horiz-adv-x="307" 
d="M109 -473v2072h92v-2072h-92z" />
    <glyph glyph-name="braceright" unicode="}" horiz-adv-x="563" 
d="M19 -436h108q83 0 128.5 49t45.5 129q0 62 -47 281t-47 258q0 35 50 87t122.5 111t91.5 80q1 1 1 4t-1 4q-22 26 -93.5 84t-121 109t-49.5 86q0 39 47 258.5t47 281.5q0 80 -45.5 128.5t-128.5 48.5h-108v36h182q101 0 165 -80t64 -210q0 -59 -41 -252.5t-41 -245.5
q0 -40 28 -79t112 -129q22 -23 34 -36v-8q-15 -16 -38.5 -41.5t-34 -36.5t-27.5 -30t-24 -28t-18 -23t-15 -22.5t-9 -19.5t-6.5 -20.5t-1.5 -20.5q0 -52 41 -246t41 -253q0 -130 -64.5 -210.5t-164.5 -80.5h-182v37z" />
    <glyph glyph-name="asciitilde" unicode="~" horiz-adv-x="944" 
d="M49 586l27 108q33 137 151 137q54 0 132 -27.5t144.5 -60t138.5 -60t114 -27.5q60 0 78 81l25 107l36 -8l-25 -107q-37 -149 -159 -149q-70 0 -175.5 44.5t-202.5 89t-148 44.5q-55 0 -73 -73l-27 -108z" />
    <glyph glyph-name="uni00A0" unicode="&#xa0;" horiz-adv-x="544" 
 />
    <glyph glyph-name="cent" unicode="&#xa2;" horiz-adv-x="1021" 
d="M72 733q0 238 132 384.5t349 150.5v276h35v-277q144 -7 243 -73q18 -14 29 -49l8 2q-1 2 -4 11t-4.5 17.5t-1.5 22.5l-2 68l16 2l19 -369l-35 -2l-4 68q-15 119 -89 188t-175 77v-984q64 0 117 16.5t94 48t70.5 66.5t59.5 83l32 -20q-68 -109 -154 -169.5t-219 -61.5
v-281h-35v282q-218 11 -349.5 153.5t-131.5 369.5zM227 760q0 -238 83.5 -369.5t242.5 -143.5v984q-159 -4 -242.5 -124.5t-83.5 -346.5z" />
    <glyph glyph-name="sterling" unicode="&#xa3;" horiz-adv-x="1116" 
d="M98 98q0 56 40 93.5t122 37.5q16 0 62 -4q24 145 24 447v39h-203v55h203v352q0 166 90 268.5t236 102.5q177 0 274 -117v86h21v-112v-312h-37v131q0 131 -65.5 200t-192.5 69q-88 0 -134 -74.5t-46 -216.5v-377h309v-55h-338v-4q29 -15 29 -66q0 -90 -10.5 -220.5
t-37.5 -219.5q60 -15 172.5 -46.5t184 -49t100.5 -17.5q94 0 115 105l39 201l20 -5l-51 -278q-13 -75 -55 -112.5t-103 -37.5q-44 0 -113 26.5t-180.5 81.5t-150.5 72q-74 -178 -201 -178q-53 0 -88 38.5t-35 96.5zM135 98q0 -37 21 -60.5t55 -23.5q64 0 102 168
q-40 11 -77 11q-40 0 -70.5 -30t-30.5 -65z" />
    <glyph glyph-name="yen" unicode="&#xa5;" horiz-adv-x="1177" 
d="M20 1456v17h388v-17h-127v-4q18 -6 34 -29t43 -74q5 -8 7 -12l264 -503q21 -39 26 -66h15q4 21 26 66l246 475q30 58 30 90q0 57 -87 57h-123v17h395v-17h-35q-44 0 -67.5 -28t-69.5 -117l-303 -586v-92h272l-6 -35h-266v-170h272l-6 -35h-266v-268q0 -73 18 -91t91 -18
h135v-16h-690v16h176q73 0 90.5 17.5t17.5 91.5v268h-264l8 35h256v170h-264l8 35h256v61l-321 619q-7 13 -19 37t-17 33t-14.5 25t-16.5 22t-18 13.5t-23 10t-28 2.5h-43z" />
    <glyph glyph-name="dieresis" unicode="&#xa8;" horiz-adv-x="743" 
d="M72 1227q0 54 24 78q22 22 76 22q56 0 78 -22t22 -78q0 -54 -22 -76q-20 -25 -78 -25q-51 0 -76 25q-24 24 -24 76zM473 1227q0 55 23 78q22 22 77 22q54 0 76 -22q23 -23 23 -78q0 -53 -23 -76q-20 -25 -76 -25q-52 0 -77 25q-23 23 -23 76z" />
    <glyph glyph-name="copyright" unicode="&#xa9;" horiz-adv-x="1097" 
d="M55 1026q0 120 62.5 225.5t177.5 171.5t256 66q129 0 241.5 -58.5t182 -165.5t69.5 -239q0 -133 -70 -240.5t-182 -165t-241 -57.5q-205 0 -350.5 135t-145.5 328zM90 1026q0 -81 33 -157.5t91 -136t146 -96t191 -36.5q101 0 188 36t145.5 95.5t92 136.5t33.5 158
q0 120 -64 218.5t-169 153t-226 54.5q-192 0 -326.5 -124t-134.5 -302zM328 1026q0 115 65.5 186.5t167.5 71.5q72 0 133 -39q12 -9 15 -24l4 2q-1 3 -2.5 6.5t-2.5 7.5t-1 10l-2 43l18 2l8 -164h-26v2q-7 62 -47.5 93.5t-96.5 31.5q-75 0 -114 -55.5t-39 -161.5
q0 -116 43.5 -176.5t128.5 -60.5q104 0 159 96l25 -10q-60 -113 -191 -113q-107 0 -176 69.5t-69 182.5z" />
    <glyph glyph-name="guillemotleft" unicode="&#xab;" horiz-adv-x="925" 
d="M72 469v6l372 377l72 -76l-233 -201q-94 -91 -131 -98v-8q37 -7 131 -98l233 -203l-72 -74zM412 469v6l370 377l72 -76l-231 -201q-93 -90 -134 -98v-8q41 -8 134 -98l231 -203l-72 -74z" />
    <glyph glyph-name="uni00AD" unicode="&#xad;" horiz-adv-x="581" 
d="M37 563l8 55h502l-10 -55h-500z" />
    <glyph glyph-name="registered" unicode="&#xae;" horiz-adv-x="1097" 
d="M55 1026q0 120 62.5 225.5t177.5 171.5t256 66q129 0 241.5 -58.5t182 -165.5t69.5 -239q0 -133 -70 -240.5t-182 -165t-241 -57.5q-205 0 -350.5 135t-145.5 328zM90 1026q0 -81 33 -157.5t91.5 -136.5t146.5 -96t190 -36q132 0 238 60t163.5 157t57.5 209
q0 117 -62.5 215.5t-168 154.5t-228.5 56q-126 0 -232 -56.5t-167.5 -154.5t-61.5 -215zM326 776v17h26q34 0 41.5 7.5t7.5 41.5v407q0 34 -7.5 41.5t-41.5 7.5h-20v17h192q103 0 166.5 -43t63.5 -115q0 -60 -43.5 -104t-124.5 -54v-4q19 -5 42 -22.5t38 -40.5l47 -72
q3 -5 9 -14q20 -31 30 -41t24 -10h8l27 6l2 -17q-74 -16 -80 -16q-24 0 -41 15.5t-45 58.5l-55 84q-26 39 -44.5 55t-47.5 16h-33v-155q0 -34 7.5 -41.5t41.5 -7.5h8v-17h-198zM451 1290q16 -16 16 -47v-223h65q72 0 110 35.5t38 101.5t-38 100.5t-110 34.5h-81v-2z" />
    <glyph glyph-name="acute" unicode="&#xb4;" horiz-adv-x="362" 
d="M47 1176l199 239q10 10 20 10q7 0 19 -8l32 -26q11 -8 11 -21q0 -2 -9 -16l-26 -31l-217 -172z" />
    <glyph glyph-name="cedilla" unicode="&#xb8;" horiz-adv-x="761" 
d="M229 -465l7 37q92 0 155.5 51.5t63.5 128.5q0 42 -22 71.5t-58 29.5q-58 0 -86 -25l-27 4l35 172l37 -2l-27 -129q32 14 70 14q81 0 128.5 -45t47.5 -110q0 -84 -94 -140.5t-230 -56.5z" />
    <glyph glyph-name="guillemotright" unicode="&#xbb;" horiz-adv-x="925" 
d="M72 168l233 203q94 91 131 98v8q-37 7 -131 98l-233 201l73 76l371 -377v-6l-371 -375zM412 168l233 203q94 91 131 98v8q-37 7 -131 98l-233 201l71 76l371 -377v-6l-371 -375z" />
    <glyph glyph-name="circumflex" unicode="&#x2c6;" horiz-adv-x="585" 
d="M295 1221l209 204h57l211 -204l-31 -37l-100 100q-104 104 -104 119h-9q0 -6 -29.5 -41t-72.5 -78l-100 -100z" />
    <glyph glyph-name="ring" unicode="&#x2da;" horiz-adv-x="434" 
d="M37 1280q0 72 56 127t124 55t125 -55t57 -127t-57 -127t-125 -55t-124 56t-56 126zM90 1280q0 -47 41 -87t86 -40q46 0 86.5 38.5t40.5 88.5t-40.5 88.5t-86.5 38.5t-86.5 -38.5t-40.5 -88.5z" />
    <glyph glyph-name="tilde" unicode="&#x2dc;" horiz-adv-x="743" 
d="M403 1210l17 64q20 74 50.5 102.5t74.5 28.5q36 0 83 -23.5t85 -51t80.5 -51t70.5 -23.5q52 0 72 79l16 62l33 -8l-16 -62q-22 -82 -54 -112.5t-79 -30.5q-46 0 -109 37.5t-120.5 75t-90.5 37.5q-45 0 -63 -68l-17 -64z" />
    <glyph glyph-name="uni0400" unicode="&#x400;" horiz-adv-x="1130" 
d="M37 0v18h72q73 0 90.5 17.5t17.5 91.5v1219q0 74 -17.5 91t-90.5 17h-72v19h817q57 0 76 -19h2l-6 95l18 1l37 -555h-37l-8 144q-9 161 -85.5 229t-229.5 68h-289v-2q45 -45 45 -107v-536h82q40 0 68 3.5t59 16.5t50 35.5t31.5 63.5t12.5 98v71h18v-657h-18v113
q0 57 -12.5 98t-31.5 64t-50 36.5t-59.5 17t-67.5 3.5h-82v-609q0 -61 -45 -106v-2h407q149 0 222 64.5t83 211.5l13 164h33l-35 -555l-19 1l6 95h-2q-18 -18 -75 -18h-928zM403 1833l25 20q12 9 21 9q12 0 20 -11l242 -284l-19 -17l-239 222z" />
    <glyph glyph-name="afii10023" unicode="&#x401;" horiz-adv-x="1130" 
d="M37 0v18h72q73 0 90.5 17.5t17.5 91.5v1219q0 74 -17.5 91t-90.5 17h-72v19h817q57 0 76 -19h2l-6 95l18 1l37 -555h-37l-8 144q-9 161 -85.5 229t-229.5 68h-289v-2q45 -45 45 -107v-536h82q40 0 68 3.5t59 16.5t50 35.5t31.5 63.5t12.5 98v71h18v-657h-18v113
q0 57 -12.5 98t-31.5 64t-50 36.5t-59.5 17t-67.5 3.5h-82v-609q0 -61 -45 -106v-2h407q149 0 222 64.5t83 211.5l13 164h33l-35 -555l-19 1l6 95h-2q-18 -18 -75 -18h-928zM305 1716q0 40 24 65t66 25q41 0 66.5 -24t25.5 -66q0 -40 -25 -65t-67 -25q-40 0 -65 24t-25 66z
M705 1716q0 40 25 65t67 25q40 0 65 -24t25 -66q0 -40 -24 -65t-66 -25q-41 0 -66.5 24t-25.5 66z" />
    <glyph glyph-name="afii10051" unicode="&#x402;" horiz-adv-x="1503" 
d="M31 1118l30 475l23 -1l-10 -119h954l-10 117l22 1l31 -473l-37 -2l-6 84q-5 75 -20.5 120t-49.5 71.5t-81 35.5t-125 9h-119v-576q0 -42 -20 -204.5t-25 -176.5h18q0 4 3 23t13.5 57t26.5 78.5t46.5 84.5t69.5 78.5t99.5 56.5t132.5 22q152 0 238 -80.5t86 -229.5v-479
q0 -155 -94 -249.5t-248 -94.5q-25 0 -53 4.5t-44.5 9t-39.5 11.5t-27 8l14 41q63 -18 82 -23.5t41.5 -9.5t42.5 -4q84 0 125 58.5t41 160.5v551q0 143 -45.5 217t-134.5 74q-155 0 -251.5 -134.5t-96.5 -347.5v-235q0 -74 17.5 -91.5t90.5 -17.5h70v-18h-602v18h156
q73 0 90.5 17.5t17.5 91.5v1309h-123q-153 0 -211 -46t-65 -190l-6 -84z" />
    <glyph glyph-name="afii10052" unicode="&#x403;" horiz-adv-x="954" 
d="M37 0v18h72q73 0 90.5 17.5t17.5 91.5v1219q0 74 -17.5 91t-90.5 17h-72v19h770q23 0 33.5 -4t21.5 -15h2l-8 140l18 1l39 -600h-36l-9 144q-4 80 -34.5 139t-81.5 93t-114 49.5t-140 15.5h-166v-2q45 -45 45 -107v-1200q0 -73 18 -91t92 -18h134v-18h-584zM410 1567
l241 284q8 11 21 11q8 0 20 -9l25 -20l-49 -61l-240 -222z" />
    <glyph glyph-name="afii10053" unicode="&#x404;" horiz-adv-x="1335" 
d="M72 741q0 222 88.5 392t251 263t374.5 93q222 0 375 -131q16 -16 23 -41l14 4q-4 16 -6 59l-4 149l18 1l19 -592l-37 -1l-6 189q-5 89 -65 165.5t-153 119.5t-194 43q-252 0 -384 -174t-132 -506v-18h287q40 0 68 3.5t59 16.5t50 35.5t31.5 63.5t12.5 98v71h18v-657h-18
v113q0 57 -12.5 98t-31.5 64t-50 36.5t-59.5 17t-67.5 3.5h-286q11 -341 148.5 -520t389.5 -179q149 0 276 76.5t179 203.5l34 -13q-58 -148 -192 -225.5t-302 -77.5q-213 0 -375.5 94t-251.5 266t-89 397z" />
    <glyph glyph-name="afii10054" unicode="&#x405;" horiz-adv-x="978" 
d="M57 502l37 2l4 -84q9 -178 115 -288.5t255 -110.5q142 0 224 80.5t82 228.5q0 60 -23 112t-62 91.5t-89.5 76t-106.5 70t-112 68.5t-106.5 76.5t-89.5 88t-62 109t-23 135.5q0 149 111 240.5t293 91.5q151 0 272 -90q9 -7 20 -23.5t13 -23.5l14 4q-5 16 -8 65l-6 109h20
l23 -483l-37 -2l-4 86q-3 63 -23 119t-56.5 102t-95.5 73t-132 27q-125 0 -192.5 -64.5t-67.5 -185.5q0 -58 23.5 -108t63 -88.5t91 -74.5t108 -70t113 -69.5t108 -78.5t91 -92t63 -115.5t23.5 -143.5q0 -182 -121 -280t-336 -98q-92 0 -167 26.5t-157 83.5q-11 8 -29 31.5
t-22 36.5l-8 -2q5 -17 8 -88l6 -128l-18 -1z" />
    <glyph glyph-name="afii10055" unicode="&#x406;" horiz-adv-x="593" 
d="M37 0v18h72q74 0 91 17t17 90v1223q0 73 -17 89.5t-91 16.5h-72v19h522v-23h-72q-74 0 -92 -17t-18 -90v-1218q0 -73 18 -90t92 -17h72v-18h-522z" />
    <glyph glyph-name="afii10056" unicode="&#x407;" horiz-adv-x="593" 
d="M6 1716q0 40 24 65t66 25q41 0 66.5 -24t25.5 -66q0 -40 -25 -65t-67 -25q-40 0 -65 24t-25 66zM37 0v18h72q74 0 91 17t17 90v1223q0 73 -17 89.5t-91 16.5h-72v19h522v-23h-72q-74 0 -92 -17t-18 -90v-1218q0 -73 18 -90t92 -17h72v-18h-522zM406 1716q0 40 25 65
t67 25q40 0 65 -24t25 -66q0 -40 -24 -65t-66 -25q-41 0 -66.5 24t-25.5 66z" />
    <glyph glyph-name="afii10057" unicode="&#x408;" horiz-adv-x="831" 
d="M49 242h19q0 -99 66.5 -159t176.5 -60q80 0 122 55.5t42 161.5v1157q0 23 3.5 32t15.5 21v4h-283v19h586v-19h-54q-108 0 -108 -108v-1014q0 -154 -91.5 -250t-232.5 -96q-118 0 -190 70.5t-72 185.5z" />
    <glyph glyph-name="afii10058" unicode="&#x409;" horiz-adv-x="1728" 
d="M46 63q62 54 120 128.5t114.5 177.5t90.5 238t35 280v416q0 38 -1.5 61t-8.5 41.5t-15.5 27t-29.5 14t-43 6.5t-62 1h-45v19h176h862v-19h-74q-71 0 -89.5 -25t-18.5 -102v-536h114q235 0 379 -109t144 -287t-144 -286.5t-379 -108.5h-454v20h71q74 0 91.5 18t17.5 91
v1307h-438v-500q0 -196 -26 -370.5t-69.5 -298.5t-94 -210t-104.5 -131zM1022 37h111q187 0 285 91.5t98 266.5q0 176 -98 268.5t-285 92.5h-76v-611q0 -69 -35 -104v-4z" />
    <glyph glyph-name="afii10059" unicode="&#x40a;" horiz-adv-x="1728" 
d="M37 0v18h72q71 0 89.5 25t18.5 102v1182q0 77 -18.5 102t-89.5 25h-72v19h504v-19h-54q-71 0 -90.5 -25t-19.5 -102v-534h520v534q0 77 -20 102t-91 25h-53v19h506v-19h-74q-71 0 -89.5 -25t-18.5 -102v-536h114q235 0 379 -109t144 -287t-144 -286.5t-379 -108.5h-454
v20h71q74 0 91.5 18t17.5 91v627h-520v-611q0 -77 19.5 -102t90.5 -25h54v-18h-504zM1022 37h111q187 0 285 91.5t98 266.5q0 176 -98 268.5t-285 92.5h-76v-611q0 -69 -35 -104v-4z" />
    <glyph glyph-name="afii10060" unicode="&#x40b;" horiz-adv-x="1503" 
d="M31 1118l30 475l23 -1l-10 -119h954l-10 117l22 1l31 -473l-37 -2l-6 84q-5 75 -20.5 120t-49.5 71.5t-81 35.5t-125 9h-119v-576q0 -42 -20 -204.5t-25 -176.5h18q0 4 3 23t13.5 57t26.5 78.5t46.5 84.5t69.5 78.5t99.5 56.5t132.5 22q153 0 240.5 -80.5t87.5 -229.5
v-442q0 -73 17.5 -91t91.5 -18h34v-18h-487v18h199v5q-12 12 -15.5 21t-3.5 32v477q0 143 -45.5 217t-134.5 74q-155 0 -251.5 -134.5t-96.5 -347.5v-235q0 -74 17.5 -91.5t90.5 -17.5h70v-18h-602v18h156q73 0 90.5 17.5t17.5 91.5v1309h-123q-153 0 -211 -46t-65 -190
l-6 -84z" />
    <glyph glyph-name="afii10061" unicode="&#x40c;" horiz-adv-x="1200" 
d="M37 0v18h72q73 0 90.5 20.5t17.5 106.5v1201q0 74 -17.5 91t-90.5 17h-71v19h469v-19h-19q-74 0 -92.5 -17.5t-18.5 -90.5v-461q60 0 90 5.5t43 22.5l324 408q37 47 37 77q0 56 -106 56h-19v19h453v-19h-25q-80 0 -161 -33t-140 -108l-325 -412l2 -8q75 -17 134.5 -50
t98.5 -72.5t67.5 -92t44 -102t27.5 -109.5q8 -40 15 -93.5t11.5 -91.5t12 -81t18 -72t26 -54t40 -37t57.5 -12q45 0 97 41l27 21l11 -14l-26 -21q-85 -76 -166 -76q-32 0 -60 7.5t-49 18.5t-40 32.5t-32 39.5t-25.5 50.5t-20 55t-16.5 63.5t-13.5 64.5t-13 69t-12.5 68.5
q-10 52 -19 91t-24.5 85t-33.5 79.5t-45.5 66t-60.5 53t-78.5 33t-99.5 12.5h-25v-721q0 -86 18.5 -106.5t92.5 -20.5h72v-18h-523zM494 1567l241 284q8 11 21 11q8 0 20 -9l25 -20l-49 -61l-240 -222z" />
    <glyph glyph-name="uni040D" unicode="&#x40d;" 
d="M37 0v18h72q71 0 89.5 25t18.5 102v1182q0 77 -18.5 102t-89.5 25h-72v19h504v-19h-54q-71 0 -90.5 -25t-19.5 -102v-1188l581 1334h322v-19h-74q-71 0 -89.5 -25t-18.5 -102v-1182q0 -77 18.5 -102t89.5 -25h74v-18h-506v18h55q71 0 90 25t19 102v1188l-582 -1333h-319z
M496 1837l24 21q12 9 21 9q11 0 20 -12l242 -284l-19 -17l-239 222z" />
    <glyph glyph-name="afii10062" unicode="&#x40e;" horiz-adv-x="1142" 
d="M27 1454v19h395v-19h-146v-4q31 -11 68 -96l295 -672q14 -34 14 -86v-4l15 4l286 731q15 41 15 63q0 64 -101 64h-94v19h352v-17h-12q-48 0 -67.5 -23t-45.5 -89q-4 -11 -6 -17l-432 -1094q-48 -122 -121.5 -185.5t-154.5 -63.5q-105 0 -105 163q71 -16 115 -16
q107 0 161.5 41.5t89.5 124.5l16 39q11 27 11 53q0 31 -14 62l-381 876q-34 81 -49 99q-23 28 -74 28h-30zM324 1841l73 6q0 -84 61.5 -144.5t147.5 -60.5t147.5 60.5t61.5 144.5l74 -6q0 -98 -83 -166.5t-200 -68.5t-199.5 68.5t-82.5 166.5z" />
    <glyph glyph-name="afii10145" unicode="&#x40f;" 
d="M37 0v18h74q71 0 89.5 25t18.5 102v1182q0 77 -18.5 102t-89.5 25h-74v19h506v-19h-56q-71 0 -89.5 -25t-18.5 -102v-1290h561v1290q0 77 -20 102t-91 25h-53v19h504v-19h-72q-71 0 -89.5 -25t-18.5 -102v-1182q0 -77 18.5 -102t89.5 -25h72v-18h-340h-256v-303h-55v303
h-250h-342z" />
    <glyph glyph-name="afii10017" unicode="&#x410;" horiz-adv-x="1552" 
d="M16 0v18h33q35 0 60 32t53 95l575 1328h158v-25q0 -74 18 -119l484 -1184q34 -82 46 -98q24 -29 75 -29h16v-18h-391v18h157v5q-29 10 -63 96l-114 280h-811l-111 -254q-11 -27 -11 -46q0 -36 27 -58.5t72 -22.5h100v-18h-373zM328 436h780l-348 854q-17 40 -17 82h-18
q0 -22 -25 -82z" />
    <glyph glyph-name="afii10018" unicode="&#x411;" horiz-adv-x="1171" 
d="M37 0v20h72q73 0 90.5 17.5t17.5 91.5v1217q0 74 -17.5 91t-90.5 17h-72v19h852q23 0 33.5 -4t21.5 -15h2l-8 140l18 1l39 -600h-37l-8 144q-5 80 -35 139t-81.5 93t-114 49.5t-139.5 15.5h-248v-2q45 -45 45 -107v-528h143q278 0 447.5 -110t169.5 -290t-155 -289.5
t-409 -109.5h-536zM342 37h193q207 0 315 92.5t108 269.5q0 178 -112 271.5t-324 93.5h-145v-619q0 -69 -35 -104v-4z" />
    <glyph glyph-name="afii10019" unicode="&#x412;" horiz-adv-x="1212" 
d="M37 0v20h72q73 0 90.5 17.5t17.5 91.5v1217q0 74 -17.5 91t-90.5 17h-72v19h500q218 0 351.5 -85.5t133.5 -224.5q0 -95 -81 -181t-214 -105v-9q129 -9 234 -75.5t161 -164t56 -202.5q0 -125 -75.5 -223t-204 -150.5t-286.5 -52.5h-575zM342 37h233q190 0 307 107
t117 282q0 184 -122.5 303t-313.5 119h-108v35h82q135 0 223 77.5t88 198.5q0 125 -93.5 201t-246.5 76h-166v-2q35 -35 35 -107v-1182q0 -69 -35 -104v-4z" />
    <glyph glyph-name="afii10020" unicode="&#x413;" horiz-adv-x="954" 
d="M37 0v18h72q73 0 90.5 17.5t17.5 91.5v1219q0 74 -17.5 91t-90.5 17h-72v19h770q23 0 33.5 -4t21.5 -15h2l-8 140l18 1l39 -600h-36l-9 144q-4 80 -34.5 139t-81.5 93t-114 49.5t-140 15.5h-166v-2q45 -45 45 -107v-1200q0 -73 18 -91t92 -18h134v-18h-584z" />
    <glyph glyph-name="afii10021" unicode="&#x414;" horiz-adv-x="1359" 
d="M23 37h142q61 53 120 133t114.5 187t89.5 246t35 284v416q0 39 -1.5 61.5t-8.5 41t-15.5 27t-29.5 14t-42.5 6.5t-61.5 1h-46v19h998v-19h-74q-71 0 -89.5 -25t-18.5 -102v-1290h182v-381h-74v217q0 77 -19.5 102t-90.5 25h-926q-71 0 -91 -25t-20 -102v-217h-73v381z
M390 37h585v1399h-397v-500q0 -287 -52.5 -519.5t-135.5 -379.5z" />
    <glyph glyph-name="afii10022" unicode="&#x415;" horiz-adv-x="1130" 
d="M37 0v18h72q73 0 90.5 17.5t17.5 91.5v1219q0 74 -17.5 91t-90.5 17h-72v19h817q57 0 76 -19h2l-6 95l18 1l37 -555h-37l-8 144q-9 161 -85.5 229t-229.5 68h-289v-2q45 -45 45 -107v-536h82q40 0 68 3.5t59 16.5t50 35.5t31.5 63.5t12.5 98v71h18v-657h-18v113
q0 57 -12.5 98t-31.5 64t-50 36.5t-59.5 17t-67.5 3.5h-82v-609q0 -61 -45 -106v-2h407q149 0 222 64.5t83 211.5l13 164h33l-35 -555l-19 1l6 95h-2q-18 -18 -75 -18h-928z" />
    <glyph glyph-name="afii10024" unicode="&#x416;" horiz-adv-x="1783" 
d="M-37 74l12 14l26 -21q52 -41 98 -41q33 0 57.5 12t40 37t26 54t17.5 72t11.5 81.5t11.5 91.5t15 93q12 60 27.5 109.5t44.5 102t68 92t98.5 72.5t134.5 50l2 8l-326 412q-59 75 -140 108t-161 33h-25v19h453v-19h-18q-107 0 -107 -56q0 -30 37 -77l324 -408
q22 -28 122 -28v461q-1 73 -18.5 90.5t-90.5 17.5h-20v19h418v-19h-19q-74 0 -92 -17.5t-18 -90.5v-461q58 0 83 5.5t39 22.5l324 408q37 47 37 77q0 56 -107 56h-18v19h453v-19h-25q-80 0 -161 -33t-140 -108l-326 -412l2 -8q75 -17 134.5 -50t98.5 -72.5t68 -92t44.5 -102
t27.5 -109.5q8 -40 15 -93t11.5 -91.5t11.5 -81.5t17.5 -72t26 -54t40 -37t57.5 -12q46 0 98 41l26 21l12 -14l-26 -21q-85 -76 -167 -76q-32 0 -60 7.5t-49 18.5t-40 32.5t-32 39.5t-25.5 50.5t-20 55t-16.5 63.5t-13.5 64.5t-13 69t-12.5 68.5q-12 62 -23 106.5t-30 96.5
t-45 88t-62 67t-86.5 46.5t-113.5 15.5h-14v-721q0 -86 18 -106.5t92 -20.5h72v-18h-523v18h72q73 0 90.5 20.5t18.5 106.5v721h-14q-63 0 -113.5 -15.5t-86.5 -46.5t-62 -67t-45 -88t-30 -96.5t-23 -106.5q-4 -22 -12.5 -68.5t-13 -69.5t-13.5 -64t-16.5 -63t-20.5 -55
t-26 -51t-31.5 -39.5t-40 -32.5t-49.5 -18.5t-60 -7.5q-81 0 -166 76z" />
    <glyph glyph-name="afii10025" unicode="&#x417;" horiz-adv-x="983" 
d="M72 133l26 26q67 -67 154.5 -103t165.5 -36q157 0 248.5 98.5t91.5 280.5q0 185 -93 306.5t-233 121.5h-104v37h73q124 0 207.5 93t83.5 227q0 128 -73.5 198t-198.5 70q-69 0 -122 -25t-83.5 -68t-47 -90t-20.5 -100v-67h-34v366h18v-82l6 -2q6 11 19.5 24t25.5 19
q99 58 236 62q174 0 287.5 -83.5t113.5 -217.5q0 -112 -83.5 -214.5t-184.5 -121.5v-2q150 -20 255 -154t105 -297q0 -185 -139 -300t-354 -115q-86 0 -180 38.5t-166 110.5z" />
    <glyph glyph-name="afii10026" unicode="&#x418;" 
d="M37 0v18h72q71 0 89.5 25t18.5 102v1182q0 77 -18.5 102t-89.5 25h-72v19h504v-19h-54q-71 0 -90.5 -25t-19.5 -102v-1188l581 1334h322v-19h-74q-71 0 -89.5 -25t-18.5 -102v-1182q0 -77 18.5 -102t89.5 -25h74v-18h-506v18h55q71 0 90 25t19 102v1188l-582 -1333h-319z
" />
    <glyph glyph-name="afii10027" unicode="&#x419;" 
d="M37 0v18h72q71 0 89.5 25t18.5 102v1182q0 77 -18.5 102t-89.5 25h-72v19h504v-19h-54q-71 0 -90.5 -25t-19.5 -102v-1188l581 1334h322v-19h-74q-71 0 -89.5 -25t-18.5 -102v-1182q0 -77 18.5 -102t89.5 -25h74v-18h-506v18h55q71 0 90 25t19 102v1188l-582 -1333h-319z
M406 1841l73 6q0 -84 61.5 -144.5t147.5 -60.5t147.5 60.5t61.5 144.5l74 -6q0 -98 -83 -166.5t-200 -68.5t-199.5 68.5t-82.5 166.5z" />
    <glyph glyph-name="afii10028" unicode="&#x41a;" horiz-adv-x="1200" 
d="M37 0v18h72q73 0 90.5 20.5t17.5 106.5v1201q0 74 -17.5 91t-90.5 17h-71v19h469v-19h-19q-74 0 -92.5 -17.5t-18.5 -90.5v-461q60 0 90 5.5t43 22.5l324 408q37 47 37 77q0 56 -106 56h-19v19h453v-19h-25q-80 0 -161 -33t-140 -108l-325 -412l2 -8q75 -17 134.5 -50
t98.5 -72.5t67.5 -92t44 -102t27.5 -109.5q8 -40 15 -93.5t11.5 -91.5t12 -81t18 -72t26 -54t40 -37t57.5 -12q45 0 97 41l27 21l11 -14l-26 -21q-85 -76 -166 -76q-32 0 -60 7.5t-49 18.5t-40 32.5t-32 39.5t-25.5 50.5t-20 55t-16.5 63.5t-13.5 64.5t-13 69t-12.5 68.5
q-10 52 -19 91t-24.5 85t-33.5 79.5t-45.5 66t-60.5 53t-78.5 33t-99.5 12.5h-25v-721q0 -86 18.5 -106.5t92.5 -20.5h72v-18h-523z" />
    <glyph glyph-name="afii10029" unicode="&#x41b;" 
d="M46 63q62 54 120 128.5t114.5 177.5t90.5 238t35 280v416q0 38 -1.5 61t-8.5 41.5t-15.5 27t-29.5 14t-43 6.5t-62 1h-45v19h176h561h342v-19h-74q-71 0 -89.5 -25t-18.5 -102v-1182q0 -77 18.5 -102t89.5 -25h74v-18h-506v18h55q71 0 90 25t19 102v1291h-479v-500
q0 -196 -26 -370.5t-69.5 -298.5t-94 -210t-104.5 -131z" />
    <glyph glyph-name="afii10030" unicode="&#x41c;" horiz-adv-x="1847" 
d="M18 0v18h33q76 0 99 28.5t28 117.5l55 1182q2 32 2 43q0 37 -19.5 51t-82.5 14h-82v19h301l531 -1174q30 -68 30 -88h11q0 26 28 88l531 1174h307v-19h-70q-70 0 -92 -20.5t-22 -69.5q0 -13 2 -55l47 -1145q3 -91 26 -118.5t105 -27.5h45v-18h-535v18h74q78 0 102 18.5
t24 60.5q0 5 -0.5 17t-0.5 19l-41 1079q-2 37 -2 91h-12q0 -5 -33 -84l-551 -1227l-6 -15h-4l-6 15l-543 1204q-23 52 -23 86h-8q0 -33 -2 -70l-51 -1075q-2 -34 -2 -46q0 -40 24.5 -56.5t104.5 -16.5h74v-18h-396z" />
    <glyph glyph-name="afii10031" unicode="&#x41d;" 
d="M37 0v18h72q71 0 89.5 25t18.5 102v1182q0 77 -18.5 102t-89.5 25h-72v19h504v-19h-54q-71 0 -90.5 -25t-19.5 -102v-534h561v534q0 77 -20 102t-91 25h-53v19h506v-19h-74q-71 0 -89.5 -25t-18.5 -102v-1182q0 -77 18.5 -102t89.5 -25h74v-18h-506v18h55q71 0 90 25
t19 102v611h-561v-611q0 -77 19.5 -102t90.5 -25h54v-18h-504z" />
    <glyph glyph-name="afii10032" unicode="&#x41e;" horiz-adv-x="1642" 
d="M63 737q0 338 209 545t551 207q340 0 548 -207t208 -545q0 -224 -94 -395t-266 -264.5t-396 -93.5q-342 0 -551 207t-209 546zM242 774q0 -368 150.5 -561t436.5 -193q278 0 425 173.5t147 504.5q0 368 -150 561t-436 193q-280 0 -426.5 -173.5t-146.5 -504.5z" />
    <glyph glyph-name="afii10033" unicode="&#x41f;" 
d="M37 0v18h72q71 0 89.5 25t18.5 102v1182q0 77 -18.5 102t-89.5 25h-72v19h1243v-19h-74q-71 0 -89.5 -25t-18.5 -102v-1182q0 -77 18.5 -102t89.5 -25h74v-18h-506v18h55q71 0 90 25t19 102v1291h-561v-1291q0 -77 19.5 -102t90.5 -25h54v-18h-504z" />
    <glyph glyph-name="afii10034" unicode="&#x420;" horiz-adv-x="1120" 
d="M37 0v18h72q73 0 90.5 17.5t17.5 91.5v1219q0 74 -17.5 91t-90.5 17h-72v19h516q231 0 372.5 -124t141.5 -327q0 -202 -141.5 -325.5t-372.5 -123.5h-176v-446q0 -73 18 -91t92 -18h52v-18h-502zM342 1423q35 -46 35 -127v-686h115q194 0 295.5 105.5t101.5 306.5
t-101.5 306.5t-295.5 105.5h-150v-11z" />
    <glyph glyph-name="afii10035" unicode="&#x421;" horiz-adv-x="1335" 
d="M72 741q0 222 88.5 392t251 263t374.5 93q222 0 375 -131q16 -16 23 -41l14 4q-4 16 -6 59l-4 149l18 1l19 -592l-37 -1l-6 189q-5 89 -65 165.5t-153 119.5t-194 43q-252 0 -384 -174t-132 -506q0 -367 138 -560.5t401 -193.5q149 0 276 76.5t179 203.5l34 -13
q-58 -148 -192 -225.5t-302 -77.5q-213 0 -375.5 94t-251.5 266t-89 397z" />
    <glyph glyph-name="afii10036" unicode="&#x422;" horiz-adv-x="1101" 
d="M31 1118l30 475l23 -1l-10 -119h954l-10 117l22 1l31 -473l-37 -2l-6 84q-5 75 -20.5 120t-49.5 71.5t-81 35.5t-125 9h-119v-1309q0 -74 17.5 -91.5t90.5 -17.5h152v-18h-684v18h156q73 0 90.5 17.5t17.5 91.5v1309h-123q-153 0 -211 -46t-65 -190l-6 -84z" />
    <glyph glyph-name="afii10037" unicode="&#x423;" horiz-adv-x="1142" 
d="M27 1454v19h395v-19h-146v-4q31 -11 68 -96l295 -672q14 -34 14 -86v-4l15 4l286 731q15 41 15 63q0 64 -101 64h-94v19h352v-17h-12q-48 0 -67.5 -23t-45.5 -89q-4 -11 -6 -17l-432 -1094q-48 -122 -121.5 -185.5t-154.5 -63.5q-105 0 -105 163q71 -16 115 -16
q107 0 161.5 41.5t89.5 124.5l16 39q11 27 11 53q0 31 -14 62l-381 876q-34 81 -49 99q-23 28 -74 28h-30z" />
    <glyph glyph-name="afii10038" unicode="&#x424;" horiz-adv-x="1642" 
d="M63 737q0 228 185 374.5t493 164.5v72q0 73 -17 89.5t-91 16.5h-72v19h522v-23h-71q-74 0 -92.5 -17t-18.5 -90v-67q308 -17 493 -164t185 -375q0 -229 -184.5 -375.5t-493.5 -164.5v-72q0 -73 18.5 -90t92.5 -17h71v-18h-522v18h72q74 0 91 17t17 90v72
q-309 19 -493.5 165t-184.5 375zM242 774q0 -223 135.5 -368t363.5 -170v1002q-228 -19 -363.5 -144.5t-135.5 -319.5zM901 234q228 18 364 144t136 320q0 223 -136 368.5t-364 170.5v-1003z" />
    <glyph glyph-name="afii10039" unicode="&#x425;" horiz-adv-x="1175" 
d="M37 0v16h18q62 0 98 31.5t87 130.5l279 548l-265 568q-44 94 -79 127t-81 33h-22v19h350v-19h-111v-4q22 -8 54.5 -42t50.5 -71l226 -484l241 447q44 82 44 112q0 22 -21 32t-70 10h-72v19h342v-19h-25q-45 0 -74.5 -30t-84.5 -130l-261 -482l295 -634q60 -106 76 -125
q29 -35 74 -35h35v-18h-475v18h43q58 0 83 12t25 39q0 29 -39 101l-239 513l-258 -505q-43 -84 -43 -116q0 -25 22 -35.5t74 -10.5h69v-16h-366z" />
    <glyph glyph-name="afii10040" unicode="&#x426;" horiz-adv-x="1441" 
d="M37 0v18h74q71 0 89.5 25t18.5 102v1182q0 77 -18.5 102t-89.5 25h-74v19h483v-19h-33q-71 0 -89.5 -25t-18.5 -102v-1290h518v1290q0 77 -20 102t-91 25h-32v19h483v-19h-72q-71 0 -89.5 -25t-18.5 -102v-1163q0 -77 18.5 -102t89.5 -25h226v-340h-56v176
q0 77 -19.5 102t-90.5 25h-1188z" />
    <glyph glyph-name="afii10041" unicode="&#x427;" horiz-adv-x="1185" 
d="M35 1454v19h426v-19h-137v-4q11 -11 14.5 -20t3.5 -33v-436q0 -143 45.5 -217t134.5 -74h287v678q0 73 -17.5 89.5t-91.5 16.5h-71v19h522v-23h-72q-74 0 -92 -17t-18 -90v-1218q0 -73 18 -90t92 -17h72v-18h-522v18h71q74 0 91.5 17t17.5 90v510h-303q-151 0 -230 79
t-79 230v402q0 73 -17.5 90.5t-91.5 17.5h-53z" />
    <glyph glyph-name="afii10042" unicode="&#x428;" horiz-adv-x="1875" 
d="M37 0v18h74q71 0 89.5 25t18.5 102v1182q0 77 -18.5 102t-89.5 25h-74v19h506v-19h-56q-71 0 -89.5 -25t-18.5 -102v-1290h481v108v1182q0 77 -19.5 102t-88.5 25h-56v19h488v-19h-56q-71 0 -89.5 -25t-18.5 -102v-1182v-108h481v1290q0 77 -19.5 102t-90.5 25h-54v19
h504v-19h-72q-71 0 -89.5 -25t-18.5 -102v-1182q0 -77 18.5 -102t89.5 -25h72v-18h-1804z" />
    <glyph glyph-name="afii10043" unicode="&#x429;" horiz-adv-x="2002" 
d="M37 0v18h74q71 0 89.5 25t18.5 102v1182q0 77 -18.5 102t-89.5 25h-74v19h483v-19h-33q-71 0 -89.5 -25t-18.5 -102v-1290h459v108v1182q0 77 -19.5 102t-89.5 25h-33v19h445v-19h-35q-71 0 -90 -25t-19 -102v-1182v-108h461v1290q0 77 -19.5 102t-90.5 25h-33v19h483
v-19h-72q-71 0 -89.5 -25t-18.5 -102v-1163q0 -77 18.5 -102t89.5 -25h226v-340h-56v176q0 77 -19.5 102t-90.5 25h-1749z" />
    <glyph glyph-name="afii10044" unicode="&#x42a;" horiz-adv-x="1368" 
d="M41 1098l33 497l18 -1l-8 -140h2q11 11 21.5 15t33.5 4h695v-19h-72q-74 0 -91.5 -17.5t-17.5 -90.5v-588h156q235 0 378.5 -104.5t143.5 -274.5t-143.5 -274.5t-378.5 -104.5h-496v20h72q73 0 91 18t18 91v1307h-86q-78 0 -133 -12.5t-99 -43t-67.5 -85.5t-28.5 -136
l-4 -61h-37zM621 37h151q187 0 285 87.5t98 254.5q0 168 -98 256t-285 88h-117v-578q0 -70 -34 -104v-4z" />
    <glyph glyph-name="afii10045" unicode="&#x42b;" horiz-adv-x="1636" 
d="M37 0v20h72q73 0 90.5 17.5t17.5 91.5v1219q0 73 -17 89.5t-91 16.5h-72v19h522v-19h-72q-73 0 -91.5 -18.5t-18.5 -92.5v-585h155q235 0 379 -104.5t144 -274.5t-144 -274.5t-379 -104.5h-495zM342 37h152q187 0 285 87.5t98 254.5q0 168 -98 256t-285 88h-117v-578
q0 -69 -35 -104v-4zM1079 0v18h72q74 0 91.5 17t17.5 90v1223q0 73 -17.5 89.5t-91.5 16.5h-72v19h523v-23h-72q-74 0 -92.5 -17t-18.5 -90v-1218q0 -73 18.5 -90t92.5 -17h72v-18h-523z" />
    <glyph glyph-name="afii10046" unicode="&#x42c;" horiz-adv-x="1089" 
d="M37 0v20h72q73 0 90.5 17.5t17.5 91.5v1219q0 73 -17 89.5t-91 16.5h-72v19h522v-19h-72q-73 0 -91.5 -18.5t-18.5 -92.5v-585h155q235 0 379 -104.5t144 -274.5t-144 -274.5t-379 -104.5h-495zM342 37h152q187 0 285 87.5t98 254.5q0 168 -98 256t-285 88h-117v-578
q0 -69 -35 -104v-4z" />
    <glyph glyph-name="afii10047" unicode="&#x42d;" horiz-adv-x="1335" 
d="M53 287l35 13q52 -127 179 -203.5t276 -76.5q252 0 389.5 179t148.5 520h-286q-50 0 -84.5 -7t-68.5 -28t-51.5 -67t-17.5 -117v-113h-18v657h18v-71q0 -71 17.5 -116.5t52 -66.5t68.5 -27.5t84 -6.5h286v18q0 332 -132 506t-384 174q-101 0 -193.5 -43t-152.5 -119.5
t-65 -165.5l-7 -189l-36 1l18 592l18 -1l-4 -149q-2 -43 -6 -59l15 -4q8 27 22 41q153 131 375 131q212 0 374.5 -93t251.5 -263t89 -392q0 -225 -89 -397t-252 -266t-376 -94q-168 0 -302 77.5t-192 225.5z" />
    <glyph glyph-name="afii10048" unicode="&#x42e;" horiz-adv-x="2117" 
d="M37 0v18h72q74 0 91 17t17 90v1223q0 73 -17 89.5t-91 16.5h-72v19h522v-23h-72q-74 0 -92 -17t-18 -90v-587h240q4 218 94 384.5t252 257.5t372 91q212 0 374.5 -93.5t251.5 -264.5t89 -394q0 -224 -89 -395t-251.5 -264.5t-374.5 -93.5q-210 0 -372 91t-252 258
t-94 386h-240v-594q0 -73 18 -90t92 -17h72v-18h-522zM795 774q0 -368 140 -561t406 -193q259 0 395 173.5t136 504.5q0 367 -139.5 560.5t-405.5 193.5q-260 0 -396 -173.5t-136 -504.5z" />
    <glyph glyph-name="afii10049" unicode="&#x42f;" horiz-adv-x="1241" 
d="M51 63v162q149 -106 272 -106q167 0 256 136.5t91 389.5q-254 0 -410 107.5t-156 306.5q0 198 156 306t410 108h534v-19h-71q-74 0 -91.5 -17.5t-17.5 -90.5v-1219q0 -73 18 -91t91 -18h71v-18h-487v18h37q74 0 92 18t18 91v518h-157q-1 -298 -120 -479.5t-311 -181.5
q-133 0 -225 79zM283 1059q0 -198 103.5 -287.5t299.5 -89.5h178v645q0 72 35 107v2h-213q-403 0 -403 -377z" />
    <glyph glyph-name="afii10065" unicode="&#x430;" horiz-adv-x="1103" 
d="M51 319q0 192 151 309t398 117h160v439q0 132 -62 200t-180 68q-147 0 -229 -77t-88 -201l-6 -127h-37l22 483h21l-6 -109q-3 -44 -9 -65l15 -4q2 7 12.5 23.5t19.5 23.5q121 90 283 90q199 0 303.5 -85t104.5 -247v-1012q0 -64 11.5 -84t55.5 -20q5 0 19 1t22 1l35 2
l1 -18q-128 -13 -226 -45v16q0 50 -19 168t-20 149h-21q-43 -174 -133.5 -252.5t-210.5 -78.5q-168 0 -277.5 92.5t-109.5 242.5zM229 319q0 -126 64.5 -203t169.5 -77q55 0 107 26t95 75.5t69 133.5t26 189v246h-150q-172 0 -276.5 -107.5t-104.5 -282.5z" />
    <glyph glyph-name="afii10066" unicode="&#x431;" horiz-adv-x="1171" 
d="M37 0v20h72q73 0 90.5 17.5t17.5 91.5v1217q0 74 -17.5 91t-90.5 17h-72v19h852q23 0 33.5 -4t21.5 -15h2l-8 140l18 1l39 -600h-37l-8 144q-5 80 -35 139t-81.5 93t-114 49.5t-139.5 15.5h-248v-2q45 -45 45 -107v-528h143q278 0 447.5 -110t169.5 -290t-155 -289.5
t-409 -109.5h-536zM342 37h193q207 0 315 92.5t108 269.5q0 178 -112 271.5t-324 93.5h-145v-619q0 -69 -35 -104v-4z" />
    <glyph glyph-name="afii10067" unicode="&#x432;" horiz-adv-x="1212" 
d="M37 0v20h72q73 0 90.5 17.5t17.5 91.5v1217q0 74 -17.5 91t-90.5 17h-72v19h500q218 0 351.5 -85.5t133.5 -224.5q0 -95 -81 -181t-214 -105v-9q129 -9 234 -75.5t161 -164t56 -202.5q0 -125 -75.5 -223t-204 -150.5t-286.5 -52.5h-575zM342 37h233q190 0 307 107
t117 282q0 184 -122.5 303t-313.5 119h-108v35h82q135 0 223 77.5t88 198.5q0 125 -93.5 201t-246.5 76h-166v-2q35 -35 35 -107v-1182q0 -69 -35 -104v-4z" />
    <glyph glyph-name="afii10068" unicode="&#x433;" horiz-adv-x="954" 
d="M37 0v18h72q73 0 90.5 17.5t17.5 91.5v1219q0 74 -17.5 91t-90.5 17h-72v19h770q23 0 33.5 -4t21.5 -15h2l-8 140l18 1l39 -600h-36l-9 144q-4 80 -34.5 139t-81.5 93t-114 49.5t-140 15.5h-166v-2q45 -45 45 -107v-1200q0 -73 18 -91t92 -18h134v-18h-584z" />
    <glyph glyph-name="afii10069" unicode="&#x434;" horiz-adv-x="1359" 
d="M23 37h142q61 53 120 133t114.5 187t89.5 246t35 284v416q0 39 -1.5 61.5t-8.5 41t-15.5 27t-29.5 14t-42.5 6.5t-61.5 1h-46v19h998v-19h-74q-71 0 -89.5 -25t-18.5 -102v-1290h182v-381h-74v217q0 77 -19.5 102t-90.5 25h-926q-71 0 -91 -25t-20 -102v-217h-73v381z
M390 37h585v1399h-397v-500q0 -287 -52.5 -519.5t-135.5 -379.5z" />
    <glyph glyph-name="afii10070" unicode="&#x435;" horiz-adv-x="1542" 
d="M63 741q0 222 94 392t266 263t396 93q178 0 327 -76.5t239 -220t90 -324.5v-10q0 -25 -19 -42t-45 -17h-1165v-25q0 -362 154 -558t421 -196q204 0 362 83.5t248 234.5l30 -23q-96 -158 -263 -244.5t-383 -86.5q-214 0 -385 93.5t-269 267t-98 396.5zM247 836l1029 14
q16 0 16 18q0 263 -132 423.5t-349 160.5q-262 0 -406 -157.5t-158 -458.5z" />
    <glyph glyph-name="afii10072" unicode="&#x436;" horiz-adv-x="1783" 
d="M-37 74l12 14l26 -21q52 -41 98 -41q33 0 57.5 12t40 37t26 54t17.5 72t11.5 81.5t11.5 91.5t15 93q12 60 27.5 109.5t44.5 102t68 92t98.5 72.5t134.5 50l2 8l-326 412q-59 75 -140 108t-161 33h-25v19h453v-19h-18q-107 0 -107 -56q0 -30 37 -77l324 -408
q22 -28 122 -28v461q-1 73 -18.5 90.5t-90.5 17.5h-20v19h418v-19h-19q-74 0 -92 -17.5t-18 -90.5v-461q58 0 83 5.5t39 22.5l324 408q37 47 37 77q0 56 -107 56h-18v19h453v-19h-25q-80 0 -161 -33t-140 -108l-326 -412l2 -8q75 -17 134.5 -50t98.5 -72.5t68 -92t44.5 -102
t27.5 -109.5q8 -40 15 -93t11.5 -91.5t11.5 -81.5t17.5 -72t26 -54t40 -37t57.5 -12q46 0 98 41l26 21l12 -14l-26 -21q-85 -76 -167 -76q-32 0 -60 7.5t-49 18.5t-40 32.5t-32 39.5t-25.5 50.5t-20 55t-16.5 63.5t-13.5 64.5t-13 69t-12.5 68.5q-12 62 -23 106.5t-30 96.5
t-45 88t-62 67t-86.5 46.5t-113.5 15.5h-14v-721q0 -86 18 -106.5t92 -20.5h72v-18h-523v18h72q73 0 90.5 20.5t18.5 106.5v721h-14q-63 0 -113.5 -15.5t-86.5 -46.5t-62 -67t-45 -88t-30 -96.5t-23 -106.5q-4 -22 -12.5 -68.5t-13 -69.5t-13.5 -64t-16.5 -63t-20.5 -55
t-26 -51t-31.5 -39.5t-40 -32.5t-49.5 -18.5t-60 -7.5q-81 0 -166 76z" />
    <glyph glyph-name="afii10073" unicode="&#x437;" horiz-adv-x="983" 
d="M72 133l26 26q67 -67 154.5 -103t165.5 -36q157 0 248.5 98.5t91.5 280.5q0 185 -93 306.5t-233 121.5h-104v37h73q124 0 207.5 93t83.5 227q0 128 -73.5 198t-198.5 70q-69 0 -122 -25t-83.5 -68t-47 -90t-20.5 -100v-67h-34v366h18v-82l6 -2q6 11 19.5 24t25.5 19
q99 58 236 62q174 0 287.5 -83.5t113.5 -217.5q0 -112 -83.5 -214.5t-184.5 -121.5v-2q150 -20 255 -154t105 -297q0 -185 -139 -300t-354 -115q-86 0 -180 38.5t-166 110.5z" />
    <glyph glyph-name="afii10074" unicode="&#x438;" 
d="M37 0v18h72q71 0 89.5 25t18.5 102v1182q0 77 -18.5 102t-89.5 25h-72v19h504v-19h-54q-71 0 -90.5 -25t-19.5 -102v-1188l581 1334h322v-19h-74q-71 0 -89.5 -25t-18.5 -102v-1182q0 -77 18.5 -102t89.5 -25h74v-18h-506v18h55q71 0 90 25t19 102v1188l-582 -1333h-319z
" />
    <glyph glyph-name="afii10075" unicode="&#x439;" 
d="M37 0v18h72q71 0 89.5 25t18.5 102v1182q0 77 -18.5 102t-89.5 25h-72v19h504v-19h-54q-71 0 -90.5 -25t-19.5 -102v-1188l581 1334h322v-19h-74q-71 0 -89.5 -25t-18.5 -102v-1182q0 -77 18.5 -102t89.5 -25h74v-18h-506v18h55q71 0 90 25t19 102v1188l-582 -1333h-319z
M406 1841l73 6q0 -84 61.5 -144.5t147.5 -60.5t147.5 60.5t61.5 144.5l74 -6q0 -98 -83 -166.5t-200 -68.5t-199.5 68.5t-82.5 166.5z" />
    <glyph glyph-name="afii10076" unicode="&#x43a;" horiz-adv-x="1200" 
d="M37 0v18h72q73 0 90.5 20.5t17.5 106.5v1201q0 74 -17.5 91t-90.5 17h-71v19h469v-19h-19q-74 0 -92.5 -17.5t-18.5 -90.5v-461q60 0 90 5.5t43 22.5l324 408q37 47 37 77q0 56 -106 56h-19v19h453v-19h-25q-80 0 -161 -33t-140 -108l-325 -412l2 -8q75 -17 134.5 -50
t98.5 -72.5t67.5 -92t44 -102t27.5 -109.5q8 -40 15 -93.5t11.5 -91.5t12 -81t18 -72t26 -54t40 -37t57.5 -12q45 0 97 41l27 21l11 -14l-26 -21q-85 -76 -166 -76q-32 0 -60 7.5t-49 18.5t-40 32.5t-32 39.5t-25.5 50.5t-20 55t-16.5 63.5t-13.5 64.5t-13 69t-12.5 68.5
q-10 52 -19 91t-24.5 85t-33.5 79.5t-45.5 66t-60.5 53t-78.5 33t-99.5 12.5h-25v-721q0 -86 18.5 -106.5t92.5 -20.5h72v-18h-523z" />
    <glyph glyph-name="afii10077" unicode="&#x43b;" 
d="M46 63q62 54 120 128.5t114.5 177.5t90.5 238t35 280v416q0 38 -1.5 61t-8.5 41.5t-15.5 27t-29.5 14t-43 6.5t-62 1h-45v19h176h561h342v-19h-74q-71 0 -89.5 -25t-18.5 -102v-1182q0 -77 18.5 -102t89.5 -25h74v-18h-506v18h55q71 0 90 25t19 102v1291h-479v-500
q0 -196 -26 -370.5t-69.5 -298.5t-94 -210t-104.5 -131z" />
    <glyph glyph-name="afii10078" unicode="&#x43c;" horiz-adv-x="1847" 
d="M18 0v18h33q76 0 99 28.5t28 117.5l55 1182q2 32 2 43q0 37 -19.5 51t-82.5 14h-82v19h301l531 -1174q30 -68 30 -88h11q0 26 28 88l531 1174h307v-19h-70q-70 0 -92 -20.5t-22 -69.5q0 -13 2 -55l47 -1145q3 -91 26 -118.5t105 -27.5h45v-18h-535v18h74q78 0 102 18.5
t24 60.5q0 5 -0.5 17t-0.5 19l-41 1079q-2 37 -2 91h-12q0 -5 -33 -84l-551 -1227l-6 -15h-4l-6 15l-543 1204q-23 52 -23 86h-8q0 -33 -2 -70l-51 -1075q-2 -34 -2 -46q0 -40 24.5 -56.5t104.5 -16.5h74v-18h-396z" />
    <glyph glyph-name="afii10079" unicode="&#x43d;" 
d="M37 0v18h72q71 0 89.5 25t18.5 102v1182q0 77 -18.5 102t-89.5 25h-72v19h504v-19h-54q-71 0 -90.5 -25t-19.5 -102v-534h561v534q0 77 -20 102t-91 25h-53v19h506v-19h-74q-71 0 -89.5 -25t-18.5 -102v-1182q0 -77 18.5 -102t89.5 -25h74v-18h-506v18h55q71 0 90 25
t19 102v611h-561v-611q0 -77 19.5 -102t90.5 -25h54v-18h-504z" />
    <glyph glyph-name="afii10080" unicode="&#x43e;" horiz-adv-x="1642" 
d="M63 737q0 338 209 545t551 207q340 0 548 -207t208 -545q0 -224 -94 -395t-266 -264.5t-396 -93.5q-342 0 -551 207t-209 546zM242 774q0 -368 150.5 -561t436.5 -193q278 0 425 173.5t147 504.5q0 368 -150 561t-436 193q-280 0 -426.5 -173.5t-146.5 -504.5z" />
    <glyph glyph-name="afii10081" unicode="&#x43f;" 
d="M37 0v18h72q71 0 89.5 25t18.5 102v1182q0 77 -18.5 102t-89.5 25h-72v19h1243v-19h-74q-71 0 -89.5 -25t-18.5 -102v-1182q0 -77 18.5 -102t89.5 -25h74v-18h-506v18h55q71 0 90 25t19 102v1291h-561v-1291q0 -77 19.5 -102t90.5 -25h54v-18h-504z" />
    <glyph glyph-name="afii10082" unicode="&#x440;" horiz-adv-x="1120" 
d="M37 0v18h72q73 0 90.5 17.5t17.5 91.5v1219q0 74 -17.5 91t-90.5 17h-72v19h516q231 0 372.5 -124t141.5 -327q0 -202 -141.5 -325.5t-372.5 -123.5h-176v-446q0 -73 18 -91t92 -18h52v-18h-502zM342 1423q35 -46 35 -127v-686h115q194 0 295.5 105.5t101.5 306.5
t-101.5 306.5t-295.5 105.5h-150v-11z" />
    <glyph glyph-name="afii10083" unicode="&#x441;" horiz-adv-x="1335" 
d="M72 741q0 222 88.5 392t251 263t374.5 93q222 0 375 -131q16 -16 23 -41l14 4q-4 16 -6 59l-4 149l18 1l19 -592l-37 -1l-6 189q-5 89 -65 165.5t-153 119.5t-194 43q-252 0 -384 -174t-132 -506q0 -367 138 -560.5t401 -193.5q149 0 276 76.5t179 203.5l34 -13
q-58 -148 -192 -225.5t-302 -77.5q-213 0 -375.5 94t-251.5 266t-89 397z" />
    <glyph glyph-name="afii10084" unicode="&#x442;" horiz-adv-x="1101" 
d="M31 1118l30 475l23 -1l-10 -119h954l-10 117l22 1l31 -473l-37 -2l-6 84q-5 75 -20.5 120t-49.5 71.5t-81 35.5t-125 9h-119v-1309q0 -74 17.5 -91.5t90.5 -17.5h152v-18h-684v18h156q73 0 90.5 17.5t17.5 91.5v1309h-123q-153 0 -211 -46t-65 -190l-6 -84z" />
    <glyph glyph-name="afii10085" unicode="&#x443;" horiz-adv-x="1142" 
d="M27 1454v19h395v-19h-146v-4q31 -11 68 -96l295 -672q14 -34 14 -86v-4l15 4l286 731q15 41 15 63q0 64 -101 64h-94v19h352v-17h-12q-48 0 -67.5 -23t-45.5 -89q-4 -11 -6 -17l-432 -1094q-48 -122 -121.5 -185.5t-154.5 -63.5q-105 0 -105 163q71 -16 115 -16
q107 0 161.5 41.5t89.5 124.5l16 39q11 27 11 53q0 31 -14 62l-381 876q-34 81 -49 99q-23 28 -74 28h-30z" />
    <glyph glyph-name="afii10086" unicode="&#x444;" horiz-adv-x="1642" 
d="M63 737q0 228 185 374.5t493 164.5v72q0 73 -17 89.5t-91 16.5h-72v19h522v-23h-71q-74 0 -92.5 -17t-18.5 -90v-67q308 -17 493 -164t185 -375q0 -229 -184.5 -375.5t-493.5 -164.5v-72q0 -73 18.5 -90t92.5 -17h71v-18h-522v18h72q74 0 91 17t17 90v72
q-309 19 -493.5 165t-184.5 375zM242 774q0 -223 135.5 -368t363.5 -170v1002q-228 -19 -363.5 -144.5t-135.5 -319.5zM901 234q228 18 364 144t136 320q0 223 -136 368.5t-364 170.5v-1003z" />
    <glyph glyph-name="afii10087" unicode="&#x445;" horiz-adv-x="1175" 
d="M37 0v16h18q62 0 98 31.5t87 130.5l279 548l-265 568q-44 94 -79 127t-81 33h-22v19h350v-19h-111v-4q22 -8 54.5 -42t50.5 -71l226 -484l241 447q44 82 44 112q0 22 -21 32t-70 10h-72v19h342v-19h-25q-45 0 -74.5 -30t-84.5 -130l-261 -482l295 -634q60 -106 76 -125
q29 -35 74 -35h35v-18h-475v18h43q58 0 83 12t25 39q0 29 -39 101l-239 513l-258 -505q-43 -84 -43 -116q0 -25 22 -35.5t74 -10.5h69v-16h-366z" />
    <glyph glyph-name="afii10088" unicode="&#x446;" horiz-adv-x="1441" 
d="M37 0v18h74q71 0 89.5 25t18.5 102v1182q0 77 -18.5 102t-89.5 25h-74v19h483v-19h-33q-71 0 -89.5 -25t-18.5 -102v-1290h518v1290q0 77 -20 102t-91 25h-32v19h483v-19h-72q-71 0 -89.5 -25t-18.5 -102v-1163q0 -77 18.5 -102t89.5 -25h226v-340h-56v176
q0 77 -19.5 102t-90.5 25h-1188z" />
    <glyph glyph-name="afii10089" unicode="&#x447;" horiz-adv-x="1185" 
d="M35 1454v19h426v-19h-137v-4q11 -11 14.5 -20t3.5 -33v-436q0 -143 45.5 -217t134.5 -74h287v678q0 73 -17.5 89.5t-91.5 16.5h-71v19h522v-23h-72q-74 0 -92 -17t-18 -90v-1218q0 -73 18 -90t92 -17h72v-18h-522v18h71q74 0 91.5 17t17.5 90v510h-303q-151 0 -230 79
t-79 230v402q0 73 -17.5 90.5t-91.5 17.5h-53z" />
    <glyph glyph-name="afii10090" unicode="&#x448;" horiz-adv-x="1875" 
d="M37 0v18h74q71 0 89.5 25t18.5 102v1182q0 77 -18.5 102t-89.5 25h-74v19h506v-19h-56q-71 0 -89.5 -25t-18.5 -102v-1290h481v108v1182q0 77 -19.5 102t-88.5 25h-56v19h488v-19h-56q-71 0 -89.5 -25t-18.5 -102v-1182v-108h481v1290q0 77 -19.5 102t-90.5 25h-54v19
h504v-19h-72q-71 0 -89.5 -25t-18.5 -102v-1182q0 -77 18.5 -102t89.5 -25h72v-18h-1804z" />
    <glyph glyph-name="afii10091" unicode="&#x449;" horiz-adv-x="2002" 
d="M37 0v18h74q71 0 89.5 25t18.5 102v1182q0 77 -18.5 102t-89.5 25h-74v19h483v-19h-33q-71 0 -89.5 -25t-18.5 -102v-1290h459v108v1182q0 77 -19.5 102t-89.5 25h-33v19h445v-19h-35q-71 0 -90 -25t-19 -102v-1182v-108h461v1290q0 77 -19.5 102t-90.5 25h-33v19h483
v-19h-72q-71 0 -89.5 -25t-18.5 -102v-1163q0 -77 18.5 -102t89.5 -25h226v-340h-56v176q0 77 -19.5 102t-90.5 25h-1749z" />
    <glyph glyph-name="afii10092" unicode="&#x44a;" horiz-adv-x="1368" 
d="M41 1098l33 497l18 -1l-8 -140h2q11 11 21.5 15t33.5 4h695v-19h-72q-74 0 -91.5 -17.5t-17.5 -90.5v-588h156q235 0 378.5 -104.5t143.5 -274.5t-143.5 -274.5t-378.5 -104.5h-496v20h72q73 0 91 18t18 91v1307h-86q-78 0 -133 -12.5t-99 -43t-67.5 -85.5t-28.5 -136
l-4 -61h-37zM621 37h151q187 0 285 87.5t98 254.5q0 168 -98 256t-285 88h-117v-578q0 -70 -34 -104v-4z" />
    <glyph glyph-name="afii10093" unicode="&#x44b;" horiz-adv-x="1636" 
d="M37 0v20h72q73 0 90.5 17.5t17.5 91.5v1219q0 73 -17 89.5t-91 16.5h-72v19h522v-19h-72q-73 0 -91.5 -18.5t-18.5 -92.5v-585h155q235 0 379 -104.5t144 -274.5t-144 -274.5t-379 -104.5h-495zM342 37h152q187 0 285 87.5t98 254.5q0 168 -98 256t-285 88h-117v-578
q0 -69 -35 -104v-4zM1079 0v18h72q74 0 91.5 17t17.5 90v1223q0 73 -17.5 89.5t-91.5 16.5h-72v19h523v-23h-72q-74 0 -92.5 -17t-18.5 -90v-1218q0 -73 18.5 -90t92.5 -17h72v-18h-523z" />
    <glyph glyph-name="afii10094" unicode="&#x44c;" horiz-adv-x="1089" 
d="M37 0v20h72q73 0 90.5 17.5t17.5 91.5v1219q0 73 -17 89.5t-91 16.5h-72v19h522v-19h-72q-73 0 -91.5 -18.5t-18.5 -92.5v-585h155q235 0 379 -104.5t144 -274.5t-144 -274.5t-379 -104.5h-495zM342 37h152q187 0 285 87.5t98 254.5q0 168 -98 256t-285 88h-117v-578
q0 -69 -35 -104v-4z" />
    <glyph glyph-name="afii10095" unicode="&#x44d;" horiz-adv-x="1335" 
d="M53 287l35 13q52 -127 179 -203.5t276 -76.5q252 0 389.5 179t148.5 520h-286q-50 0 -84.5 -7t-68.5 -28t-51.5 -67t-17.5 -117v-113h-18v657h18v-71q0 -71 17.5 -116.5t52 -66.5t68.5 -27.5t84 -6.5h286v18q0 332 -132 506t-384 174q-101 0 -193.5 -43t-152.5 -119.5
t-65 -165.5l-7 -189l-36 1l18 592l18 -1l-4 -149q-2 -43 -6 -59l15 -4q8 27 22 41q153 131 375 131q212 0 374.5 -93t251.5 -263t89 -392q0 -225 -89 -397t-252 -266t-376 -94q-168 0 -302 77.5t-192 225.5z" />
    <glyph glyph-name="afii10096" unicode="&#x44e;" horiz-adv-x="2117" 
d="M37 0v18h72q74 0 91 17t17 90v1223q0 73 -17 89.5t-91 16.5h-72v19h522v-23h-72q-74 0 -92 -17t-18 -90v-587h240q4 218 94 384.5t252 257.5t372 91q212 0 374.5 -93.5t251.5 -264.5t89 -394q0 -224 -89 -395t-251.5 -264.5t-374.5 -93.5q-210 0 -372 91t-252 258
t-94 386h-240v-594q0 -73 18 -90t92 -17h72v-18h-522zM795 774q0 -368 140 -561t406 -193q259 0 395 173.5t136 504.5q0 367 -139.5 560.5t-405.5 193.5q-260 0 -396 -173.5t-136 -504.5z" />
    <glyph glyph-name="afii10097" unicode="&#x44f;" horiz-adv-x="1241" 
d="M51 63v162q149 -106 272 -106q167 0 256 136.5t91 389.5q-254 0 -410 107.5t-156 306.5q0 198 156 306t410 108h534v-19h-71q-74 0 -91.5 -17.5t-17.5 -90.5v-1219q0 -73 18 -91t91 -18h71v-18h-487v18h37q74 0 92 18t18 91v518h-157q-1 -298 -120 -479.5t-311 -181.5
q-133 0 -225 79zM283 1059q0 -198 103.5 -287.5t299.5 -89.5h178v645q0 72 35 107v2h-213q-403 0 -403 -377z" />
    <glyph glyph-name="uni0450" unicode="&#x450;" horiz-adv-x="1542" 
d="M63 741q0 222 94 392t266 263t396 93q178 0 327 -76.5t239 -220t90 -324.5v-10q0 -25 -19 -42t-45 -17h-1165v-25q0 -362 154 -558t421 -196q204 0 362 83.5t248 234.5l30 -23q-96 -158 -263 -244.5t-383 -86.5q-214 0 -385 93.5t-269 267t-98 396.5zM247 836l1029 14
q16 0 16 18q0 263 -132 423.5t-349 160.5q-262 0 -406 -157.5t-158 -458.5zM598 1837l25 21q12 9 20 9q12 0 21 -12l241 -284l-18 -17l-240 222z" />
    <glyph glyph-name="afii10071" unicode="&#x451;" horiz-adv-x="1542" 
d="M63 741q0 222 94 392t266 263t396 93q178 0 327 -76.5t239 -220t90 -324.5v-10q0 -25 -19 -42t-45 -17h-1165v-25q0 -362 154 -558t421 -196q204 0 362 83.5t248 234.5l30 -23q-96 -158 -263 -244.5t-383 -86.5q-214 0 -385 93.5t-269 267t-98 396.5zM247 836l1029 14
q16 0 16 18q0 263 -132 423.5t-349 160.5q-262 0 -406 -157.5t-158 -458.5zM500 1720q0 40 24 65t66 25q41 0 66.5 -24t25.5 -66q0 -40 -25 -65t-67 -25q-40 0 -65 24t-25 66zM899 1720q0 40 25 65t67 25q40 0 65 -24t25 -66q0 -40 -24 -65t-66 -25q-41 0 -66.5 24t-25.5 66
z" />
    <glyph glyph-name="afii10099" unicode="&#x452;" horiz-adv-x="1503" 
d="M31 1118l30 475l23 -1l-10 -119h954l-10 117l22 1l31 -473l-37 -2l-6 84q-5 75 -20.5 120t-49.5 71.5t-81 35.5t-125 9h-119v-576q0 -42 -20 -204.5t-25 -176.5h18q0 4 3 23t13.5 57t26.5 78.5t46.5 84.5t69.5 78.5t99.5 56.5t132.5 22q152 0 238 -80.5t86 -229.5v-479
q0 -155 -94 -249.5t-248 -94.5q-25 0 -53 4.5t-44.5 9t-39.5 11.5t-27 8l14 41q63 -18 82 -23.5t41.5 -9.5t42.5 -4q84 0 125 58.5t41 160.5v551q0 143 -45.5 217t-134.5 74q-155 0 -251.5 -134.5t-96.5 -347.5v-235q0 -74 17.5 -91.5t90.5 -17.5h70v-18h-602v18h156
q73 0 90.5 17.5t17.5 91.5v1309h-123q-153 0 -211 -46t-65 -190l-6 -84z" />
    <glyph glyph-name="afii10100" unicode="&#x453;" horiz-adv-x="954" 
d="M37 0v18h72q73 0 90.5 17.5t17.5 91.5v1219q0 74 -17.5 91t-90.5 17h-72v19h770q23 0 33.5 -4t21.5 -15h2l-8 140l18 1l39 -600h-36l-9 144q-4 80 -34.5 139t-81.5 93t-114 49.5t-140 15.5h-166v-2q45 -45 45 -107v-1200q0 -73 18 -91t92 -18h134v-18h-584zM410 1567
l241 284q8 11 21 11q8 0 20 -9l25 -20l-49 -61l-240 -222z" />
    <glyph glyph-name="afii10101" unicode="&#x454;" horiz-adv-x="1335" 
d="M72 741q0 222 88.5 392t251 263t374.5 93q222 0 375 -131q16 -16 23 -41l14 4q-4 16 -6 59l-4 149l18 1l19 -592l-37 -1l-6 189q-5 89 -65 165.5t-153 119.5t-194 43q-252 0 -384 -174t-132 -506v-18h287q40 0 68 3.5t59 16.5t50 35.5t31.5 63.5t12.5 98v71h18v-657h-18
v113q0 57 -12.5 98t-31.5 64t-50 36.5t-59.5 17t-67.5 3.5h-286q11 -341 148.5 -520t389.5 -179q149 0 276 76.5t179 203.5l34 -13q-58 -148 -192 -225.5t-302 -77.5q-213 0 -375.5 94t-251.5 266t-89 397z" />
    <glyph glyph-name="afii10102" unicode="&#x455;" horiz-adv-x="978" 
d="M57 502l37 2l4 -84q9 -178 115 -288.5t255 -110.5q142 0 224 80.5t82 228.5q0 60 -23 112t-62 91.5t-89.5 76t-106.5 70t-112 68.5t-106.5 76.5t-89.5 88t-62 109t-23 135.5q0 149 111 240.5t293 91.5q151 0 272 -90q9 -7 20 -23.5t13 -23.5l14 4q-5 16 -8 65l-6 109h20
l23 -483l-37 -2l-4 86q-3 63 -23 119t-56.5 102t-95.5 73t-132 27q-125 0 -192.5 -64.5t-67.5 -185.5q0 -58 23.5 -108t63 -88.5t91 -74.5t108 -70t113 -69.5t108 -78.5t91 -92t63 -115.5t23.5 -143.5q0 -182 -121 -280t-336 -98q-92 0 -167 26.5t-157 83.5q-11 8 -29 31.5
t-22 36.5l-8 -2q5 -17 8 -88l6 -128l-18 -1z" />
    <glyph glyph-name="afii10103" unicode="&#x456;" horiz-adv-x="579" 
d="M37 0v18h72q74 0 91 17t17 90v1223q0 73 -17 89.5t-91 16.5h-72v19h522v-23h-72q-74 0 -92 -17t-18 -90v-1218q0 -73 18 -90t92 -17h72v-18h-522z" />
    <glyph glyph-name="afii10104" unicode="&#x457;" horiz-adv-x="593" 
d="M6 1716q0 40 24 65t66 25q41 0 66.5 -24t25.5 -66q0 -40 -25 -65t-67 -25q-40 0 -65 24t-25 66zM37 0v18h72q74 0 91 17t17 90v1223q0 73 -17 89.5t-91 16.5h-72v19h522v-23h-72q-74 0 -92 -17t-18 -90v-1218q0 -73 18 -90t92 -17h72v-18h-522zM406 1716q0 40 25 65
t67 25q40 0 65 -24t25 -66q0 -40 -24 -65t-66 -25q-41 0 -66.5 24t-25.5 66z" />
    <glyph glyph-name="afii10105" unicode="&#x458;" horiz-adv-x="831" 
d="M49 242h19q0 -99 66.5 -159t176.5 -60q80 0 122 55.5t42 161.5v1157q0 23 3.5 32t15.5 21v4h-283v19h586v-19h-54q-108 0 -108 -108v-1014q0 -154 -91.5 -250t-232.5 -96q-118 0 -190 70.5t-72 185.5z" />
    <glyph glyph-name="afii10106" unicode="&#x459;" horiz-adv-x="1728" 
d="M46 63q62 54 120 128.5t114.5 177.5t90.5 238t35 280v416q0 38 -1.5 61t-8.5 41.5t-15.5 27t-29.5 14t-43 6.5t-62 1h-45v19h176h862v-19h-74q-71 0 -89.5 -25t-18.5 -102v-536h114q235 0 379 -109t144 -287t-144 -286.5t-379 -108.5h-454v20h71q74 0 91.5 18t17.5 91
v1307h-438v-500q0 -196 -26 -370.5t-69.5 -298.5t-94 -210t-104.5 -131zM1022 37h111q187 0 285 91.5t98 266.5q0 176 -98 268.5t-285 92.5h-76v-611q0 -69 -35 -104v-4z" />
    <glyph glyph-name="afii10107" unicode="&#x45a;" horiz-adv-x="1728" 
d="M37 0v18h72q71 0 89.5 25t18.5 102v1182q0 77 -18.5 102t-89.5 25h-72v19h504v-19h-54q-71 0 -90.5 -25t-19.5 -102v-534h520v534q0 77 -20 102t-91 25h-53v19h506v-19h-74q-71 0 -89.5 -25t-18.5 -102v-536h114q235 0 379 -109t144 -287t-144 -286.5t-379 -108.5h-454
v20h71q74 0 91.5 18t17.5 91v627h-520v-611q0 -77 19.5 -102t90.5 -25h54v-18h-504zM1022 37h111q187 0 285 91.5t98 266.5q0 176 -98 268.5t-285 92.5h-76v-611q0 -69 -35 -104v-4z" />
    <glyph glyph-name="afii10108" unicode="&#x45b;" horiz-adv-x="1503" 
d="M31 1118l30 475l23 -1l-10 -119h954l-10 117l22 1l31 -473l-37 -2l-6 84q-5 75 -20.5 120t-49.5 71.5t-81 35.5t-125 9h-119v-576q0 -42 -20 -204.5t-25 -176.5h18q0 4 3 23t13.5 57t26.5 78.5t46.5 84.5t69.5 78.5t99.5 56.5t132.5 22q153 0 240.5 -80.5t87.5 -229.5
v-442q0 -73 17.5 -91t91.5 -18h34v-18h-487v18h199v5q-12 12 -15.5 21t-3.5 32v477q0 143 -45.5 217t-134.5 74q-155 0 -251.5 -134.5t-96.5 -347.5v-235q0 -74 17.5 -91.5t90.5 -17.5h70v-18h-602v18h156q73 0 90.5 17.5t17.5 91.5v1309h-123q-153 0 -211 -46t-65 -190
l-6 -84z" />
    <glyph glyph-name="afii10109" unicode="&#x45c;" horiz-adv-x="1200" 
d="M37 0v18h72q73 0 90.5 20.5t17.5 106.5v1201q0 74 -17.5 91t-90.5 17h-71v19h469v-19h-19q-74 0 -92.5 -17.5t-18.5 -90.5v-461q60 0 90 5.5t43 22.5l324 408q37 47 37 77q0 56 -106 56h-19v19h453v-19h-25q-80 0 -161 -33t-140 -108l-325 -412l2 -8q75 -17 134.5 -50
t98.5 -72.5t67.5 -92t44 -102t27.5 -109.5q8 -40 15 -93.5t11.5 -91.5t12 -81t18 -72t26 -54t40 -37t57.5 -12q45 0 97 41l27 21l11 -14l-26 -21q-85 -76 -166 -76q-32 0 -60 7.5t-49 18.5t-40 32.5t-32 39.5t-25.5 50.5t-20 55t-16.5 63.5t-13.5 64.5t-13 69t-12.5 68.5
q-10 52 -19 91t-24.5 85t-33.5 79.5t-45.5 66t-60.5 53t-78.5 33t-99.5 12.5h-25v-721q0 -86 18.5 -106.5t92.5 -20.5h72v-18h-523zM494 1567l241 284q8 11 21 11q8 0 20 -9l25 -20l-49 -61l-240 -222z" />
    <glyph glyph-name="uni045D" unicode="&#x45d;" 
d="M37 0v18h72q71 0 89.5 25t18.5 102v1182q0 77 -18.5 102t-89.5 25h-72v19h504v-19h-54q-71 0 -90.5 -25t-19.5 -102v-1188l581 1334h322v-19h-74q-71 0 -89.5 -25t-18.5 -102v-1182q0 -77 18.5 -102t89.5 -25h74v-18h-506v18h55q71 0 90 25t19 102v1188l-582 -1333h-319z
M496 1837l24 21q12 9 21 9q11 0 20 -12l242 -284l-19 -17l-239 222z" />
    <glyph glyph-name="afii10110" unicode="&#x45e;" horiz-adv-x="1142" 
d="M27 1454v19h395v-19h-146v-4q31 -11 68 -96l295 -672q14 -34 14 -86v-4l15 4l286 731q15 41 15 63q0 64 -101 64h-94v19h352v-17h-12q-48 0 -67.5 -23t-45.5 -89q-4 -11 -6 -17l-432 -1094q-48 -122 -121.5 -185.5t-154.5 -63.5q-105 0 -105 163q71 -16 115 -16
q107 0 161.5 41.5t89.5 124.5l16 39q11 27 11 53q0 31 -14 62l-381 876q-34 81 -49 99q-23 28 -74 28h-30zM324 1841l73 6q0 -84 61.5 -144.5t147.5 -60.5t147.5 60.5t61.5 144.5l74 -6q0 -98 -83 -166.5t-200 -68.5t-199.5 68.5t-82.5 166.5z" />
    <glyph glyph-name="afii10193" unicode="&#x45f;" 
d="M37 0v18h74q71 0 89.5 25t18.5 102v1182q0 77 -18.5 102t-89.5 25h-74v19h506v-19h-56q-71 0 -89.5 -25t-18.5 -102v-1290h561v1290q0 77 -20 102t-91 25h-53v19h504v-19h-72q-71 0 -89.5 -25t-18.5 -102v-1182q0 -77 18.5 -102t89.5 -25h72v-18h-340h-256v-303h-55v303
h-250h-342z" />
    <glyph glyph-name="afii10146" unicode="&#x462;" horiz-adv-x="1228" 
d="M35 905v258h362v185q0 73 -17 89.5t-91 16.5h-72v19h522v-19h-71q-74 0 -92.5 -19t-18.5 -92v-180h408v-258h-56v94q0 77 -19.5 102t-90.5 25h-242v-368h115q235 0 378.5 -104.5t143.5 -274.5t-143.5 -274.5t-378.5 -104.5h-455v20h72q73 0 90.5 17.5t17.5 91.5v997h-196
q-71 0 -91 -25t-20 -102v-94h-55zM522 37h111q187 0 285 87.5t98 254.5q0 168 -98 256t-285 88h-76v-578q0 -69 -35 -104v-4z" />
    <glyph glyph-name="afii10194" unicode="&#x463;" horiz-adv-x="1228" 
d="M35 905v258h362v185q0 73 -17 89.5t-91 16.5h-72v19h522v-19h-71q-74 0 -92.5 -19t-18.5 -92v-180h408v-258h-56v94q0 77 -19.5 102t-90.5 25h-242v-368h115q235 0 378.5 -104.5t143.5 -274.5t-143.5 -274.5t-378.5 -104.5h-455v20h72q73 0 90.5 17.5t17.5 91.5v997h-196
q-71 0 -91 -25t-20 -102v-94h-55zM522 37h111q187 0 285 87.5t98 254.5q0 168 -98 256t-285 88h-76v-578q0 -69 -35 -104v-4z" />
    <glyph glyph-name="uni0464" unicode="&#x464;" horiz-adv-x="1880" 
d="M37 0v18h72q74 0 91 17t17 90v1223q0 73 -17 89.5t-91 16.5h-72v19h522v-23h-72q-74 0 -92 -17t-18 -90v-587h240q5 331 200.5 532t513.5 201q222 0 375 -131q16 -16 23 -41l14 4q-4 16 -6 59l-4 149l18 1l18 -592l-36 -1l-7 189q-5 89 -65 165.5t-152.5 119.5t-193.5 43
q-252 0 -384 -174t-132 -506v-18h286q50 0 84 6.5t68.5 27.5t52 66.5t17.5 116.5v71h18v-657h-18v113q0 71 -17.5 117t-51.5 67t-68.5 28t-84.5 7h-285q11 -341 148 -520t389 -179q149 0 276 76.5t179 203.5l35 -13q-58 -148 -192 -225.5t-302 -77.5q-317 0 -513 201.5
t-203 533.5h-240v-594q0 -73 18 -90t92 -17h72v-18h-522z" />
    <glyph glyph-name="uni0465" unicode="&#x465;" horiz-adv-x="1880" 
d="M37 0v18h72q74 0 91 17t17 90v1223q0 73 -17 89.5t-91 16.5h-72v19h522v-23h-72q-74 0 -92 -17t-18 -90v-587h240q5 331 200.5 532t513.5 201q222 0 375 -131q16 -16 23 -41l14 4q-4 16 -6 59l-4 149l18 1l18 -592l-36 -1l-7 189q-5 89 -65 165.5t-152.5 119.5t-193.5 43
q-252 0 -384 -174t-132 -506v-18h286q50 0 84 6.5t68.5 27.5t52 66.5t17.5 116.5v71h18v-657h-18v113q0 71 -17.5 117t-51.5 67t-68.5 28t-84.5 7h-285q11 -341 148 -520t389 -179q149 0 276 76.5t179 203.5l35 -13q-58 -148 -192 -225.5t-302 -77.5q-317 0 -513 201.5
t-203 533.5h-240v-594q0 -73 18 -90t92 -17h72v-18h-522z" />
    <glyph glyph-name="afii10147" unicode="&#x472;" horiz-adv-x="1642" 
d="M63 737q0 338 209 545t551 207q340 0 548 -207t208 -545q0 -224 -94 -395t-266 -264.5t-396 -93.5q-342 0 -551 207t-209 546zM242 774q0 -88 9 -168l42 88q26 58 87.5 99t123.5 41q114 0 241 -28t234 -55.5t172 -27.5q160 0 237 174q-38 272 -183.5 413.5t-389.5 141.5
q-280 0 -426.5 -173.5t-146.5 -504.5zM260 539q44 -254 188.5 -386.5t380.5 -132.5q278 0 425 173.5t147 504.5q0 57 -5 120l-36 -89q-26 -68 -91 -109.5t-128 -41.5q-120 0 -251 32t-238.5 63.5t-172.5 31.5q-146 0 -219 -166z" />
    <glyph glyph-name="afii10195" unicode="&#x473;" horiz-adv-x="1642" 
d="M63 737q0 338 209 545t551 207q340 0 548 -207t208 -545q0 -224 -94 -395t-266 -264.5t-396 -93.5q-342 0 -551 207t-209 546zM242 774q0 -88 9 -168l42 88q26 58 87.5 99t123.5 41q114 0 241 -28t234 -55.5t172 -27.5q160 0 237 174q-38 272 -183.5 413.5t-389.5 141.5
q-280 0 -426.5 -173.5t-146.5 -504.5zM260 539q44 -254 188.5 -386.5t380.5 -132.5q278 0 425 173.5t147 504.5q0 57 -5 120l-36 -89q-26 -68 -91 -109.5t-128 -41.5q-120 0 -251 32t-238.5 63.5t-172.5 31.5q-146 0 -219 -166z" />
    <glyph glyph-name="afii10050" unicode="&#x490;" horiz-adv-x="954" 
d="M37 0v18h72q73 0 90.5 17.5t17.5 91.5v1219q0 74 -17.5 91t-90.5 17h-72v19h461q77 0 140 15.5t114 49t81.5 92.5t34.5 139l9 144h36l-39 -600l-18 1l8 140h-2q-11 -11 -21 -14.5t-34 -3.5h-475v-2q45 -45 45 -107v-1200q0 -73 18 -91t92 -18h134v-18h-584z" />
    <glyph glyph-name="afii10098" unicode="&#x491;" horiz-adv-x="954" 
d="M37 0v18h72q73 0 90.5 17.5t17.5 91.5v1219q0 74 -17.5 91t-90.5 17h-72v19h461q77 0 140 15.5t114 49t81.5 92.5t34.5 139l9 144h36l-39 -600l-18 1l8 140h-2q-11 -11 -21 -14.5t-34 -3.5h-475v-2q45 -45 45 -107v-1200q0 -73 18 -91t92 -18h134v-18h-584z" />
    <glyph glyph-name="uni04C0" unicode="&#x4c0;" horiz-adv-x="593" 
d="M37 0v18h72q74 0 91 17t17 90v1223q0 73 -17 89.5t-91 16.5h-72v19h522v-23h-72q-74 0 -92 -17t-18 -90v-1218q0 -73 18 -90t92 -17h72v-18h-522z" />
    <glyph glyph-name="uni04C1" unicode="&#x4c1;" horiz-adv-x="1783" 
d="M-37 74l12 14l26 -21q52 -41 98 -41q33 0 57.5 12t40 37t26 54t17.5 72t11.5 81.5t11.5 91.5t15 93q12 60 27.5 109.5t44.5 102t68 92t98.5 72.5t134.5 50l2 8l-326 412q-59 75 -140 108t-161 33h-25v19h453v-19h-18q-107 0 -107 -56q0 -30 37 -77l324 -408
q22 -28 122 -28v461q-1 73 -18.5 90.5t-90.5 17.5h-20v19h418v-19h-19q-74 0 -92 -17.5t-18 -90.5v-461q58 0 83 5.5t39 22.5l324 408q37 47 37 77q0 56 -107 56h-18v19h453v-19h-25q-80 0 -161 -33t-140 -108l-326 -412l2 -8q75 -17 134.5 -50t98.5 -72.5t68 -92t44.5 -102
t27.5 -109.5q8 -40 15 -93t11.5 -91.5t11.5 -81.5t17.5 -72t26 -54t40 -37t57.5 -12q46 0 98 41l26 21l12 -14l-26 -21q-85 -76 -167 -76q-32 0 -60 7.5t-49 18.5t-40 32.5t-32 39.5t-25.5 50.5t-20 55t-16.5 63.5t-13.5 64.5t-13 69t-12.5 68.5q-12 62 -23 106.5t-30 96.5
t-45 88t-62 67t-86.5 46.5t-113.5 15.5h-14v-721q0 -86 18 -106.5t92 -20.5h72v-18h-523v18h72q73 0 90.5 20.5t18.5 106.5v721h-14q-63 0 -113.5 -15.5t-86.5 -46.5t-62 -67t-45 -88t-30 -96.5t-23 -106.5q-4 -22 -12.5 -68.5t-13 -69.5t-13.5 -64t-16.5 -63t-20.5 -55
t-26 -51t-31.5 -39.5t-40 -32.5t-49.5 -18.5t-60 -7.5q-81 0 -166 76zM608 1841l74 6q0 -84 61.5 -144.5t147.5 -60.5t147.5 60.5t61.5 144.5l74 -6q0 -98 -83 -166.5t-200 -68.5t-200 68.5t-83 166.5z" />
    <glyph glyph-name="uni04C2" unicode="&#x4c2;" horiz-adv-x="1783" 
d="M-37 74l12 14l26 -21q52 -41 98 -41q33 0 57.5 12t40 37t26 54t17.5 72t11.5 81.5t11.5 91.5t15 93q12 60 27.5 109.5t44.5 102t68 92t98.5 72.5t134.5 50l2 8l-326 412q-59 75 -140 108t-161 33h-25v19h453v-19h-18q-107 0 -107 -56q0 -30 37 -77l324 -408
q22 -28 122 -28v461q-1 73 -18.5 90.5t-90.5 17.5h-20v19h418v-19h-19q-74 0 -92 -17.5t-18 -90.5v-461q58 0 83 5.5t39 22.5l324 408q37 47 37 77q0 56 -107 56h-18v19h453v-19h-25q-80 0 -161 -33t-140 -108l-326 -412l2 -8q75 -17 134.5 -50t98.5 -72.5t68 -92t44.5 -102
t27.5 -109.5q8 -40 15 -93t11.5 -91.5t11.5 -81.5t17.5 -72t26 -54t40 -37t57.5 -12q46 0 98 41l26 21l12 -14l-26 -21q-85 -76 -167 -76q-32 0 -60 7.5t-49 18.5t-40 32.5t-32 39.5t-25.5 50.5t-20 55t-16.5 63.5t-13.5 64.5t-13 69t-12.5 68.5q-12 62 -23 106.5t-30 96.5
t-45 88t-62 67t-86.5 46.5t-113.5 15.5h-14v-721q0 -86 18 -106.5t92 -20.5h72v-18h-523v18h72q73 0 90.5 20.5t18.5 106.5v721h-14q-63 0 -113.5 -15.5t-86.5 -46.5t-62 -67t-45 -88t-30 -96.5t-23 -106.5q-4 -22 -12.5 -68.5t-13 -69.5t-13.5 -64t-16.5 -63t-20.5 -55
t-26 -51t-31.5 -39.5t-40 -32.5t-49.5 -18.5t-60 -7.5q-81 0 -166 76zM608 1841l74 6q0 -84 61.5 -144.5t147.5 -60.5t147.5 60.5t61.5 144.5l74 -6q0 -98 -83 -166.5t-200 -68.5t-200 68.5t-83 166.5z" />
    <glyph glyph-name="uni04D0" unicode="&#x4d0;" horiz-adv-x="1552" 
d="M16 0v18h33q35 0 60 32t53 95l575 1328h158v-25q0 -74 18 -119l484 -1184q34 -82 46 -98q24 -29 75 -29h16v-18h-391v18h157v5q-29 10 -63 96l-114 280h-811l-111 -254q-11 -27 -11 -46q0 -36 27 -58.5t72 -22.5h100v-18h-373zM328 436h780l-348 854q-17 40 -17 82h-18
q0 -22 -25 -82zM516 1839l37 19q123 -183 246 -183q128 0 254 183l28 -19q-47 -105 -122 -171t-160 -66q-158 0 -283 237z" />
    <glyph glyph-name="uni04D1" unicode="&#x4d1;" horiz-adv-x="1103" 
d="M51 319q0 192 151 309t398 117h160v439q0 132 -62 200t-180 68q-147 0 -229 -77t-88 -201l-6 -127h-37l22 483h21l-6 -109q-3 -44 -9 -65l15 -4q2 7 12.5 23.5t19.5 23.5q121 90 283 90q199 0 303.5 -85t104.5 -247v-1012q0 -64 11.5 -84t55.5 -20q5 0 19 1t22 1l35 2
l1 -18q-128 -13 -226 -45v16q0 50 -19 168t-20 149h-21q-43 -174 -133.5 -252.5t-210.5 -78.5q-168 0 -277.5 92.5t-109.5 242.5zM229 319q0 -126 64.5 -203t169.5 -77q55 0 107 26t95 75.5t69 133.5t26 189v246h-150q-172 0 -276.5 -107.5t-104.5 -282.5zM238 1839l36 19
q123 -183 246 -183q128 0 254 183l29 -19q-47 -105 -122.5 -171t-160.5 -66q-157 0 -282 237z" />
    <glyph glyph-name="uni04D2" unicode="&#x4d2;" horiz-adv-x="1552" 
d="M16 0v18h33q35 0 60 32t53 95l575 1328h158v-25q0 -74 18 -119l484 -1184q34 -82 46 -98q24 -29 75 -29h16v-18h-391v18h157v5q-29 10 -63 96l-114 280h-811l-111 -254q-11 -27 -11 -46q0 -36 27 -58.5t72 -22.5h100v-18h-373zM328 436h780l-348 854q-17 40 -17 82h-18
q0 -22 -25 -82zM508 1716q0 40 24 65t66 25q41 0 66.5 -24t25.5 -66q0 -40 -25 -65t-67 -25q-40 0 -65 24t-25 66zM907 1716q0 40 25 65t67 25q41 0 66 -24t25 -66q0 -40 -24.5 -65t-66.5 -25q-41 0 -66.5 24t-25.5 66z" />
    <glyph glyph-name="uni04D3" unicode="&#x4d3;" horiz-adv-x="1103" 
d="M51 319q0 192 151 309t398 117h160v439q0 132 -62 200t-180 68q-147 0 -229 -77t-88 -201l-6 -127h-37l22 483h21l-6 -109q-3 -44 -9 -65l15 -4q2 7 12.5 23.5t19.5 23.5q121 90 283 90q199 0 303.5 -85t104.5 -247v-1012q0 -64 11.5 -84t55.5 -20q5 0 19 1t22 1l35 2
l1 -18q-128 -13 -226 -45v16q0 50 -19 168t-20 149h-21q-43 -174 -133.5 -252.5t-210.5 -78.5q-168 0 -277.5 92.5t-109.5 242.5zM229 319q0 -126 64.5 -203t169.5 -77q55 0 107 26t95 75.5t69 133.5t26 189v246h-150q-172 0 -276.5 -107.5t-104.5 -282.5zM229 1716
q0 40 24 65t66 25q41 0 67 -24t26 -66q0 -40 -25.5 -65t-67.5 -25q-40 0 -65 24t-25 66zM629 1716q0 40 25 65t67 25q40 0 65 -24t25 -66q0 -40 -24 -65t-66 -25q-41 0 -66.5 24t-25.5 66z" />
    <glyph glyph-name="uni04D4" unicode="&#x4d4;" horiz-adv-x="1857" 
d="M16 0v18h33q35 0 61.5 33t51.5 94l509 1219q14 33 14 53q0 31 -32 31v25h928q57 0 76 -19h2l-6 95l18 1l37 -555h-37l-8 144q-9 161 -85.5 229t-229.5 68h-289v-2q45 -45 45 -107v-536h82q40 0 68 3.5t59 16.5t50 35.5t31.5 63.5t12.5 98v71h18v-657h-18v113
q0 57 -12.5 98t-31.5 64t-50 36.5t-59.5 17t-67.5 3.5h-82v-609q0 -61 -45 -106v-2h407q149 0 222 64.5t84 211.5l12 164h33l-35 -555l-19 1l6 95h-2q-18 -18 -75 -18h-928v18h72q73 0 90.5 17.5t17.5 91.5v436h-569l-174 -418q-11 -27 -11 -46q0 -36 27 -58.5t72 -22.5h100
v-18h-373zM391 600h553v848h-147q-52 0 -86 -82z" />
    <glyph glyph-name="uni04D5" unicode="&#x4d5;" horiz-adv-x="2238" 
d="M51 360q0 213 151.5 344.5t397.5 131.5h160v348q0 132 -62 201t-180 69q-147 0 -229 -77.5t-88 -202.5l-6 -127h-37l22 483h21l-6 -109q-3 -44 -9 -65l15 -4q2 7 12.5 23.5t19.5 23.5q121 90 283 90q174 0 277 -68.5t122 -198.5q99 128 253.5 197.5t347.5 69.5
q133 0 252.5 -45.5t208.5 -125t141.5 -197t52.5 -253.5v-10q0 -25 -19 -42t-45 -17h-1165v-25q0 -362 154.5 -558t421.5 -196q204 0 362 83.5t248 234.5l29 -23q-96 -158 -263 -244.5t-383 -86.5q-251 0 -438 128t-264 351h-12q0 -210 -99.5 -344.5t-259.5 -134.5
q-174 0 -280.5 103.5t-106.5 272.5zM229 360q0 -145 64.5 -233t169.5 -88q55 0 107 26t95 75.5t69 133.5t26 189v336h-150q-171 0 -276 -121.5t-105 -317.5zM943 836l1029 14q17 0 17 18q0 263 -132 423.5t-350 160.5q-262 0 -406 -157.5t-158 -458.5z" />
    <glyph glyph-name="uni04D6" unicode="&#x4d6;" horiz-adv-x="1130" 
d="M37 0v18h72q73 0 90.5 17.5t17.5 91.5v1219q0 74 -17.5 91t-90.5 17h-72v19h817q57 0 76 -19h2l-6 95l18 1l37 -555h-37l-8 144q-9 161 -85.5 229t-229.5 68h-289v-2q45 -45 45 -107v-536h82q40 0 68 3.5t59 16.5t50 35.5t31.5 63.5t12.5 98v71h18v-657h-18v113
q0 57 -12.5 98t-31.5 64t-50 36.5t-59.5 17t-67.5 3.5h-82v-609q0 -61 -45 -106v-2h407q149 0 222 64.5t83 211.5l13 164h33l-35 -555l-19 1l6 95h-2q-18 -18 -75 -18h-928zM313 1839l37 19q123 -183 246 -183q128 0 254 183l29 -19q-47 -105 -122.5 -171t-160.5 -66
q-158 0 -283 237z" />
    <glyph glyph-name="uni04D7" unicode="&#x4d7;" horiz-adv-x="1542" 
d="M63 741q0 222 94 392t266 263t396 93q178 0 327 -76.5t239 -220t90 -324.5v-10q0 -25 -19 -42t-45 -17h-1165v-25q0 -362 154 -558t421 -196q204 0 362 83.5t248 234.5l30 -23q-96 -158 -263 -244.5t-383 -86.5q-214 0 -385 93.5t-269 267t-98 396.5zM247 836l1029 14
q16 0 16 18q0 263 -132 423.5t-349 160.5q-262 0 -406 -157.5t-158 -458.5zM537 1931l36 19q123 -183 246 -183q128 0 254 183l29 -19q-47 -105 -122.5 -171t-160.5 -66q-157 0 -282 237z" />
    <glyph glyph-name="uni04D8" unicode="&#x4d8;" horiz-adv-x="1542" 
d="M63 604v10q0 25 19 42.5t45 17.5h1165v24q0 362 -154 558t-421 196q-204 0 -362 -83t-248 -234l-30 22q96 158 263 245t383 87q160 0 298.5 -55t238.5 -153t157.5 -240t57.5 -310q0 -222 -94 -392t-266 -262.5t-396 -92.5q-178 0 -327 76.5t-239 219.5t-90 324zM246 604
q0 -263 132 -423.5t349 -160.5q262 0 406 158t158 459l-1029 -14q-16 0 -16 -19z" />
    <glyph glyph-name="afii10846" unicode="&#x4d9;" horiz-adv-x="1542" 
d="M63 604v10q0 25 19 42.5t45 17.5h1165v24q0 362 -154 558t-421 196q-204 0 -362 -83t-248 -234l-30 22q96 158 263 245t383 87q160 0 298.5 -55t238.5 -153t157.5 -240t57.5 -310q0 -222 -94 -392t-266 -262.5t-396 -92.5q-178 0 -327 76.5t-239 219.5t-90 324zM246 604
q0 -263 132 -423.5t349 -160.5q262 0 406 158t158 459l-1029 -14q-16 0 -16 -19z" />
    <glyph glyph-name="uni04DA" unicode="&#x4da;" horiz-adv-x="1542" 
d="M63 604v10q0 25 19 42.5t45 17.5h1165v24q0 362 -154 558t-421 196q-204 0 -362 -83t-248 -234l-30 22q96 158 263 245t383 87q160 0 298.5 -55t238.5 -153t157.5 -240t57.5 -310q0 -222 -94 -392t-266 -262.5t-396 -92.5q-178 0 -327 76.5t-239 219.5t-90 324zM246 604
q0 -263 132 -423.5t349 -160.5q262 0 406 158t158 459l-1029 -14q-16 0 -16 -19zM459 1720q0 40 24 65t66 25q41 0 66.5 -24t25.5 -66q0 -40 -25 -65t-67 -25q-40 0 -65 24t-25 66zM858 1720q0 40 25 65t67 25q40 0 65 -24t25 -66q0 -40 -24 -65t-66 -25q-41 0 -66.5 24
t-25.5 66z" />
    <glyph glyph-name="uni04DB" unicode="&#x4db;" horiz-adv-x="1542" 
d="M63 604v10q0 25 19 42.5t45 17.5h1165v24q0 362 -154 558t-421 196q-204 0 -362 -83t-248 -234l-30 22q96 158 263 245t383 87q160 0 298.5 -55t238.5 -153t157.5 -240t57.5 -310q0 -222 -94 -392t-266 -262.5t-396 -92.5q-178 0 -327 76.5t-239 219.5t-90 324zM246 604
q0 -263 132 -423.5t349 -160.5q262 0 406 158t158 459l-1029 -14q-16 0 -16 -19zM459 1720q0 40 24 65t66 25q41 0 66.5 -24t25.5 -66q0 -40 -25 -65t-67 -25q-40 0 -65 24t-25 66zM858 1720q0 40 25 65t67 25q40 0 65 -24t25 -66q0 -40 -24 -65t-66 -25q-41 0 -66.5 24
t-25.5 66z" />
    <glyph glyph-name="uni04DC" unicode="&#x4dc;" horiz-adv-x="1783" 
d="M-37 74l12 14l26 -21q52 -41 98 -41q33 0 57.5 12t40 37t26 54t17.5 72t11.5 81.5t11.5 91.5t15 93q12 60 27.5 109.5t44.5 102t68 92t98.5 72.5t134.5 50l2 8l-326 412q-59 75 -140 108t-161 33h-25v19h453v-19h-18q-107 0 -107 -56q0 -30 37 -77l324 -408
q22 -28 122 -28v461q-1 73 -18.5 90.5t-90.5 17.5h-20v19h418v-19h-19q-74 0 -92 -17.5t-18 -90.5v-461q58 0 83 5.5t39 22.5l324 408q37 47 37 77q0 56 -107 56h-18v19h453v-19h-25q-80 0 -161 -33t-140 -108l-326 -412l2 -8q75 -17 134.5 -50t98.5 -72.5t68 -92t44.5 -102
t27.5 -109.5q8 -40 15 -93t11.5 -91.5t11.5 -81.5t17.5 -72t26 -54t40 -37t57.5 -12q46 0 98 41l26 21l12 -14l-26 -21q-85 -76 -167 -76q-32 0 -60 7.5t-49 18.5t-40 32.5t-32 39.5t-25.5 50.5t-20 55t-16.5 63.5t-13.5 64.5t-13 69t-12.5 68.5q-12 62 -23 106.5t-30 96.5
t-45 88t-62 67t-86.5 46.5t-113.5 15.5h-14v-721q0 -86 18 -106.5t92 -20.5h72v-18h-523v18h72q73 0 90.5 20.5t18.5 106.5v721h-14q-63 0 -113.5 -15.5t-86.5 -46.5t-62 -67t-45 -88t-30 -96.5t-23 -106.5q-4 -22 -12.5 -68.5t-13 -69.5t-13.5 -64t-16.5 -63t-20.5 -55
t-26 -51t-31.5 -39.5t-40 -32.5t-49.5 -18.5t-60 -7.5q-81 0 -166 76zM600 1716q0 40 24 65t66 25q41 0 66.5 -24t25.5 -66q0 -40 -25 -65t-67 -25q-40 0 -65 24t-25 66zM999 1716q0 40 25.5 65t67.5 25q40 0 65 -24t25 -66q0 -40 -24 -65t-66 -25q-41 0 -67 24t-26 66z" />
    <glyph glyph-name="uni04DD" unicode="&#x4dd;" horiz-adv-x="1783" 
d="M-37 74l12 14l26 -21q52 -41 98 -41q33 0 57.5 12t40 37t26 54t17.5 72t11.5 81.5t11.5 91.5t15 93q12 60 27.5 109.5t44.5 102t68 92t98.5 72.5t134.5 50l2 8l-326 412q-59 75 -140 108t-161 33h-25v19h453v-19h-18q-107 0 -107 -56q0 -30 37 -77l324 -408
q22 -28 122 -28v461q-1 73 -18.5 90.5t-90.5 17.5h-20v19h418v-19h-19q-74 0 -92 -17.5t-18 -90.5v-461q58 0 83 5.5t39 22.5l324 408q37 47 37 77q0 56 -107 56h-18v19h453v-19h-25q-80 0 -161 -33t-140 -108l-326 -412l2 -8q75 -17 134.5 -50t98.5 -72.5t68 -92t44.5 -102
t27.5 -109.5q8 -40 15 -93t11.5 -91.5t11.5 -81.5t17.5 -72t26 -54t40 -37t57.5 -12q46 0 98 41l26 21l12 -14l-26 -21q-85 -76 -167 -76q-32 0 -60 7.5t-49 18.5t-40 32.5t-32 39.5t-25.5 50.5t-20 55t-16.5 63.5t-13.5 64.5t-13 69t-12.5 68.5q-12 62 -23 106.5t-30 96.5
t-45 88t-62 67t-86.5 46.5t-113.5 15.5h-14v-721q0 -86 18 -106.5t92 -20.5h72v-18h-523v18h72q73 0 90.5 20.5t18.5 106.5v721h-14q-63 0 -113.5 -15.5t-86.5 -46.5t-62 -67t-45 -88t-30 -96.5t-23 -106.5q-4 -22 -12.5 -68.5t-13 -69.5t-13.5 -64t-16.5 -63t-20.5 -55
t-26 -51t-31.5 -39.5t-40 -32.5t-49.5 -18.5t-60 -7.5q-81 0 -166 76zM600 1716q0 40 24 65t66 25q41 0 66.5 -24t25.5 -66q0 -40 -25 -65t-67 -25q-40 0 -65 24t-25 66zM999 1716q0 40 25.5 65t67.5 25q40 0 65 -24t25 -66q0 -40 -24 -65t-66 -25q-41 0 -67 24t-26 66z" />
    <glyph glyph-name="uni04DE" unicode="&#x4de;" horiz-adv-x="983" 
d="M72 133l26 26q67 -67 154.5 -103t165.5 -36q157 0 248.5 98.5t91.5 280.5q0 185 -93 306.5t-233 121.5h-104v37h73q124 0 207.5 93t83.5 227q0 128 -73.5 198t-198.5 70q-69 0 -122 -25t-83.5 -68t-47 -90t-20.5 -100v-67h-34v366h18v-82l6 -2q6 11 19.5 24t25.5 19
q99 58 236 62q174 0 287.5 -83.5t113.5 -217.5q0 -112 -83.5 -214.5t-184.5 -121.5v-2q150 -20 255 -154t105 -297q0 -185 -139 -300t-354 -115q-86 0 -180 38.5t-166 110.5zM141 1720q0 40 24 65t66 25q41 0 67 -24t26 -66q0 -40 -25.5 -65t-67.5 -25q-40 0 -65 24t-25 66z
M541 1720q0 40 25 65t67 25q40 0 65 -24t25 -66q0 -40 -24 -65t-66 -25q-41 0 -66.5 24t-25.5 66z" />
    <glyph glyph-name="uni04DF" unicode="&#x4df;" horiz-adv-x="983" 
d="M72 133l26 26q67 -67 154.5 -103t165.5 -36q157 0 248.5 98.5t91.5 280.5q0 185 -93 306.5t-233 121.5h-104v37h73q124 0 207.5 93t83.5 227q0 128 -73.5 198t-198.5 70q-69 0 -122 -25t-83.5 -68t-47 -90t-20.5 -100v-67h-34v366h18v-82l6 -2q6 11 19.5 24t25.5 19
q99 58 236 62q174 0 287.5 -83.5t113.5 -217.5q0 -112 -83.5 -214.5t-184.5 -121.5v-2q150 -20 255 -154t105 -297q0 -185 -139 -300t-354 -115q-86 0 -180 38.5t-166 110.5zM162 1720q0 40 24 65t66 25q41 0 66.5 -24t25.5 -66q0 -40 -25 -65t-67 -25q-40 0 -65 24t-25 66z
M561 1720q0 40 25 65t67 25q40 0 65 -24t25 -66q0 -40 -24 -65t-66 -25q-41 0 -66.5 24t-25.5 66z" />
    <glyph glyph-name="uni04E2" unicode="&#x4e2;" 
d="M37 0v18h72q71 0 89.5 25t18.5 102v1182q0 77 -18.5 102t-89.5 25h-72v19h504v-19h-54q-71 0 -90.5 -25t-19.5 -102v-1188l581 1334h322v-19h-74q-71 0 -89.5 -25t-18.5 -102v-1182q0 -77 18.5 -102t89.5 -25h74v-18h-506v18h55q71 0 90 25t19 102v1188l-582 -1333h-319z
M408 1696l4 53h559l-4 -53h-559z" />
    <glyph glyph-name="uni04E3" unicode="&#x4e3;" 
d="M37 0v18h72q71 0 89.5 25t18.5 102v1182q0 77 -18.5 102t-89.5 25h-72v19h504v-19h-54q-71 0 -90.5 -25t-19.5 -102v-1188l581 1334h322v-19h-74q-71 0 -89.5 -25t-18.5 -102v-1182q0 -77 18.5 -102t89.5 -25h74v-18h-506v18h55q71 0 90 25t19 102v1188l-582 -1333h-319z
M408 1696l4 53h559l-4 -53h-559z" />
    <glyph glyph-name="uni04E4" unicode="&#x4e4;" 
d="M37 0v18h72q71 0 89.5 25t18.5 102v1182q0 77 -18.5 102t-89.5 25h-72v19h504v-19h-54q-71 0 -90.5 -25t-19.5 -102v-1188l581 1334h322v-19h-74q-71 0 -89.5 -25t-18.5 -102v-1182q0 -77 18.5 -102t89.5 -25h74v-18h-506v18h55q71 0 90 25t19 102v1188l-582 -1333h-319z
M397 1720q0 40 24 65t66 25q41 0 67 -24t26 -66q0 -40 -25.5 -65t-67.5 -25q-40 0 -65 24t-25 66zM797 1720q0 40 25 65t67 25q40 0 65 -24t25 -66q0 -40 -24 -65t-66 -25q-41 0 -66.5 24t-25.5 66z" />
    <glyph glyph-name="uni04E5" unicode="&#x4e5;" 
d="M37 0v18h72q71 0 89.5 25t18.5 102v1182q0 77 -18.5 102t-89.5 25h-72v19h504v-19h-54q-71 0 -90.5 -25t-19.5 -102v-1188l581 1334h322v-19h-74q-71 0 -89.5 -25t-18.5 -102v-1182q0 -77 18.5 -102t89.5 -25h74v-18h-506v18h55q71 0 90 25t19 102v1188l-582 -1333h-319z
M397 1720q0 40 24 65t66 25q41 0 67 -24t26 -66q0 -40 -25.5 -65t-67.5 -25q-40 0 -65 24t-25 66zM797 1720q0 40 25 65t67 25q40 0 65 -24t25 -66q0 -40 -24 -65t-66 -25q-41 0 -66.5 24t-25.5 66z" />
    <glyph glyph-name="uni04E6" unicode="&#x4e6;" horiz-adv-x="1642" 
d="M63 737q0 338 209 545t551 207q340 0 548 -207t208 -545q0 -224 -94 -395t-266 -264.5t-396 -93.5q-342 0 -551 207t-209 546zM242 774q0 -368 150.5 -561t436.5 -193q278 0 425 173.5t147 504.5q0 368 -150 561t-436 193q-280 0 -426.5 -173.5t-146.5 -504.5zM532 1720
q0 40 24.5 65t66.5 25q41 0 66.5 -24t25.5 -66q0 -40 -25 -65t-67 -25q-41 0 -66 24t-25 66zM932 1720q0 40 25 65t67 25q40 0 65 -24t25 -66q0 -40 -24 -65t-66 -25q-41 0 -66.5 24t-25.5 66z" />
    <glyph glyph-name="uni04E7" unicode="&#x4e7;" horiz-adv-x="1642" 
d="M63 737q0 338 209 545t551 207q340 0 548 -207t208 -545q0 -224 -94 -395t-266 -264.5t-396 -93.5q-342 0 -551 207t-209 546zM242 774q0 -368 150.5 -561t436.5 -193q278 0 425 173.5t147 504.5q0 368 -150 561t-436 193q-280 0 -426.5 -173.5t-146.5 -504.5zM532 1720
q0 40 24.5 65t66.5 25q41 0 66.5 -24t25.5 -66q0 -40 -25 -65t-67 -25q-41 0 -66 24t-25 66zM932 1720q0 40 25 65t67 25q40 0 65 -24t25 -66q0 -40 -24 -65t-66 -25q-41 0 -66.5 24t-25.5 66z" />
    <glyph glyph-name="uni04E8" unicode="&#x4e8;" horiz-adv-x="1642" 
d="M63 737q0 338 209 545t551 207q340 0 548 -207t208 -545q0 -224 -94 -395t-266 -264.5t-396 -93.5q-342 0 -551 207t-209 546zM242 756h1158q-12 340 -161.5 518t-423.5 178q-280 0 -426.5 -173.5t-146.5 -504.5v-18zM243 719q11 -341 161 -520t425 -179q278 0 425 173.5
t147 504.5v21h-1158z" />
    <glyph glyph-name="uni04E9" unicode="&#x4e9;" horiz-adv-x="1642" 
d="M63 737q0 338 209 545t551 207q340 0 548 -207t208 -545q0 -224 -94 -395t-266 -264.5t-396 -93.5q-342 0 -551 207t-209 546zM242 756h1158q-12 340 -161.5 518t-423.5 178q-280 0 -426.5 -173.5t-146.5 -504.5v-18zM243 719q11 -341 161 -520t425 -179q278 0 425 173.5
t147 504.5v21h-1158z" />
    <glyph glyph-name="uni04EA" unicode="&#x4ea;" horiz-adv-x="1642" 
d="M63 737q0 338 209 545t551 207q340 0 548 -207t208 -545q0 -224 -94 -395t-266 -264.5t-396 -93.5q-342 0 -551 207t-209 546zM242 756h1158q-12 340 -161.5 518t-423.5 178q-280 0 -426.5 -173.5t-146.5 -504.5v-18zM243 719q11 -341 161 -520t425 -179q278 0 425 173.5
t147 504.5v21h-1158zM532 1720q0 40 24.5 65t66.5 25q41 0 66.5 -24t25.5 -66q0 -40 -25 -65t-67 -25q-41 0 -66 24t-25 66zM932 1720q0 40 25 65t67 25q40 0 65 -24t25 -66q0 -40 -24 -65t-66 -25q-41 0 -66.5 24t-25.5 66z" />
    <glyph glyph-name="uni04EB" unicode="&#x4eb;" horiz-adv-x="1642" 
d="M63 737q0 338 209 545t551 207q340 0 548 -207t208 -545q0 -224 -94 -395t-266 -264.5t-396 -93.5q-342 0 -551 207t-209 546zM242 756h1158q-12 340 -161.5 518t-423.5 178q-280 0 -426.5 -173.5t-146.5 -504.5v-18zM243 719q11 -341 161 -520t425 -179q278 0 425 173.5
t147 504.5v21h-1158zM532 1720q0 40 24.5 65t66.5 25q41 0 66.5 -24t25.5 -66q0 -40 -25 -65t-67 -25q-41 0 -66 24t-25 66zM932 1720q0 40 25 65t67 25q40 0 65 -24t25 -66q0 -40 -24 -65t-66 -25q-41 0 -66.5 24t-25.5 66z" />
    <glyph glyph-name="uni04EC" unicode="&#x4ec;" horiz-adv-x="1335" 
d="M53 287l35 13q52 -127 179 -203.5t276 -76.5q252 0 389.5 179t148.5 520h-286q-50 0 -84.5 -7t-68.5 -28t-51.5 -67t-17.5 -117v-113h-18v657h18v-71q0 -71 17.5 -116.5t52 -66.5t68.5 -27.5t84 -6.5h286v18q0 332 -132 506t-384 174q-101 0 -193.5 -43t-152.5 -119.5
t-65 -165.5l-7 -189l-36 1l18 592l18 -1l-4 -149q-2 -43 -6 -59l15 -4q8 27 22 41q153 131 375 131q212 0 374.5 -93t251.5 -263t89 -392q0 -225 -89 -397t-252 -266t-376 -94q-168 0 -302 77.5t-192 225.5zM266 1716q0 40 24 65t66 25q41 0 67 -24t26 -66q0 -40 -25.5 -65
t-67.5 -25q-40 0 -65 24t-25 66zM666 1716q0 40 25 65t67 25q40 0 65 -24t25 -66q0 -40 -24 -65t-66 -25q-41 0 -66.5 24t-25.5 66z" />
    <glyph glyph-name="uni04ED" unicode="&#x4ed;" horiz-adv-x="1335" 
d="M53 287l35 13q52 -127 179 -203.5t276 -76.5q252 0 389.5 179t148.5 520h-286q-50 0 -84.5 -7t-68.5 -28t-51.5 -67t-17.5 -117v-113h-18v657h18v-71q0 -71 17.5 -116.5t52 -66.5t68.5 -27.5t84 -6.5h286v18q0 332 -132 506t-384 174q-101 0 -193.5 -43t-152.5 -119.5
t-65 -165.5l-7 -189l-36 1l18 592l18 -1l-4 -149q-2 -43 -6 -59l15 -4q8 27 22 41q153 131 375 131q212 0 374.5 -93t251.5 -263t89 -392q0 -225 -89 -397t-252 -266t-376 -94q-168 0 -302 77.5t-192 225.5zM266 1716q0 40 24 65t66 25q41 0 67 -24t26 -66q0 -40 -25.5 -65
t-67.5 -25q-40 0 -65 24t-25 66zM666 1716q0 40 25 65t67 25q40 0 65 -24t25 -66q0 -40 -24 -65t-66 -25q-41 0 -66.5 24t-25.5 66z" />
    <glyph glyph-name="uni04EE" unicode="&#x4ee;" horiz-adv-x="1142" 
d="M27 1454v19h395v-19h-146v-4q31 -11 68 -96l295 -672q14 -34 14 -86v-4l15 4l286 731q15 41 15 63q0 64 -101 64h-94v19h352v-17h-12q-48 0 -67.5 -23t-45.5 -89q-4 -11 -6 -17l-432 -1094q-48 -122 -121.5 -185.5t-154.5 -63.5q-105 0 -105 163q71 -16 115 -16
q107 0 161.5 41.5t89.5 124.5l16 39q11 27 11 53q0 31 -14 62l-381 876q-34 81 -49 99q-23 28 -74 28h-30zM313 1696l4 53h560l-5 -53h-559z" />
    <glyph glyph-name="uni04EF" unicode="&#x4ef;" horiz-adv-x="1142" 
d="M27 1454v19h395v-19h-146v-4q31 -11 68 -96l295 -672q14 -34 14 -86v-4l15 4l286 731q15 41 15 63q0 64 -101 64h-94v19h352v-17h-12q-48 0 -67.5 -23t-45.5 -89q-4 -11 -6 -17l-432 -1094q-48 -122 -121.5 -185.5t-154.5 -63.5q-105 0 -105 163q71 -16 115 -16
q107 0 161.5 41.5t89.5 124.5l16 39q11 27 11 53q0 31 -14 62l-381 876q-34 81 -49 99q-23 28 -74 28h-30zM313 1696l4 53h560l-5 -53h-559z" />
    <glyph glyph-name="uni04F0" unicode="&#x4f0;" horiz-adv-x="1142" 
d="M27 1454v19h395v-19h-146v-4q31 -11 68 -96l295 -672q14 -34 14 -86v-4l15 4l286 731q15 41 15 63q0 64 -101 64h-94v19h352v-17h-12q-48 0 -67.5 -23t-45.5 -89q-4 -11 -6 -17l-432 -1094q-48 -122 -121.5 -185.5t-154.5 -63.5q-105 0 -105 163q71 -16 115 -16
q107 0 161.5 41.5t89.5 124.5l16 39q11 27 11 53q0 31 -14 62l-381 876q-34 81 -49 99q-23 28 -74 28h-30zM303 1720q0 40 24 65t66 25q41 0 66.5 -24t25.5 -66q0 -40 -25 -65t-67 -25q-40 0 -65 24t-25 66zM702 1720q0 40 25.5 65t67.5 25q40 0 65 -24t25 -66
q0 -40 -24 -65t-66 -25q-41 0 -67 24t-26 66z" />
    <glyph glyph-name="uni04F1" unicode="&#x4f1;" horiz-adv-x="1142" 
d="M27 1454v19h395v-19h-146v-4q31 -11 68 -96l295 -672q14 -34 14 -86v-4l15 4l286 731q15 41 15 63q0 64 -101 64h-94v19h352v-17h-12q-48 0 -67.5 -23t-45.5 -89q-4 -11 -6 -17l-432 -1094q-48 -122 -121.5 -185.5t-154.5 -63.5q-105 0 -105 163q71 -16 115 -16
q107 0 161.5 41.5t89.5 124.5l16 39q11 27 11 53q0 31 -14 62l-381 876q-34 81 -49 99q-23 28 -74 28h-30zM303 1720q0 40 24 65t66 25q41 0 66.5 -24t25.5 -66q0 -40 -25 -65t-67 -25q-40 0 -65 24t-25 66zM702 1720q0 40 25.5 65t67.5 25q40 0 65 -24t25 -66
q0 -40 -24 -65t-66 -25q-41 0 -67 24t-26 66z" />
    <glyph glyph-name="uni04F2" unicode="&#x4f2;" horiz-adv-x="1142" 
d="M27 1454v19h395v-19h-146v-4q31 -11 68 -96l295 -672q14 -34 14 -86v-4l15 4l286 731q15 41 15 63q0 64 -101 64h-94v19h352v-17h-12q-48 0 -67.5 -23t-45.5 -89q-4 -11 -6 -17l-432 -1094q-48 -122 -121.5 -185.5t-154.5 -63.5q-105 0 -105 163q71 -16 115 -16
q107 0 161.5 41.5t89.5 124.5l16 39q11 27 11 53q0 31 -14 62l-381 876q-34 81 -49 99q-23 28 -74 28h-30zM340 1634l199 232l45 -41l-35 -41l-191 -168zM668 1634l198 232l45 -41l-34 -41l-191 -168z" />
    <glyph glyph-name="uni04F3" unicode="&#x4f3;" horiz-adv-x="1142" 
d="M27 1454v19h395v-19h-146v-4q31 -11 68 -96l295 -672q14 -34 14 -86v-4l15 4l286 731q15 41 15 63q0 64 -101 64h-94v19h352v-17h-12q-48 0 -67.5 -23t-45.5 -89q-4 -11 -6 -17l-432 -1094q-48 -122 -121.5 -185.5t-154.5 -63.5q-105 0 -105 163q71 -16 115 -16
q107 0 161.5 41.5t89.5 124.5l16 39q11 27 11 53q0 31 -14 62l-381 876q-34 81 -49 99q-23 28 -74 28h-30zM340 1634l199 232l45 -41l-35 -41l-191 -168zM668 1634l198 232l45 -41l-34 -41l-191 -168z" />
    <glyph glyph-name="uni04F4" unicode="&#x4f4;" horiz-adv-x="1185" 
d="M35 1454v19h426v-19h-137v-4q11 -11 14.5 -20t3.5 -33v-436q0 -143 45.5 -217t134.5 -74h287v678q0 73 -17.5 89.5t-91.5 16.5h-71v19h522v-23h-72q-74 0 -92 -17t-18 -90v-1218q0 -73 18 -90t92 -17h72v-18h-522v18h71q74 0 91.5 17t17.5 90v510h-303q-151 0 -230 79
t-79 230v402q0 73 -17.5 90.5t-91.5 17.5h-53zM302 1784q0 40 24 65t66 25q41 0 66.5 -24t25.5 -66q0 -40 -25 -65t-67 -25q-40 0 -65 24t-25 66zM701 1784q0 40 25.5 65t67.5 25q40 0 65 -24t25 -66q0 -40 -24 -65t-66 -25q-41 0 -67 24t-26 66z" />
    <glyph glyph-name="uni04F5" unicode="&#x4f5;" horiz-adv-x="1185" 
d="M35 1454v19h426v-19h-137v-4q11 -11 14.5 -20t3.5 -33v-436q0 -143 45.5 -217t134.5 -74h287v678q0 73 -17.5 89.5t-91.5 16.5h-71v19h522v-23h-72q-74 0 -92 -17t-18 -90v-1218q0 -73 18 -90t92 -17h72v-18h-522v18h71q74 0 91.5 17t17.5 90v510h-303q-151 0 -230 79
t-79 230v402q0 73 -17.5 90.5t-91.5 17.5h-53zM302 1784q0 40 24 65t66 25q41 0 66.5 -24t25.5 -66q0 -40 -25 -65t-67 -25q-40 0 -65 24t-25 66zM701 1784q0 40 25.5 65t67.5 25q40 0 65 -24t25 -66q0 -40 -24 -65t-66 -25q-41 0 -67 24t-26 66z" />
    <glyph glyph-name="uni04F8" unicode="&#x4f8;" horiz-adv-x="1636" 
d="M37 0v20h72q73 0 90.5 17.5t17.5 91.5v1219q0 73 -17 89.5t-91 16.5h-72v19h522v-19h-72q-73 0 -91.5 -18.5t-18.5 -92.5v-585h155q235 0 379 -104.5t144 -274.5t-144 -274.5t-379 -104.5h-495zM342 37h152q187 0 285 87.5t98 254.5q0 168 -98 256t-285 88h-117v-578
q0 -69 -35 -104v-4zM530 1716q0 40 24.5 65t66.5 25q41 0 66.5 -24t25.5 -66q0 -40 -25 -65t-67 -25q-41 0 -66 24t-25 66zM930 1716q0 40 25 65t67 25q40 0 65 -24t25 -66q0 -40 -24 -65t-66 -25q-41 0 -66.5 24t-25.5 66zM1079 0v18h72q74 0 91.5 17t17.5 90v1223
q0 73 -17.5 89.5t-91.5 16.5h-72v19h523v-23h-72q-74 0 -92.5 -17t-18.5 -90v-1218q0 -73 18.5 -90t92.5 -17h72v-18h-523z" />
    <glyph glyph-name="uni04F9" unicode="&#x4f9;" horiz-adv-x="1636" 
d="M37 0v20h72q73 0 90.5 17.5t17.5 91.5v1219q0 73 -17 89.5t-91 16.5h-72v19h522v-19h-72q-73 0 -91.5 -18.5t-18.5 -92.5v-585h155q235 0 379 -104.5t144 -274.5t-144 -274.5t-379 -104.5h-495zM342 37h152q187 0 285 87.5t98 254.5q0 168 -98 256t-285 88h-117v-578
q0 -69 -35 -104v-4zM530 1716q0 40 24.5 65t66.5 25q41 0 66.5 -24t25.5 -66q0 -40 -25 -65t-67 -25q-41 0 -66 24t-25 66zM930 1716q0 40 25 65t67 25q40 0 65 -24t25 -66q0 -40 -24 -65t-66 -25q-41 0 -66.5 24t-25.5 66zM1079 0v18h72q74 0 91.5 17t17.5 90v1223
q0 73 -17.5 89.5t-91.5 16.5h-72v19h523v-23h-72q-74 0 -92.5 -17t-18.5 -90v-1218q0 -73 18.5 -90t92.5 -17h72v-18h-523z" />
    <glyph glyph-name="uni2000" unicode="&#x2000;" horiz-adv-x="975" 
 />
    <glyph glyph-name="uni2001" unicode="&#x2001;" horiz-adv-x="1950" 
 />
    <glyph glyph-name="uni2002" unicode="&#x2002;" horiz-adv-x="975" 
 />
    <glyph glyph-name="uni2003" unicode="&#x2003;" horiz-adv-x="1950" 
 />
    <glyph glyph-name="uni2004" unicode="&#x2004;" horiz-adv-x="650" 
 />
    <glyph glyph-name="uni2005" unicode="&#x2005;" horiz-adv-x="487" 
 />
    <glyph glyph-name="uni2006" unicode="&#x2006;" horiz-adv-x="325" 
 />
    <glyph glyph-name="uni2007" unicode="&#x2007;" horiz-adv-x="325" 
 />
    <glyph glyph-name="uni2008" unicode="&#x2008;" horiz-adv-x="243" 
 />
    <glyph glyph-name="uni2009" unicode="&#x2009;" horiz-adv-x="390" 
 />
    <glyph glyph-name="uni200A" unicode="&#x200a;" horiz-adv-x="108" 
 />
    <glyph glyph-name="uni2010" unicode="&#x2010;" horiz-adv-x="581" 
d="M37 563l8 55h502l-10 -55h-500z" />
    <glyph glyph-name="uni2011" unicode="&#x2011;" horiz-adv-x="581" 
d="M37 563l8 55h502l-10 -55h-500z" />
    <glyph glyph-name="figuredash" unicode="&#x2012;" horiz-adv-x="581" 
d="M37 563l8 55h502l-10 -55h-500z" />
    <glyph glyph-name="endash" unicode="&#x2013;" horiz-adv-x="929" 
d="M37 563v55h858v-55h-858z" />
    <glyph glyph-name="emdash" unicode="&#x2014;" horiz-adv-x="1859" 
d="M37 563v55h1788v-55h-1788z" />
    <glyph glyph-name="quoteleft" unicode="&#x2018;" horiz-adv-x="399" 
d="M109 1237q0 105 42.5 160.5t122.5 93.5l15 -31q-94 -44 -125 -114q-11 -29 -17 -37l11 -6q16 24 41 24q92 0 92 -90q0 -44 -24 -68t-68 -24q-41 0 -65.5 25.5t-24.5 66.5z" />
    <glyph glyph-name="quoteright" unicode="&#x2019;" horiz-adv-x="399" 
d="M109 1399q0 44 24 68t68 24q41 0 65.5 -25.5t24.5 -66.5q0 -105 -43 -160.5t-123 -93.5l-14 31q94 44 125 114q12 31 16 37l-10 6q-16 -24 -41 -24q-92 0 -92 90z" />
    <glyph glyph-name="quotesinglbase" unicode="&#x201a;" horiz-adv-x="399" 
d="M109 72q0 44 24 68t68 24q41 0 65.5 -25.5t24.5 -66.5q0 -105 -43 -160.5t-123 -93.5l-14 30q94 44 125 115q12 31 16 37l-10 6q-16 -24 -41 -24q-92 0 -92 90z" />
    <glyph glyph-name="quotedblleft" unicode="&#x201c;" horiz-adv-x="712" 
d="M109 1237q0 105 42.5 160.5t122.5 93.5l15 -31q-94 -44 -125 -114q-11 -29 -17 -37l11 -6q16 24 41 24q92 0 92 -90q0 -44 -24 -68t-68 -24q-41 0 -65.5 25.5t-24.5 66.5zM422 1237q0 105 43 160.5t123 93.5l14 -31q-94 -44 -125 -114q-12 -31 -16 -37l10 -6q16 24 41 24
q92 0 92 -90q0 -44 -24 -68t-68 -24q-41 0 -65.5 25.5t-24.5 66.5z" />
    <glyph glyph-name="quotedblright" unicode="&#x201d;" horiz-adv-x="712" 
d="M109 1399q0 44 24 68t68 24q41 0 65.5 -25.5t24.5 -66.5q0 -105 -43 -160.5t-123 -93.5l-14 31q94 44 125 114q12 31 16 37l-10 6q-16 -24 -41 -24q-92 0 -92 90zM422 1399q0 44 24 68t68 24q41 0 65.5 -25.5t24.5 -66.5q0 -105 -43 -160.5t-123 -93.5l-14 31
q94 44 125 114q12 31 16 37l-10 6q-16 -24 -41 -24q-92 0 -92 90z" />
    <glyph glyph-name="quotedblbase" unicode="&#x201e;" horiz-adv-x="712" 
d="M109 72q0 44 24 68t68 24q41 0 65.5 -25.5t24.5 -66.5q0 -105 -43 -160.5t-123 -93.5l-14 30q94 44 125 115q12 31 16 37l-10 6q-16 -24 -41 -24q-92 0 -92 90zM422 72q0 44 24 68t68 24q41 0 65.5 -25.5t24.5 -66.5q0 -105 -43 -160.5t-123 -93.5l-14 30q94 44 125 115
q12 31 16 37l-10 6q-16 -24 -41 -24q-92 0 -92 90z" />
    <glyph glyph-name="bullet" unicode="&#x2022;" horiz-adv-x="507" 
d="M109 737q0 60 42.5 102t102.5 42t102.5 -42t42.5 -102t-42.5 -102.5t-102.5 -42.5t-102.5 42.5t-42.5 102.5z" />
    <glyph glyph-name="ellipsis" unicode="&#x2026;" horiz-adv-x="1161" 
d="M109 72q0 40 25 66t67 26q40 0 65 -25t25 -67q0 -40 -24 -65t-66 -25q-41 0 -66.5 24t-25.5 66zM471 72q0 40 25 66t67 26q40 0 65 -25t25 -67q0 -40 -24 -65t-66 -25q-41 0 -66.5 24t-25.5 66zM836 72q0 40 25 66t67 26q40 0 65 -25t25 -67q0 -40 -24 -65t-66 -25
q-41 0 -66.5 24t-25.5 66z" />
    <glyph glyph-name="uni202F" unicode="&#x202f;" horiz-adv-x="390" 
 />
    <glyph glyph-name="guilsinglleft" unicode="&#x2039;" horiz-adv-x="579" 
d="M66 469v6l370 377l74 -76l-234 -201q-94 -91 -131 -98v-8q37 -7 131 -98l234 -203l-74 -74z" />
    <glyph glyph-name="guilsinglright" unicode="&#x203a;" horiz-adv-x="579" 
d="M72 168l233 203q94 91 131 98v8q-37 7 -131 98l-233 201l73 76l371 -377v-6l-371 -375z" />
    <glyph glyph-name="uni205F" unicode="&#x205f;" horiz-adv-x="487" 
 />
    <glyph glyph-name="Euro" unicode="&#x20ac;" horiz-adv-x="1458" 
d="M55 594l11 55h133q-4 40 -4 92q0 41 3 80h-112l10 56h108q39 280 228.5 446t476.5 166q222 0 375 -131q16 -16 23 -41l14 4q-4 16 -6 59l-4 149l18 1l19 -592l-37 -1l-6 189q-5 89 -65 165.5t-153 119.5t-194 43q-231 0 -362 -147.5t-151 -429.5h626l-11 -56h-617
q0 -7 -0.5 -23t-0.5 -24q0 -72 4 -125h575l-10 -55h-560q32 -281 166.5 -427.5t362.5 -146.5q149 0 276.5 76.5t179.5 203.5l34 -13q-58 -148 -192 -225.5t-302 -77.5q-285 0 -474.5 165t-231.5 445h-150z" />
    <glyph glyph-name="trademark" unicode="&#x2122;" horiz-adv-x="1400" 
d="M37 1405l12 240l19 -3l-7 -114h451l-8 114l16 3l16 -238l-18 -2q-3 59 -16.5 72.5t-71.5 13.5h-98v-494q0 -29 7 -36t36 -7h76v-20h-342v20h92q29 0 36 7t7 36v283v21v190h-94q-59 0 -75.5 -14t-19.5 -72h-18zM506 934v20h76q28 0 35 8t9 39l33 476q0 3 1.5 7.5t1.5 6.5
q0 15 -7.5 18.5t-33.5 3.5h-33v19h155l185 -477q4 -9 17 -21t13 -14h7q0 1 -3.5 8t-5.5 13.5t0 13.5l226 477h176v-19h-51q-27 0 -35 -5.5t-8 -26.5q0 -3 1 -9.5t1 -9.5l30 -458q1 -35 9.5 -42.5t42.5 -7.5h18v-20h-287v20h82q32 0 41.5 6t9.5 25v8l-28 412q0 4 -1 16.5
t-1 16.5h-4q0 -2 -2.5 -7l-6.5 -13t-6 -13l-202 -473h-52l-198 463q-13 26 -13 32h-6v-32l-30 -402q-2 -28 4 -33.5t36 -5.5h50v-20h-246z" />
    <glyph glyph-name="uniE000" unicode="&#xe000;" horiz-adv-x="1474" 
d="M0 0v1475h1475v-1475h-1475z" />
    </font>
</defs>
</svg>
