<svg width="160" height="54" viewBox="0 0 160 54" fill="none" xmlns="http://www.w3.org/2000/svg">
<path fill-rule="evenodd" clip-rule="evenodd" d="M111.842 6.90018V11.8004H112.205H112.568V10.2123V8.62432H113.371H114.174L115.526 10.2068L116.879 11.7892L117.317 11.7948C117.559 11.7978 117.742 11.7616 117.726 11.7143C117.709 11.667 117.062 10.8837 116.289 9.97359C115.515 9.06352 114.87 8.29056 114.856 8.25599C114.841 8.22142 115.423 7.48385 116.149 6.61697C116.875 5.75009 117.469 5.00998 117.469 4.97232C117.469 4.93466 117.293 4.90381 117.077 4.90381H116.686L115.421 6.44465L114.156 7.98539L113.362 7.9873L112.568 7.98911V4.99456V2H112.205H111.842V6.90018ZM91.2205 4.90581C90.2366 5.15427 89.3355 5.94165 88.9589 6.88185C88.7581 7.38321 88.7508 7.50554 88.7213 10.8249L88.6909 14.2505H89.0598H89.4286V12.3322V10.414L89.8167 10.8307C90.0391 11.0695 90.4361 11.3556 90.7468 11.5012C91.2271 11.726 91.3923 11.755 92.1963 11.755C93.0051 11.755 93.1654 11.7265 93.6706 11.4932C95.3687 10.709 96.0497 8.42523 95.1407 6.5637C94.6183 5.49374 93.6487 4.89973 92.3433 4.84973C91.9131 4.8333 91.4079 4.85853 91.2205 4.90581ZM98.5855 4.97931C96.9258 5.52949 95.9979 7.17541 96.3249 8.98884C96.5338 10.1475 97.202 11.0386 98.2199 11.5159C98.6753 11.7294 98.8368 11.7548 99.7281 11.753C100.634 11.7511 100.774 11.7274 101.247 11.4974C101.909 11.175 102.504 10.5809 102.827 9.91951C103.039 9.48739 103.087 9.25617 103.116 8.52269C103.182 6.87332 102.578 5.78739 101.241 5.15272C100.488 4.79501 99.3628 4.7216 98.5855 4.97931ZM106.198 4.93421C104.692 5.36034 103.722 6.92096 103.885 8.65753C104.005 9.94546 104.652 10.9196 105.744 11.4573C106.316 11.7391 106.402 11.755 107.349 11.755C108.453 11.755 108.845 11.6463 109.539 11.1481C110.025 10.7989 110.084 10.6474 109.837 10.3846L109.642 10.1766L109.313 10.4398C108.446 11.1341 107.206 11.3226 106.262 10.9039C105.441 10.54 104.828 9.76025 104.631 8.82849L104.568 8.53358H107.525H110.481V8.27368C110.481 6.93956 109.722 5.66543 108.6 5.11661C108.02 4.83249 106.867 4.74501 106.198 4.93421ZM120.891 4.9069C120.395 5.03122 120.042 5.23258 119.591 5.649L119.193 6.01588V5.4598V4.90381H118.83H118.467V8.35209V11.8004H118.821H119.176L119.209 9.59982C119.241 7.52604 119.255 7.37187 119.455 6.92359C119.691 6.39773 120.22 5.86561 120.713 5.65944C121.485 5.33693 122.665 5.56488 123.205 6.14102C123.678 6.6461 123.73 6.97931 123.73 9.49782V11.8004H124.093H124.456L124.458 10.0535C124.46 8.11234 124.553 7.23911 124.811 6.73739C125.266 5.85209 126.286 5.37741 127.366 5.54819C127.875 5.62859 128.135 5.7676 128.488 6.14791C128.937 6.63221 128.993 7.00554 128.993 9.50254V11.8004H129.401H129.81L129.808 9.78131C129.806 7.47296 129.722 6.71706 129.399 6.07949C128.963 5.21896 127.977 4.75544 126.75 4.83421C125.878 4.89011 125.003 5.31261 124.595 5.87377C124.444 6.08285 124.299 6.25418 124.274 6.25454C124.249 6.25481 124.106 6.06416 123.957 5.83067C123.563 5.21751 122.875 4.88258 121.936 4.84719C121.55 4.83267 121.08 4.85953 120.891 4.9069ZM80.8987 8.35209V11.8004H81.307H81.7154V8.66969V5.53902H83.984H86.2526V8.66969V11.8004H86.6156H86.9785V8.35209V4.90381H83.9386H80.8987V8.35209ZM108.213 5.73113C108.437 5.83022 108.759 6.04192 108.927 6.20154C109.281 6.5373 109.662 7.28657 109.664 7.64882L109.665 7.89837H107.122H104.579L104.638 7.64882C105.041 5.91434 106.66 5.04601 108.213 5.73113ZM93.4437 5.83829C94.3627 6.37695 94.8245 7.30544 94.7615 8.4882C94.6764 10.0849 93.6245 11.1234 92.1056 11.1104C91.011 11.1011 90.2582 10.6294 89.7766 9.65118C89.5186 9.12695 89.4832 8.96588 89.4836 8.31788C89.4844 7.10671 90.0075 6.22867 91.0147 5.74746C91.4093 5.55898 91.5745 5.53412 92.2481 5.56161C92.8941 5.58793 93.0964 5.63485 93.4437 5.83829ZM100.826 5.75635C101.404 6.02523 101.855 6.46951 102.135 7.04583C102.313 7.41044 102.352 7.63639 102.356 8.30672C102.359 9.0235 102.328 9.18712 102.104 9.64419C101.645 10.579 100.802 11.097 99.7281 11.105C98.6807 11.1127 97.8179 10.5948 97.3474 9.67604C97.0041 9.00572 96.9572 7.96461 97.2368 7.22314C97.4872 6.55926 98.1157 5.89837 98.6894 5.69583C99.3247 5.47151 100.272 5.49837 100.826 5.75635ZM29.3187 18.4116C29.2364 18.5448 17.45 45.775 17.402 45.9428C17.3594 46.092 17.5544 46.1015 20.6113 46.1L23.866 46.0985L28.0835 36.345C30.4031 30.9807 32.3232 26.5917 32.3502 26.5917C32.3773 26.5917 34.2597 30.9712 36.5334 36.324L40.6673 46.0563L44.1768 46.08C46.7994 46.0977 47.6863 46.077 47.6863 45.9981C47.6863 45.94 45.003 39.6918 41.7232 32.1133L35.76 18.3339H32.5634C30.8052 18.3339 29.3451 18.3689 29.3187 18.4116ZM50.5902 32.219V46.104L53.6928 46.0801L56.7954 46.0563L63.2229 37.3007C66.758 32.4851 69.7108 28.4848 69.7845 28.411C69.9029 28.2927 69.9187 29.326 69.9187 37.1893V46.1016H73.0947H76.2707V32.2166V18.3315L73.2151 18.3554L70.1595 18.3793L63.6796 27.2269C60.1157 32.093 57.1622 36.088 57.1164 36.1046C57.066 36.1229 57.033 32.6044 57.033 27.2344V18.3339H53.8116H50.5902V32.219ZM81.1709 32.2178V46.1016H92.7408H104.311V49.0508V52H107.305H110.3V46.4192V40.8385H108.303H106.307V29.5862V18.3339H103.086H99.8642V29.5862V40.8385H93.739H87.6137V29.5862V18.3339H84.3923H81.1709V32.2178ZM117.751 32.0395C114.391 39.5789 111.621 45.827 111.595 45.9245C111.55 46.0978 111.621 46.1016 114.862 46.1016H118.174L118.412 45.5345C118.543 45.2226 119.09 43.9056 119.627 42.608L120.603 40.2486L127.006 40.2253L133.408 40.2021L134.623 43.1518L135.838 46.1016H139.222C141.869 46.1016 142.604 46.077 142.603 45.9882C142.602 45.9259 139.834 39.6883 136.452 32.127L130.302 18.3793L127.082 18.3555L123.861 18.3317L117.751 32.0395ZM129.208 30.0652C130.338 32.7993 131.262 35.0758 131.262 35.1242C131.262 35.1799 129.71 35.2123 127.042 35.2123C123.673 35.2123 122.822 35.1889 122.822 35.0961C122.822 34.991 126.833 25.2398 126.963 25.0308C126.993 24.9822 127.048 24.9766 127.086 25.0184C127.124 25.0602 128.079 27.3313 129.208 30.0652Z" fill="black"/>
</svg>
