<svg width="262" height="36" viewBox="0 0 262 36" fill="none" xmlns="http://www.w3.org/2000/svg">
<path d="M38.3145 20.5505V14.4831V8.41576H38.7639H39.2133V12.1236V15.8315L40.1965 15.8292L41.1796 15.8269L42.7459 13.9191L44.3123 12.0113H44.7965C45.0629 12.0113 45.2807 12.0495 45.2807 12.0961C45.2807 12.1427 44.5455 13.0591 43.6468 14.1325C42.7482 15.2058 42.0276 16.1191 42.0457 16.1619C42.0638 16.2047 42.8622 17.1618 43.8201 18.2886C44.7779 19.4155 45.5785 20.3854 45.599 20.444C45.6197 20.5026 45.3922 20.5474 45.0934 20.5437L44.5504 20.5367L42.8757 18.5774L41.201 16.618H40.2072H39.2133V18.5843V20.5505H38.7639H38.3145Z" fill="#222222"/>
<path d="M47.9084 12.9339C48.4677 12.4183 48.9047 12.169 49.5187 12.0151C49.7524 11.9564 50.3346 11.9232 50.8126 11.9411C51.9754 11.985 52.8274 12.3997 53.3144 13.1589C53.4998 13.448 53.6768 13.6841 53.7077 13.6837C53.7386 13.6833 53.9174 13.4711 54.1052 13.2123C54.6092 12.5174 55.6931 11.9943 56.7724 11.9251C58.2923 11.8275 59.5135 12.4015 60.0535 13.467C60.4535 14.2564 60.5569 15.1924 60.5593 18.0506L60.5616 20.5505H60.056H59.5503V17.7054C59.5503 14.6136 59.4807 14.1514 58.9247 13.5517C58.4881 13.0808 58.1663 12.9087 57.536 12.8091C56.1986 12.5977 54.9356 13.1854 54.3718 14.2816C54.0522 14.9028 53.9371 15.984 53.9346 18.3876L53.9324 20.5505H53.483H53.0335V17.6995C53.0335 14.5811 52.9689 14.1685 52.3831 13.5432C51.7149 12.8298 50.2544 12.5475 49.2986 12.9469C48.6878 13.2021 48.0321 13.861 47.7408 14.5121C47.4927 15.0672 47.4752 15.2581 47.4364 17.8258L47.3951 20.5505H46.9559H46.5167V16.2809V12.0113H46.9661H47.4156V12.6997V13.3882L47.9084 12.9339Z" fill="#222222"/>
<path d="M0 20.5505V16.2809V12.0113H3.76404H7.52806V16.2809V20.5505H7.07862H6.62918V16.6742V12.7978H3.82021H1.01123V16.6742V20.5505H0.505616H0Z" fill="#222222"/>
<path fill-rule="evenodd" clip-rule="evenodd" d="M31.3261 12.0489C29.4611 12.5765 28.2604 14.5089 28.4611 16.6591C28.6101 18.2538 29.411 19.46 30.7631 20.1257C31.4719 20.4747 31.5776 20.4944 32.7502 20.4944C34.1172 20.4944 34.603 20.3598 35.4619 19.7429C36.064 19.3105 36.1374 19.1229 35.8318 18.7975L35.5899 18.54L35.1825 18.8659C34.1084 19.7256 32.5736 19.959 31.4044 19.4405C30.3881 18.99 29.6296 18.0245 29.3852 16.8708L29.3079 16.5056H32.9685H36.6291V16.1838C36.6291 14.5319 35.6892 12.9543 34.3001 12.2747C33.5812 11.9229 32.1542 11.8146 31.3261 12.0489ZM34.7046 13.6181C34.4963 13.4205 34.0982 13.1583 33.8201 13.0356C31.8973 12.1873 29.8929 13.2625 29.3934 15.4101L29.3215 15.7191H32.4696H35.6179L35.6167 15.4101C35.6151 14.9616 35.143 14.0338 34.7046 13.6181Z" fill="#222222"/>
<path fill-rule="evenodd" clip-rule="evenodd" d="M21.8998 12.1047C19.8448 12.786 18.6958 14.8239 19.1007 17.0693C19.3594 18.504 20.1868 19.6073 21.4471 20.1983C22.0109 20.4627 22.2109 20.4941 23.3145 20.4919C24.4361 20.4895 24.6101 20.4602 25.1952 20.1754C26.0146 19.7763 26.7515 19.0407 27.1522 18.2217C27.414 17.6866 27.473 17.4003 27.5096 16.4921C27.5916 14.4499 26.8435 13.1053 25.188 12.3195C24.2549 11.8765 22.8623 11.7856 21.8998 12.1047ZM26.2951 14.6635C25.9475 13.9499 25.3891 13.3998 24.6743 13.0669C23.9881 12.7474 22.8151 12.7142 22.0285 12.9919C21.3181 13.2427 20.5398 14.061 20.2298 14.883C19.8836 15.8011 19.9417 17.0902 20.3668 17.9202C20.9494 19.0578 22.0177 19.6991 23.3145 19.6895C24.6447 19.6796 25.6879 19.0383 26.2563 17.8808C26.5342 17.3148 26.5724 17.1122 26.5679 16.2247C26.5637 15.3947 26.5149 15.1149 26.2951 14.6635Z" fill="#222222"/>
<path fill-rule="evenodd" clip-rule="evenodd" d="M12.7804 12.0137C11.5622 12.3214 10.4465 13.2963 9.98019 14.4605C9.73154 15.0812 9.72244 15.2327 9.68593 19.3427L9.64827 23.5842H10.105H10.5618V21.2091V18.8339L11.0422 19.3499C11.3176 19.6456 11.8092 19.9999 12.1939 20.1801C12.7886 20.4585 12.9932 20.4944 13.9887 20.4944C14.9902 20.4944 15.1886 20.4591 15.8142 20.1702C17.9167 19.1992 18.7599 16.3715 17.6344 14.0665C16.9876 12.7417 15.787 12.0062 14.1707 11.9443C13.638 11.9239 13.0124 11.9552 12.7804 12.0137ZM17.1649 16.4494C17.2429 14.9849 16.6712 13.8353 15.5332 13.1683C15.1032 12.9164 14.8526 12.8583 14.0528 12.8257C13.2188 12.7917 13.0142 12.8225 12.5257 13.0559C11.2785 13.6517 10.6309 14.7389 10.6299 16.2385C10.6293 17.0409 10.6731 17.2403 10.9927 17.8894C11.5889 19.1007 12.5211 19.6847 13.8764 19.6963C15.7571 19.7123 17.0595 18.4265 17.1649 16.4494Z" fill="#222222"/>
<path fill-rule="evenodd" clip-rule="evenodd" d="M80.4828 2.08013C80.4005 2.21334 68.614 29.4436 68.5661 29.6113C68.5235 29.7605 68.7185 29.77 71.7754 29.7685L75.0301 29.767L79.2476 20.0135C81.5672 14.6492 83.4873 10.2602 83.5143 10.2602C83.5413 10.2602 85.4237 14.6397 87.6974 19.9925L91.8314 29.7248L95.3409 29.7485C97.9635 29.7662 98.8504 29.7456 98.8504 29.6666C98.8504 29.6085 96.167 23.3603 92.8873 15.7818L86.9241 2.00245H83.7275C81.9693 2.00245 80.5092 2.03739 80.4828 2.08013ZM101.754 15.8875V29.7725L104.857 29.7486L107.959 29.7248L114.387 20.9692C117.922 16.1536 120.875 12.1533 120.949 12.0795C121.067 11.9612 121.083 12.9945 121.083 20.8578V29.7701H124.259H127.435V15.8851V2L124.379 2.02396L121.324 2.04782L114.844 10.8954C111.28 15.7615 108.326 19.7565 108.28 19.7731C108.23 19.7914 108.197 16.273 108.197 10.9029V2.00245H104.976H101.754V15.8875ZM132.335 15.8863V29.7701H143.905H155.475V32.7193V35.6685H158.469H161.464V30.0877V24.507H159.467H157.471V13.2547V2.00245H154.25H151.028V13.2547V24.507H144.903H138.778V13.2547V2.00245H135.556H132.335V15.8863ZM168.915 15.708C165.555 23.2474 162.785 29.4955 162.759 29.593C162.714 29.7663 162.785 29.7701 166.026 29.7701H169.338L169.576 29.203C169.707 28.8911 170.254 27.5741 170.791 26.2765L171.767 23.9171L178.17 23.8938L184.572 23.8706L185.787 26.8203L187.002 29.7701H190.386C193.033 29.7701 193.768 29.7455 193.767 29.6567C193.766 29.5944 190.998 23.3568 187.616 15.7956L181.466 2.04782L178.246 2.02405L175.025 2.00018L168.915 15.708ZM180.372 13.7338C181.502 16.4678 182.426 18.7443 182.426 18.7927C182.426 18.8485 180.874 18.8809 178.206 18.8809C174.837 18.8809 173.987 18.8574 173.987 18.7646C173.987 18.6595 177.997 8.90835 178.127 8.69928C178.157 8.65073 178.212 8.6451 178.25 8.68693C178.288 8.72867 179.243 10.9998 180.372 13.7338Z" fill="#222222"/>
</svg>
